<?xml version="1.0" encoding="UTF-8" standalone="no"?>
<!DOCTYPE svg PUBLIC "-//W3C//DTD SVG 1.1//EN" "http://www.w3.org/Graphics/SVG/1.1/DTD/svg11.dtd">
<svg xmlns:xlink="http://www.w3.org/1999/xlink" version="1.1" viewBox="0 0 675 495" width="675" height="495" xmlns="http://www.w3.org/2000/svg">
  <symbol id="_20" width="45" height="45" overflow="visible">
    <rect width="45" height="45" fill="#eee"/>
  </symbol>
  <symbol id="_20_v1" width="45" height="45" overflow="visible">
    <rect width="45" height="45" fill="#ccc"/>
  </symbol>
  <symbol id="F" width="45" height="45" overflow="visible">
    <line x1="22.5" y1="22.5" x2="-22.5" y2="202.5" stroke="white" stroke-width="10" stroke-linecap="round"/>
    <line x1="22.5" y1="22.5" x2="202.5" y2="67.5" stroke="white" stroke-width="10" stroke-linecap="round"/>
  </symbol>
  <symbol id="F_v1" width="45" height="45" overflow="visible">
    <line x1="22.5" y1="22.5" x2="-22.5" y2="202.5" stroke="hsl(286,65%,60%)" stroke-width="7" stroke-linecap="round"/>
    <line x1="22.5" y1="22.5" x2="202.5" y2="67.5" stroke="hsl(286,65%,60%)" stroke-width="7" stroke-linecap="round"/>
  </symbol>
  <symbol id="F_v2" width="45" height="45" overflow="visible">
    <path d="M 22,9 C 19.79,9 18,10.79 18,13 C 18,13.89 18.29,14.71 18.78,15.38 C 16.83,16.5 15.5,18.59 15.5,21 C 15.5,23.03 16.44,24.84 17.91,26.03 C 14.91,27.09 10.5,31.58 10.5,39.5 L 33.5,39.5 C 33.5,31.58 29.09,27.09 26.09,26.03 C 27.56,24.84 28.5,23.03 28.5,21 C 28.5,18.59 27.17,16.5 25.22,15.38 C 25.71,14.71 26,13.89 26,13 C 26,10.79 24.21,9 22,9 z" fill="#000" stroke="#000" fill-rule="nonzero" stroke-width="1.5" stroke-linecap="round" stroke-linejoin="miter" stroke-miterlimit="4" transform="rotate(180 22 22)"/>
  </symbol>
  <symbol id="F_v3" width="45" height="45" overflow="visible">
    <line x1="22.5" y1="22.5" x2="-22.5" y2="202.5" stroke="white" stroke-width="10" stroke-linecap="round"/>
  </symbol>
  <symbol id="F_v4" width="45" height="45" overflow="visible">
    <line x1="22.5" y1="22.5" x2="-22.5" y2="202.5" stroke="hsl(286,65%,60%)" stroke-width="7" stroke-linecap="round"/>
  </symbol>
  <symbol id="F_v5" width="45" height="45" overflow="visible">
    <line x1="22.5" y1="22.5" x2="202.5" y2="67.5" stroke="white" stroke-width="10" stroke-linecap="round"/>
  </symbol>
  <symbol id="F_v6" width="45" height="45" overflow="visible">
    <line x1="22.5" y1="22.5" x2="202.5" y2="67.5" stroke="hsl(286,65%,60%)" stroke-width="7" stroke-linecap="round"/>
  </symbol>
  <symbol id="G" width="45" height="45" overflow="visible">
    <path d="M0 0 C12.418785 -0.49611126 22.50327343 3.98589392 31.59375 12.30859375 C42.10498885 23.13943108 46.86542677 36.81287523 50.28125 51.19140625 C50.44641113 51.86606934 50.61157227 52.54073242 50.78173828 53.23583984 C58.29587131 85.53806427 55.35158177 127.34843188 38.28125 156.19140625 C32.75952992 164.86839494 24.87814318 171.35264898 15.28125 175.19140625 C2.30579214 177.39628234 -8.59357827 177.8508417 -19.71875 170.19140625 C-37.55813008 156.9466291 -44.18350328 135.30639977 -47.34765625 114.109375 C-48.02291363 108.79971962 -48.48803709 103.54072652 -48.71875 98.19140625 C-48.75274902 97.40427246 -48.78674805 96.61713867 -48.82177734 95.80615234 C-49.72248946 71.43205946 -47.99873948 42.00417684 -33.71875 21.19140625 C-33.20699219 20.43730469 -32.69523438 19.68320312 -32.16796875 18.90625 C-25.84260847 10.19615619 -17.13199484 2.90215506 -6.46875 0.44140625 C-4.31227267 0.29764109 -2.15592788 0.15178228 0 0 Z " fill="#000" transform="translate(677.71875,522.80859375)"/>
  </symbol>
  <use xlink:href="#_20" x="0" y="0"/>
  <use xlink:href="#_20_v1" x="45" y="0"/>
  <use xlink:href="#_20" x="90" y="0"/>
  <use xlink:href="#_20_v1" x="135" y="0"/>
  <use xlink:href="#_20" x="180" y="0"/>
  <use xlink:href="#_20_v1" x="225" y="0"/>
  <use xlink:href="#_20" x="270" y="0"/>
  <use xlink:href="#_20_v1" x="315" y="0"/>
  <use xlink:href="#_20" x="360" y="0"/>
  <use xlink:href="#_20_v1" x="405" y="0"/>
  <use xlink:href="#_20" x="450" y="0"/>
  <use xlink:href="#_20_v1" x="495" y="0"/>
  <use xlink:href="#_20" x="540" y="0"/>
  <use xlink:href="#_20_v1" x="585" y="0"/>
  <use xlink:href="#_20" x="630" y="0"/>
  <use xlink:href="#_20_v1" x="0" y="45"/>
  <use xlink:href="#_20" x="45" y="45"/>
  <use xlink:href="#_20_v1" x="90" y="45"/>
  <use xlink:href="#_20" x="135" y="45"/>
  <use xlink:href="#_20_v1" x="180" y="45"/>
  <use xlink:href="#_20" x="225" y="45"/>
  <use xlink:href="#_20_v1" x="270" y="45"/>
  <use xlink:href="#_20" x="315" y="45"/>
  <use xlink:href="#_20_v1" x="360" y="45"/>
  <use xlink:href="#_20" x="405" y="45"/>
  <use xlink:href="#_20_v1" x="450" y="45"/>
  <use xlink:href="#_20" x="495" y="45"/>
  <use xlink:href="#_20_v1" x="540" y="45"/>
  <use xlink:href="#_20" x="585" y="45"/>
  <use xlink:href="#_20_v1" x="630" y="45"/>
  <use xlink:href="#_20" x="0" y="90"/>
  <use xlink:href="#_20_v1" x="45" y="90"/>
  <use xlink:href="#_20" x="90" y="90"/>
  <use xlink:href="#_20_v1" x="135" y="90"/>
  <use xlink:href="#_20" x="180" y="90"/>
  <use xlink:href="#_20_v1" x="225" y="90"/>
  <use xlink:href="#_20" x="270" y="90"/>
  <use xlink:href="#_20_v1" x="315" y="90"/>
  <use xlink:href="#_20" x="360" y="90"/>
  <use xlink:href="#_20_v1" x="405" y="90"/>
  <use xlink:href="#_20" x="450" y="90"/>
  <use xlink:href="#_20_v1" x="495" y="90"/>
  <use xlink:href="#_20" x="540" y="90"/>
  <use xlink:href="#_20_v1" x="585" y="90"/>
  <use xlink:href="#_20" x="630" y="90"/>
  <use xlink:href="#_20_v1" x="0" y="135"/>
  <use xlink:href="#_20" x="45" y="135"/>
  <use xlink:href="#_20_v1" x="90" y="135"/>
  <use xlink:href="#_20" x="135" y="135"/>
  <use xlink:href="#_20_v1" x="180" y="135"/>
  <use xlink:href="#_20" x="225" y="135"/>
  <use xlink:href="#_20_v1" x="270" y="135"/>
  <use xlink:href="#_20" x="315" y="135"/>
  <use xlink:href="#_20_v1" x="360" y="135"/>
  <use xlink:href="#_20" x="405" y="135"/>
  <use xlink:href="#_20_v1" x="450" y="135"/>
  <use xlink:href="#_20" x="495" y="135"/>
  <use xlink:href="#_20_v1" x="540" y="135"/>
  <use xlink:href="#_20" x="585" y="135"/>
  <use xlink:href="#_20_v1" x="630" y="135"/>
  <use xlink:href="#_20" x="0" y="180"/>
  <use xlink:href="#_20_v1" x="45" y="180"/>
  <use xlink:href="#_20" x="90" y="180"/>
  <use xlink:href="#_20_v1" x="135" y="180"/>
  <use xlink:href="#_20" x="180" y="180"/>
  <use xlink:href="#_20_v1" x="225" y="180"/>
  <use xlink:href="#_20" x="270" y="180"/>
  <use xlink:href="#_20_v1" x="315" y="180"/>
  <use xlink:href="#_20" x="360" y="180"/>
  <use xlink:href="#_20_v1" x="405" y="180"/>
  <use xlink:href="#_20" x="450" y="180"/>
  <use xlink:href="#_20_v1" x="495" y="180"/>
  <use xlink:href="#_20" x="540" y="180"/>
  <use xlink:href="#_20_v1" x="585" y="180"/>
  <use xlink:href="#_20" x="630" y="180"/>
  <use xlink:href="#_20_v1" x="0" y="225"/>
  <use xlink:href="#_20" x="45" y="225"/>
  <use xlink:href="#_20_v1" x="90" y="225"/>
  <use xlink:href="#_20" x="135" y="225"/>
  <use xlink:href="#_20_v1" x="180" y="225"/>
  <use xlink:href="#_20" x="225" y="225"/>
  <use xlink:href="#_20_v1" x="270" y="225"/>
  <use xlink:href="#_20" x="315" y="225"/>
  <use xlink:href="#_20_v1" x="360" y="225"/>
  <use xlink:href="#_20" x="405" y="225"/>
  <use xlink:href="#_20_v1" x="450" y="225"/>
  <use xlink:href="#_20" x="495" y="225"/>
  <use xlink:href="#_20_v1" x="540" y="225"/>
  <use xlink:href="#_20" x="585" y="225"/>
  <use xlink:href="#_20_v1" x="630" y="225"/>
  <use xlink:href="#_20" x="0" y="270"/>
  <use xlink:href="#_20_v1" x="45" y="270"/>
  <use xlink:href="#_20" x="90" y="270"/>
  <use xlink:href="#_20_v1" x="135" y="270"/>
  <use xlink:href="#_20" x="180" y="270"/>
  <use xlink:href="#_20_v1" x="225" y="270"/>
  <use xlink:href="#_20" x="270" y="270"/>
  <use xlink:href="#_20_v1" x="315" y="270"/>
  <use xlink:href="#_20" x="360" y="270"/>
  <use xlink:href="#_20_v1" x="405" y="270"/>
  <use xlink:href="#_20" x="450" y="270"/>
  <use xlink:href="#_20_v1" x="495" y="270"/>
  <use xlink:href="#_20" x="540" y="270"/>
  <use xlink:href="#_20_v1" x="585" y="270"/>
  <use xlink:href="#_20" x="630" y="270"/>
  <use xlink:href="#_20_v1" x="0" y="315"/>
  <use xlink:href="#_20" x="45" y="315"/>
  <use xlink:href="#_20_v1" x="90" y="315"/>
  <use xlink:href="#_20" x="135" y="315"/>
  <use xlink:href="#_20_v1" x="180" y="315"/>
  <use xlink:href="#_20" x="225" y="315"/>
  <use xlink:href="#_20_v1" x="270" y="315"/>
  <use xlink:href="#_20" x="315" y="315"/>
  <use xlink:href="#_20_v1" x="360" y="315"/>
  <use xlink:href="#_20" x="405" y="315"/>
  <use xlink:href="#_20_v1" x="450" y="315"/>
  <use xlink:href="#_20" x="495" y="315"/>
  <use xlink:href="#_20_v1" x="540" y="315"/>
  <use xlink:href="#_20" x="585" y="315"/>
  <use xlink:href="#_20_v1" x="630" y="315"/>
  <use xlink:href="#_20" x="0" y="360"/>
  <use xlink:href="#_20_v1" x="45" y="360"/>
  <use xlink:href="#_20" x="90" y="360"/>
  <use xlink:href="#_20_v1" x="135" y="360"/>
  <use xlink:href="#_20" x="180" y="360"/>
  <use xlink:href="#_20_v1" x="225" y="360"/>
  <use xlink:href="#_20" x="270" y="360"/>
  <use xlink:href="#_20_v1" x="315" y="360"/>
  <use xlink:href="#_20" x="360" y="360"/>
  <use xlink:href="#_20_v1" x="405" y="360"/>
  <use xlink:href="#_20" x="450" y="360"/>
  <use xlink:href="#_20_v1" x="495" y="360"/>
  <use xlink:href="#_20" x="540" y="360"/>
  <use xlink:href="#_20_v1" x="585" y="360"/>
  <use xlink:href="#_20" x="630" y="360"/>
  <use xlink:href="#_20_v1" x="0" y="405"/>
  <use xlink:href="#_20" x="45" y="405"/>
  <use xlink:href="#_20_v1" x="90" y="405"/>
  <use xlink:href="#_20" x="135" y="405"/>
  <use xlink:href="#_20_v1" x="180" y="405"/>
  <use xlink:href="#_20" x="225" y="405"/>
  <use xlink:href="#_20_v1" x="270" y="405"/>
  <use xlink:href="#_20" x="315" y="405"/>
  <use xlink:href="#_20_v1" x="360" y="405"/>
  <use xlink:href="#_20" x="405" y="405"/>
  <use xlink:href="#_20_v1" x="450" y="405"/>
  <use xlink:href="#_20" x="495" y="405"/>
  <use xlink:href="#_20_v1" x="540" y="405"/>
  <use xlink:href="#_20" x="585" y="405"/>
  <use xlink:href="#_20_v1" x="630" y="405"/>
  <use xlink:href="#_20" x="0" y="450"/>
  <use xlink:href="#_20_v1" x="45" y="450"/>
  <use xlink:href="#_20" x="90" y="450"/>
  <use xlink:href="#_20_v1" x="135" y="450"/>
  <use xlink:href="#_20" x="180" y="450"/>
  <use xlink:href="#_20_v1" x="225" y="450"/>
  <use xlink:href="#_20" x="270" y="450"/>
  <use xlink:href="#_20_v1" x="315" y="450"/>
  <use xlink:href="#_20" x="360" y="450"/>
  <use xlink:href="#_20_v1" x="405" y="450"/>
  <use xlink:href="#_20" x="450" y="450"/>
  <use xlink:href="#_20_v1" x="495" y="450"/>
  <use xlink:href="#_20" x="540" y="450"/>
  <use xlink:href="#_20_v1" x="585" y="450"/>
  <use xlink:href="#_20" x="630" y="450"/>
  <use xlink:href="#F" x="270" y="0"/>
  <use xlink:href="#F" x="450" y="45"/>
  <use xlink:href="#F_v3" x="630" y="90"/>
  <use xlink:href="#F" x="45" y="135"/>
  <use xlink:href="#F" x="225" y="180"/>
  <use xlink:href="#F" x="405" y="225"/>
  <use xlink:href="#F_v3" x="585" y="270"/>
  <use xlink:href="#F_v5" x="0" y="315"/>
  <use xlink:href="#F_v5" x="180" y="360"/>
  <use xlink:href="#F_v5" x="360" y="405"/>
  <use xlink:href="#F_v1" x="270" y="0"/>
  <use xlink:href="#F_v1" x="450" y="45"/>
  <use xlink:href="#F_v4" x="630" y="90"/>
  <use xlink:href="#F_v1" x="45" y="135"/>
  <use xlink:href="#F_v1" x="225" y="180"/>
  <use xlink:href="#F_v1" x="405" y="225"/>
  <use xlink:href="#F_v4" x="585" y="270"/>
  <use xlink:href="#F_v6" x="0" y="315"/>
  <use xlink:href="#F_v6" x="180" y="360"/>
  <use xlink:href="#F_v6" x="360" y="405"/>
  <use xlink:href="#F_v2" x="270" y="0"/>
  <use xlink:href="#F_v2" x="450" y="45"/>
  <use xlink:href="#F_v2" x="630" y="90"/>
  <use xlink:href="#F_v2" x="45" y="135"/>
  <use xlink:href="#F_v2" x="225" y="180"/>
  <use xlink:href="#F_v2" x="405" y="225"/>
  <use xlink:href="#F_v2" x="585" y="270"/>
  <use xlink:href="#F_v2" x="0" y="315"/>
  <use xlink:href="#F_v2" x="180" y="360"/>
  <use xlink:href="#F_v2" x="360" y="405"/>
  <use xlink:href="#G" x="540" y="450"/>
</svg>