<?xml version="1.0" encoding="UTF-8" standalone="no"?>
<!DOCTYPE svg PUBLIC "-//W3C//DTD SVG 1.1//EN" "http://www.w3.org/Graphics/SVG/1.1/DTD/svg11.dtd">
<svg xmlns:xlink="http://www.w3.org/1999/xlink" version="1.1" viewBox="0 0 720 585" width="720" height="585" xmlns="http://www.w3.org/2000/svg">
  <symbol id="_20" width="45" height="45" overflow="visible">
    <rect width="45" height="45" fill="#eee"/>
  </symbol>
  <symbol id="_20_v1" width="45" height="45" overflow="visible">
    <rect width="45" height="45" fill="#ccc"/>
  </symbol>
  <symbol id="W" width="45" height="45" overflow="visible">
    <line x1="22.5" y1="22.5" x2="-22.5" y2="67.5" stroke="white" stroke-width="10" stroke-linecap="round"/>
    <line x1="22.5" y1="22.5" x2="67.5" y2="67.5" stroke="white" stroke-width="10" stroke-linecap="round"/>
  </symbol>
  <symbol id="W_v1" width="45" height="45" overflow="visible">
    <line x1="22.5" y1="22.5" x2="-22.5" y2="67.5" stroke="hsl(286,65%,60%)" stroke-width="7" stroke-linecap="round"/>
    <line x1="22.5" y1="22.5" x2="67.5" y2="67.5" stroke="hsl(286,65%,60%)" stroke-width="7" stroke-linecap="round"/>
  </symbol>
  <symbol id="W_v2" width="45" height="45" overflow="visible">
    <g fill-rule="evenodd" stroke-width="1.5" stroke-linecap="round" stroke-linejoin="miter" stroke-miterlimit="4" fill="#000" stroke="#000" transform="rotate(180 22 22)">
      <path d="M 9,39 L 36,39 L 36,36 L 9,36 L 9,39 z" stroke-linecap="butt"/>
      <path d="M 12.5,32 L 14,29.5 L 31,29.5 L 32.5,32 L 12.5,32 z" stroke-linecap="butt"/>
      <path d="M 12,36 L 12,32 L 33,32 L 33,36 L 12,36 z" stroke-linecap="butt"/>
      <path d="M 14,29.5 L 14,16.5 L 31,16.5 L 31,29.5 L 14,29.5 z" stroke-linecap="butt" stroke-linejoin="miter"/>
      <path d="M 14,16.5 L 11,14 L 34,14 L 31,16.5 L 14,16.5 z M 11,14 L 11,9 L 15,9 L 15,11 L 20,11 L 20,9 L 25,9 L 25,11 L 30,11 L 30,9 L 34,9 L 34,14 L 11,14 z " stroke-linecap="butt"/>
      <path d="M 12,35.5 L 33,35.5 L 33,35.5 M 13,31.5 L 32,31.5 M 14,29.5 L 31,29.5 M 14,16.5 L 31,16.5" fill="none" stroke="#fff" stroke-width="1" stroke-linejoin="miter"/>
      <path d="M 11,14 L 34,14" fill="none" stroke="#fff" stroke-width="1" stroke-linejoin="miter"/>
    </g>
  </symbol>
  <symbol id="W_v3" width="45" height="45" overflow="visible">
    <line x1="22.5" y1="22.5" x2="-22.5" y2="67.5" stroke="white" stroke-width="10" stroke-linecap="round"/>
  </symbol>
  <symbol id="W_v4" width="45" height="45" overflow="visible">
    <line x1="22.5" y1="22.5" x2="-22.5" y2="67.5" stroke="hsl(286,65%,60%)" stroke-width="7" stroke-linecap="round"/>
  </symbol>
  <symbol id="W_v5" width="45" height="45" overflow="visible">
    <line x1="22.5" y1="22.5" x2="67.5" y2="67.5" stroke="white" stroke-width="10" stroke-linecap="round"/>
  </symbol>
  <symbol id="W_v6" width="45" height="45" overflow="visible">
    <line x1="22.5" y1="22.5" x2="67.5" y2="67.5" stroke="hsl(286,65%,60%)" stroke-width="7" stroke-linecap="round"/>
  </symbol>
  <symbol id="F" width="45" height="45" overflow="visible">
    <path d="M 22,9 C 19.79,9 18,10.79 18,13 C 18,13.89 18.29,14.71 18.78,15.38 C 16.83,16.5 15.5,18.59 15.5,21 C 15.5,23.03 16.44,24.84 17.91,26.03 C 14.91,27.09 10.5,31.58 10.5,39.5 L 33.5,39.5 C 33.5,31.58 29.09,27.09 26.09,26.03 C 27.56,24.84 28.5,23.03 28.5,21 C 28.5,18.59 27.17,16.5 25.22,15.38 C 25.71,14.71 26,13.89 26,13 C 26,10.79 24.21,9 22,9 z" fill="hsl(286,65%,60%)" stroke="#000" fill-rule="nonzero" stroke-width="1.5" stroke-linecap="round" stroke-linejoin="miter" stroke-miterlimit="4" transform="rotate(180 22 22)"/>
  </symbol>
  <use xlink:href="#_20" x="0" y="0"/>
  <use xlink:href="#_20_v1" x="45" y="0"/>
  <use xlink:href="#_20" x="90" y="0"/>
  <use xlink:href="#_20_v1" x="135" y="0"/>
  <use xlink:href="#_20" x="180" y="0"/>
  <use xlink:href="#_20_v1" x="225" y="0"/>
  <use xlink:href="#_20" x="270" y="0"/>
  <use xlink:href="#_20_v1" x="315" y="0"/>
  <use xlink:href="#_20" x="360" y="0"/>
  <use xlink:href="#_20_v1" x="405" y="0"/>
  <use xlink:href="#_20" x="450" y="0"/>
  <use xlink:href="#_20_v1" x="495" y="0"/>
  <use xlink:href="#_20" x="540" y="0"/>
  <use xlink:href="#_20_v1" x="585" y="0"/>
  <use xlink:href="#_20" x="630" y="0"/>
  <use xlink:href="#_20_v1" x="675" y="0"/>
  <use xlink:href="#_20_v1" x="0" y="45"/>
  <use xlink:href="#_20" x="45" y="45"/>
  <use xlink:href="#_20_v1" x="90" y="45"/>
  <use xlink:href="#_20" x="135" y="45"/>
  <use xlink:href="#_20_v1" x="180" y="45"/>
  <use xlink:href="#_20" x="225" y="45"/>
  <use xlink:href="#_20_v1" x="270" y="45"/>
  <use xlink:href="#_20" x="315" y="45"/>
  <use xlink:href="#_20_v1" x="360" y="45"/>
  <use xlink:href="#_20" x="405" y="45"/>
  <use xlink:href="#_20_v1" x="450" y="45"/>
  <use xlink:href="#_20" x="495" y="45"/>
  <use xlink:href="#_20_v1" x="540" y="45"/>
  <use xlink:href="#_20" x="585" y="45"/>
  <use xlink:href="#_20_v1" x="630" y="45"/>
  <use xlink:href="#_20" x="675" y="45"/>
  <use xlink:href="#_20" x="0" y="90"/>
  <use xlink:href="#_20_v1" x="45" y="90"/>
  <use xlink:href="#_20" x="90" y="90"/>
  <use xlink:href="#_20_v1" x="135" y="90"/>
  <use xlink:href="#_20" x="180" y="90"/>
  <use xlink:href="#_20_v1" x="225" y="90"/>
  <use xlink:href="#_20" x="270" y="90"/>
  <use xlink:href="#_20_v1" x="315" y="90"/>
  <use xlink:href="#_20" x="360" y="90"/>
  <use xlink:href="#_20_v1" x="405" y="90"/>
  <use xlink:href="#_20" x="450" y="90"/>
  <use xlink:href="#_20_v1" x="495" y="90"/>
  <use xlink:href="#_20" x="540" y="90"/>
  <use xlink:href="#_20_v1" x="585" y="90"/>
  <use xlink:href="#_20" x="630" y="90"/>
  <use xlink:href="#_20_v1" x="675" y="90"/>
  <use xlink:href="#_20_v1" x="0" y="135"/>
  <use xlink:href="#_20" x="45" y="135"/>
  <use xlink:href="#_20_v1" x="90" y="135"/>
  <use xlink:href="#_20" x="135" y="135"/>
  <use xlink:href="#_20_v1" x="180" y="135"/>
  <use xlink:href="#_20" x="225" y="135"/>
  <use xlink:href="#_20_v1" x="270" y="135"/>
  <use xlink:href="#_20" x="315" y="135"/>
  <use xlink:href="#_20_v1" x="360" y="135"/>
  <use xlink:href="#_20" x="405" y="135"/>
  <use xlink:href="#_20_v1" x="450" y="135"/>
  <use xlink:href="#_20" x="495" y="135"/>
  <use xlink:href="#_20_v1" x="540" y="135"/>
  <use xlink:href="#_20" x="585" y="135"/>
  <use xlink:href="#_20_v1" x="630" y="135"/>
  <use xlink:href="#_20" x="675" y="135"/>
  <use xlink:href="#_20" x="0" y="180"/>
  <use xlink:href="#_20_v1" x="45" y="180"/>
  <use xlink:href="#_20" x="90" y="180"/>
  <use xlink:href="#_20_v1" x="135" y="180"/>
  <use xlink:href="#_20" x="180" y="180"/>
  <use xlink:href="#_20_v1" x="225" y="180"/>
  <use xlink:href="#_20" x="270" y="180"/>
  <use xlink:href="#_20_v1" x="315" y="180"/>
  <use xlink:href="#_20" x="360" y="180"/>
  <use xlink:href="#_20_v1" x="405" y="180"/>
  <use xlink:href="#_20" x="450" y="180"/>
  <use xlink:href="#_20_v1" x="495" y="180"/>
  <use xlink:href="#_20" x="540" y="180"/>
  <use xlink:href="#_20_v1" x="585" y="180"/>
  <use xlink:href="#_20" x="630" y="180"/>
  <use xlink:href="#_20_v1" x="675" y="180"/>
  <use xlink:href="#_20_v1" x="0" y="225"/>
  <use xlink:href="#_20" x="45" y="225"/>
  <use xlink:href="#_20_v1" x="90" y="225"/>
  <use xlink:href="#_20" x="135" y="225"/>
  <use xlink:href="#_20_v1" x="180" y="225"/>
  <use xlink:href="#_20" x="225" y="225"/>
  <use xlink:href="#_20_v1" x="270" y="225"/>
  <use xlink:href="#_20" x="315" y="225"/>
  <use xlink:href="#_20_v1" x="360" y="225"/>
  <use xlink:href="#_20" x="405" y="225"/>
  <use xlink:href="#_20_v1" x="450" y="225"/>
  <use xlink:href="#_20" x="495" y="225"/>
  <use xlink:href="#_20_v1" x="540" y="225"/>
  <use xlink:href="#_20" x="585" y="225"/>
  <use xlink:href="#_20_v1" x="630" y="225"/>
  <use xlink:href="#_20" x="675" y="225"/>
  <use xlink:href="#_20" x="0" y="270"/>
  <use xlink:href="#_20_v1" x="45" y="270"/>
  <use xlink:href="#_20" x="90" y="270"/>
  <use xlink:href="#_20_v1" x="135" y="270"/>
  <use xlink:href="#_20" x="180" y="270"/>
  <use xlink:href="#_20_v1" x="225" y="270"/>
  <use xlink:href="#_20" x="270" y="270"/>
  <use xlink:href="#_20_v1" x="315" y="270"/>
  <use xlink:href="#_20" x="360" y="270"/>
  <use xlink:href="#_20_v1" x="405" y="270"/>
  <use xlink:href="#_20" x="450" y="270"/>
  <use xlink:href="#_20_v1" x="495" y="270"/>
  <use xlink:href="#_20" x="540" y="270"/>
  <use xlink:href="#_20_v1" x="585" y="270"/>
  <use xlink:href="#_20" x="630" y="270"/>
  <use xlink:href="#_20_v1" x="675" y="270"/>
  <use xlink:href="#_20_v1" x="0" y="315"/>
  <use xlink:href="#_20" x="45" y="315"/>
  <use xlink:href="#_20_v1" x="90" y="315"/>
  <use xlink:href="#_20" x="135" y="315"/>
  <use xlink:href="#_20_v1" x="180" y="315"/>
  <use xlink:href="#_20" x="225" y="315"/>
  <use xlink:href="#_20_v1" x="270" y="315"/>
  <use xlink:href="#_20" x="315" y="315"/>
  <use xlink:href="#_20_v1" x="360" y="315"/>
  <use xlink:href="#_20" x="405" y="315"/>
  <use xlink:href="#_20_v1" x="450" y="315"/>
  <use xlink:href="#_20" x="495" y="315"/>
  <use xlink:href="#_20_v1" x="540" y="315"/>
  <use xlink:href="#_20" x="585" y="315"/>
  <use xlink:href="#_20_v1" x="630" y="315"/>
  <use xlink:href="#_20" x="675" y="315"/>
  <use xlink:href="#_20" x="0" y="360"/>
  <use xlink:href="#_20_v1" x="45" y="360"/>
  <use xlink:href="#_20" x="90" y="360"/>
  <use xlink:href="#_20_v1" x="135" y="360"/>
  <use xlink:href="#_20" x="180" y="360"/>
  <use xlink:href="#_20_v1" x="225" y="360"/>
  <use xlink:href="#_20" x="270" y="360"/>
  <use xlink:href="#_20_v1" x="315" y="360"/>
  <use xlink:href="#_20" x="360" y="360"/>
  <use xlink:href="#_20_v1" x="405" y="360"/>
  <use xlink:href="#_20" x="450" y="360"/>
  <use xlink:href="#_20_v1" x="495" y="360"/>
  <use xlink:href="#_20" x="540" y="360"/>
  <use xlink:href="#_20_v1" x="585" y="360"/>
  <use xlink:href="#_20" x="630" y="360"/>
  <use xlink:href="#_20_v1" x="675" y="360"/>
  <use xlink:href="#_20_v1" x="0" y="405"/>
  <use xlink:href="#_20" x="45" y="405"/>
  <use xlink:href="#_20_v1" x="90" y="405"/>
  <use xlink:href="#_20" x="135" y="405"/>
  <use xlink:href="#_20_v1" x="180" y="405"/>
  <use xlink:href="#_20" x="225" y="405"/>
  <use xlink:href="#_20_v1" x="270" y="405"/>
  <use xlink:href="#_20" x="315" y="405"/>
  <use xlink:href="#_20_v1" x="360" y="405"/>
  <use xlink:href="#_20" x="405" y="405"/>
  <use xlink:href="#_20_v1" x="450" y="405"/>
  <use xlink:href="#_20" x="495" y="405"/>
  <use xlink:href="#_20_v1" x="540" y="405"/>
  <use xlink:href="#_20" x="585" y="405"/>
  <use xlink:href="#_20_v1" x="630" y="405"/>
  <use xlink:href="#_20" x="675" y="405"/>
  <use xlink:href="#_20" x="0" y="450"/>
  <use xlink:href="#_20_v1" x="45" y="450"/>
  <use xlink:href="#_20" x="90" y="450"/>
  <use xlink:href="#_20_v1" x="135" y="450"/>
  <use xlink:href="#_20" x="180" y="450"/>
  <use xlink:href="#_20_v1" x="225" y="450"/>
  <use xlink:href="#_20" x="270" y="450"/>
  <use xlink:href="#_20_v1" x="315" y="450"/>
  <use xlink:href="#_20" x="360" y="450"/>
  <use xlink:href="#_20_v1" x="405" y="450"/>
  <use xlink:href="#_20" x="450" y="450"/>
  <use xlink:href="#_20_v1" x="495" y="450"/>
  <use xlink:href="#_20" x="540" y="450"/>
  <use xlink:href="#_20_v1" x="585" y="450"/>
  <use xlink:href="#_20" x="630" y="450"/>
  <use xlink:href="#_20_v1" x="675" y="450"/>
  <use xlink:href="#_20_v1" x="0" y="495"/>
  <use xlink:href="#_20" x="45" y="495"/>
  <use xlink:href="#_20_v1" x="90" y="495"/>
  <use xlink:href="#_20" x="135" y="495"/>
  <use xlink:href="#_20_v1" x="180" y="495"/>
  <use xlink:href="#_20" x="225" y="495"/>
  <use xlink:href="#_20_v1" x="270" y="495"/>
  <use xlink:href="#_20" x="315" y="495"/>
  <use xlink:href="#_20_v1" x="360" y="495"/>
  <use xlink:href="#_20" x="405" y="495"/>
  <use xlink:href="#_20_v1" x="450" y="495"/>
  <use xlink:href="#_20" x="495" y="495"/>
  <use xlink:href="#_20_v1" x="540" y="495"/>
  <use xlink:href="#_20" x="585" y="495"/>
  <use xlink:href="#_20_v1" x="630" y="495"/>
  <use xlink:href="#_20" x="675" y="495"/>
  <use xlink:href="#_20" x="0" y="540"/>
  <use xlink:href="#_20_v1" x="45" y="540"/>
  <use xlink:href="#_20" x="90" y="540"/>
  <use xlink:href="#_20_v1" x="135" y="540"/>
  <use xlink:href="#_20" x="180" y="540"/>
  <use xlink:href="#_20_v1" x="225" y="540"/>
  <use xlink:href="#_20" x="270" y="540"/>
  <use xlink:href="#_20_v1" x="315" y="540"/>
  <use xlink:href="#_20" x="360" y="540"/>
  <use xlink:href="#_20_v1" x="405" y="540"/>
  <use xlink:href="#_20" x="450" y="540"/>
  <use xlink:href="#_20_v1" x="495" y="540"/>
  <use xlink:href="#_20" x="540" y="540"/>
  <use xlink:href="#_20_v1" x="585" y="540"/>
  <use xlink:href="#_20" x="630" y="540"/>
  <use xlink:href="#_20_v1" x="675" y="540"/>
  <use xlink:href="#W" x="135" y="0"/>
  <use xlink:href="#W" x="405" y="0"/>
  <use xlink:href="#W_v3" x="90" y="45"/>
  <use xlink:href="#W_v5" x="180" y="45"/>
  <use xlink:href="#W_v3" x="360" y="45"/>
  <use xlink:href="#W_v5" x="450" y="45"/>
  <use xlink:href="#W_v3" x="45" y="90"/>
  <use xlink:href="#W_v5" x="225" y="90"/>
  <use xlink:href="#W_v3" x="315" y="90"/>
  <use xlink:href="#W_v5" x="495" y="90"/>
  <use xlink:href="#W_v5" x="0" y="135"/>
  <use xlink:href="#W" x="270" y="135"/>
  <use xlink:href="#W" x="540" y="135"/>
  <use xlink:href="#W_v5" x="45" y="180"/>
  <use xlink:href="#W_v3" x="225" y="180"/>
  <use xlink:href="#W_v5" x="315" y="180"/>
  <use xlink:href="#W_v3" x="495" y="180"/>
  <use xlink:href="#W_v5" x="585" y="180"/>
  <use xlink:href="#W_v5" x="90" y="225"/>
  <use xlink:href="#W_v3" x="180" y="225"/>
  <use xlink:href="#W_v5" x="360" y="225"/>
  <use xlink:href="#W_v3" x="450" y="225"/>
  <use xlink:href="#W_v5" x="630" y="225"/>
  <use xlink:href="#W_v5" x="135" y="270"/>
  <use xlink:href="#W" x="405" y="270"/>
  <use xlink:href="#W_v3" x="675" y="270"/>
  <use xlink:href="#W_v5" x="180" y="315"/>
  <use xlink:href="#W_v3" x="360" y="315"/>
  <use xlink:href="#W_v5" x="450" y="315"/>
  <use xlink:href="#W_v3" x="630" y="315"/>
  <use xlink:href="#W_v5" x="225" y="360"/>
  <use xlink:href="#W_v3" x="315" y="360"/>
  <use xlink:href="#W_v5" x="495" y="360"/>
  <use xlink:href="#W_v3" x="585" y="360"/>
  <use xlink:href="#W_v5" x="270" y="405"/>
  <use xlink:href="#W_v3" x="540" y="405"/>
  <use xlink:href="#W_v5" x="315" y="450"/>
  <use xlink:href="#W_v3" x="495" y="450"/>
  <use xlink:href="#W_v5" x="360" y="495"/>
  <use xlink:href="#W_v3" x="450" y="495"/>
  <use xlink:href="#W_v1" x="135" y="0"/>
  <use xlink:href="#W_v1" x="405" y="0"/>
  <use xlink:href="#W_v4" x="90" y="45"/>
  <use xlink:href="#W_v6" x="180" y="45"/>
  <use xlink:href="#W_v4" x="360" y="45"/>
  <use xlink:href="#W_v6" x="450" y="45"/>
  <use xlink:href="#W_v4" x="45" y="90"/>
  <use xlink:href="#W_v6" x="225" y="90"/>
  <use xlink:href="#W_v4" x="315" y="90"/>
  <use xlink:href="#W_v6" x="495" y="90"/>
  <use xlink:href="#W_v6" x="0" y="135"/>
  <use xlink:href="#W_v1" x="270" y="135"/>
  <use xlink:href="#W_v1" x="540" y="135"/>
  <use xlink:href="#W_v6" x="45" y="180"/>
  <use xlink:href="#W_v4" x="225" y="180"/>
  <use xlink:href="#W_v6" x="315" y="180"/>
  <use xlink:href="#W_v4" x="495" y="180"/>
  <use xlink:href="#W_v6" x="585" y="180"/>
  <use xlink:href="#W_v6" x="90" y="225"/>
  <use xlink:href="#W_v4" x="180" y="225"/>
  <use xlink:href="#W_v6" x="360" y="225"/>
  <use xlink:href="#W_v4" x="450" y="225"/>
  <use xlink:href="#W_v6" x="630" y="225"/>
  <use xlink:href="#W_v6" x="135" y="270"/>
  <use xlink:href="#W_v1" x="405" y="270"/>
  <use xlink:href="#W_v4" x="675" y="270"/>
  <use xlink:href="#W_v6" x="180" y="315"/>
  <use xlink:href="#W_v4" x="360" y="315"/>
  <use xlink:href="#W_v6" x="450" y="315"/>
  <use xlink:href="#W_v4" x="630" y="315"/>
  <use xlink:href="#W_v6" x="225" y="360"/>
  <use xlink:href="#W_v4" x="315" y="360"/>
  <use xlink:href="#W_v6" x="495" y="360"/>
  <use xlink:href="#W_v4" x="585" y="360"/>
  <use xlink:href="#W_v6" x="270" y="405"/>
  <use xlink:href="#W_v4" x="540" y="405"/>
  <use xlink:href="#W_v6" x="315" y="450"/>
  <use xlink:href="#W_v4" x="495" y="450"/>
  <use xlink:href="#W_v6" x="360" y="495"/>
  <use xlink:href="#W_v4" x="450" y="495"/>
  <use xlink:href="#W_v2" x="135" y="0"/>
  <use xlink:href="#W_v2" x="405" y="0"/>
  <use xlink:href="#W_v2" x="90" y="45"/>
  <use xlink:href="#W_v2" x="180" y="45"/>
  <use xlink:href="#W_v2" x="360" y="45"/>
  <use xlink:href="#W_v2" x="450" y="45"/>
  <use xlink:href="#W_v2" x="45" y="90"/>
  <use xlink:href="#W_v2" x="225" y="90"/>
  <use xlink:href="#W_v2" x="315" y="90"/>
  <use xlink:href="#W_v2" x="495" y="90"/>
  <use xlink:href="#W_v2" x="0" y="135"/>
  <use xlink:href="#W_v2" x="270" y="135"/>
  <use xlink:href="#W_v2" x="540" y="135"/>
  <use xlink:href="#W_v2" x="45" y="180"/>
  <use xlink:href="#W_v2" x="225" y="180"/>
  <use xlink:href="#W_v2" x="315" y="180"/>
  <use xlink:href="#W_v2" x="495" y="180"/>
  <use xlink:href="#W_v2" x="585" y="180"/>
  <use xlink:href="#W_v2" x="90" y="225"/>
  <use xlink:href="#W_v2" x="180" y="225"/>
  <use xlink:href="#W_v2" x="360" y="225"/>
  <use xlink:href="#W_v2" x="450" y="225"/>
  <use xlink:href="#W_v2" x="630" y="225"/>
  <use xlink:href="#W_v2" x="135" y="270"/>
  <use xlink:href="#W_v2" x="405" y="270"/>
  <use xlink:href="#W_v2" x="675" y="270"/>
  <use xlink:href="#W_v2" x="180" y="315"/>
  <use xlink:href="#W_v2" x="360" y="315"/>
  <use xlink:href="#W_v2" x="450" y="315"/>
  <use xlink:href="#W_v2" x="630" y="315"/>
  <use xlink:href="#W_v2" x="225" y="360"/>
  <use xlink:href="#W_v2" x="315" y="360"/>
  <use xlink:href="#W_v2" x="495" y="360"/>
  <use xlink:href="#W_v2" x="585" y="360"/>
  <use xlink:href="#W_v2" x="270" y="405"/>
  <use xlink:href="#W_v2" x="540" y="405"/>
  <use xlink:href="#W_v2" x="315" y="450"/>
  <use xlink:href="#W_v2" x="495" y="450"/>
  <use xlink:href="#W_v2" x="360" y="495"/>
  <use xlink:href="#W_v2" x="450" y="495"/>
  <use xlink:href="#F" x="405" y="540"/>
</svg>