<?xml version="1.0" encoding="UTF-8" standalone="no"?>
<!DOCTYPE svg PUBLIC "-//W3C//DTD SVG 1.1//EN" "http://www.w3.org/Graphics/SVG/1.1/DTD/svg11.dtd">
<svg xmlns:xlink="http://www.w3.org/1999/xlink" version="1.1" viewBox="0 0 765 765" width="765" height="765" xmlns="http://www.w3.org/2000/svg">
  <symbol id="_20" width="45" height="45" overflow="visible">
    <rect width="45" height="45" fill="#eee"/>
  </symbol>
  <symbol id="_20_v1" width="45" height="45" overflow="visible">
    <rect width="45" height="45" fill="#ccc"/>
  </symbol>
  <symbol id="C" width="45" height="45" overflow="visible">
    <line x1="22.5" y1="22.5" x2="22.5" y2="67.5" stroke="white" stroke-width="10" stroke-linecap="round"/>
  </symbol>
  <symbol id="C_v1" width="45" height="45" overflow="visible">
    <line x1="22.5" y1="22.5" x2="22.5" y2="67.5" stroke="hsl(286,65%,60%)" stroke-width="7" stroke-linecap="round"/>
  </symbol>
  <symbol id="C_v2" width="45" height="45" overflow="visible">
    <g fill-rule="evenodd" stroke-width="1.5" stroke-linecap="round" stroke-linejoin="miter" stroke-miterlimit="4" transform="translate(-3,1) scale(0.05)">
      <path d="M0 0 C-3.54232072 40.07277889 -8.34339667 91.30368641 -31.13793945 125.71801758 C-33.22036207 128.89222148 -34.0369361 130.59089765 -33.69140625 134.41796875 C-33.13259766 136.28388672 -33.13259766 136.28388672 -32.5625 138.1875 C-32.15239329 139.68148443 -31.75066519 141.17778366 -31.35546875 142.67578125 C-31.1342334 143.50932129 -30.91299805 144.34286133 -30.68505859 145.20166016 C-26.70690448 161.45169665 -24.22229719 178.31939292 -23 195 C-22.91069654 196.00482548 -22.82139309 197.00965096 -22.72938347 198.04492569 C-21.67438335 211.97976322 -22.09788385 225.90979517 -22.38212395 239.86646843 C-22.5515506 248.20001789 -22.6931818 256.53408294 -22.83718872 264.86810303 C-22.85260638 265.74962471 -22.86802404 266.63114639 -22.8839089 267.53938085 C-23.12628192 281.46478751 -23.30636278 295.39010734 -23.44137573 309.31695557 C-23.45058151 310.26332436 -23.45978729 311.20969316 -23.46927203 312.1847398 C-23.5634105 321.95713056 -23.64977946 331.72957587 -23.72990949 341.50209104 C-23.77130491 346.51003616 -23.81471997 351.51796184 -23.859375 356.52587891 C-23.86822924 357.52247679 -23.87708347 358.51907466 -23.88620602 359.54587248 C-24.03390856 375.67197273 -24.3306661 391.79209772 -24.68162932 407.91490588 C-25.03982338 424.5301606 -25.23175138 441.14157415 -25.2741679 457.76065755 C-25.30265517 467.0704846 -25.40584255 476.36650557 -25.7010231 485.67201996 C-28.67764054 523.05758758 -28.67764054 523.05758758 -16.82649994 556.87861633 C-7.40634967 566.60624716 4.39530301 572.4628823 16.73367691 577.64160919 C23.90855359 580.70915182 30.13543348 585.04188609 36.45492339 589.56698561 C39.09674232 591.43834276 41.80207688 593.20690691 44.5078125 594.984375 C48.87800783 597.87800783 48.87800783 597.87800783 50 599 C50 623.09 50 647.18 50 672 C-108.4 672 -266.8 672 -430 672 C-430 647.58 -430 623.16 -430 598 C-415.76024498 585.38138632 -408.30684143 578.84245774 -392.29699707 571.83821106 C-391.27936783 571.37907633 -390.26173859 570.9199416 -389.21327209 570.44689369 C-386.99929588 569.44996965 -384.77713186 568.47109789 -382.54856873 567.50722313 C-368.09563599 560.95515588 -368.09563599 560.95515588 -358.1324389 549.11795092 C-354.58750302 538.27931644 -355.60064964 526.10277702 -355.99891114 514.87555528 C-356.13941108 510.15359381 -356.13036559 505.43164174 -356.14030457 500.70793152 C-356.17792832 492.79118557 -356.31566363 484.88155087 -356.52368164 476.9675293 C-356.78993872 466.82072467 -356.89300191 456.67910115 -356.94402027 446.52919483 C-356.98885248 437.77365666 -357.10296602 429.01922711 -357.23086715 420.26455855 C-357.26945515 417.46255678 -357.29955288 414.66055058 -357.32889748 411.85843849 C-357.37985417 407.45652322 -357.47394527 403.05746879 -357.60121727 398.65711975 C-357.64204487 397.04616169 -357.66969304 395.43480578 -357.6829834 393.82338524 C-357.51838416 385.18215035 -357.51838416 385.18215035 -360.86847496 377.51852989 C-363.01117765 375.59169299 -363.01117765 375.59169299 -365.2969923 374.15680981 C-365.85898484 373.77506257 -366.42097738 373.39331533 -367 373 C-367 372.34 -367 371.68 -367 371 C-365.99785461 370.99120064 -365.99785461 370.99120064 -364.97546387 370.98222351 C-320.3726377 370.91973903 -320.3726377 370.91973903 -276 367 C-274.77909668 366.82984375 -273.55819336 366.6596875 -272.30029297 366.484375 C-234.22460856 360.96544572 -194.4202649 349.58797833 -164 325 C-163.3930127 324.50967285 -162.78602539 324.0193457 -162.16064453 323.51416016 C-160.26032984 321.96227704 -158.37611721 320.39353378 -156.5 318.8125 C-155.93595459 318.33748047 -155.37190918 317.86246094 -154.79077148 317.37304688 C-153.69874797 316.42700709 -152.62510429 315.45933774 -151.57080078 314.47143555 C-150 313 -150 313 -148.36279297 311.71020508 C-141.90173325 305.80592792 -142.0791769 296.25197562 -141.125 288.0625 C-140.91374128 286.40791004 -140.70022049 284.75360723 -140.484375 283.09960938 C-139.96338919 279.0692518 -139.4733541 275.03621736 -139 271 C-139.57790283 272.18843506 -139.57790283 272.18843506 -140.16748047 273.40087891 C-148.25709213 289.84348493 -159.47454674 305.58526087 -174 317 C-174.90621094 317.75410156 -175.81242187 318.50820313 -176.74609375 319.28515625 C-215.69777058 351.11784168 -271.31582317 360.06222131 -320.17700195 360.17358398 C-321.42472382 360.180271 -322.67244568 360.18695801 -323.95797729 360.19384766 C-326.64781728 360.20780778 -329.33760689 360.22015412 -332.0274601 360.22979546 C-336.31775816 360.24550312 -340.60798793 360.26945714 -344.89823914 360.29469299 C-357.0908876 360.36519845 -369.28357637 360.42505193 -381.47631836 360.47680664 C-388.22975813 360.50554586 -394.98313086 360.54115366 -401.73649949 360.58346039 C-405.28531048 360.60536986 -408.83406219 360.62407968 -412.38292885 360.63390923 C-432.33755205 360.69125293 -452.10488134 361.55890767 -472 363 C-473.34636413 363.09615195 -474.69274205 363.19211094 -476.03913307 363.28788567 C-479.35949399 363.52426698 -482.67977609 363.76170353 -486 364 C-482.92762917 360.6097977 -479.6845726 358.00661457 -475.9375 355.375 C-470.48727292 351.4935545 -465.68212568 347.19283608 -460.82421875 342.61328125 C-458.87080188 340.80576273 -456.93435998 339.10031372 -454.87890625 337.421875 C-452.43561292 335.36645863 -450.33509852 333.34301503 -448.25 330.9375 C-447.67765625 330.28652344 -447.1053125 329.63554687 -446.515625 328.96484375 C-445.03901099 327.05057353 -443.99760764 325.19571486 -443 323 C-443.99 321.515 -443.99 321.515 -445 320 C-448.80881477 321.38877362 -451.97938448 323.17017568 -455.375 325.375 C-481.70499243 341.93130549 -511.11053276 354.43715627 -542 359 C-542.6283374 359.0935376 -543.2566748 359.1870752 -543.90405273 359.28344727 C-551.46351956 360.27279438 -559.07553599 360.28333209 -566.6875 360.3125 C-567.41222504 360.31611542 -568.13695007 360.31973083 -568.88363647 360.32345581 C-583.02959858 360.35171928 -596.28264702 358.44802543 -610 355 C-615.65729176 336.22260608 -618.10267265 317.05308274 -619.6875 297.5625 C-619.74825714 296.82545837 -619.80901428 296.08841675 -619.87161255 295.32904053 C-621.6039135 273.92358009 -622.20210125 252.46638631 -622.24023438 230.99584961 C-622.25004925 227.6708167 -622.28130552 224.34637683 -622.3125 221.02148438 C-622.44345477 194.45985926 -619.72783571 166.44573324 -600.3515625 146.32421875 C-599.18753906 145.17373047 -599.18753906 145.17373047 -598 144 C-597.28585937 143.26394531 -596.57171875 142.52789062 -595.8359375 141.76953125 C-559.03438473 106.04293793 -496.56486412 97.97507264 -447.5625 96.0625 C-431.52394481 95.41884653 -416.54618679 93.17385349 -401 89 C-399.76233887 88.67612305 -398.52467773 88.35224609 -397.24951172 88.01855469 C-372.38247395 81.47192557 -348.90467184 72.05632712 -325.3605957 61.76904297 C-314.0165054 56.87828097 -302.45311566 52.61469512 -290.86535645 48.34075928 C-281.27038531 44.79830833 -271.76599632 41.22557277 -262.5 36.875 C-225.87466442 19.68989697 -180.32042359 19.72103982 -141.75732422 30.46166992 C-134.07272765 32.5407271 -128.81514299 31.62789017 -121.625 28.125 C-89.03945663 13.17111349 -53.32546429 5.78032956 -18 1 C-17.14212891 0.88366211 -16.28425781 0.76732422 -15.40039062 0.64746094 C-10.23916591 0.00732632 -5.20045205 -0.08254686 0 0 Z M-73 23 C-73.92200195 23.24508301 -74.84400391 23.49016602 -75.79394531 23.74267578 C-96.49174527 29.31000412 -111.27457877 37.8524081 -126.5 53.1875 C-127.32806152 54.02120117 -128.15612305 54.85490234 -129.00927734 55.71386719 C-141.70654642 68.66333374 -153.1528602 83.62213696 -159 101 C-157.23361856 102.48448016 -155.46173862 103.96241965 -153.6875 105.4375 C-152.70136719 106.26121094 -151.71523438 107.08492188 -150.69921875 107.93359375 C-148.11899855 110.14121576 -148.11899855 110.14121576 -145 111 C-144.5153125 109.97261719 -144.030625 108.94523437 -143.53125 107.88671875 C-137.34388501 95.00040426 -129.83783788 84.41553475 -120 74 C-119.32582031 73.26136719 -118.65164063 72.52273437 -117.95703125 71.76171875 C-107.18221979 60.38044511 -93.83437826 52.14384661 -80 45 C-79.33274902 44.65340332 -78.66549805 44.30680664 -77.97802734 43.94970703 C-63.30429385 36.43096368 -47.76139745 31.6774271 -32 27 C-39.55245903 60.32043994 -51.91553488 94.12337641 -75 120 C-75.82886719 120.97195312 -76.65773438 121.94390625 -77.51171875 122.9453125 C-89.67479067 136.97737716 -104.88557316 147.8165752 -122 155 C-120.49292219 158.36194281 -118.56248436 161.00157205 -116.1875 163.8125 C-115.52105469 164.62332031 -114.85460937 165.43414062 -114.16796875 166.26953125 C-112.16192753 168.24986689 -112.16192753 168.24986689 -109.6953125 167.94921875 C-80.63122347 157.71360479 -49.9641447 138.39683648 -35.9765625 110.09472656 C-22.5524966 81.3001052 -12.8068919 44.88249977 -14 13 C-33.60117232 12.61769168 -54.22108032 17.91417561 -73 23 Z M-357 143 C-351.99851275 153.42720779 -342.44835054 159.46354728 -332.0625 163.93359375 C-323.96361051 166.75374277 -314.60257876 169.07532235 -306 168 C-304.9275 167.86851562 -303.855 167.73703125 -302.75 167.6015625 C-288.01453831 165.23774885 -273.6038449 158.81805707 -264.26953125 146.765625 C-263.64111328 145.89164063 -263.64111328 145.89164063 -263 145 C-267.38227006 134.91164914 -277.77892099 128.63333468 -287.48828125 124.5234375 C-313.71449432 114.64695064 -338.45234198 123.00393484 -357 143 Z M-578 217 C-578.82371094 217.67804688 -579.64742187 218.35609375 -580.49609375 219.0546875 C-586.65785971 224.32548274 -591.75509069 230.06348618 -596 237 C-596 237.66 -596 238.32 -596 239 C-573.55319976 240.68001 -550.11183033 228.05027982 -533.36328125 214.0703125 C-532.19345703 213.04550781 -532.19345703 213.04550781 -531 212 C-530.14792969 211.25492188 -529.29585937 210.50984375 -528.41796875 209.7421875 C-523.27474133 205.17082861 -523.27474133 205.17082861 -520.9375 198.9375 C-520.958125 197.968125 -520.97875 196.99875 -521 196 C-536.55329601 186.17686568 -566.19743246 207.05004006 -578 217 Z M-333 540 C-333 543.63 -333 547.26 -333 551 C-238.62 551 -144.24 551 -47 551 C-47 547.37 -47 543.74 -47 540 C-141.38 540 -235.76 540 -333 540 Z M-379 598 C-379 598.33 -379 598.66 -379 599 C-254.26 599 -129.52 599 -1 599 C-2.65 597.68 -4.3 596.36 -6 595 C-6.87163042 594.28770408 -7.74326085 593.57540816 -8.64130431 592.84152752 C-26.23379747 578.74973033 -40.21554088 573.11084484 -63.14350164 573.47225416 C-66.88604078 573.50988962 -70.62691267 573.43611943 -74.36897278 573.37840271 C-81.6591755 573.28343194 -88.94574893 573.28910127 -96.2362987 573.33416783 C-102.17532214 573.36920211 -108.11331942 573.36738912 -114.0523777 573.34068489 C-114.90496883 573.33690729 -115.75755997 573.3331297 -116.6359872 573.32923763 C-118.3692994 573.32144409 -120.10261131 573.31358689 -121.83592293 573.30566681 C-138.009226 573.23632352 -154.18051779 573.28469234 -170.35361914 573.37322611 C-184.1530168 573.44577348 -197.94872845 573.41007532 -211.74780273 573.29663086 C-227.86430386 573.16414619 -243.9785306 573.10574585 -260.09556705 573.15731674 C-261.82322552 573.16261285 -263.55088433 573.16779733 -265.27854347 573.17286873 C-266.55279234 573.17663238 -266.55279234 573.17663238 -267.85278362 573.18047206 C-273.7644109 573.19287356 -279.6743208 573.15352267 -285.58560753 573.09319878 C-336.85861808 571.64547874 -336.85861808 571.64547874 -379 598 Z " fill="#000" transform="translate(798,93)"/>
      <path d="M 24.55,10.4 L 24.1,11.85 L 24.6,12 C 27.75,13 30.25,14.49 32.5,18.75 C 34.75,23.01 35.75,29.06 35.25,39 L 35.2,39.5 L 37.45,39.5 L 37.5,39 C 38,28.94 36.62,22.15 34.25,17.66 C 31.88,13.17 28.46,11.02 25.06,10.5 L 24.55,10.4 z " fill="#fff" stroke="none"/>
    </g>
  </symbol>
  <symbol id="C_v3" width="45" height="45" overflow="visible">
    <line x1="22.5" y1="22.5" x2="22.5" y2="67.5" stroke="white" stroke-width="10" stroke-linecap="round"/>
    <line x1="22.5" y1="22.5" x2="67.5" y2="22.5" stroke="white" stroke-width="10" stroke-linecap="round"/>
  </symbol>
  <symbol id="C_v4" width="45" height="45" overflow="visible">
    <line x1="22.5" y1="22.5" x2="22.5" y2="67.5" stroke="hsl(286,65%,60%)" stroke-width="7" stroke-linecap="round"/>
    <line x1="22.5" y1="22.5" x2="67.5" y2="22.5" stroke="hsl(286,65%,60%)" stroke-width="7" stroke-linecap="round"/>
  </symbol>
  <symbol id="C_v5" width="45" height="45" overflow="visible">
    <line x1="22.5" y1="22.5" x2="67.5" y2="22.5" stroke="white" stroke-width="10" stroke-linecap="round"/>
  </symbol>
  <symbol id="C_v6" width="45" height="45" overflow="visible">
    <line x1="22.5" y1="22.5" x2="67.5" y2="22.5" stroke="hsl(286,65%,60%)" stroke-width="7" stroke-linecap="round"/>
  </symbol>
  <use xlink:href="#_20" x="0" y="0"/>
  <use xlink:href="#_20_v1" x="45" y="0"/>
  <use xlink:href="#_20" x="90" y="0"/>
  <use xlink:href="#_20_v1" x="135" y="0"/>
  <use xlink:href="#_20" x="180" y="0"/>
  <use xlink:href="#_20_v1" x="225" y="0"/>
  <use xlink:href="#_20" x="270" y="0"/>
  <use xlink:href="#_20_v1" x="315" y="0"/>
  <use xlink:href="#_20" x="360" y="0"/>
  <use xlink:href="#_20_v1" x="405" y="0"/>
  <use xlink:href="#_20" x="450" y="0"/>
  <use xlink:href="#_20_v1" x="495" y="0"/>
  <use xlink:href="#_20" x="540" y="0"/>
  <use xlink:href="#_20_v1" x="585" y="0"/>
  <use xlink:href="#_20" x="630" y="0"/>
  <use xlink:href="#_20_v1" x="675" y="0"/>
  <use xlink:href="#_20" x="720" y="0"/>
  <use xlink:href="#_20_v1" x="0" y="45"/>
  <use xlink:href="#_20" x="45" y="45"/>
  <use xlink:href="#_20_v1" x="90" y="45"/>
  <use xlink:href="#_20" x="135" y="45"/>
  <use xlink:href="#_20_v1" x="180" y="45"/>
  <use xlink:href="#_20" x="225" y="45"/>
  <use xlink:href="#_20_v1" x="270" y="45"/>
  <use xlink:href="#_20" x="315" y="45"/>
  <use xlink:href="#_20_v1" x="360" y="45"/>
  <use xlink:href="#_20" x="405" y="45"/>
  <use xlink:href="#_20_v1" x="450" y="45"/>
  <use xlink:href="#_20" x="495" y="45"/>
  <use xlink:href="#_20_v1" x="540" y="45"/>
  <use xlink:href="#_20" x="585" y="45"/>
  <use xlink:href="#_20_v1" x="630" y="45"/>
  <use xlink:href="#_20" x="675" y="45"/>
  <use xlink:href="#_20_v1" x="720" y="45"/>
  <use xlink:href="#_20" x="0" y="90"/>
  <use xlink:href="#_20_v1" x="45" y="90"/>
  <use xlink:href="#_20" x="90" y="90"/>
  <use xlink:href="#_20_v1" x="135" y="90"/>
  <use xlink:href="#_20" x="180" y="90"/>
  <use xlink:href="#_20_v1" x="225" y="90"/>
  <use xlink:href="#_20" x="270" y="90"/>
  <use xlink:href="#_20_v1" x="315" y="90"/>
  <use xlink:href="#_20" x="360" y="90"/>
  <use xlink:href="#_20_v1" x="405" y="90"/>
  <use xlink:href="#_20" x="450" y="90"/>
  <use xlink:href="#_20_v1" x="495" y="90"/>
  <use xlink:href="#_20" x="540" y="90"/>
  <use xlink:href="#_20_v1" x="585" y="90"/>
  <use xlink:href="#_20" x="630" y="90"/>
  <use xlink:href="#_20_v1" x="675" y="90"/>
  <use xlink:href="#_20" x="720" y="90"/>
  <use xlink:href="#_20_v1" x="0" y="135"/>
  <use xlink:href="#_20" x="45" y="135"/>
  <use xlink:href="#_20_v1" x="90" y="135"/>
  <use xlink:href="#_20" x="135" y="135"/>
  <use xlink:href="#_20_v1" x="180" y="135"/>
  <use xlink:href="#_20" x="225" y="135"/>
  <use xlink:href="#_20_v1" x="270" y="135"/>
  <use xlink:href="#_20" x="315" y="135"/>
  <use xlink:href="#_20_v1" x="360" y="135"/>
  <use xlink:href="#_20" x="405" y="135"/>
  <use xlink:href="#_20_v1" x="450" y="135"/>
  <use xlink:href="#_20" x="495" y="135"/>
  <use xlink:href="#_20_v1" x="540" y="135"/>
  <use xlink:href="#_20" x="585" y="135"/>
  <use xlink:href="#_20_v1" x="630" y="135"/>
  <use xlink:href="#_20" x="675" y="135"/>
  <use xlink:href="#_20_v1" x="720" y="135"/>
  <use xlink:href="#_20" x="0" y="180"/>
  <use xlink:href="#_20_v1" x="45" y="180"/>
  <use xlink:href="#_20" x="90" y="180"/>
  <use xlink:href="#_20_v1" x="135" y="180"/>
  <use xlink:href="#_20" x="180" y="180"/>
  <use xlink:href="#_20_v1" x="225" y="180"/>
  <use xlink:href="#_20" x="270" y="180"/>
  <use xlink:href="#_20_v1" x="315" y="180"/>
  <use xlink:href="#_20" x="360" y="180"/>
  <use xlink:href="#_20_v1" x="405" y="180"/>
  <use xlink:href="#_20" x="450" y="180"/>
  <use xlink:href="#_20_v1" x="495" y="180"/>
  <use xlink:href="#_20" x="540" y="180"/>
  <use xlink:href="#_20_v1" x="585" y="180"/>
  <use xlink:href="#_20" x="630" y="180"/>
  <use xlink:href="#_20_v1" x="675" y="180"/>
  <use xlink:href="#_20" x="720" y="180"/>
  <use xlink:href="#_20_v1" x="0" y="225"/>
  <use xlink:href="#_20" x="45" y="225"/>
  <use xlink:href="#_20_v1" x="90" y="225"/>
  <use xlink:href="#_20" x="135" y="225"/>
  <use xlink:href="#_20_v1" x="180" y="225"/>
  <use xlink:href="#_20" x="225" y="225"/>
  <use xlink:href="#_20_v1" x="270" y="225"/>
  <use xlink:href="#_20" x="315" y="225"/>
  <use xlink:href="#_20_v1" x="360" y="225"/>
  <use xlink:href="#_20" x="405" y="225"/>
  <use xlink:href="#_20_v1" x="450" y="225"/>
  <use xlink:href="#_20" x="495" y="225"/>
  <use xlink:href="#_20_v1" x="540" y="225"/>
  <use xlink:href="#_20" x="585" y="225"/>
  <use xlink:href="#_20_v1" x="630" y="225"/>
  <use xlink:href="#_20" x="675" y="225"/>
  <use xlink:href="#_20_v1" x="720" y="225"/>
  <use xlink:href="#_20" x="0" y="270"/>
  <use xlink:href="#_20_v1" x="45" y="270"/>
  <use xlink:href="#_20" x="90" y="270"/>
  <use xlink:href="#_20_v1" x="135" y="270"/>
  <use xlink:href="#_20" x="180" y="270"/>
  <use xlink:href="#_20_v1" x="225" y="270"/>
  <use xlink:href="#_20" x="270" y="270"/>
  <use xlink:href="#_20_v1" x="315" y="270"/>
  <use xlink:href="#_20" x="360" y="270"/>
  <use xlink:href="#_20_v1" x="405" y="270"/>
  <use xlink:href="#_20" x="450" y="270"/>
  <use xlink:href="#_20_v1" x="495" y="270"/>
  <use xlink:href="#_20" x="540" y="270"/>
  <use xlink:href="#_20_v1" x="585" y="270"/>
  <use xlink:href="#_20" x="630" y="270"/>
  <use xlink:href="#_20_v1" x="675" y="270"/>
  <use xlink:href="#_20" x="720" y="270"/>
  <use xlink:href="#_20_v1" x="0" y="315"/>
  <use xlink:href="#_20" x="45" y="315"/>
  <use xlink:href="#_20_v1" x="90" y="315"/>
  <use xlink:href="#_20" x="135" y="315"/>
  <use xlink:href="#_20_v1" x="180" y="315"/>
  <use xlink:href="#_20" x="225" y="315"/>
  <use xlink:href="#_20_v1" x="270" y="315"/>
  <use xlink:href="#_20" x="315" y="315"/>
  <use xlink:href="#_20_v1" x="360" y="315"/>
  <use xlink:href="#_20" x="405" y="315"/>
  <use xlink:href="#_20_v1" x="450" y="315"/>
  <use xlink:href="#_20" x="495" y="315"/>
  <use xlink:href="#_20_v1" x="540" y="315"/>
  <use xlink:href="#_20" x="585" y="315"/>
  <use xlink:href="#_20_v1" x="630" y="315"/>
  <use xlink:href="#_20" x="675" y="315"/>
  <use xlink:href="#_20_v1" x="720" y="315"/>
  <use xlink:href="#_20" x="0" y="360"/>
  <use xlink:href="#_20_v1" x="45" y="360"/>
  <use xlink:href="#_20" x="90" y="360"/>
  <use xlink:href="#_20_v1" x="135" y="360"/>
  <use xlink:href="#_20" x="180" y="360"/>
  <use xlink:href="#_20_v1" x="225" y="360"/>
  <use xlink:href="#_20" x="270" y="360"/>
  <use xlink:href="#_20_v1" x="315" y="360"/>
  <use xlink:href="#_20" x="360" y="360"/>
  <use xlink:href="#_20_v1" x="405" y="360"/>
  <use xlink:href="#_20" x="450" y="360"/>
  <use xlink:href="#_20_v1" x="495" y="360"/>
  <use xlink:href="#_20" x="540" y="360"/>
  <use xlink:href="#_20_v1" x="585" y="360"/>
  <use xlink:href="#_20" x="630" y="360"/>
  <use xlink:href="#_20_v1" x="675" y="360"/>
  <use xlink:href="#_20" x="720" y="360"/>
  <use xlink:href="#_20_v1" x="0" y="405"/>
  <use xlink:href="#_20" x="45" y="405"/>
  <use xlink:href="#_20_v1" x="90" y="405"/>
  <use xlink:href="#_20" x="135" y="405"/>
  <use xlink:href="#_20_v1" x="180" y="405"/>
  <use xlink:href="#_20" x="225" y="405"/>
  <use xlink:href="#_20_v1" x="270" y="405"/>
  <use xlink:href="#_20" x="315" y="405"/>
  <use xlink:href="#_20_v1" x="360" y="405"/>
  <use xlink:href="#_20" x="405" y="405"/>
  <use xlink:href="#_20_v1" x="450" y="405"/>
  <use xlink:href="#_20" x="495" y="405"/>
  <use xlink:href="#_20_v1" x="540" y="405"/>
  <use xlink:href="#_20" x="585" y="405"/>
  <use xlink:href="#_20_v1" x="630" y="405"/>
  <use xlink:href="#_20" x="675" y="405"/>
  <use xlink:href="#_20_v1" x="720" y="405"/>
  <use xlink:href="#_20" x="0" y="450"/>
  <use xlink:href="#_20_v1" x="45" y="450"/>
  <use xlink:href="#_20" x="90" y="450"/>
  <use xlink:href="#_20_v1" x="135" y="450"/>
  <use xlink:href="#_20" x="180" y="450"/>
  <use xlink:href="#_20_v1" x="225" y="450"/>
  <use xlink:href="#_20" x="270" y="450"/>
  <use xlink:href="#_20_v1" x="315" y="450"/>
  <use xlink:href="#_20" x="360" y="450"/>
  <use xlink:href="#_20_v1" x="405" y="450"/>
  <use xlink:href="#_20" x="450" y="450"/>
  <use xlink:href="#_20_v1" x="495" y="450"/>
  <use xlink:href="#_20" x="540" y="450"/>
  <use xlink:href="#_20_v1" x="585" y="450"/>
  <use xlink:href="#_20" x="630" y="450"/>
  <use xlink:href="#_20_v1" x="675" y="450"/>
  <use xlink:href="#_20" x="720" y="450"/>
  <use xlink:href="#_20_v1" x="0" y="495"/>
  <use xlink:href="#_20" x="45" y="495"/>
  <use xlink:href="#_20_v1" x="90" y="495"/>
  <use xlink:href="#_20" x="135" y="495"/>
  <use xlink:href="#_20_v1" x="180" y="495"/>
  <use xlink:href="#_20" x="225" y="495"/>
  <use xlink:href="#_20_v1" x="270" y="495"/>
  <use xlink:href="#_20" x="315" y="495"/>
  <use xlink:href="#_20_v1" x="360" y="495"/>
  <use xlink:href="#_20" x="405" y="495"/>
  <use xlink:href="#_20_v1" x="450" y="495"/>
  <use xlink:href="#_20" x="495" y="495"/>
  <use xlink:href="#_20_v1" x="540" y="495"/>
  <use xlink:href="#_20" x="585" y="495"/>
  <use xlink:href="#_20_v1" x="630" y="495"/>
  <use xlink:href="#_20" x="675" y="495"/>
  <use xlink:href="#_20_v1" x="720" y="495"/>
  <use xlink:href="#_20" x="0" y="540"/>
  <use xlink:href="#_20_v1" x="45" y="540"/>
  <use xlink:href="#_20" x="90" y="540"/>
  <use xlink:href="#_20_v1" x="135" y="540"/>
  <use xlink:href="#_20" x="180" y="540"/>
  <use xlink:href="#_20_v1" x="225" y="540"/>
  <use xlink:href="#_20" x="270" y="540"/>
  <use xlink:href="#_20_v1" x="315" y="540"/>
  <use xlink:href="#_20" x="360" y="540"/>
  <use xlink:href="#_20_v1" x="405" y="540"/>
  <use xlink:href="#_20" x="450" y="540"/>
  <use xlink:href="#_20_v1" x="495" y="540"/>
  <use xlink:href="#_20" x="540" y="540"/>
  <use xlink:href="#_20_v1" x="585" y="540"/>
  <use xlink:href="#_20" x="630" y="540"/>
  <use xlink:href="#_20_v1" x="675" y="540"/>
  <use xlink:href="#_20" x="720" y="540"/>
  <use xlink:href="#_20_v1" x="0" y="585"/>
  <use xlink:href="#_20" x="45" y="585"/>
  <use xlink:href="#_20_v1" x="90" y="585"/>
  <use xlink:href="#_20" x="135" y="585"/>
  <use xlink:href="#_20_v1" x="180" y="585"/>
  <use xlink:href="#_20" x="225" y="585"/>
  <use xlink:href="#_20_v1" x="270" y="585"/>
  <use xlink:href="#_20" x="315" y="585"/>
  <use xlink:href="#_20_v1" x="360" y="585"/>
  <use xlink:href="#_20" x="405" y="585"/>
  <use xlink:href="#_20_v1" x="450" y="585"/>
  <use xlink:href="#_20" x="495" y="585"/>
  <use xlink:href="#_20_v1" x="540" y="585"/>
  <use xlink:href="#_20" x="585" y="585"/>
  <use xlink:href="#_20_v1" x="630" y="585"/>
  <use xlink:href="#_20" x="675" y="585"/>
  <use xlink:href="#_20_v1" x="720" y="585"/>
  <use xlink:href="#_20" x="0" y="630"/>
  <use xlink:href="#_20_v1" x="45" y="630"/>
  <use xlink:href="#_20" x="90" y="630"/>
  <use xlink:href="#_20_v1" x="135" y="630"/>
  <use xlink:href="#_20" x="180" y="630"/>
  <use xlink:href="#_20_v1" x="225" y="630"/>
  <use xlink:href="#_20" x="270" y="630"/>
  <use xlink:href="#_20_v1" x="315" y="630"/>
  <use xlink:href="#_20" x="360" y="630"/>
  <use xlink:href="#_20_v1" x="405" y="630"/>
  <use xlink:href="#_20" x="450" y="630"/>
  <use xlink:href="#_20_v1" x="495" y="630"/>
  <use xlink:href="#_20" x="540" y="630"/>
  <use xlink:href="#_20_v1" x="585" y="630"/>
  <use xlink:href="#_20" x="630" y="630"/>
  <use xlink:href="#_20_v1" x="675" y="630"/>
  <use xlink:href="#_20" x="720" y="630"/>
  <use xlink:href="#_20_v1" x="0" y="675"/>
  <use xlink:href="#_20" x="45" y="675"/>
  <use xlink:href="#_20_v1" x="90" y="675"/>
  <use xlink:href="#_20" x="135" y="675"/>
  <use xlink:href="#_20_v1" x="180" y="675"/>
  <use xlink:href="#_20" x="225" y="675"/>
  <use xlink:href="#_20_v1" x="270" y="675"/>
  <use xlink:href="#_20" x="315" y="675"/>
  <use xlink:href="#_20_v1" x="360" y="675"/>
  <use xlink:href="#_20" x="405" y="675"/>
  <use xlink:href="#_20_v1" x="450" y="675"/>
  <use xlink:href="#_20" x="495" y="675"/>
  <use xlink:href="#_20_v1" x="540" y="675"/>
  <use xlink:href="#_20" x="585" y="675"/>
  <use xlink:href="#_20_v1" x="630" y="675"/>
  <use xlink:href="#_20" x="675" y="675"/>
  <use xlink:href="#_20_v1" x="720" y="675"/>
  <use xlink:href="#_20" x="0" y="720"/>
  <use xlink:href="#_20_v1" x="45" y="720"/>
  <use xlink:href="#_20" x="90" y="720"/>
  <use xlink:href="#_20_v1" x="135" y="720"/>
  <use xlink:href="#_20" x="180" y="720"/>
  <use xlink:href="#_20_v1" x="225" y="720"/>
  <use xlink:href="#_20" x="270" y="720"/>
  <use xlink:href="#_20_v1" x="315" y="720"/>
  <use xlink:href="#_20" x="360" y="720"/>
  <use xlink:href="#_20_v1" x="405" y="720"/>
  <use xlink:href="#_20" x="450" y="720"/>
  <use xlink:href="#_20_v1" x="495" y="720"/>
  <use xlink:href="#_20" x="540" y="720"/>
  <use xlink:href="#_20_v1" x="585" y="720"/>
  <use xlink:href="#_20" x="630" y="720"/>
  <use xlink:href="#_20_v1" x="675" y="720"/>
  <use xlink:href="#_20" x="720" y="720"/>
  <use xlink:href="#C" x="180" y="0"/>
  <use xlink:href="#C" x="360" y="0"/>
  <use xlink:href="#C" x="180" y="45"/>
  <use xlink:href="#C" x="360" y="45"/>
  <use xlink:href="#C" x="180" y="90"/>
  <use xlink:href="#C" x="360" y="90"/>
  <use xlink:href="#C" x="180" y="135"/>
  <use xlink:href="#C" x="360" y="135"/>
  <use xlink:href="#C" x="180" y="180"/>
  <use xlink:href="#C" x="360" y="180"/>
  <use xlink:href="#C_v3" x="495" y="180"/>
  <use xlink:href="#C_v5" x="540" y="180"/>
  <use xlink:href="#C_v5" x="585" y="180"/>
  <use xlink:href="#C_v5" x="630" y="180"/>
  <use xlink:href="#C_v5" x="675" y="180"/>
  <use xlink:href="#C_v5" x="180" y="225"/>
  <use xlink:href="#C" x="225" y="225"/>
  <use xlink:href="#C" x="360" y="225"/>
  <use xlink:href="#C_v3" x="450" y="225"/>
  <use xlink:href="#C_v5" x="225" y="270"/>
  <use xlink:href="#C" x="270" y="270"/>
  <use xlink:href="#C_v3" x="360" y="270"/>
  <use xlink:href="#C_v3" x="405" y="270"/>
  <use xlink:href="#C_v3" x="270" y="315"/>
  <use xlink:href="#C_v3" x="315" y="315"/>
  <use xlink:href="#C_v5" x="360" y="315"/>
  <use xlink:href="#C" x="405" y="315"/>
  <use xlink:href="#C_v5" x="0" y="360"/>
  <use xlink:href="#C_v5" x="45" y="360"/>
  <use xlink:href="#C_v5" x="90" y="360"/>
  <use xlink:href="#C_v5" x="135" y="360"/>
  <use xlink:href="#C_v5" x="180" y="360"/>
  <use xlink:href="#C_v5" x="225" y="360"/>
  <use xlink:href="#C_v5" x="270" y="360"/>
  <use xlink:href="#C" x="315" y="360"/>
  <use xlink:href="#C_v3" x="405" y="360"/>
  <use xlink:href="#C_v3" x="450" y="360"/>
  <use xlink:href="#C_v5" x="495" y="360"/>
  <use xlink:href="#C_v5" x="540" y="360"/>
  <use xlink:href="#C_v5" x="585" y="360"/>
  <use xlink:href="#C_v5" x="630" y="360"/>
  <use xlink:href="#C_v5" x="675" y="360"/>
  <use xlink:href="#C_v3" x="315" y="405"/>
  <use xlink:href="#C_v3" x="360" y="405"/>
  <use xlink:href="#C_v5" x="405" y="405"/>
  <use xlink:href="#C" x="450" y="405"/>
  <use xlink:href="#C_v3" x="270" y="450"/>
  <use xlink:href="#C_v5" x="315" y="450"/>
  <use xlink:href="#C" x="360" y="450"/>
  <use xlink:href="#C_v5" x="450" y="450"/>
  <use xlink:href="#C" x="495" y="450"/>
  <use xlink:href="#C_v3" x="225" y="495"/>
  <use xlink:href="#C" x="360" y="495"/>
  <use xlink:href="#C_v5" x="495" y="495"/>
  <use xlink:href="#C" x="540" y="495"/>
  <use xlink:href="#C_v5" x="0" y="540"/>
  <use xlink:href="#C_v5" x="45" y="540"/>
  <use xlink:href="#C_v5" x="90" y="540"/>
  <use xlink:href="#C_v5" x="135" y="540"/>
  <use xlink:href="#C_v5" x="180" y="540"/>
  <use xlink:href="#C" x="360" y="540"/>
  <use xlink:href="#C" x="540" y="540"/>
  <use xlink:href="#C" x="360" y="585"/>
  <use xlink:href="#C" x="540" y="585"/>
  <use xlink:href="#C" x="360" y="630"/>
  <use xlink:href="#C" x="540" y="630"/>
  <use xlink:href="#C" x="360" y="675"/>
  <use xlink:href="#C" x="540" y="675"/>
  <use xlink:href="#C_v1" x="180" y="0"/>
  <use xlink:href="#C_v1" x="360" y="0"/>
  <use xlink:href="#C_v1" x="180" y="45"/>
  <use xlink:href="#C_v1" x="360" y="45"/>
  <use xlink:href="#C_v1" x="180" y="90"/>
  <use xlink:href="#C_v1" x="360" y="90"/>
  <use xlink:href="#C_v1" x="180" y="135"/>
  <use xlink:href="#C_v1" x="360" y="135"/>
  <use xlink:href="#C_v1" x="180" y="180"/>
  <use xlink:href="#C_v1" x="360" y="180"/>
  <use xlink:href="#C_v4" x="495" y="180"/>
  <use xlink:href="#C_v6" x="540" y="180"/>
  <use xlink:href="#C_v6" x="585" y="180"/>
  <use xlink:href="#C_v6" x="630" y="180"/>
  <use xlink:href="#C_v6" x="675" y="180"/>
  <use xlink:href="#C_v6" x="180" y="225"/>
  <use xlink:href="#C_v1" x="225" y="225"/>
  <use xlink:href="#C_v1" x="360" y="225"/>
  <use xlink:href="#C_v4" x="450" y="225"/>
  <use xlink:href="#C_v6" x="225" y="270"/>
  <use xlink:href="#C_v1" x="270" y="270"/>
  <use xlink:href="#C_v4" x="360" y="270"/>
  <use xlink:href="#C_v4" x="405" y="270"/>
  <use xlink:href="#C_v4" x="270" y="315"/>
  <use xlink:href="#C_v4" x="315" y="315"/>
  <use xlink:href="#C_v6" x="360" y="315"/>
  <use xlink:href="#C_v1" x="405" y="315"/>
  <use xlink:href="#C_v6" x="0" y="360"/>
  <use xlink:href="#C_v6" x="45" y="360"/>
  <use xlink:href="#C_v6" x="90" y="360"/>
  <use xlink:href="#C_v6" x="135" y="360"/>
  <use xlink:href="#C_v6" x="180" y="360"/>
  <use xlink:href="#C_v6" x="225" y="360"/>
  <use xlink:href="#C_v6" x="270" y="360"/>
  <use xlink:href="#C_v1" x="315" y="360"/>
  <use xlink:href="#C_v4" x="405" y="360"/>
  <use xlink:href="#C_v4" x="450" y="360"/>
  <use xlink:href="#C_v6" x="495" y="360"/>
  <use xlink:href="#C_v6" x="540" y="360"/>
  <use xlink:href="#C_v6" x="585" y="360"/>
  <use xlink:href="#C_v6" x="630" y="360"/>
  <use xlink:href="#C_v6" x="675" y="360"/>
  <use xlink:href="#C_v4" x="315" y="405"/>
  <use xlink:href="#C_v4" x="360" y="405"/>
  <use xlink:href="#C_v6" x="405" y="405"/>
  <use xlink:href="#C_v1" x="450" y="405"/>
  <use xlink:href="#C_v4" x="270" y="450"/>
  <use xlink:href="#C_v6" x="315" y="450"/>
  <use xlink:href="#C_v1" x="360" y="450"/>
  <use xlink:href="#C_v6" x="450" y="450"/>
  <use xlink:href="#C_v1" x="495" y="450"/>
  <use xlink:href="#C_v4" x="225" y="495"/>
  <use xlink:href="#C_v1" x="360" y="495"/>
  <use xlink:href="#C_v6" x="495" y="495"/>
  <use xlink:href="#C_v1" x="540" y="495"/>
  <use xlink:href="#C_v6" x="0" y="540"/>
  <use xlink:href="#C_v6" x="45" y="540"/>
  <use xlink:href="#C_v6" x="90" y="540"/>
  <use xlink:href="#C_v6" x="135" y="540"/>
  <use xlink:href="#C_v6" x="180" y="540"/>
  <use xlink:href="#C_v1" x="360" y="540"/>
  <use xlink:href="#C_v1" x="540" y="540"/>
  <use xlink:href="#C_v1" x="360" y="585"/>
  <use xlink:href="#C_v1" x="540" y="585"/>
  <use xlink:href="#C_v1" x="360" y="630"/>
  <use xlink:href="#C_v1" x="540" y="630"/>
  <use xlink:href="#C_v1" x="360" y="675"/>
  <use xlink:href="#C_v1" x="540" y="675"/>
  <use xlink:href="#C_v2" x="180" y="0"/>
  <use xlink:href="#C_v2" x="360" y="0"/>
  <use xlink:href="#C_v2" x="180" y="45"/>
  <use xlink:href="#C_v2" x="360" y="45"/>
  <use xlink:href="#C_v2" x="180" y="90"/>
  <use xlink:href="#C_v2" x="360" y="90"/>
  <use xlink:href="#C_v2" x="180" y="135"/>
  <use xlink:href="#C_v2" x="360" y="135"/>
  <use xlink:href="#C_v2" x="180" y="180"/>
  <use xlink:href="#C_v2" x="360" y="180"/>
  <use xlink:href="#C_v2" x="495" y="180"/>
  <use xlink:href="#C_v2" x="540" y="180"/>
  <use xlink:href="#C_v2" x="585" y="180"/>
  <use xlink:href="#C_v2" x="630" y="180"/>
  <use xlink:href="#C_v2" x="675" y="180"/>
  <use xlink:href="#C_v2" x="720" y="180"/>
  <use xlink:href="#C_v2" x="180" y="225"/>
  <use xlink:href="#C_v2" x="225" y="225"/>
  <use xlink:href="#C_v2" x="360" y="225"/>
  <use xlink:href="#C_v2" x="450" y="225"/>
  <use xlink:href="#C_v2" x="495" y="225"/>
  <use xlink:href="#C_v2" x="225" y="270"/>
  <use xlink:href="#C_v2" x="270" y="270"/>
  <use xlink:href="#C_v2" x="360" y="270"/>
  <use xlink:href="#C_v2" x="405" y="270"/>
  <use xlink:href="#C_v2" x="450" y="270"/>
  <use xlink:href="#C_v2" x="270" y="315"/>
  <use xlink:href="#C_v2" x="315" y="315"/>
  <use xlink:href="#C_v2" x="360" y="315"/>
  <use xlink:href="#C_v2" x="405" y="315"/>
  <use xlink:href="#C_v2" x="0" y="360"/>
  <use xlink:href="#C_v2" x="45" y="360"/>
  <use xlink:href="#C_v2" x="90" y="360"/>
  <use xlink:href="#C_v2" x="135" y="360"/>
  <use xlink:href="#C_v2" x="180" y="360"/>
  <use xlink:href="#C_v2" x="225" y="360"/>
  <use xlink:href="#C_v2" x="270" y="360"/>
  <use xlink:href="#C_v2" x="315" y="360"/>
  <use xlink:href="#C_v2" x="405" y="360"/>
  <use xlink:href="#C_v2" x="450" y="360"/>
  <use xlink:href="#C_v2" x="495" y="360"/>
  <use xlink:href="#C_v2" x="540" y="360"/>
  <use xlink:href="#C_v2" x="585" y="360"/>
  <use xlink:href="#C_v2" x="630" y="360"/>
  <use xlink:href="#C_v2" x="675" y="360"/>
  <use xlink:href="#C_v2" x="720" y="360"/>
  <use xlink:href="#C_v2" x="315" y="405"/>
  <use xlink:href="#C_v2" x="360" y="405"/>
  <use xlink:href="#C_v2" x="405" y="405"/>
  <use xlink:href="#C_v2" x="450" y="405"/>
  <use xlink:href="#C_v2" x="270" y="450"/>
  <use xlink:href="#C_v2" x="315" y="450"/>
  <use xlink:href="#C_v2" x="360" y="450"/>
  <use xlink:href="#C_v2" x="450" y="450"/>
  <use xlink:href="#C_v2" x="495" y="450"/>
  <use xlink:href="#C_v2" x="225" y="495"/>
  <use xlink:href="#C_v2" x="270" y="495"/>
  <use xlink:href="#C_v2" x="360" y="495"/>
  <use xlink:href="#C_v2" x="495" y="495"/>
  <use xlink:href="#C_v2" x="540" y="495"/>
  <use xlink:href="#C_v2" x="0" y="540"/>
  <use xlink:href="#C_v2" x="45" y="540"/>
  <use xlink:href="#C_v2" x="90" y="540"/>
  <use xlink:href="#C_v2" x="135" y="540"/>
  <use xlink:href="#C_v2" x="180" y="540"/>
  <use xlink:href="#C_v2" x="225" y="540"/>
  <use xlink:href="#C_v2" x="360" y="540"/>
  <use xlink:href="#C_v2" x="540" y="540"/>
  <use xlink:href="#C_v2" x="360" y="585"/>
  <use xlink:href="#C_v2" x="540" y="585"/>
  <use xlink:href="#C_v2" x="360" y="630"/>
  <use xlink:href="#C_v2" x="540" y="630"/>
  <use xlink:href="#C_v2" x="360" y="675"/>
  <use xlink:href="#C_v2" x="540" y="675"/>
  <use xlink:href="#C_v2" x="360" y="720"/>
  <use xlink:href="#C_v2" x="540" y="720"/>
</svg>