<?xml version="1.0" encoding="UTF-8" standalone="no"?>
<!DOCTYPE svg PUBLIC "-//W3C//DTD SVG 1.1//EN" "http://www.w3.org/Graphics/SVG/1.1/DTD/svg11.dtd">
<svg xmlns:xlink="http://www.w3.org/1999/xlink" version="1.1" viewBox="0 0 45 45" width="45" height="45" xmlns="http://www.w3.org/2000/svg">
  <symbol id="R" width="45" height="45" overflow="visible">
    <g fill-rule="evenodd" stroke-width="1.5" stroke-linecap="round" stroke-linejoin="miter" stroke-miterlimit="4" fill="#000" stroke="#000">
      <path d="M 9,39 L 36,39 L 36,36 L 9,36 L 9,39 z" stroke-linecap="butt"/>
      <path d="M 12.5,32 L 14,29.5 L 31,29.5 L 32.5,32 L 12.5,32 z" stroke-linecap="butt"/>
      <path d="M 12,36 L 12,32 L 33,32 L 33,36 L 12,36 z" stroke-linecap="butt"/>
      <path d="M 14,29.5 L 14,16.5 L 31,16.5 L 31,29.5 L 14,29.5 z" stroke-linecap="butt" stroke-linejoin="miter"/>
      <path d="M 14,16.5 L 11,14 L 34,14 L 31,16.5 L 14,16.5 z M 11,14 L 11,9 L 15,9 L 15,11 L 20,11 L 20,9 L 25,9 L 25,11 L 30,11 L 30,9 L 34,9 L 34,14 L 11,14 z " stroke-linecap="butt"/>
      <path d="M 12,35.5 L 33,35.5 L 33,35.5 M 13,31.5 L 32,31.5 M 14,29.5 L 31,29.5 M 14,16.5 L 31,16.5" fill="none" stroke="#fff" stroke-width="1" stroke-linejoin="miter"/>
      <path d="M 11,14 L 34,14" fill="none" stroke="#fff" stroke-width="1" stroke-linejoin="miter"/>
    </g>
  </symbol>
  <use xlink:href="#R" x="0" y="0"/>
</svg>