<?xml version="1.0" encoding="UTF-8" standalone="no"?>
<!DOCTYPE svg PUBLIC "-//W3C//DTD SVG 1.1//EN" "http://www.w3.org/Graphics/SVG/1.1/DTD/svg11.dtd">
<svg xmlns:xlink="http://www.w3.org/1999/xlink" version="1.1" viewBox="0 0 135 135" width="135" height="135" xmlns="http://www.w3.org/2000/svg">
  <symbol id="_20" width="45" height="45" overflow="visible">
    <rect width="45" height="45" fill="#eee"/>
  </symbol>
  <symbol id="K" width="45" height="45" overflow="visible">
    <rect width="45" height="45" fill="#ccc"/>
  </symbol>
  <symbol id="K_v1" width="45" height="45" overflow="visible">
    <line x1="22.5" y1="22.5" x2="-22.5" y2="67.5" stroke="white" stroke-width="10" stroke-linecap="round"/>
    <line x1="22.5" y1="22.5" x2="67.5" y2="67.5" stroke="white" stroke-width="10" stroke-linecap="round"/>
  </symbol>
  <symbol id="K_v2" width="45" height="45" overflow="visible">
    <line x1="22.5" y1="22.5" x2="-22.5" y2="67.5" stroke="hsl(286,65%,60%)" stroke-width="7" stroke-linecap="round"/>
    <line x1="22.5" y1="22.5" x2="67.5" y2="67.5" stroke="hsl(286,65%,60%)" stroke-width="7" stroke-linecap="round"/>
  </symbol>
  <symbol id="K_v3" width="45" height="45" overflow="visible">
    <g fill-rule="evenodd" stroke-width="1.5" stroke-linecap="round" stroke-linejoin="miter" stroke-miterlimit="4">
      <path d="M 22.5,11.63 L 22.5,6 M 20,8 L 25,8" fill="none" stroke="#000" stroke-linejoin="miter"/>
      <path d="M 22.5,25 C 22.5,25 27,17.5 25.5,14.5 C 25.5,14.5 24.5,12 22.5,12 C 20.5,12 19.5,14.5 19.5,14.5 C 18,17.5 22.5,25 22.5,25" fill="hsl(286,65%,60%)" stroke="#000" stroke-linecap="butt" stroke-linejoin="miter"/>
      <path d="M 11.5,37 C 17,40.5 27,40.5 32.5,37 L 32.5,30 C 32.5,30 41.5,25.5 38.5,19.5 C 34.5,13 25,16 22.5,23.5 L 22.5,27 L 22.5,23.5 C 19,16 9.5,13 6.5,19.5 C 3.5,25.5 11.5,29.5 11.5,29.5 L 11.5,37 z" fill="hsl(286,65%,60%)" stroke="#000"/>
      <path d="M 11.5,30 C 17,27 27,27 32.5,30 M 11.5,33.5 C 17,30.5 27,30.5 32.5,33.5 M 11.5,37 C 17,34 27,34 32.5,37" fill="none" stroke="#000"/>
    </g>
  </symbol>
  <symbol id="K_v4" width="45" height="45" overflow="visible">
    <line x1="22.5" y1="22.5" x2="67.5" y2="67.5" stroke="white" stroke-width="10" stroke-linecap="round"/>
  </symbol>
  <symbol id="K_v5" width="45" height="45" overflow="visible">
    <line x1="22.5" y1="22.5" x2="67.5" y2="67.5" stroke="hsl(286,65%,60%)" stroke-width="7" stroke-linecap="round"/>
  </symbol>
  <symbol id="K_v6" width="45" height="45" overflow="visible">
    <line x1="22.5" y1="22.5" x2="-22.5" y2="67.5" stroke="white" stroke-width="10" stroke-linecap="round"/>
  </symbol>
  <symbol id="K_v7" width="45" height="45" overflow="visible">
    <line x1="22.5" y1="22.5" x2="-22.5" y2="67.5" stroke="hsl(286,65%,60%)" stroke-width="7" stroke-linecap="round"/>
  </symbol>
  <symbol id="j" width="45" height="45" overflow="visible">
    <g fill-rule="evenodd" stroke-width="1.5" stroke-linecap="round" stroke-linejoin="miter" stroke-miterlimit="4">
      <path d="M 22.5,11.63 L 22.5,6 M 20,8 L 25,8" fill="none" stroke="#000" stroke-linejoin="miter"/>
      <path d="M 22.5,25 C 22.5,25 27,17.5 25.5,14.5 C 25.5,14.5 24.5,12 22.5,12 C 20.5,12 19.5,14.5 19.5,14.5 C 18,17.5 22.5,25 22.5,25" fill="hsl(99,66%,40%)" stroke="#000" stroke-linecap="butt" stroke-linejoin="miter"/>
      <path d="M 11.5,37 C 17,40.5 27,40.5 32.5,37 L 32.5,30 C 32.5,30 41.5,25.5 38.5,19.5 C 34.5,13 25,16 22.5,23.5 L 22.5,27 L 22.5,23.5 C 19,16 9.5,13 6.5,19.5 C 3.5,25.5 11.5,29.5 11.5,29.5 L 11.5,37 z" fill="hsl(99,66%,40%)" stroke="#000"/>
      <path d="M 11.5,30 C 17,27 27,27 32.5,30 M 11.5,33.5 C 17,30.5 27,30.5 32.5,33.5 M 11.5,37 C 17,34 27,34 32.5,37" fill="none" stroke="#000"/>
    </g>
  </symbol>
  <use xlink:href="#_20" x="0" y="0"/>
  <use xlink:href="#K" x="45" y="0"/>
  <use xlink:href="#_20" x="90" y="0"/>
  <use xlink:href="#K" x="0" y="45"/>
  <use xlink:href="#_20" x="45" y="45"/>
  <use xlink:href="#K" x="90" y="45"/>
  <use xlink:href="#_20" x="0" y="90"/>
  <use xlink:href="#K" x="45" y="90"/>
  <use xlink:href="#_20" x="90" y="90"/>
  <use xlink:href="#K_v1" x="45" y="0"/>
  <use xlink:href="#K_v4" x="0" y="45"/>
  <use xlink:href="#K_v6" x="90" y="45"/>
  <use xlink:href="#K_v2" x="45" y="0"/>
  <use xlink:href="#K_v5" x="0" y="45"/>
  <use xlink:href="#K_v7" x="90" y="45"/>
  <use xlink:href="#K_v3" x="45" y="0"/>
  <use xlink:href="#K_v3" x="0" y="45"/>
  <use xlink:href="#K_v3" x="90" y="45"/>
  <use xlink:href="#j" x="45" y="90"/>
</svg>