<?xml version="1.0" encoding="UTF-8" standalone="no"?>
<!DOCTYPE svg PUBLIC "-//W3C//DTD SVG 1.1//EN" "http://www.w3.org/Graphics/SVG/1.1/DTD/svg11.dtd">
<svg xmlns:xlink="http://www.w3.org/1999/xlink" version="1.1" viewBox="0 0 45 45" width="45" height="45" xmlns="http://www.w3.org/2000/svg">
  <symbol id="G" width="45" height="45" overflow="visible">
    <g fill-rule="evenodd" stroke-width="1.5" stroke-linecap="round" stroke-linejoin="miter" stroke-miterlimit="4" transform="translate(20, 22) scale(0.02) translate(-960, -960)">
      <path d="M0 0 C6.69838173 5.74491839 10.60580043 13.33331042 12 22 C12.08765897 24.70752863 12.12652221 27.38813701 12.11352539 30.0949707 C12.11367142 30.89549362 12.11381744 31.69601654 12.1139679 32.52079773 C12.11327355 35.1558202 12.10550356 37.79077119 12.09765625 40.42578125 C12.09579037 42.25709494 12.09436727 44.08840914 12.09336853 45.91972351 C12.08955672 50.73163235 12.07973785 55.54351084 12.06866455 60.35540771 C12.05842169 65.26883534 12.05386475 70.18226789 12.04882812 75.09570312 C12.03811437 84.73048206 12.02105401 94.3652385 12 104 C12.86165771 103.98952637 13.72331543 103.97905273 14.61108398 103.96826172 C17.84837839 103.933908 21.08557897 103.90896987 24.32299805 103.89013672 C25.71658409 103.8801607 27.11014966 103.86657499 28.50366211 103.84912109 C40.72918104 103.6999759 50.99846237 104.2467419 61 112 C69.22805295 120.35155094 71.23371981 127.74128049 71.32983398 139.18969727 C71.26387154 143.74332332 70.49921157 146.50236529 69 151 C77.91 151 86.82 151 96 151 C95.97905273 148.51299561 95.95810547 146.02599121 95.93652344 143.46362305 C95.87001495 135.21355672 95.82596974 126.96347803 95.79275131 118.71321392 C95.7719452 113.71483272 95.74375605 108.71672799 95.69824219 103.71850586 C95.65453429 98.88795597 95.63081052 94.05767074 95.62049103 89.22693825 C95.61314419 87.39107922 95.59879833 85.5552334 95.57707977 83.71948814 C95.41610954 69.53971291 96.30160865 58.77106783 106.63671875 48.09765625 C112.822611 42.60703784 120.19173322 40.45361007 128.3125 39.6875 C137.28146011 40.44758136 144.36798309 42.83441065 151 49 C151.55558594 49.51433594 152.11117187 50.02867188 152.68359375 50.55859375 C162.33130384 60.59124988 161.54376479 73.50518913 161.390625 86.44921875 C161.38315125 88.31679169 161.37746368 90.18437255 161.37347412 92.05195618 C161.35830701 96.93303633 161.31910364 101.81362942 161.2746582 106.69451904 C161.23351146 111.68885716 161.21542193 116.68327509 161.1953125 121.67773438 C161.1525995 131.45203522 161.08445818 141.22597688 161 151 C161.87100342 150.97905273 162.74200684 150.95810547 163.6394043 150.93652344 C166.93655415 150.86749148 170.23291338 150.81779311 173.53051758 150.78027344 C174.945356 150.76041606 176.36011531 150.73332034 177.7746582 150.69824219 C188.59777377 150.43698132 198.88836979 151.17033302 208.31640625 157.078125 C216.49694205 164.98834744 220.39653903 172.51708392 221.3125 183.875 C221.02480575 192.52275074 217.71656426 200.54195669 212 207 C204.28956816 213.66710608 197.11374274 216.3452778 186.87890625 216.1953125 C186.2175769 216.19329834 185.55624756 216.19128418 184.87487793 216.18920898 C182.43734664 216.17885497 179.99991532 216.15093361 177.5625 216.125 C172.096875 216.08375 166.63125 216.0425 161 216 C161 234.15 161 252.3 161 271 C165.62 271.33 170.24 271.66 175 272 C177.87624372 272.29012333 180.74057999 272.59259549 183.609375 272.9375 C185.12238208 273.11209843 186.63540337 273.28657372 188.1484375 273.4609375 C190.44262056 273.72883573 192.73658475 273.99840856 195.03027344 274.27050781 C200.34885454 274.89850687 205.67064346 275.47144206 211 276 C211.79030609 276.08268127 212.58061218 276.16536255 213.39486694 276.25054932 C222.68263846 277.18345363 230.52428843 277.87457654 238.8125 272.875 C239.62887939 272.42487549 240.44525879 271.97475098 241.28637695 271.51098633 C243.8878044 270.05391956 246.44352266 268.53436785 249 267 C249.87624023 266.49033691 250.75248047 265.98067383 251.65527344 265.45556641 C264.13529054 258.18805918 275.79559568 250.10430268 287 241 C287.58716797 240.52320801 288.17433594 240.04641602 288.77929688 239.55517578 C297.15701394 232.7008981 305.08643685 225.37939112 313 218 C344.62778748 188.52539018 376.69232772 177.38256159 419.91772461 178.90100098 C470.05162426 181.28455078 534.37828452 196.79071846 579 220 C580.63582031 220.82177734 580.63582031 220.82177734 582.3046875 221.66015625 C598.21622706 230.2232367 609.33249885 243.20965568 615.1171875 260.30078125 C617.88731194 271.90833809 616.5177168 284.04750893 612 295 C611.4740625 296.28583984 611.4740625 296.28583984 610.9375 297.59765625 C602.03950899 317.09290738 584.00902929 332.5886118 567 345 C566.01773437 345.72485596 566.01773437 345.72485596 565.015625 346.46435547 C552.20057869 355.91003222 539.09073452 364.94289445 526 374 C524.54938959 375.00507906 523.09885918 376.01027361 521.6484375 377.015625 C518.76696876 379.0123632 515.88413948 381.00712052 513 383 C515.22278741 387.1677264 517.64826781 390.92083706 520.5 394.6875 C575.55905256 469.62898821 596.34984258 571.96675757 625.14043236 716.13706398 C625.58477546 718.58951539 626.03021441 721.04176618 626.47573853 723.4940033 C633.69578087 763.27266613 640.31946156 803.14853925 646.91927338 843.03383636 C649.01199462 855.6799928 651.10947239 868.3253434 653.21875 880.96875 C653.35634979 881.79376141 653.49394958 882.61877282 653.63571906 883.46878457 C658.05832449 909.96874031 662.70194474 936.42450876 667.51953125 962.85546875 C667.66573221 963.65813738 667.81193317 964.46080601 667.96256447 965.28779793 C675.94586942 1009.09961665 684.68894175 1052.6707301 695 1096 C695.19638062 1096.82912903 695.39276123 1097.65825806 695.59509277 1098.51251221 C715.35082025 1181.8934892 741.42221426 1274.42896471 805 1343 C805.65484375 1343.70898438 806.3096875 1344.41796875 806.984375 1345.1484375 C821.42806639 1360.27110584 839.53268852 1370.00396236 858.13183594 1379.03515625 C858.83211914 1379.37933594 859.53240234 1379.72351562 860.25390625 1380.078125 C860.88498291 1380.3865332 861.51605957 1380.69494141 862.16625977 1381.01269531 C870.4349318 1385.46463376 874.87412658 1392.96904506 877.56453967 1401.86711633 C878.05575624 1404.27309394 878.12787549 1406.47469167 878.13142776 1408.93082619 C878.13526891 1409.92887453 878.13911005 1410.92692287 878.1430676 1411.9552151 C878.14220112 1413.04955375 878.14133463 1414.1438924 878.14044189 1415.27139282 C878.14489858 1417.01777985 878.14489858 1417.01777985 878.1494453 1418.79944742 C878.15662472 1422.03196251 878.15930455 1425.26444522 878.16004276 1428.49696708 C878.16189436 1431.98315256 878.16944231 1435.46932654 878.17617798 1438.95550537 C878.18975859 1446.57966215 878.19578583 1454.20381366 878.20018864 1461.82798052 C878.20295198 1466.59004738 878.20718955 1471.35211221 878.21169281 1476.1141777 C878.22388599 1489.30268794 878.23418464 1502.49119655 878.2375679 1515.6797123 C878.23778747 1516.52379301 878.23800703 1517.36787372 878.23823325 1518.23753264 C878.23845153 1519.08362077 878.23866981 1519.9297089 878.2388947 1520.80143607 C878.23933817 1522.51589878 878.23978473 1524.2303615 878.24023438 1525.94482422 C878.2404558 1526.79525493 878.24067723 1527.64568565 878.24090537 1528.52188699 C878.24485151 1542.29506939 878.26229966 1556.06819882 878.2855939 1569.84136076 C878.30932469 1583.98703302 878.32177057 1598.13267873 878.32293582 1612.27837121 C878.3238517 1620.21858566 878.32958197 1628.15873113 878.34775543 1636.09892654 C878.36317987 1642.86184281 878.36826316 1649.62466878 878.36001733 1656.3875993 C878.35611885 1659.83593776 878.35700081 1663.2840945 878.37107468 1666.73241043 C878.38378198 1670.47733122 878.37792327 1674.22178763 878.36749268 1677.96670532 C878.37554908 1679.04765964 878.38360548 1680.12861396 878.39190602 1681.24232447 C878.32398439 1691.69049297 876.03054536 1701.0218594 869 1709 C861.32196736 1715.51210917 853.14146775 1718.46596047 843.19080639 1718.38031673 C842.33561923 1718.38497665 841.48043208 1718.38963657 840.59933016 1718.3944377 C837.73811572 1718.4063739 834.87737734 1718.39699751 832.01615906 1718.38768005 C829.94231672 1718.39185357 827.86847666 1718.39733118 825.79464084 1718.40399987 C820.09891529 1718.41847091 814.40333423 1718.41420449 808.70760071 1718.40683305 C802.56362871 1718.40210778 796.41968825 1718.41460561 790.27572632 1718.42485046 C778.93573093 1718.44106216 767.59579376 1718.44348107 756.25579344 1718.43854547 C745.77777518 1718.43398734 735.29977407 1718.43458866 724.82175636 1718.44038582 C723.41595148 1718.44114269 722.0101466 1718.44189867 720.60434172 1718.44265376 C718.48587803 1718.44379897 716.36741435 1718.44494884 714.24895068 1718.44611301 C694.5538706 1718.45681765 674.85879623 1718.46154369 655.16371441 1718.45364285 C654.05015464 1718.45319709 654.05015464 1718.45319709 652.91409871 1718.45274232 C646.88561946 1718.45029342 640.85714028 1718.44768181 634.8286611 1718.44505819 C611.31746894 1718.43495735 587.80634821 1718.44330819 564.29516602 1718.46655273 C537.87449653 1718.49263156 511.45387005 1718.50547149 485.03318721 1718.49836498 C482.21535513 1718.49764893 479.39752303 1718.49697455 476.57969093 1718.49632454 C475.8858799 1718.49615473 475.19206886 1718.49598492 474.47723325 1718.49580997 C464.0088251 1718.49350802 453.54045691 1718.50147905 443.07205772 1718.51461601 C431.16434311 1718.52953264 419.25672534 1718.52998918 407.34900459 1718.5125451 C401.27374925 1718.50402265 395.19867254 1718.50191614 389.12342644 1718.51719666 C383.56006481 1718.5310164 377.99703531 1718.52631515 372.43369303 1718.50695742 C370.42298357 1718.50318879 368.41224767 1718.50614415 366.4015617 1718.51656907 C352.788249 1718.58212188 341.3172033 1718.2001691 330.9453125 1708.29296875 C326.20226699 1702.70227052 322.91775431 1695.75640683 322.817276 1688.38929749 C322.8019687 1687.44024221 322.7866614 1686.49118694 322.77089024 1685.51337242 C322.75892077 1684.47134478 322.74695131 1683.42931713 322.73461914 1682.35571289 C322.71813041 1681.25368341 322.70164167 1680.15165394 322.68465328 1679.01622963 C322.63051763 1675.33508671 322.58296704 1671.65388629 322.53515625 1667.97265625 C322.49783807 1665.38197584 322.45998651 1662.79130307 322.42163086 1660.20063782 C322.34034093 1654.68845634 322.26168044 1649.17624332 322.18460083 1643.66400146 C321.98391962 1629.36298205 321.75898768 1615.06232936 321.53125 1600.76171875 C321.52008313 1600.05861478 321.50891627 1599.35551081 321.49741101 1598.63110065 C320.97970584 1566.07509559 320.25488587 1533.53698896 319 1501 C318.96207211 1500.01253407 318.96207211 1500.01253407 318.92337799 1499.00511932 C314.92766928 1395.19568086 307.90917077 1290.98576611 257 1050 C256.60699707 1048.80181641 256.21399414 1047.60363281 255.80908203 1046.36914062 C233.46999223 978.76660687 198.30203406 920.78106831 159 862 C158.21157715 862.78914795 157.4231543 863.5782959 156.61083984 864.39135742 C155.15501385 865.8459582 153.69627069 867.29770825 152.2265625 868.73828125 C149.19322089 871.7198341 146.3160991 874.75715095 143.5625 878 C140.01924381 882.09077923 136.1355508 885.52253517 132 889 C131.07574219 889.81210937 130.15148437 890.62421875 129.19921875 891.4609375 C111.66095267 906.79084683 92.00339431 919.0668892 70.99072266 929.04980469 C69.69945242 929.66614314 68.41233938 930.29129795 67.13037109 930.92675781 C8.31305881 960.0357177 -61.38694158 966.38169106 -126 970 C-126.90391479 970.05091797 -127.80782959 970.10183594 -128.73913574 970.15429688 C-135.5323962 970.52924857 -142.32725123 970.84359512 -149.125 971.125 C-150.16334991 971.16892883 -151.20169983 971.21285767 -152.27151489 971.25811768 C-169.076016 971.93483015 -185.85600401 972.03595513 -202.67208099 971.99795151 C-206.19630567 971.99217948 -209.7204628 971.99299397 -213.24468994 971.99636841 C-214.4171804 971.99746801 -215.58967087 971.99856762 -216.79769135 971.99970055 C-219.18022447 972.00218351 -221.56275728 972.00500384 -223.94528961 972.00815773 C-231.07085523 972.01317306 -238.19431459 971.97107559 -245.31946278 971.8962574 C-249.83163111 971.85911352 -254.34312159 971.86352757 -258.85539055 971.87805557 C-260.97727485 971.87604131 -263.09922493 971.8565378 -265.22076607 971.81832504 C-278.05411259 971.21453084 -278.05411259 971.21453084 -289.24300098 976.51317596 C-291.32384869 978.54682735 -293.16457939 980.74521302 -295 983 C-296.14705458 984.01344032 -297.32313702 984.99609275 -298.5390625 985.92578125 C-299.55742188 986.71339844 -300.57578125 987.50101563 -301.625 988.3125 C-303.4492016 989.72298339 -305.27427597 991.1321866 -307.10351562 992.53613281 C-309.0231476 994.01786728 -310.92641194 995.51879597 -312.828125 997.0234375 C-329.24729857 1009.91876052 -346.7385207 1021.85150275 -365 1032 C-365.86044922 1032.48001465 -366.72089844 1032.9600293 -367.60742188 1033.45458984 C-417.42867409 1060.96112981 -475.5176014 1076.87248339 -531.8125 1061.25 C-556.23396974 1054.05268409 -577.52409103 1041.49567586 -596 1024 C-597.23363281 1022.84564453 -597.23363281 1022.84564453 -598.4921875 1021.66796875 C-626.85628081 994.32003454 -643.16580279 954.21875962 -644.03125 915.03515625 C-644.16266306 872.99119091 -624.26579288 838.60567253 -598 807 C-597.22406494 806.05640625 -596.44812988 805.1128125 -595.64868164 804.140625 C-589.46600535 796.68153097 -582.9703142 789.65467384 -576.09326172 782.83251953 C-574.49337171 781.2434164 -572.90455586 779.64379625 -571.31640625 778.04296875 C-564.86551942 771.58338541 -558.16195838 765.67548748 -551 760 C-549.70601915 758.92752534 -548.41526276 757.85113898 -547.12890625 756.76953125 C-522.94987814 736.63872698 -495.85790694 720.24170045 -469.06591797 703.87402344 C-434.80223588 683.03146993 -434.80223588 683.03146993 -402 660 C-401.38125 659.53287598 -400.7625 659.06575195 -400.125 658.58447266 C-381.72260404 644.59924663 -364.20252086 629.31994893 -350 611 C-349.22527344 610.04222656 -348.45054687 609.08445312 -347.65234375 608.09765625 C-345.48894626 605.37883817 -343.41224192 602.62419782 -341.36523438 599.81835938 C-340.45011433 598.59950851 -339.50524517 597.4024732 -338.53320312 596.22851562 C-326.37866348 581.50853905 -324.1093117 563.80464724 -320.537323 545.61422729 C-307.851101 481.40169537 -281.68870484 415.55443851 -241 364 C-240.29875 363.10667969 -239.5975 362.21335937 -238.875 361.29296875 C-225.9439863 345.15229272 -211.35586373 329.6798659 -195 317 C-194.04222656 316.22527344 -193.08445312 315.45054687 -192.09765625 314.65234375 C-152.87152237 283.43961931 -102.74431109 263.97443111 -53 259 C-53 229.3 -53 199.6 -53 169 C-67.19 169 -81.38 169 -96 169 C-107.04630927 164.58147629 -113.7012283 161.58153503 -119 151 C-122.32111754 142.14771216 -123.12958141 133.84533379 -119.8671875 124.890625 C-115.51251565 115.32462455 -109.81674558 109.78035006 -100.17578125 105.7265625 C-94.68831916 103.89412453 -89.48640509 103.86754787 -83.76171875 103.90234375 C-82.88095169 103.9037587 -82.00018463 103.90517365 -81.09272766 103.90663147 C-78.29094997 103.91221063 -75.48925338 103.92475929 -72.6875 103.9375 C-70.78320428 103.94251769 -68.87890731 103.94708013 -66.97460938 103.95117188 C-62.31637519 103.96217323 -57.65820133 103.97942351 -53 104 C-53.00888245 102.94257095 -53.01776489 101.88514191 -53.0269165 100.79566956 C-53.10817774 90.80627149 -53.16804944 80.81694093 -53.20724869 70.82728672 C-53.2280793 65.69209018 -53.25631405 60.55716153 -53.30175781 55.42211914 C-53.34537723 50.46190208 -53.36917112 45.50194191 -53.37950897 40.54154778 C-53.38687151 38.65379737 -53.40124868 36.76606024 -53.42292023 34.87841988 C-53.62348637 16.67658735 -53.62348637 16.67658735 -49 9 C-48.55398438 8.20207031 -48.10796875 7.40414062 -47.6484375 6.58203125 C-42.51665836 -0.54893792 -35.13282493 -5.35095629 -26.40234375 -6.80859375 C-16.41393877 -7.60441789 -8.37542194 -5.57553414 0 0 Z M12 169 C12 197.38 12 225.76 12 255 C15.9009269 255.97523173 19.49605358 256.24767657 23.48046875 256.39453125 C25.03445029 256.46113672 26.58840428 256.52838728 28.14233398 256.59619141 C28.96418182 256.6310968 29.78602966 256.6660022 30.63278198 256.70196533 C52.52957425 257.64937113 74.19546759 259.73655373 96 262 C96 246.82 96 231.64 96 216 C82.29927702 215.82986439 82.29927702 215.82986439 68.59814453 215.70214844 C66.85967423 215.67273912 65.12122718 215.64190634 63.3828125 215.609375 C62.5055249 215.60824707 61.6282373 215.60711914 60.72436523 215.60595703 C51.45787678 215.39529663 43.57106197 212.44221788 36.7578125 206.0703125 C31.39942947 199.75932804 28.85666754 192.48349567 28.8125 184.3125 C28.79832031 183.13300781 28.78414062 181.95351562 28.76953125 180.73828125 C29 177 29 177 31 169 C24.73 169 18.46 169 12 169 Z " fill="#000" stroke="#000" stroke-width="50" transform="translate(840,68)"/>
      <path d="M0 0 C28.4863948 22.63799207 43.81731562 54.92183498 50.25 90.25 C50.38132324 90.9704248 50.51264648 91.69084961 50.64794922 92.43310547 C57.69500699 133.55906253 48.89340744 178.18304445 26.25 213.25 C23.75980541 216.7602166 21.09278545 220.02156536 18.25 223.25 C17.56421875 224.06726562 16.8784375 224.88453125 16.171875 225.7265625 C2.49040638 241.62265733 -16.66021167 254.90981253 -37.75 258.25 C-38.41902344 258.36085938 -39.08804687 258.47171875 -39.77734375 258.5859375 C-65.04011988 262.06721391 -88.34737259 255.22488749 -108.75 240.25 C-138.2075132 217.2270295 -154.04964722 179.58014887 -158.75 143.25 C-163.50259947 101.64875262 -155.56180956 55.39057766 -128.9609375 21.8828125 C-114.79477908 5.01357085 -99.71954876 -7.67702788 -78.75 -14.75 C-77.77417969 -15.0903125 -76.79835938 -15.430625 -75.79296875 -15.78125 C-49.79491116 -23.29876063 -21.18171129 -16.07580405 0 0 Z " fill="#fff" transform="translate(1562.75,1436.75)"/>
      <path d="M0 0 C25.19382119 21.83681785 39.62245239 51.21102658 46.01953125 83.6171875 C46.1705127 84.35710937 46.32149414 85.09703125 46.47705078 85.859375 C54.86959096 128.30190831 46.1952441 174.26537495 22.58447266 210.52880859 C8.12081606 231.96349356 -13.1732211 249.99293954 -39.1015625 255.25 C-64.64446646 259.04081967 -88.69009938 254.79398169 -109.68798828 239.36230469 C-132.16766926 221.99486547 -146.09538958 198.24081572 -154.98046875 171.6171875 C-155.3043457 170.65868896 -155.62822266 169.70019043 -155.96191406 168.71264648 C-158.49977725 160.88953567 -160.13504538 153.20024442 -161.23046875 145.0546875 C-161.39812744 143.80888916 -161.56578613 142.56309082 -161.73852539 141.27954102 C-166.0277918 106.614331 -161.48955652 73.00332221 -145.98046875 41.6171875 C-145.43777344 40.48152344 -144.89507813 39.34585937 -144.3359375 38.17578125 C-131.51225484 12.74682416 -110.26149502 -7.43337878 -83.35546875 -17.1953125 C-81.90552181 -17.62084041 -80.4464501 -18.01631716 -78.98046875 -18.3828125 C-78.18640625 -18.58648438 -77.39234375 -18.79015625 -76.57421875 -19 C-48.98970683 -24.78640624 -21.60698432 -17.87048883 0 0 Z " fill="#fff" transform="translate(1403.98046875,1183.3828125)"/>
      <path d="M0 0 C2.40601874 1.89175519 4.70785842 3.85506863 6.99609375 5.88671875 C7.67671875 6.43714844 8.35734375 6.98757813 9.05859375 7.5546875 C37.11849188 30.62737718 50.34160274 69.97193316 53.99609375 104.88671875 C55.03169791 119.98427932 54.39652618 134.94912354 51.99609375 149.88671875 C51.80226883 151.31199896 51.61146489 152.73769882 51.42578125 154.1640625 C47.42125437 180.58829975 35.60532659 208.18994762 17.0390625 227.703125 C14.94782032 229.8663892 14.94782032 229.8663892 13.12109375 232.3359375 C0.79212628 247.13523118 -20.10390771 257.44182975 -39.00390625 259.88671875 C-65.61224463 262.12737948 -86.9918733 256.93581451 -108.03515625 240.41796875 C-131.80177331 220.15380052 -147.36614356 192.37760286 -154.00390625 161.88671875 C-154.23255371 160.85417969 -154.23255371 160.85417969 -154.46582031 159.80078125 C-159.54537034 135.48915519 -159.68599062 106.09341381 -154.00390625 81.88671875 C-153.76244873 80.79568848 -153.76244873 80.79568848 -153.51611328 79.68261719 C-148.16743007 56.09908602 -137.24717093 33.85516677 -121.00390625 15.88671875 C-120.56884766 15.40251465 -120.13378906 14.91831055 -119.68554688 14.41943359 C-108.83166784 2.49777167 -96.04109993 -6.20910704 -81.00390625 -12.11328125 C-80.04613281 -12.52578125 -79.08835937 -12.93828125 -78.1015625 -13.36328125 C-52.10232435 -22.80562751 -21.95713072 -15.44708416 0 0 Z " fill="#fff" transform="translate(1305.00390625,838.11328125)"/>
      <path d="M0 0 C12.418785 -0.49611126 22.50327343 3.98589392 31.59375 12.30859375 C42.10498885 23.13943108 46.86542677 36.81287523 50.28125 51.19140625 C50.44641113 51.86606934 50.61157227 52.54073242 50.78173828 53.23583984 C58.29587131 85.53806427 55.35158177 127.34843188 38.28125 156.19140625 C32.75952992 164.86839494 24.87814318 171.35264898 15.28125 175.19140625 C2.30579214 177.39628234 -8.59357827 177.8508417 -19.71875 170.19140625 C-37.55813008 156.9466291 -44.18350328 135.30639977 -47.34765625 114.109375 C-48.02291363 108.79971962 -48.48803709 103.54072652 -48.71875 98.19140625 C-48.75274902 97.40427246 -48.78674805 96.61713867 -48.82177734 95.80615234 C-49.72248946 71.43205946 -47.99873948 42.00417684 -33.71875 21.19140625 C-33.20699219 20.43730469 -32.69523438 19.68320312 -32.16796875 18.90625 C-25.84260847 10.19615619 -17.13199484 2.90215506 -6.46875 0.44140625 C-4.31227267 0.29764109 -2.15592788 0.15178228 0 0 Z " fill="#fff" transform="translate(677.71875,522.80859375)"/>
    </g>
  </symbol>
  <use xlink:href="#G" x="0" y="0"/>
</svg>