<?xml version="1.0" encoding="UTF-8" standalone="no"?>
<!DOCTYPE svg PUBLIC "-//W3C//DTD SVG 1.1//EN" "http://www.w3.org/Graphics/SVG/1.1/DTD/svg11.dtd">
<svg xmlns:xlink="http://www.w3.org/1999/xlink" version="1.1" viewBox="0 0 1350 1035" width="1350" height="1035" xmlns="http://www.w3.org/2000/svg">
  <symbol id="_20" width="45" height="45" overflow="visible">
    <rect width="45" height="45" fill="#eee"/>
  </symbol>
  <symbol id="_20_v1" width="45" height="45" overflow="visible">
    <rect width="45" height="45" fill="#ccc"/>
  </symbol>
  <symbol id="Q" width="45" height="45" overflow="visible">
    <line x1="22.5" y1="22.5" x2="67.5" y2="112.5" stroke="white" stroke-width="10" stroke-linecap="round"/>
    <line x1="22.5" y1="22.5" x2="67.5" y2="112.5" stroke="white" stroke-width="10" stroke-linecap="round"/>
  </symbol>
  <symbol id="Q_v1" width="45" height="45" overflow="visible">
    <line x1="22.5" y1="22.5" x2="67.5" y2="112.5" stroke="hsl(286,65%,60%)" stroke-width="7" stroke-linecap="round"/>
    <line x1="22.5" y1="22.5" x2="67.5" y2="112.5" stroke="hsl(0,65%,50%)" stroke-width="7" stroke-linecap="round"/>
  </symbol>
  <symbol id="Q_v2" width="45" height="45" overflow="visible">
    <g fill-rule="evenodd" stroke-width="1.5" stroke-linecap="round" stroke-linejoin="miter" stroke-miterlimit="4">
      <g fill="#000" stroke="none">
        <circle cx="6" cy="12" r="2.75"/>
        <circle cx="14" cy="9" r="2.75"/>
        <circle cx="22.5" cy="8" r="2.75"/>
        <circle cx="31" cy="9" r="2.75"/>
        <circle cx="39" cy="12" r="2.75"/>
      </g>
      <path d="M 9,26 C 17.5,24.5 30,24.5 36,26 L 38.5,13.5 L 31,25 L 30.7,10.9 L 25.5,24.5 L 22.5,10 L 19.5,24.5 L 14.3,10.9 L 14,25 L 6.5,13.5 L 9,26 z" stroke-linecap="butt" stroke="#000" fill="#000"/>
      <path d="M 9,26 C 9,28 10.5,28 11.5,30 C 12.5,31.5 12.5,31 12,33.5 C 10.5,34.5 10.5,36 10.5,36 C 9,37.5 11,38.5 11,38.5 C 17.5,39.5 27.5,39.5 34,38.5 C 34,38.5 35.5,37.5 34,36 C 34,36 34.5,34.5 33,33.5 C 32.5,31 32.5,31.5 33.5,30 C 34.5,28 36,28 36,26 C 27.5,24.5 17.5,24.5 9,26 z" stroke-linecap="butt" stroke="#000" fill="#000"/>
      <g fill="none">
        <path d="M 11,38.5 A 35,35 1 0 0 34,38.5" stroke="#000" stroke-linecap="butt"/>
        <path d="M 11,29 A 35,35 1 0 1 34,29 M 12.5,31.5 L 32.5,31.5 M 11.5,34.5 A 35,35 1 0 0 33.5,34.5 M 10.5,37.5 A 35,35 1 0 0 34.5,37.5" stroke="#fff"/>
      </g>
    </g>
  </symbol>
  <symbol id="Q_v3" width="45" height="45" overflow="visible">
    <line x1="22.5" y1="22.5" x2="-67.5" y2="67.5" stroke="white" stroke-width="10" stroke-linecap="round"/>
    <line x1="22.5" y1="22.5" x2="-22.5" y2="112.5" stroke="white" stroke-width="10" stroke-linecap="round"/>
    <line x1="22.5" y1="22.5" x2="-67.5" y2="67.5" stroke="white" stroke-width="10" stroke-linecap="round"/>
    <line x1="22.5" y1="22.5" x2="-22.5" y2="112.5" stroke="white" stroke-width="10" stroke-linecap="round"/>
  </symbol>
  <symbol id="Q_v4" width="45" height="45" overflow="visible">
    <line x1="22.5" y1="22.5" x2="-67.5" y2="67.5" stroke="hsl(286,65%,60%)" stroke-width="7" stroke-linecap="round"/>
    <line x1="22.5" y1="22.5" x2="-22.5" y2="112.5" stroke="hsl(286,65%,60%)" stroke-width="7" stroke-linecap="round"/>
    <line x1="22.5" y1="22.5" x2="-67.5" y2="67.5" stroke="hsl(0,65%,50%)" stroke-width="7" stroke-linecap="round"/>
    <line x1="22.5" y1="22.5" x2="-22.5" y2="112.5" stroke="hsl(0,65%,50%)" stroke-width="7" stroke-linecap="round"/>
  </symbol>
  <symbol id="Q_v5" width="45" height="45" overflow="visible">
    <line x1="22.5" y1="22.5" x2="-22.5" y2="112.5" stroke="white" stroke-width="10" stroke-linecap="round"/>
    <line x1="22.5" y1="22.5" x2="-22.5" y2="112.5" stroke="white" stroke-width="10" stroke-linecap="round"/>
  </symbol>
  <symbol id="Q_v6" width="45" height="45" overflow="visible">
    <line x1="22.5" y1="22.5" x2="-22.5" y2="112.5" stroke="hsl(286,65%,60%)" stroke-width="7" stroke-linecap="round"/>
    <line x1="22.5" y1="22.5" x2="-22.5" y2="112.5" stroke="hsl(0,65%,50%)" stroke-width="7" stroke-linecap="round"/>
  </symbol>
  <symbol id="Q_v7" width="45" height="45" overflow="visible">
    <line x1="22.5" y1="22.5" x2="112.5" y2="67.5" stroke="white" stroke-width="10" stroke-linecap="round"/>
    <line x1="22.5" y1="22.5" x2="112.5" y2="67.5" stroke="white" stroke-width="10" stroke-linecap="round"/>
  </symbol>
  <symbol id="Q_v8" width="45" height="45" overflow="visible">
    <line x1="22.5" y1="22.5" x2="112.5" y2="67.5" stroke="hsl(286,65%,60%)" stroke-width="7" stroke-linecap="round"/>
    <line x1="22.5" y1="22.5" x2="112.5" y2="67.5" stroke="hsl(0,65%,50%)" stroke-width="7" stroke-linecap="round"/>
  </symbol>
  <symbol id="s" width="45" height="45" overflow="visible">
    <line x1="22.5" y1="22.5" x2="112.5" y2="67.5" stroke="white" stroke-width="10" stroke-linecap="round"/>
    <line x1="22.5" y1="22.5" x2="1080" y2="22.5" stroke="white" stroke-width="10" stroke-linecap="round"/>
    <line x1="22.5" y1="22.5" x2="22.5" y2="855" stroke="white" stroke-width="10" stroke-linecap="round"/>
    <line x1="22.5" y1="22.5" x2="22.5" y2="-180" stroke="white" stroke-width="10" stroke-linecap="round"/>
    <line x1="22.5" y1="22.5" x2="-270" y2="22.5" stroke="white" stroke-width="10" stroke-linecap="round"/>
    <line x1="22.5" y1="22.5" x2="855" y2="855" stroke="white" stroke-width="10" stroke-linecap="round"/>
    <line x1="22.5" y1="22.5" x2="-270" y2="315" stroke="white" stroke-width="10" stroke-linecap="round"/>
    <line x1="22.5" y1="22.5" x2="-180" y2="-180" stroke="white" stroke-width="10" stroke-linecap="round"/>
    <line x1="22.5" y1="22.5" x2="225" y2="-180" stroke="white" stroke-width="10" stroke-linecap="round"/>
  </symbol>
  <symbol id="s_v1" width="45" height="45" overflow="visible">
    <line x1="22.5" y1="22.5" x2="112.5" y2="67.5" stroke="hsl(0,65%,50%)" stroke-width="7" stroke-linecap="round"/>
    <line x1="22.5" y1="22.5" x2="1080" y2="22.5" stroke="hsl(0,65%,50%)" stroke-width="7" stroke-linecap="round"/>
    <line x1="22.5" y1="22.5" x2="22.5" y2="855" stroke="hsl(0,65%,50%)" stroke-width="7" stroke-linecap="round"/>
    <line x1="22.5" y1="22.5" x2="22.5" y2="-180" stroke="hsl(0,65%,50%)" stroke-width="7" stroke-linecap="round"/>
    <line x1="22.5" y1="22.5" x2="-270" y2="22.5" stroke="hsl(0,65%,50%)" stroke-width="7" stroke-linecap="round"/>
    <line x1="22.5" y1="22.5" x2="855" y2="855" stroke="hsl(0,65%,50%)" stroke-width="7" stroke-linecap="round"/>
    <line x1="22.5" y1="22.5" x2="-270" y2="315" stroke="hsl(0,65%,50%)" stroke-width="7" stroke-linecap="round"/>
    <line x1="22.5" y1="22.5" x2="-180" y2="-180" stroke="hsl(0,65%,50%)" stroke-width="7" stroke-linecap="round"/>
    <line x1="22.5" y1="22.5" x2="225" y2="-180" stroke="hsl(0,65%,50%)" stroke-width="7" stroke-linecap="round"/>
  </symbol>
  <symbol id="s_v2" width="45" height="45" overflow="visible">
    <g fill-rule="evenodd" stroke-width="1.5" stroke-linecap="round" stroke-linejoin="miter" stroke-miterlimit="4">
      <g fill="hsl(99,66%,40%)" stroke="#000">
        <path d="M 9 13 A 2 2 0 1 1  5,13 A 2 2 0 1 1  9 13 z" transform="translate(-1,-1)"/>
        <path d="M 9 13 A 2 2 0 1 1  5,13 A 2 2 0 1 1  9 13 z" transform="translate(15.5,-5.5)"/>
        <path d="M 9 13 A 2 2 0 1 1  5,13 A 2 2 0 1 1  9 13 z" transform="translate(32,-1)"/>
        <path d="M 9 13 A 2 2 0 1 1  5,13 A 2 2 0 1 1  9 13 z" transform="translate(7,-4.5)"/>
        <path d="M 9 13 A 2 2 0 1 1  5,13 A 2 2 0 1 1  9 13 z" transform="translate(24,-4)"/>
      </g>
      <path d="M 9,26 C 17.5,24.5 30,24.5 36,26 L 38.5,13.5 L 31,25 L 30.7,10.9 L 25.5,24.5 L 22.5,10 L 19.5,24.5 L 14.3,10.9 L 14,25 L 6.5,13.5 L 9,26 z" stroke-linecap="butt" stroke="#000" fill="hsl(99,66%,40%)"/>
      <path d="M 9,26 C 9,28 10.5,28 11.5,30 C 12.5,31.5 12.5,31 12,33.5 C 10.5,34.5 10.5,36 10.5,36 C 9,37.5 11,38.5 11,38.5 C 17.5,39.5 27.5,39.5 34,38.5 C 34,38.5 35.5,37.5 34,36 C 34,36 34.5,34.5 33,33.5 C 32.5,31 32.5,31.5 33.5,30 C 34.5,28 36,28 36,26 C 27.5,24.5 17.5,24.5 9,26 z" stroke-linecap="butt" stroke="#000" fill="hsl(99,66%,40%)"/>
      <path d="M 11.5,30 C 15,29 30,29 33.5,30 M 12,33.5 C 18,32.5 27,32.5 33,33.5" fill="none" stroke="#000"/>
    </g>
  </symbol>
  <symbol id="Q_v9" width="45" height="45" overflow="visible">
    <line x1="22.5" y1="22.5" x2="-67.5" y2="67.5" stroke="white" stroke-width="10" stroke-linecap="round"/>
    <line x1="22.5" y1="22.5" x2="-67.5" y2="67.5" stroke="white" stroke-width="10" stroke-linecap="round"/>
  </symbol>
  <symbol id="Q_v10" width="45" height="45" overflow="visible">
    <line x1="22.5" y1="22.5" x2="-67.5" y2="67.5" stroke="hsl(286,65%,60%)" stroke-width="7" stroke-linecap="round"/>
    <line x1="22.5" y1="22.5" x2="-67.5" y2="67.5" stroke="hsl(0,65%,50%)" stroke-width="7" stroke-linecap="round"/>
  </symbol>
  <symbol id="Q_v11" width="45" height="45" overflow="visible">
    <line x1="22.5" y1="22.5" x2="-67.5" y2="67.5" stroke="white" stroke-width="10" stroke-linecap="round"/>
    <line x1="22.5" y1="22.5" x2="112.5" y2="67.5" stroke="white" stroke-width="10" stroke-linecap="round"/>
    <line x1="22.5" y1="22.5" x2="-67.5" y2="67.5" stroke="white" stroke-width="10" stroke-linecap="round"/>
    <line x1="22.5" y1="22.5" x2="112.5" y2="67.5" stroke="white" stroke-width="10" stroke-linecap="round"/>
  </symbol>
  <symbol id="Q_v12" width="45" height="45" overflow="visible">
    <line x1="22.5" y1="22.5" x2="-67.5" y2="67.5" stroke="hsl(286,65%,60%)" stroke-width="7" stroke-linecap="round"/>
    <line x1="22.5" y1="22.5" x2="112.5" y2="67.5" stroke="hsl(286,65%,60%)" stroke-width="7" stroke-linecap="round"/>
    <line x1="22.5" y1="22.5" x2="-67.5" y2="67.5" stroke="hsl(0,65%,50%)" stroke-width="7" stroke-linecap="round"/>
    <line x1="22.5" y1="22.5" x2="112.5" y2="67.5" stroke="hsl(0,65%,50%)" stroke-width="7" stroke-linecap="round"/>
  </symbol>
  <symbol id="Q_v13" width="45" height="45" overflow="visible">
    <line x1="22.5" y1="22.5" x2="-22.5" y2="112.5" stroke="white" stroke-width="10" stroke-linecap="round"/>
    <line x1="22.5" y1="22.5" x2="112.5" y2="67.5" stroke="white" stroke-width="10" stroke-linecap="round"/>
    <line x1="22.5" y1="22.5" x2="-22.5" y2="112.5" stroke="white" stroke-width="10" stroke-linecap="round"/>
    <line x1="22.5" y1="22.5" x2="112.5" y2="67.5" stroke="white" stroke-width="10" stroke-linecap="round"/>
  </symbol>
  <symbol id="Q_v14" width="45" height="45" overflow="visible">
    <line x1="22.5" y1="22.5" x2="-22.5" y2="112.5" stroke="hsl(286,65%,60%)" stroke-width="7" stroke-linecap="round"/>
    <line x1="22.5" y1="22.5" x2="112.5" y2="67.5" stroke="hsl(286,65%,60%)" stroke-width="7" stroke-linecap="round"/>
    <line x1="22.5" y1="22.5" x2="-22.5" y2="112.5" stroke="hsl(0,65%,50%)" stroke-width="7" stroke-linecap="round"/>
    <line x1="22.5" y1="22.5" x2="112.5" y2="67.5" stroke="hsl(0,65%,50%)" stroke-width="7" stroke-linecap="round"/>
  </symbol>
  <symbol id="Q_v15" width="45" height="45" overflow="visible">
    <line x1="22.5" y1="22.5" x2="-67.5" y2="67.5" stroke="white" stroke-width="10" stroke-linecap="round"/>
    <line x1="22.5" y1="22.5" x2="67.5" y2="112.5" stroke="white" stroke-width="10" stroke-linecap="round"/>
    <line x1="22.5" y1="22.5" x2="-67.5" y2="67.5" stroke="white" stroke-width="10" stroke-linecap="round"/>
    <line x1="22.5" y1="22.5" x2="67.5" y2="112.5" stroke="white" stroke-width="10" stroke-linecap="round"/>
  </symbol>
  <symbol id="Q_v16" width="45" height="45" overflow="visible">
    <line x1="22.5" y1="22.5" x2="-67.5" y2="67.5" stroke="hsl(286,65%,60%)" stroke-width="7" stroke-linecap="round"/>
    <line x1="22.5" y1="22.5" x2="67.5" y2="112.5" stroke="hsl(286,65%,60%)" stroke-width="7" stroke-linecap="round"/>
    <line x1="22.5" y1="22.5" x2="-67.5" y2="67.5" stroke="hsl(0,65%,50%)" stroke-width="7" stroke-linecap="round"/>
    <line x1="22.5" y1="22.5" x2="67.5" y2="112.5" stroke="hsl(0,65%,50%)" stroke-width="7" stroke-linecap="round"/>
  </symbol>
  <use xlink:href="#_20" x="0" y="0"/>
  <use xlink:href="#_20_v1" x="45" y="0"/>
  <use xlink:href="#_20" x="90" y="0"/>
  <use xlink:href="#_20_v1" x="135" y="0"/>
  <use xlink:href="#_20" x="180" y="0"/>
  <use xlink:href="#_20_v1" x="225" y="0"/>
  <use xlink:href="#_20" x="270" y="0"/>
  <use xlink:href="#_20_v1" x="315" y="0"/>
  <use xlink:href="#_20" x="360" y="0"/>
  <use xlink:href="#_20_v1" x="405" y="0"/>
  <use xlink:href="#_20" x="450" y="0"/>
  <use xlink:href="#_20_v1" x="495" y="0"/>
  <use xlink:href="#_20" x="540" y="0"/>
  <use xlink:href="#_20_v1" x="585" y="0"/>
  <use xlink:href="#_20" x="630" y="0"/>
  <use xlink:href="#_20_v1" x="675" y="0"/>
  <use xlink:href="#_20" x="720" y="0"/>
  <use xlink:href="#_20_v1" x="765" y="0"/>
  <use xlink:href="#_20" x="810" y="0"/>
  <use xlink:href="#_20_v1" x="855" y="0"/>
  <use xlink:href="#_20" x="900" y="0"/>
  <use xlink:href="#_20_v1" x="945" y="0"/>
  <use xlink:href="#_20" x="990" y="0"/>
  <use xlink:href="#_20_v1" x="1035" y="0"/>
  <use xlink:href="#_20" x="1080" y="0"/>
  <use xlink:href="#_20_v1" x="1125" y="0"/>
  <use xlink:href="#_20" x="1170" y="0"/>
  <use xlink:href="#_20_v1" x="1215" y="0"/>
  <use xlink:href="#_20" x="1260" y="0"/>
  <use xlink:href="#_20_v1" x="1305" y="0"/>
  <use xlink:href="#_20_v1" x="0" y="45"/>
  <use xlink:href="#_20" x="45" y="45"/>
  <use xlink:href="#_20_v1" x="90" y="45"/>
  <use xlink:href="#_20" x="135" y="45"/>
  <use xlink:href="#_20_v1" x="180" y="45"/>
  <use xlink:href="#_20" x="225" y="45"/>
  <use xlink:href="#_20_v1" x="270" y="45"/>
  <use xlink:href="#_20" x="315" y="45"/>
  <use xlink:href="#_20_v1" x="360" y="45"/>
  <use xlink:href="#_20" x="405" y="45"/>
  <use xlink:href="#_20_v1" x="450" y="45"/>
  <use xlink:href="#_20" x="495" y="45"/>
  <use xlink:href="#_20_v1" x="540" y="45"/>
  <use xlink:href="#_20" x="585" y="45"/>
  <use xlink:href="#_20_v1" x="630" y="45"/>
  <use xlink:href="#_20" x="675" y="45"/>
  <use xlink:href="#_20_v1" x="720" y="45"/>
  <use xlink:href="#_20" x="765" y="45"/>
  <use xlink:href="#_20_v1" x="810" y="45"/>
  <use xlink:href="#_20" x="855" y="45"/>
  <use xlink:href="#_20_v1" x="900" y="45"/>
  <use xlink:href="#_20" x="945" y="45"/>
  <use xlink:href="#_20_v1" x="990" y="45"/>
  <use xlink:href="#_20" x="1035" y="45"/>
  <use xlink:href="#_20_v1" x="1080" y="45"/>
  <use xlink:href="#_20" x="1125" y="45"/>
  <use xlink:href="#_20_v1" x="1170" y="45"/>
  <use xlink:href="#_20" x="1215" y="45"/>
  <use xlink:href="#_20_v1" x="1260" y="45"/>
  <use xlink:href="#_20" x="1305" y="45"/>
  <use xlink:href="#_20" x="0" y="90"/>
  <use xlink:href="#_20_v1" x="45" y="90"/>
  <use xlink:href="#_20" x="90" y="90"/>
  <use xlink:href="#_20_v1" x="135" y="90"/>
  <use xlink:href="#_20" x="180" y="90"/>
  <use xlink:href="#_20_v1" x="225" y="90"/>
  <use xlink:href="#_20" x="270" y="90"/>
  <use xlink:href="#_20_v1" x="315" y="90"/>
  <use xlink:href="#_20" x="360" y="90"/>
  <use xlink:href="#_20_v1" x="405" y="90"/>
  <use xlink:href="#_20" x="450" y="90"/>
  <use xlink:href="#_20_v1" x="495" y="90"/>
  <use xlink:href="#_20" x="540" y="90"/>
  <use xlink:href="#_20_v1" x="585" y="90"/>
  <use xlink:href="#_20" x="630" y="90"/>
  <use xlink:href="#_20_v1" x="675" y="90"/>
  <use xlink:href="#_20" x="720" y="90"/>
  <use xlink:href="#_20_v1" x="765" y="90"/>
  <use xlink:href="#_20" x="810" y="90"/>
  <use xlink:href="#_20_v1" x="855" y="90"/>
  <use xlink:href="#_20" x="900" y="90"/>
  <use xlink:href="#_20_v1" x="945" y="90"/>
  <use xlink:href="#_20" x="990" y="90"/>
  <use xlink:href="#_20_v1" x="1035" y="90"/>
  <use xlink:href="#_20" x="1080" y="90"/>
  <use xlink:href="#_20_v1" x="1125" y="90"/>
  <use xlink:href="#_20" x="1170" y="90"/>
  <use xlink:href="#_20_v1" x="1215" y="90"/>
  <use xlink:href="#_20" x="1260" y="90"/>
  <use xlink:href="#_20_v1" x="1305" y="90"/>
  <use xlink:href="#_20_v1" x="0" y="135"/>
  <use xlink:href="#_20" x="45" y="135"/>
  <use xlink:href="#_20_v1" x="90" y="135"/>
  <use xlink:href="#_20" x="135" y="135"/>
  <use xlink:href="#_20_v1" x="180" y="135"/>
  <use xlink:href="#_20" x="225" y="135"/>
  <use xlink:href="#_20_v1" x="270" y="135"/>
  <use xlink:href="#_20" x="315" y="135"/>
  <use xlink:href="#_20_v1" x="360" y="135"/>
  <use xlink:href="#_20" x="405" y="135"/>
  <use xlink:href="#_20_v1" x="450" y="135"/>
  <use xlink:href="#_20" x="495" y="135"/>
  <use xlink:href="#_20_v1" x="540" y="135"/>
  <use xlink:href="#_20" x="585" y="135"/>
  <use xlink:href="#_20_v1" x="630" y="135"/>
  <use xlink:href="#_20" x="675" y="135"/>
  <use xlink:href="#_20_v1" x="720" y="135"/>
  <use xlink:href="#_20" x="765" y="135"/>
  <use xlink:href="#_20_v1" x="810" y="135"/>
  <use xlink:href="#_20" x="855" y="135"/>
  <use xlink:href="#_20_v1" x="900" y="135"/>
  <use xlink:href="#_20" x="945" y="135"/>
  <use xlink:href="#_20_v1" x="990" y="135"/>
  <use xlink:href="#_20" x="1035" y="135"/>
  <use xlink:href="#_20_v1" x="1080" y="135"/>
  <use xlink:href="#_20" x="1125" y="135"/>
  <use xlink:href="#_20_v1" x="1170" y="135"/>
  <use xlink:href="#_20" x="1215" y="135"/>
  <use xlink:href="#_20_v1" x="1260" y="135"/>
  <use xlink:href="#_20" x="1305" y="135"/>
  <use xlink:href="#_20" x="0" y="180"/>
  <use xlink:href="#_20_v1" x="45" y="180"/>
  <use xlink:href="#_20" x="90" y="180"/>
  <use xlink:href="#_20_v1" x="135" y="180"/>
  <use xlink:href="#_20" x="180" y="180"/>
  <use xlink:href="#_20_v1" x="225" y="180"/>
  <use xlink:href="#_20" x="270" y="180"/>
  <use xlink:href="#_20_v1" x="315" y="180"/>
  <use xlink:href="#_20" x="360" y="180"/>
  <use xlink:href="#_20_v1" x="405" y="180"/>
  <use xlink:href="#_20" x="450" y="180"/>
  <use xlink:href="#_20_v1" x="495" y="180"/>
  <use xlink:href="#_20" x="540" y="180"/>
  <use xlink:href="#_20_v1" x="585" y="180"/>
  <use xlink:href="#_20" x="630" y="180"/>
  <use xlink:href="#_20_v1" x="675" y="180"/>
  <use xlink:href="#_20" x="720" y="180"/>
  <use xlink:href="#_20_v1" x="765" y="180"/>
  <use xlink:href="#_20" x="810" y="180"/>
  <use xlink:href="#_20_v1" x="855" y="180"/>
  <use xlink:href="#_20" x="900" y="180"/>
  <use xlink:href="#_20_v1" x="945" y="180"/>
  <use xlink:href="#_20" x="990" y="180"/>
  <use xlink:href="#_20_v1" x="1035" y="180"/>
  <use xlink:href="#_20" x="1080" y="180"/>
  <use xlink:href="#_20_v1" x="1125" y="180"/>
  <use xlink:href="#_20" x="1170" y="180"/>
  <use xlink:href="#_20_v1" x="1215" y="180"/>
  <use xlink:href="#_20" x="1260" y="180"/>
  <use xlink:href="#_20_v1" x="1305" y="180"/>
  <use xlink:href="#_20_v1" x="0" y="225"/>
  <use xlink:href="#_20" x="45" y="225"/>
  <use xlink:href="#_20_v1" x="90" y="225"/>
  <use xlink:href="#_20" x="135" y="225"/>
  <use xlink:href="#_20_v1" x="180" y="225"/>
  <use xlink:href="#_20" x="225" y="225"/>
  <use xlink:href="#_20_v1" x="270" y="225"/>
  <use xlink:href="#_20" x="315" y="225"/>
  <use xlink:href="#_20_v1" x="360" y="225"/>
  <use xlink:href="#_20" x="405" y="225"/>
  <use xlink:href="#_20_v1" x="450" y="225"/>
  <use xlink:href="#_20" x="495" y="225"/>
  <use xlink:href="#_20_v1" x="540" y="225"/>
  <use xlink:href="#_20" x="585" y="225"/>
  <use xlink:href="#_20_v1" x="630" y="225"/>
  <use xlink:href="#_20" x="675" y="225"/>
  <use xlink:href="#_20_v1" x="720" y="225"/>
  <use xlink:href="#_20" x="765" y="225"/>
  <use xlink:href="#_20_v1" x="810" y="225"/>
  <use xlink:href="#_20" x="855" y="225"/>
  <use xlink:href="#_20_v1" x="900" y="225"/>
  <use xlink:href="#_20" x="945" y="225"/>
  <use xlink:href="#_20_v1" x="990" y="225"/>
  <use xlink:href="#_20" x="1035" y="225"/>
  <use xlink:href="#_20_v1" x="1080" y="225"/>
  <use xlink:href="#_20" x="1125" y="225"/>
  <use xlink:href="#_20_v1" x="1170" y="225"/>
  <use xlink:href="#_20" x="1215" y="225"/>
  <use xlink:href="#_20_v1" x="1260" y="225"/>
  <use xlink:href="#_20" x="1305" y="225"/>
  <use xlink:href="#_20" x="0" y="270"/>
  <use xlink:href="#_20_v1" x="45" y="270"/>
  <use xlink:href="#_20" x="90" y="270"/>
  <use xlink:href="#_20_v1" x="135" y="270"/>
  <use xlink:href="#_20" x="180" y="270"/>
  <use xlink:href="#_20_v1" x="225" y="270"/>
  <use xlink:href="#_20" x="270" y="270"/>
  <use xlink:href="#_20_v1" x="315" y="270"/>
  <use xlink:href="#_20" x="360" y="270"/>
  <use xlink:href="#_20_v1" x="405" y="270"/>
  <use xlink:href="#_20" x="450" y="270"/>
  <use xlink:href="#_20_v1" x="495" y="270"/>
  <use xlink:href="#_20" x="540" y="270"/>
  <use xlink:href="#_20_v1" x="585" y="270"/>
  <use xlink:href="#_20" x="630" y="270"/>
  <use xlink:href="#_20_v1" x="675" y="270"/>
  <use xlink:href="#_20" x="720" y="270"/>
  <use xlink:href="#_20_v1" x="765" y="270"/>
  <use xlink:href="#_20" x="810" y="270"/>
  <use xlink:href="#_20_v1" x="855" y="270"/>
  <use xlink:href="#_20" x="900" y="270"/>
  <use xlink:href="#_20_v1" x="945" y="270"/>
  <use xlink:href="#_20" x="990" y="270"/>
  <use xlink:href="#_20_v1" x="1035" y="270"/>
  <use xlink:href="#_20" x="1080" y="270"/>
  <use xlink:href="#_20_v1" x="1125" y="270"/>
  <use xlink:href="#_20" x="1170" y="270"/>
  <use xlink:href="#_20_v1" x="1215" y="270"/>
  <use xlink:href="#_20" x="1260" y="270"/>
  <use xlink:href="#_20_v1" x="1305" y="270"/>
  <use xlink:href="#_20_v1" x="0" y="315"/>
  <use xlink:href="#_20" x="45" y="315"/>
  <use xlink:href="#_20_v1" x="90" y="315"/>
  <use xlink:href="#_20" x="135" y="315"/>
  <use xlink:href="#_20_v1" x="180" y="315"/>
  <use xlink:href="#_20" x="225" y="315"/>
  <use xlink:href="#_20_v1" x="270" y="315"/>
  <use xlink:href="#_20" x="315" y="315"/>
  <use xlink:href="#_20_v1" x="360" y="315"/>
  <use xlink:href="#_20" x="405" y="315"/>
  <use xlink:href="#_20_v1" x="450" y="315"/>
  <use xlink:href="#_20" x="495" y="315"/>
  <use xlink:href="#_20_v1" x="540" y="315"/>
  <use xlink:href="#_20" x="585" y="315"/>
  <use xlink:href="#_20_v1" x="630" y="315"/>
  <use xlink:href="#_20" x="675" y="315"/>
  <use xlink:href="#_20_v1" x="720" y="315"/>
  <use xlink:href="#_20" x="765" y="315"/>
  <use xlink:href="#_20_v1" x="810" y="315"/>
  <use xlink:href="#_20" x="855" y="315"/>
  <use xlink:href="#_20_v1" x="900" y="315"/>
  <use xlink:href="#_20" x="945" y="315"/>
  <use xlink:href="#_20_v1" x="990" y="315"/>
  <use xlink:href="#_20" x="1035" y="315"/>
  <use xlink:href="#_20_v1" x="1080" y="315"/>
  <use xlink:href="#_20" x="1125" y="315"/>
  <use xlink:href="#_20_v1" x="1170" y="315"/>
  <use xlink:href="#_20" x="1215" y="315"/>
  <use xlink:href="#_20_v1" x="1260" y="315"/>
  <use xlink:href="#_20" x="1305" y="315"/>
  <use xlink:href="#_20" x="0" y="360"/>
  <use xlink:href="#_20_v1" x="45" y="360"/>
  <use xlink:href="#_20" x="90" y="360"/>
  <use xlink:href="#_20_v1" x="135" y="360"/>
  <use xlink:href="#_20" x="180" y="360"/>
  <use xlink:href="#_20_v1" x="225" y="360"/>
  <use xlink:href="#_20" x="270" y="360"/>
  <use xlink:href="#_20_v1" x="315" y="360"/>
  <use xlink:href="#_20" x="360" y="360"/>
  <use xlink:href="#_20_v1" x="405" y="360"/>
  <use xlink:href="#_20" x="450" y="360"/>
  <use xlink:href="#_20_v1" x="495" y="360"/>
  <use xlink:href="#_20" x="540" y="360"/>
  <use xlink:href="#_20_v1" x="585" y="360"/>
  <use xlink:href="#_20" x="630" y="360"/>
  <use xlink:href="#_20_v1" x="675" y="360"/>
  <use xlink:href="#_20" x="720" y="360"/>
  <use xlink:href="#_20_v1" x="765" y="360"/>
  <use xlink:href="#_20" x="810" y="360"/>
  <use xlink:href="#_20_v1" x="855" y="360"/>
  <use xlink:href="#_20" x="900" y="360"/>
  <use xlink:href="#_20_v1" x="945" y="360"/>
  <use xlink:href="#_20" x="990" y="360"/>
  <use xlink:href="#_20_v1" x="1035" y="360"/>
  <use xlink:href="#_20" x="1080" y="360"/>
  <use xlink:href="#_20_v1" x="1125" y="360"/>
  <use xlink:href="#_20" x="1170" y="360"/>
  <use xlink:href="#_20_v1" x="1215" y="360"/>
  <use xlink:href="#_20" x="1260" y="360"/>
  <use xlink:href="#_20_v1" x="1305" y="360"/>
  <use xlink:href="#_20_v1" x="0" y="405"/>
  <use xlink:href="#_20" x="45" y="405"/>
  <use xlink:href="#_20_v1" x="90" y="405"/>
  <use xlink:href="#_20" x="135" y="405"/>
  <use xlink:href="#_20_v1" x="180" y="405"/>
  <use xlink:href="#_20" x="225" y="405"/>
  <use xlink:href="#_20_v1" x="270" y="405"/>
  <use xlink:href="#_20" x="315" y="405"/>
  <use xlink:href="#_20_v1" x="360" y="405"/>
  <use xlink:href="#_20" x="405" y="405"/>
  <use xlink:href="#_20_v1" x="450" y="405"/>
  <use xlink:href="#_20" x="495" y="405"/>
  <use xlink:href="#_20_v1" x="540" y="405"/>
  <use xlink:href="#_20" x="585" y="405"/>
  <use xlink:href="#_20_v1" x="630" y="405"/>
  <use xlink:href="#_20" x="675" y="405"/>
  <use xlink:href="#_20_v1" x="720" y="405"/>
  <use xlink:href="#_20" x="765" y="405"/>
  <use xlink:href="#_20_v1" x="810" y="405"/>
  <use xlink:href="#_20" x="855" y="405"/>
  <use xlink:href="#_20_v1" x="900" y="405"/>
  <use xlink:href="#_20" x="945" y="405"/>
  <use xlink:href="#_20_v1" x="990" y="405"/>
  <use xlink:href="#_20" x="1035" y="405"/>
  <use xlink:href="#_20_v1" x="1080" y="405"/>
  <use xlink:href="#_20" x="1125" y="405"/>
  <use xlink:href="#_20_v1" x="1170" y="405"/>
  <use xlink:href="#_20" x="1215" y="405"/>
  <use xlink:href="#_20_v1" x="1260" y="405"/>
  <use xlink:href="#_20" x="1305" y="405"/>
  <use xlink:href="#_20" x="0" y="450"/>
  <use xlink:href="#_20_v1" x="45" y="450"/>
  <use xlink:href="#_20" x="90" y="450"/>
  <use xlink:href="#_20_v1" x="135" y="450"/>
  <use xlink:href="#_20" x="180" y="450"/>
  <use xlink:href="#_20_v1" x="225" y="450"/>
  <use xlink:href="#_20" x="270" y="450"/>
  <use xlink:href="#_20_v1" x="315" y="450"/>
  <use xlink:href="#_20" x="360" y="450"/>
  <use xlink:href="#_20_v1" x="405" y="450"/>
  <use xlink:href="#_20" x="450" y="450"/>
  <use xlink:href="#_20_v1" x="495" y="450"/>
  <use xlink:href="#_20" x="540" y="450"/>
  <use xlink:href="#_20_v1" x="585" y="450"/>
  <use xlink:href="#_20" x="630" y="450"/>
  <use xlink:href="#_20_v1" x="675" y="450"/>
  <use xlink:href="#_20" x="720" y="450"/>
  <use xlink:href="#_20_v1" x="765" y="450"/>
  <use xlink:href="#_20" x="810" y="450"/>
  <use xlink:href="#_20_v1" x="855" y="450"/>
  <use xlink:href="#_20" x="900" y="450"/>
  <use xlink:href="#_20_v1" x="945" y="450"/>
  <use xlink:href="#_20" x="990" y="450"/>
  <use xlink:href="#_20_v1" x="1035" y="450"/>
  <use xlink:href="#_20" x="1080" y="450"/>
  <use xlink:href="#_20_v1" x="1125" y="450"/>
  <use xlink:href="#_20" x="1170" y="450"/>
  <use xlink:href="#_20_v1" x="1215" y="450"/>
  <use xlink:href="#_20" x="1260" y="450"/>
  <use xlink:href="#_20_v1" x="1305" y="450"/>
  <use xlink:href="#_20_v1" x="0" y="495"/>
  <use xlink:href="#_20" x="45" y="495"/>
  <use xlink:href="#_20_v1" x="90" y="495"/>
  <use xlink:href="#_20" x="135" y="495"/>
  <use xlink:href="#_20_v1" x="180" y="495"/>
  <use xlink:href="#_20" x="225" y="495"/>
  <use xlink:href="#_20_v1" x="270" y="495"/>
  <use xlink:href="#_20" x="315" y="495"/>
  <use xlink:href="#_20_v1" x="360" y="495"/>
  <use xlink:href="#_20" x="405" y="495"/>
  <use xlink:href="#_20_v1" x="450" y="495"/>
  <use xlink:href="#_20" x="495" y="495"/>
  <use xlink:href="#_20_v1" x="540" y="495"/>
  <use xlink:href="#_20" x="585" y="495"/>
  <use xlink:href="#_20_v1" x="630" y="495"/>
  <use xlink:href="#_20" x="675" y="495"/>
  <use xlink:href="#_20_v1" x="720" y="495"/>
  <use xlink:href="#_20" x="765" y="495"/>
  <use xlink:href="#_20_v1" x="810" y="495"/>
  <use xlink:href="#_20" x="855" y="495"/>
  <use xlink:href="#_20_v1" x="900" y="495"/>
  <use xlink:href="#_20" x="945" y="495"/>
  <use xlink:href="#_20_v1" x="990" y="495"/>
  <use xlink:href="#_20" x="1035" y="495"/>
  <use xlink:href="#_20_v1" x="1080" y="495"/>
  <use xlink:href="#_20" x="1125" y="495"/>
  <use xlink:href="#_20_v1" x="1170" y="495"/>
  <use xlink:href="#_20" x="1215" y="495"/>
  <use xlink:href="#_20_v1" x="1260" y="495"/>
  <use xlink:href="#_20" x="1305" y="495"/>
  <use xlink:href="#_20" x="0" y="540"/>
  <use xlink:href="#_20_v1" x="45" y="540"/>
  <use xlink:href="#_20" x="90" y="540"/>
  <use xlink:href="#_20_v1" x="135" y="540"/>
  <use xlink:href="#_20" x="180" y="540"/>
  <use xlink:href="#_20_v1" x="225" y="540"/>
  <use xlink:href="#_20" x="270" y="540"/>
  <use xlink:href="#_20_v1" x="315" y="540"/>
  <use xlink:href="#_20" x="360" y="540"/>
  <use xlink:href="#_20_v1" x="405" y="540"/>
  <use xlink:href="#_20" x="450" y="540"/>
  <use xlink:href="#_20_v1" x="495" y="540"/>
  <use xlink:href="#_20" x="540" y="540"/>
  <use xlink:href="#_20_v1" x="585" y="540"/>
  <use xlink:href="#_20" x="630" y="540"/>
  <use xlink:href="#_20_v1" x="675" y="540"/>
  <use xlink:href="#_20" x="720" y="540"/>
  <use xlink:href="#_20_v1" x="765" y="540"/>
  <use xlink:href="#_20" x="810" y="540"/>
  <use xlink:href="#_20_v1" x="855" y="540"/>
  <use xlink:href="#_20" x="900" y="540"/>
  <use xlink:href="#_20_v1" x="945" y="540"/>
  <use xlink:href="#_20" x="990" y="540"/>
  <use xlink:href="#_20_v1" x="1035" y="540"/>
  <use xlink:href="#_20" x="1080" y="540"/>
  <use xlink:href="#_20_v1" x="1125" y="540"/>
  <use xlink:href="#_20" x="1170" y="540"/>
  <use xlink:href="#_20_v1" x="1215" y="540"/>
  <use xlink:href="#_20" x="1260" y="540"/>
  <use xlink:href="#_20_v1" x="1305" y="540"/>
  <use xlink:href="#_20_v1" x="0" y="585"/>
  <use xlink:href="#_20" x="45" y="585"/>
  <use xlink:href="#_20_v1" x="90" y="585"/>
  <use xlink:href="#_20" x="135" y="585"/>
  <use xlink:href="#_20_v1" x="180" y="585"/>
  <use xlink:href="#_20" x="225" y="585"/>
  <use xlink:href="#_20_v1" x="270" y="585"/>
  <use xlink:href="#_20" x="315" y="585"/>
  <use xlink:href="#_20_v1" x="360" y="585"/>
  <use xlink:href="#_20" x="405" y="585"/>
  <use xlink:href="#_20_v1" x="450" y="585"/>
  <use xlink:href="#_20" x="495" y="585"/>
  <use xlink:href="#_20_v1" x="540" y="585"/>
  <use xlink:href="#_20" x="585" y="585"/>
  <use xlink:href="#_20_v1" x="630" y="585"/>
  <use xlink:href="#_20" x="675" y="585"/>
  <use xlink:href="#_20_v1" x="720" y="585"/>
  <use xlink:href="#_20" x="765" y="585"/>
  <use xlink:href="#_20_v1" x="810" y="585"/>
  <use xlink:href="#_20" x="855" y="585"/>
  <use xlink:href="#_20_v1" x="900" y="585"/>
  <use xlink:href="#_20" x="945" y="585"/>
  <use xlink:href="#_20_v1" x="990" y="585"/>
  <use xlink:href="#_20" x="1035" y="585"/>
  <use xlink:href="#_20_v1" x="1080" y="585"/>
  <use xlink:href="#_20" x="1125" y="585"/>
  <use xlink:href="#_20_v1" x="1170" y="585"/>
  <use xlink:href="#_20" x="1215" y="585"/>
  <use xlink:href="#_20_v1" x="1260" y="585"/>
  <use xlink:href="#_20" x="1305" y="585"/>
  <use xlink:href="#_20" x="0" y="630"/>
  <use xlink:href="#_20_v1" x="45" y="630"/>
  <use xlink:href="#_20" x="90" y="630"/>
  <use xlink:href="#_20_v1" x="135" y="630"/>
  <use xlink:href="#_20" x="180" y="630"/>
  <use xlink:href="#_20_v1" x="225" y="630"/>
  <use xlink:href="#_20" x="270" y="630"/>
  <use xlink:href="#_20_v1" x="315" y="630"/>
  <use xlink:href="#_20" x="360" y="630"/>
  <use xlink:href="#_20_v1" x="405" y="630"/>
  <use xlink:href="#_20" x="450" y="630"/>
  <use xlink:href="#_20_v1" x="495" y="630"/>
  <use xlink:href="#_20" x="540" y="630"/>
  <use xlink:href="#_20_v1" x="585" y="630"/>
  <use xlink:href="#_20" x="630" y="630"/>
  <use xlink:href="#_20_v1" x="675" y="630"/>
  <use xlink:href="#_20" x="720" y="630"/>
  <use xlink:href="#_20_v1" x="765" y="630"/>
  <use xlink:href="#_20" x="810" y="630"/>
  <use xlink:href="#_20_v1" x="855" y="630"/>
  <use xlink:href="#_20" x="900" y="630"/>
  <use xlink:href="#_20_v1" x="945" y="630"/>
  <use xlink:href="#_20" x="990" y="630"/>
  <use xlink:href="#_20_v1" x="1035" y="630"/>
  <use xlink:href="#_20" x="1080" y="630"/>
  <use xlink:href="#_20_v1" x="1125" y="630"/>
  <use xlink:href="#_20" x="1170" y="630"/>
  <use xlink:href="#_20_v1" x="1215" y="630"/>
  <use xlink:href="#_20" x="1260" y="630"/>
  <use xlink:href="#_20_v1" x="1305" y="630"/>
  <use xlink:href="#_20_v1" x="0" y="675"/>
  <use xlink:href="#_20" x="45" y="675"/>
  <use xlink:href="#_20_v1" x="90" y="675"/>
  <use xlink:href="#_20" x="135" y="675"/>
  <use xlink:href="#_20_v1" x="180" y="675"/>
  <use xlink:href="#_20" x="225" y="675"/>
  <use xlink:href="#_20_v1" x="270" y="675"/>
  <use xlink:href="#_20" x="315" y="675"/>
  <use xlink:href="#_20_v1" x="360" y="675"/>
  <use xlink:href="#_20" x="405" y="675"/>
  <use xlink:href="#_20_v1" x="450" y="675"/>
  <use xlink:href="#_20" x="495" y="675"/>
  <use xlink:href="#_20_v1" x="540" y="675"/>
  <use xlink:href="#_20" x="585" y="675"/>
  <use xlink:href="#_20_v1" x="630" y="675"/>
  <use xlink:href="#_20" x="675" y="675"/>
  <use xlink:href="#_20_v1" x="720" y="675"/>
  <use xlink:href="#_20" x="765" y="675"/>
  <use xlink:href="#_20_v1" x="810" y="675"/>
  <use xlink:href="#_20" x="855" y="675"/>
  <use xlink:href="#_20_v1" x="900" y="675"/>
  <use xlink:href="#_20" x="945" y="675"/>
  <use xlink:href="#_20_v1" x="990" y="675"/>
  <use xlink:href="#_20" x="1035" y="675"/>
  <use xlink:href="#_20_v1" x="1080" y="675"/>
  <use xlink:href="#_20" x="1125" y="675"/>
  <use xlink:href="#_20_v1" x="1170" y="675"/>
  <use xlink:href="#_20" x="1215" y="675"/>
  <use xlink:href="#_20_v1" x="1260" y="675"/>
  <use xlink:href="#_20" x="1305" y="675"/>
  <use xlink:href="#_20" x="0" y="720"/>
  <use xlink:href="#_20_v1" x="45" y="720"/>
  <use xlink:href="#_20" x="90" y="720"/>
  <use xlink:href="#_20_v1" x="135" y="720"/>
  <use xlink:href="#_20" x="180" y="720"/>
  <use xlink:href="#_20_v1" x="225" y="720"/>
  <use xlink:href="#_20" x="270" y="720"/>
  <use xlink:href="#_20_v1" x="315" y="720"/>
  <use xlink:href="#_20" x="360" y="720"/>
  <use xlink:href="#_20_v1" x="405" y="720"/>
  <use xlink:href="#_20" x="450" y="720"/>
  <use xlink:href="#_20_v1" x="495" y="720"/>
  <use xlink:href="#_20" x="540" y="720"/>
  <use xlink:href="#_20_v1" x="585" y="720"/>
  <use xlink:href="#_20" x="630" y="720"/>
  <use xlink:href="#_20_v1" x="675" y="720"/>
  <use xlink:href="#_20" x="720" y="720"/>
  <use xlink:href="#_20_v1" x="765" y="720"/>
  <use xlink:href="#_20" x="810" y="720"/>
  <use xlink:href="#_20_v1" x="855" y="720"/>
  <use xlink:href="#_20" x="900" y="720"/>
  <use xlink:href="#_20_v1" x="945" y="720"/>
  <use xlink:href="#_20" x="990" y="720"/>
  <use xlink:href="#_20_v1" x="1035" y="720"/>
  <use xlink:href="#_20" x="1080" y="720"/>
  <use xlink:href="#_20_v1" x="1125" y="720"/>
  <use xlink:href="#_20" x="1170" y="720"/>
  <use xlink:href="#_20_v1" x="1215" y="720"/>
  <use xlink:href="#_20" x="1260" y="720"/>
  <use xlink:href="#_20_v1" x="1305" y="720"/>
  <use xlink:href="#_20_v1" x="0" y="765"/>
  <use xlink:href="#_20" x="45" y="765"/>
  <use xlink:href="#_20_v1" x="90" y="765"/>
  <use xlink:href="#_20" x="135" y="765"/>
  <use xlink:href="#_20_v1" x="180" y="765"/>
  <use xlink:href="#_20" x="225" y="765"/>
  <use xlink:href="#_20_v1" x="270" y="765"/>
  <use xlink:href="#_20" x="315" y="765"/>
  <use xlink:href="#_20_v1" x="360" y="765"/>
  <use xlink:href="#_20" x="405" y="765"/>
  <use xlink:href="#_20_v1" x="450" y="765"/>
  <use xlink:href="#_20" x="495" y="765"/>
  <use xlink:href="#_20_v1" x="540" y="765"/>
  <use xlink:href="#_20" x="585" y="765"/>
  <use xlink:href="#_20_v1" x="630" y="765"/>
  <use xlink:href="#_20" x="675" y="765"/>
  <use xlink:href="#_20_v1" x="720" y="765"/>
  <use xlink:href="#_20" x="765" y="765"/>
  <use xlink:href="#_20_v1" x="810" y="765"/>
  <use xlink:href="#_20" x="855" y="765"/>
  <use xlink:href="#_20_v1" x="900" y="765"/>
  <use xlink:href="#_20" x="945" y="765"/>
  <use xlink:href="#_20_v1" x="990" y="765"/>
  <use xlink:href="#_20" x="1035" y="765"/>
  <use xlink:href="#_20_v1" x="1080" y="765"/>
  <use xlink:href="#_20" x="1125" y="765"/>
  <use xlink:href="#_20_v1" x="1170" y="765"/>
  <use xlink:href="#_20" x="1215" y="765"/>
  <use xlink:href="#_20_v1" x="1260" y="765"/>
  <use xlink:href="#_20" x="1305" y="765"/>
  <use xlink:href="#_20" x="0" y="810"/>
  <use xlink:href="#_20_v1" x="45" y="810"/>
  <use xlink:href="#_20" x="90" y="810"/>
  <use xlink:href="#_20_v1" x="135" y="810"/>
  <use xlink:href="#_20" x="180" y="810"/>
  <use xlink:href="#_20_v1" x="225" y="810"/>
  <use xlink:href="#_20" x="270" y="810"/>
  <use xlink:href="#_20_v1" x="315" y="810"/>
  <use xlink:href="#_20" x="360" y="810"/>
  <use xlink:href="#_20_v1" x="405" y="810"/>
  <use xlink:href="#_20" x="450" y="810"/>
  <use xlink:href="#_20_v1" x="495" y="810"/>
  <use xlink:href="#_20" x="540" y="810"/>
  <use xlink:href="#_20_v1" x="585" y="810"/>
  <use xlink:href="#_20" x="630" y="810"/>
  <use xlink:href="#_20_v1" x="675" y="810"/>
  <use xlink:href="#_20" x="720" y="810"/>
  <use xlink:href="#_20_v1" x="765" y="810"/>
  <use xlink:href="#_20" x="810" y="810"/>
  <use xlink:href="#_20_v1" x="855" y="810"/>
  <use xlink:href="#_20" x="900" y="810"/>
  <use xlink:href="#_20_v1" x="945" y="810"/>
  <use xlink:href="#_20" x="990" y="810"/>
  <use xlink:href="#_20_v1" x="1035" y="810"/>
  <use xlink:href="#_20" x="1080" y="810"/>
  <use xlink:href="#_20_v1" x="1125" y="810"/>
  <use xlink:href="#_20" x="1170" y="810"/>
  <use xlink:href="#_20_v1" x="1215" y="810"/>
  <use xlink:href="#_20" x="1260" y="810"/>
  <use xlink:href="#_20_v1" x="1305" y="810"/>
  <use xlink:href="#_20_v1" x="0" y="855"/>
  <use xlink:href="#_20" x="45" y="855"/>
  <use xlink:href="#_20_v1" x="90" y="855"/>
  <use xlink:href="#_20" x="135" y="855"/>
  <use xlink:href="#_20_v1" x="180" y="855"/>
  <use xlink:href="#_20" x="225" y="855"/>
  <use xlink:href="#_20_v1" x="270" y="855"/>
  <use xlink:href="#_20" x="315" y="855"/>
  <use xlink:href="#_20_v1" x="360" y="855"/>
  <use xlink:href="#_20" x="405" y="855"/>
  <use xlink:href="#_20_v1" x="450" y="855"/>
  <use xlink:href="#_20" x="495" y="855"/>
  <use xlink:href="#_20_v1" x="540" y="855"/>
  <use xlink:href="#_20" x="585" y="855"/>
  <use xlink:href="#_20_v1" x="630" y="855"/>
  <use xlink:href="#_20" x="675" y="855"/>
  <use xlink:href="#_20_v1" x="720" y="855"/>
  <use xlink:href="#_20" x="765" y="855"/>
  <use xlink:href="#_20_v1" x="810" y="855"/>
  <use xlink:href="#_20" x="855" y="855"/>
  <use xlink:href="#_20_v1" x="900" y="855"/>
  <use xlink:href="#_20" x="945" y="855"/>
  <use xlink:href="#_20_v1" x="990" y="855"/>
  <use xlink:href="#_20" x="1035" y="855"/>
  <use xlink:href="#_20_v1" x="1080" y="855"/>
  <use xlink:href="#_20" x="1125" y="855"/>
  <use xlink:href="#_20_v1" x="1170" y="855"/>
  <use xlink:href="#_20" x="1215" y="855"/>
  <use xlink:href="#_20_v1" x="1260" y="855"/>
  <use xlink:href="#_20" x="1305" y="855"/>
  <use xlink:href="#_20" x="0" y="900"/>
  <use xlink:href="#_20_v1" x="45" y="900"/>
  <use xlink:href="#_20" x="90" y="900"/>
  <use xlink:href="#_20_v1" x="135" y="900"/>
  <use xlink:href="#_20" x="180" y="900"/>
  <use xlink:href="#_20_v1" x="225" y="900"/>
  <use xlink:href="#_20" x="270" y="900"/>
  <use xlink:href="#_20_v1" x="315" y="900"/>
  <use xlink:href="#_20" x="360" y="900"/>
  <use xlink:href="#_20_v1" x="405" y="900"/>
  <use xlink:href="#_20" x="450" y="900"/>
  <use xlink:href="#_20_v1" x="495" y="900"/>
  <use xlink:href="#_20" x="540" y="900"/>
  <use xlink:href="#_20_v1" x="585" y="900"/>
  <use xlink:href="#_20" x="630" y="900"/>
  <use xlink:href="#_20_v1" x="675" y="900"/>
  <use xlink:href="#_20" x="720" y="900"/>
  <use xlink:href="#_20_v1" x="765" y="900"/>
  <use xlink:href="#_20" x="810" y="900"/>
  <use xlink:href="#_20_v1" x="855" y="900"/>
  <use xlink:href="#_20" x="900" y="900"/>
  <use xlink:href="#_20_v1" x="945" y="900"/>
  <use xlink:href="#_20" x="990" y="900"/>
  <use xlink:href="#_20_v1" x="1035" y="900"/>
  <use xlink:href="#_20" x="1080" y="900"/>
  <use xlink:href="#_20_v1" x="1125" y="900"/>
  <use xlink:href="#_20" x="1170" y="900"/>
  <use xlink:href="#_20_v1" x="1215" y="900"/>
  <use xlink:href="#_20" x="1260" y="900"/>
  <use xlink:href="#_20_v1" x="1305" y="900"/>
  <use xlink:href="#_20_v1" x="0" y="945"/>
  <use xlink:href="#_20" x="45" y="945"/>
  <use xlink:href="#_20_v1" x="90" y="945"/>
  <use xlink:href="#_20" x="135" y="945"/>
  <use xlink:href="#_20_v1" x="180" y="945"/>
  <use xlink:href="#_20" x="225" y="945"/>
  <use xlink:href="#_20_v1" x="270" y="945"/>
  <use xlink:href="#_20" x="315" y="945"/>
  <use xlink:href="#_20_v1" x="360" y="945"/>
  <use xlink:href="#_20" x="405" y="945"/>
  <use xlink:href="#_20_v1" x="450" y="945"/>
  <use xlink:href="#_20" x="495" y="945"/>
  <use xlink:href="#_20_v1" x="540" y="945"/>
  <use xlink:href="#_20" x="585" y="945"/>
  <use xlink:href="#_20_v1" x="630" y="945"/>
  <use xlink:href="#_20" x="675" y="945"/>
  <use xlink:href="#_20_v1" x="720" y="945"/>
  <use xlink:href="#_20" x="765" y="945"/>
  <use xlink:href="#_20_v1" x="810" y="945"/>
  <use xlink:href="#_20" x="855" y="945"/>
  <use xlink:href="#_20_v1" x="900" y="945"/>
  <use xlink:href="#_20" x="945" y="945"/>
  <use xlink:href="#_20_v1" x="990" y="945"/>
  <use xlink:href="#_20" x="1035" y="945"/>
  <use xlink:href="#_20_v1" x="1080" y="945"/>
  <use xlink:href="#_20" x="1125" y="945"/>
  <use xlink:href="#_20_v1" x="1170" y="945"/>
  <use xlink:href="#_20" x="1215" y="945"/>
  <use xlink:href="#_20_v1" x="1260" y="945"/>
  <use xlink:href="#_20" x="1305" y="945"/>
  <use xlink:href="#_20" x="0" y="990"/>
  <use xlink:href="#_20_v1" x="45" y="990"/>
  <use xlink:href="#_20" x="90" y="990"/>
  <use xlink:href="#_20_v1" x="135" y="990"/>
  <use xlink:href="#_20" x="180" y="990"/>
  <use xlink:href="#_20_v1" x="225" y="990"/>
  <use xlink:href="#_20" x="270" y="990"/>
  <use xlink:href="#_20_v1" x="315" y="990"/>
  <use xlink:href="#_20" x="360" y="990"/>
  <use xlink:href="#_20_v1" x="405" y="990"/>
  <use xlink:href="#_20" x="450" y="990"/>
  <use xlink:href="#_20_v1" x="495" y="990"/>
  <use xlink:href="#_20" x="540" y="990"/>
  <use xlink:href="#_20_v1" x="585" y="990"/>
  <use xlink:href="#_20" x="630" y="990"/>
  <use xlink:href="#_20_v1" x="675" y="990"/>
  <use xlink:href="#_20" x="720" y="990"/>
  <use xlink:href="#_20_v1" x="765" y="990"/>
  <use xlink:href="#_20" x="810" y="990"/>
  <use xlink:href="#_20_v1" x="855" y="990"/>
  <use xlink:href="#_20" x="900" y="990"/>
  <use xlink:href="#_20_v1" x="945" y="990"/>
  <use xlink:href="#_20" x="990" y="990"/>
  <use xlink:href="#_20_v1" x="1035" y="990"/>
  <use xlink:href="#_20" x="1080" y="990"/>
  <use xlink:href="#_20_v1" x="1125" y="990"/>
  <use xlink:href="#_20" x="1170" y="990"/>
  <use xlink:href="#_20_v1" x="1215" y="990"/>
  <use xlink:href="#_20" x="1260" y="990"/>
  <use xlink:href="#_20_v1" x="1305" y="990"/>
  <use xlink:href="#Q" x="675" y="0"/>
  <use xlink:href="#Q_v3" x="810" y="45"/>
  <use xlink:href="#Q_v5" x="1080" y="45"/>
  <use xlink:href="#Q_v7" x="90" y="90"/>
  <use xlink:href="#Q_v7" x="180" y="135"/>
  <use xlink:href="#Q_v5" x="765" y="135"/>
  <use xlink:href="#Q_v5" x="1035" y="135"/>
  <use xlink:href="#s" x="270" y="180"/>
  <use xlink:href="#Q_v7" x="360" y="225"/>
  <use xlink:href="#Q_v7" x="720" y="225"/>
  <use xlink:href="#Q_v5" x="990" y="225"/>
  <use xlink:href="#Q_v7" x="450" y="270"/>
  <use xlink:href="#Q" x="810" y="270"/>
  <use xlink:href="#Q_v9" x="1215" y="270"/>
  <use xlink:href="#Q_v7" x="540" y="315"/>
  <use xlink:href="#Q_v11" x="945" y="315"/>
  <use xlink:href="#Q_v9" x="1125" y="315"/>
  <use xlink:href="#Q_v7" x="630" y="360"/>
  <use xlink:href="#Q_v5" x="855" y="360"/>
  <use xlink:href="#Q" x="1035" y="360"/>
  <use xlink:href="#Q_v7" x="720" y="405"/>
  <use xlink:href="#Q" x="810" y="450"/>
  <use xlink:href="#Q_v13" x="1080" y="450"/>
  <use xlink:href="#Q_v7" x="1170" y="495"/>
  <use xlink:href="#Q_v11" x="855" y="540"/>
  <use xlink:href="#Q_v15" x="1035" y="540"/>
  <use xlink:href="#Q_v9" x="765" y="585"/>
  <use xlink:href="#Q_v5" x="945" y="585"/>
  <use xlink:href="#Q_v9" x="675" y="630"/>
  <use xlink:href="#Q" x="1080" y="630"/>
  <use xlink:href="#Q_v9" x="585" y="675"/>
  <use xlink:href="#Q" x="900" y="675"/>
  <use xlink:href="#Q_v9" x="495" y="720"/>
  <use xlink:href="#Q_v9" x="405" y="765"/>
  <use xlink:href="#Q" x="945" y="765"/>
  <use xlink:href="#Q_v9" x="315" y="810"/>
  <use xlink:href="#Q_v9" x="225" y="855"/>
  <use xlink:href="#Q_v13" x="810" y="855"/>
  <use xlink:href="#Q_v9" x="990" y="855"/>
  <use xlink:href="#Q_v9" x="135" y="900"/>
  <use xlink:href="#Q_v1" x="675" y="0"/>
  <use xlink:href="#Q_v4" x="810" y="45"/>
  <use xlink:href="#Q_v6" x="1080" y="45"/>
  <use xlink:href="#Q_v8" x="90" y="90"/>
  <use xlink:href="#Q_v8" x="180" y="135"/>
  <use xlink:href="#Q_v6" x="765" y="135"/>
  <use xlink:href="#Q_v6" x="1035" y="135"/>
  <use xlink:href="#s_v1" x="270" y="180"/>
  <use xlink:href="#Q_v8" x="360" y="225"/>
  <use xlink:href="#Q_v8" x="720" y="225"/>
  <use xlink:href="#Q_v6" x="990" y="225"/>
  <use xlink:href="#Q_v8" x="450" y="270"/>
  <use xlink:href="#Q_v1" x="810" y="270"/>
  <use xlink:href="#Q_v10" x="1215" y="270"/>
  <use xlink:href="#Q_v8" x="540" y="315"/>
  <use xlink:href="#Q_v12" x="945" y="315"/>
  <use xlink:href="#Q_v10" x="1125" y="315"/>
  <use xlink:href="#Q_v8" x="630" y="360"/>
  <use xlink:href="#Q_v6" x="855" y="360"/>
  <use xlink:href="#Q_v1" x="1035" y="360"/>
  <use xlink:href="#Q_v8" x="720" y="405"/>
  <use xlink:href="#Q_v1" x="810" y="450"/>
  <use xlink:href="#Q_v14" x="1080" y="450"/>
  <use xlink:href="#Q_v8" x="1170" y="495"/>
  <use xlink:href="#Q_v12" x="855" y="540"/>
  <use xlink:href="#Q_v16" x="1035" y="540"/>
  <use xlink:href="#Q_v10" x="765" y="585"/>
  <use xlink:href="#Q_v6" x="945" y="585"/>
  <use xlink:href="#Q_v10" x="675" y="630"/>
  <use xlink:href="#Q_v1" x="1080" y="630"/>
  <use xlink:href="#Q_v10" x="585" y="675"/>
  <use xlink:href="#Q_v1" x="900" y="675"/>
  <use xlink:href="#Q_v10" x="495" y="720"/>
  <use xlink:href="#Q_v10" x="405" y="765"/>
  <use xlink:href="#Q_v1" x="945" y="765"/>
  <use xlink:href="#Q_v10" x="315" y="810"/>
  <use xlink:href="#Q_v10" x="225" y="855"/>
  <use xlink:href="#Q_v14" x="810" y="855"/>
  <use xlink:href="#Q_v10" x="990" y="855"/>
  <use xlink:href="#Q_v10" x="135" y="900"/>
  <use xlink:href="#Q_v2" x="675" y="0"/>
  <use xlink:href="#Q_v2" x="810" y="45"/>
  <use xlink:href="#Q_v2" x="1080" y="45"/>
  <use xlink:href="#Q_v2" x="90" y="90"/>
  <use xlink:href="#Q_v2" x="720" y="90"/>
  <use xlink:href="#Q_v2" x="180" y="135"/>
  <use xlink:href="#Q_v2" x="765" y="135"/>
  <use xlink:href="#Q_v2" x="1035" y="135"/>
  <use xlink:href="#s_v2" x="270" y="180"/>
  <use xlink:href="#Q_v2" x="360" y="225"/>
  <use xlink:href="#Q_v2" x="720" y="225"/>
  <use xlink:href="#Q_v2" x="990" y="225"/>
  <use xlink:href="#Q_v2" x="450" y="270"/>
  <use xlink:href="#Q_v2" x="810" y="270"/>
  <use xlink:href="#Q_v2" x="1215" y="270"/>
  <use xlink:href="#Q_v2" x="540" y="315"/>
  <use xlink:href="#Q_v2" x="945" y="315"/>
  <use xlink:href="#Q_v2" x="1125" y="315"/>
  <use xlink:href="#Q_v2" x="630" y="360"/>
  <use xlink:href="#Q_v2" x="855" y="360"/>
  <use xlink:href="#Q_v2" x="1035" y="360"/>
  <use xlink:href="#Q_v2" x="720" y="405"/>
  <use xlink:href="#Q_v2" x="810" y="450"/>
  <use xlink:href="#Q_v2" x="1080" y="450"/>
  <use xlink:href="#Q_v2" x="1170" y="495"/>
  <use xlink:href="#Q_v2" x="855" y="540"/>
  <use xlink:href="#Q_v2" x="1035" y="540"/>
  <use xlink:href="#Q_v2" x="1260" y="540"/>
  <use xlink:href="#Q_v2" x="765" y="585"/>
  <use xlink:href="#Q_v2" x="945" y="585"/>
  <use xlink:href="#Q_v2" x="675" y="630"/>
  <use xlink:href="#Q_v2" x="1080" y="630"/>
  <use xlink:href="#Q_v2" x="585" y="675"/>
  <use xlink:href="#Q_v2" x="900" y="675"/>
  <use xlink:href="#Q_v2" x="495" y="720"/>
  <use xlink:href="#Q_v2" x="1125" y="720"/>
  <use xlink:href="#Q_v2" x="405" y="765"/>
  <use xlink:href="#Q_v2" x="945" y="765"/>
  <use xlink:href="#Q_v2" x="315" y="810"/>
  <use xlink:href="#Q_v2" x="225" y="855"/>
  <use xlink:href="#Q_v2" x="810" y="855"/>
  <use xlink:href="#Q_v2" x="990" y="855"/>
  <use xlink:href="#Q_v2" x="135" y="900"/>
  <use xlink:href="#Q_v2" x="900" y="900"/>
  <use xlink:href="#Q_v2" x="45" y="945"/>
  <use xlink:href="#Q_v2" x="765" y="945"/>
</svg>