<?xml version="1.0" encoding="UTF-8" standalone="no"?>
<!DOCTYPE svg PUBLIC "-//W3C//DTD SVG 1.1//EN" "http://www.w3.org/Graphics/SVG/1.1/DTD/svg11.dtd">
<svg xmlns:xlink="http://www.w3.org/1999/xlink" version="1.1" viewBox="0 0 810 585" width="810" height="585" xmlns="http://www.w3.org/2000/svg">
  <symbol id="_20" width="45" height="45" overflow="visible">
    <rect width="45" height="45" fill="#eee"/>
  </symbol>
  <symbol id="B" width="45" height="45" overflow="visible">
    <rect width="45" height="45" fill="#ccc"/>
  </symbol>
  <symbol id="B_v1" width="45" height="45" overflow="visible">
    <line x1="22.5" y1="22.5" x2="67.5" y2="67.5" stroke="white" stroke-width="10" stroke-linecap="round"/>
  </symbol>
  <symbol id="B_v2" width="45" height="45" overflow="visible">
    <line x1="22.5" y1="22.5" x2="67.5" y2="67.5" stroke="hsl(286,65%,60%)" stroke-width="7" stroke-linecap="round"/>
  </symbol>
  <symbol id="B_v3" width="45" height="45" overflow="visible">
    <g fill-rule="evenodd" stroke-width="1.5" stroke-linecap="round" stroke-linejoin="miter" stroke-miterlimit="4">
      <path fill="#000" stroke="#000" stroke-linecap="butt" d="M 9,36 C 12.39,35.03 19.11,36.43 22.5,34 C 25.89,36.43 32.61,35.03 36,36 C 36,36 37.65,36.54 39,38 C 38.32,38.97 37.35,38.99 36,38.5 C 32.61,37.53 25.89,38.96 22.5,37.5 C 19.11,38.96 12.39,37.53 9,38.5 C 7.646,38.99 6.677,38.97 6,38 C 7.354,36.06 9,36 9,36 z M 15,32 C 17.5,34.5 27.5,34.5 30,32 C 30.5,30.5 30,30 30,30 C 30,27.5 27.5,26 27.5,26 C 33,24.5 33.5,14.5 22.5,10.5 C 11.5,14.5 12,24.5 17.5,26 C 17.5,26 15,27.5 15,30 C 15,30 14.5,30.5 15,32 z M 25 8 A 2.5 2.5 0 1 1  20,8 A 2.5 2.5 0 1 1  25 8 z"/>
      <path d="M 17.5,26 L 27.5,26 M 15,30 L 30,30 M 22.5,15.5 L 22.5,20.5 M 20,18 L 25,18" fill="none" stroke="#fff" stroke-linejoin="miter"/>
    </g>
  </symbol>
  <symbol id="B_v4" width="45" height="45" overflow="visible">
    <line x1="22.5" y1="22.5" x2="-22.5" y2="67.5" stroke="white" stroke-width="10" stroke-linecap="round"/>
  </symbol>
  <symbol id="B_v5" width="45" height="45" overflow="visible">
    <line x1="22.5" y1="22.5" x2="-22.5" y2="67.5" stroke="hsl(286,65%,60%)" stroke-width="7" stroke-linecap="round"/>
  </symbol>
  <symbol id="B_v6" width="45" height="45" overflow="visible">
    <line x1="22.5" y1="22.5" x2="22.5" y2="67.5" stroke="white" stroke-width="10" stroke-linecap="round"/>
  </symbol>
  <symbol id="B_v7" width="45" height="45" overflow="visible">
    <line x1="22.5" y1="22.5" x2="22.5" y2="67.5" stroke="hsl(286,65%,60%)" stroke-width="7" stroke-linecap="round"/>
  </symbol>
  <symbol id="B_v8" width="45" height="45" overflow="visible">
    <line x1="22.5" y1="22.5" x2="22.5" y2="67.5" stroke="white" stroke-width="10" stroke-linecap="round"/>
    <line x1="22.5" y1="22.5" x2="67.5" y2="67.5" stroke="white" stroke-width="10" stroke-linecap="round"/>
  </symbol>
  <symbol id="B_v9" width="45" height="45" overflow="visible">
    <line x1="22.5" y1="22.5" x2="22.5" y2="67.5" stroke="hsl(286,65%,60%)" stroke-width="7" stroke-linecap="round"/>
    <line x1="22.5" y1="22.5" x2="67.5" y2="67.5" stroke="hsl(286,65%,60%)" stroke-width="7" stroke-linecap="round"/>
  </symbol>
  <symbol id="b" width="45" height="45" overflow="visible">
    <g fill-rule="evenodd" stroke-width="1.5" stroke-linecap="round" stroke-linejoin="miter" stroke-miterlimit="4">
      <path fill="hsl(99,66%,40%)" stroke="#000" stroke-linecap="butt" d="M 9,36 C 12.39,35.03 19.11,36.43 22.5,34 C 25.89,36.43 32.61,35.03 36,36 C 36,36 37.65,36.54 39,38 C 38.32,38.97 37.35,38.99 36,38.5 C 32.61,37.53 25.89,38.96 22.5,37.5 C 19.11,38.96 12.39,37.53 9,38.5 C 7.646,38.99 6.677,38.97 6,38 C 7.354,36.06 9,36 9,36 z M 15,32 C 17.5,34.5 27.5,34.5 30,32 C 30.5,30.5 30,30 30,30 C 30,27.5 27.5,26 27.5,26 C 33,24.5 33.5,14.5 22.5,10.5 C 11.5,14.5 12,24.5 17.5,26 C 17.5,26 15,27.5 15,30 C 15,30 14.5,30.5 15,32 z M 25 8 A 2.5 2.5 0 1 1  20,8 A 2.5 2.5 0 1 1  25 8 z"/>
      <path d="M 17.5,26 L 27.5,26 M 15,30 L 30,30 M 22.5,15.5 L 22.5,20.5 M 20,18 L 25,18" fill="none" stroke="#000" stroke-linejoin="miter"/>
    </g>
  </symbol>
  <symbol id="b_v1" width="45" height="45" overflow="visible">
    <line x1="22.5" y1="22.5" x2="67.5" y2="22.5" stroke="white" stroke-width="10" stroke-linecap="round"/>
  </symbol>
  <symbol id="b_v2" width="45" height="45" overflow="visible">
    <line x1="22.5" y1="22.5" x2="67.5" y2="22.5" stroke="hsl(286,65%,60%)" stroke-width="7" stroke-linecap="round"/>
  </symbol>
  <symbol id="B_v10" width="45" height="45" overflow="visible">
    <line x1="22.5" y1="22.5" x2="-22.5" y2="67.5" stroke="white" stroke-width="10" stroke-linecap="round"/>
    <line x1="22.5" y1="22.5" x2="67.5" y2="67.5" stroke="white" stroke-width="10" stroke-linecap="round"/>
  </symbol>
  <symbol id="B_v11" width="45" height="45" overflow="visible">
    <line x1="22.5" y1="22.5" x2="-22.5" y2="67.5" stroke="hsl(286,65%,60%)" stroke-width="7" stroke-linecap="round"/>
    <line x1="22.5" y1="22.5" x2="67.5" y2="67.5" stroke="hsl(286,65%,60%)" stroke-width="7" stroke-linecap="round"/>
  </symbol>
  <symbol id="B_v12" width="45" height="45" overflow="visible">
    <line x1="22.5" y1="22.5" x2="-22.5" y2="67.5" stroke="white" stroke-width="10" stroke-linecap="round"/>
    <line x1="22.5" y1="22.5" x2="67.5" y2="22.5" stroke="white" stroke-width="10" stroke-linecap="round"/>
  </symbol>
  <symbol id="B_v13" width="45" height="45" overflow="visible">
    <line x1="22.5" y1="22.5" x2="-22.5" y2="67.5" stroke="hsl(286,65%,60%)" stroke-width="7" stroke-linecap="round"/>
    <line x1="22.5" y1="22.5" x2="67.5" y2="22.5" stroke="hsl(286,65%,60%)" stroke-width="7" stroke-linecap="round"/>
  </symbol>
  <use xlink:href="#_20" x="0" y="0"/>
  <use xlink:href="#B" x="45" y="0"/>
  <use xlink:href="#_20" x="90" y="0"/>
  <use xlink:href="#B" x="135" y="0"/>
  <use xlink:href="#_20" x="180" y="0"/>
  <use xlink:href="#B" x="225" y="0"/>
  <use xlink:href="#_20" x="270" y="0"/>
  <use xlink:href="#B" x="315" y="0"/>
  <use xlink:href="#_20" x="360" y="0"/>
  <use xlink:href="#B" x="405" y="0"/>
  <use xlink:href="#_20" x="450" y="0"/>
  <use xlink:href="#B" x="495" y="0"/>
  <use xlink:href="#_20" x="540" y="0"/>
  <use xlink:href="#B" x="585" y="0"/>
  <use xlink:href="#_20" x="630" y="0"/>
  <use xlink:href="#B" x="675" y="0"/>
  <use xlink:href="#_20" x="720" y="0"/>
  <use xlink:href="#B" x="765" y="0"/>
  <use xlink:href="#B" x="0" y="45"/>
  <use xlink:href="#_20" x="45" y="45"/>
  <use xlink:href="#B" x="90" y="45"/>
  <use xlink:href="#_20" x="135" y="45"/>
  <use xlink:href="#B" x="180" y="45"/>
  <use xlink:href="#_20" x="225" y="45"/>
  <use xlink:href="#B" x="270" y="45"/>
  <use xlink:href="#_20" x="315" y="45"/>
  <use xlink:href="#B" x="360" y="45"/>
  <use xlink:href="#_20" x="405" y="45"/>
  <use xlink:href="#B" x="450" y="45"/>
  <use xlink:href="#_20" x="495" y="45"/>
  <use xlink:href="#B" x="540" y="45"/>
  <use xlink:href="#_20" x="585" y="45"/>
  <use xlink:href="#B" x="630" y="45"/>
  <use xlink:href="#_20" x="675" y="45"/>
  <use xlink:href="#B" x="720" y="45"/>
  <use xlink:href="#_20" x="765" y="45"/>
  <use xlink:href="#_20" x="0" y="90"/>
  <use xlink:href="#B" x="45" y="90"/>
  <use xlink:href="#_20" x="90" y="90"/>
  <use xlink:href="#B" x="135" y="90"/>
  <use xlink:href="#_20" x="180" y="90"/>
  <use xlink:href="#B" x="225" y="90"/>
  <use xlink:href="#_20" x="270" y="90"/>
  <use xlink:href="#B" x="315" y="90"/>
  <use xlink:href="#_20" x="360" y="90"/>
  <use xlink:href="#B" x="405" y="90"/>
  <use xlink:href="#_20" x="450" y="90"/>
  <use xlink:href="#B" x="495" y="90"/>
  <use xlink:href="#_20" x="540" y="90"/>
  <use xlink:href="#B" x="585" y="90"/>
  <use xlink:href="#_20" x="630" y="90"/>
  <use xlink:href="#B" x="675" y="90"/>
  <use xlink:href="#_20" x="720" y="90"/>
  <use xlink:href="#B" x="765" y="90"/>
  <use xlink:href="#B" x="0" y="135"/>
  <use xlink:href="#_20" x="45" y="135"/>
  <use xlink:href="#B" x="90" y="135"/>
  <use xlink:href="#_20" x="135" y="135"/>
  <use xlink:href="#B" x="180" y="135"/>
  <use xlink:href="#_20" x="225" y="135"/>
  <use xlink:href="#B" x="270" y="135"/>
  <use xlink:href="#_20" x="315" y="135"/>
  <use xlink:href="#B" x="360" y="135"/>
  <use xlink:href="#_20" x="405" y="135"/>
  <use xlink:href="#B" x="450" y="135"/>
  <use xlink:href="#_20" x="495" y="135"/>
  <use xlink:href="#B" x="540" y="135"/>
  <use xlink:href="#_20" x="585" y="135"/>
  <use xlink:href="#B" x="630" y="135"/>
  <use xlink:href="#_20" x="675" y="135"/>
  <use xlink:href="#B" x="720" y="135"/>
  <use xlink:href="#_20" x="765" y="135"/>
  <use xlink:href="#_20" x="0" y="180"/>
  <use xlink:href="#B" x="45" y="180"/>
  <use xlink:href="#_20" x="90" y="180"/>
  <use xlink:href="#B" x="135" y="180"/>
  <use xlink:href="#_20" x="180" y="180"/>
  <use xlink:href="#B" x="225" y="180"/>
  <use xlink:href="#_20" x="270" y="180"/>
  <use xlink:href="#B" x="315" y="180"/>
  <use xlink:href="#_20" x="360" y="180"/>
  <use xlink:href="#B" x="405" y="180"/>
  <use xlink:href="#_20" x="450" y="180"/>
  <use xlink:href="#B" x="495" y="180"/>
  <use xlink:href="#_20" x="540" y="180"/>
  <use xlink:href="#B" x="585" y="180"/>
  <use xlink:href="#_20" x="630" y="180"/>
  <use xlink:href="#B" x="675" y="180"/>
  <use xlink:href="#_20" x="720" y="180"/>
  <use xlink:href="#B" x="765" y="180"/>
  <use xlink:href="#B" x="0" y="225"/>
  <use xlink:href="#_20" x="45" y="225"/>
  <use xlink:href="#B" x="90" y="225"/>
  <use xlink:href="#_20" x="135" y="225"/>
  <use xlink:href="#B" x="180" y="225"/>
  <use xlink:href="#_20" x="225" y="225"/>
  <use xlink:href="#B" x="270" y="225"/>
  <use xlink:href="#_20" x="315" y="225"/>
  <use xlink:href="#B" x="360" y="225"/>
  <use xlink:href="#_20" x="405" y="225"/>
  <use xlink:href="#B" x="450" y="225"/>
  <use xlink:href="#_20" x="495" y="225"/>
  <use xlink:href="#B" x="540" y="225"/>
  <use xlink:href="#_20" x="585" y="225"/>
  <use xlink:href="#B" x="630" y="225"/>
  <use xlink:href="#_20" x="675" y="225"/>
  <use xlink:href="#B" x="720" y="225"/>
  <use xlink:href="#_20" x="765" y="225"/>
  <use xlink:href="#_20" x="0" y="270"/>
  <use xlink:href="#B" x="45" y="270"/>
  <use xlink:href="#_20" x="90" y="270"/>
  <use xlink:href="#B" x="135" y="270"/>
  <use xlink:href="#_20" x="180" y="270"/>
  <use xlink:href="#B" x="225" y="270"/>
  <use xlink:href="#_20" x="270" y="270"/>
  <use xlink:href="#B" x="315" y="270"/>
  <use xlink:href="#_20" x="360" y="270"/>
  <use xlink:href="#B" x="405" y="270"/>
  <use xlink:href="#_20" x="450" y="270"/>
  <use xlink:href="#B" x="495" y="270"/>
  <use xlink:href="#_20" x="540" y="270"/>
  <use xlink:href="#B" x="585" y="270"/>
  <use xlink:href="#_20" x="630" y="270"/>
  <use xlink:href="#B" x="675" y="270"/>
  <use xlink:href="#_20" x="720" y="270"/>
  <use xlink:href="#B" x="765" y="270"/>
  <use xlink:href="#B" x="0" y="315"/>
  <use xlink:href="#_20" x="45" y="315"/>
  <use xlink:href="#B" x="90" y="315"/>
  <use xlink:href="#_20" x="135" y="315"/>
  <use xlink:href="#B" x="180" y="315"/>
  <use xlink:href="#_20" x="225" y="315"/>
  <use xlink:href="#B" x="270" y="315"/>
  <use xlink:href="#_20" x="315" y="315"/>
  <use xlink:href="#B" x="360" y="315"/>
  <use xlink:href="#_20" x="405" y="315"/>
  <use xlink:href="#B" x="450" y="315"/>
  <use xlink:href="#_20" x="495" y="315"/>
  <use xlink:href="#B" x="540" y="315"/>
  <use xlink:href="#_20" x="585" y="315"/>
  <use xlink:href="#B" x="630" y="315"/>
  <use xlink:href="#_20" x="675" y="315"/>
  <use xlink:href="#B" x="720" y="315"/>
  <use xlink:href="#_20" x="765" y="315"/>
  <use xlink:href="#_20" x="0" y="360"/>
  <use xlink:href="#B" x="45" y="360"/>
  <use xlink:href="#_20" x="90" y="360"/>
  <use xlink:href="#B" x="135" y="360"/>
  <use xlink:href="#_20" x="180" y="360"/>
  <use xlink:href="#B" x="225" y="360"/>
  <use xlink:href="#_20" x="270" y="360"/>
  <use xlink:href="#B" x="315" y="360"/>
  <use xlink:href="#_20" x="360" y="360"/>
  <use xlink:href="#B" x="405" y="360"/>
  <use xlink:href="#_20" x="450" y="360"/>
  <use xlink:href="#B" x="495" y="360"/>
  <use xlink:href="#_20" x="540" y="360"/>
  <use xlink:href="#B" x="585" y="360"/>
  <use xlink:href="#_20" x="630" y="360"/>
  <use xlink:href="#B" x="675" y="360"/>
  <use xlink:href="#_20" x="720" y="360"/>
  <use xlink:href="#B" x="765" y="360"/>
  <use xlink:href="#B" x="0" y="405"/>
  <use xlink:href="#_20" x="45" y="405"/>
  <use xlink:href="#B" x="90" y="405"/>
  <use xlink:href="#_20" x="135" y="405"/>
  <use xlink:href="#B" x="180" y="405"/>
  <use xlink:href="#_20" x="225" y="405"/>
  <use xlink:href="#B" x="270" y="405"/>
  <use xlink:href="#_20" x="315" y="405"/>
  <use xlink:href="#B" x="360" y="405"/>
  <use xlink:href="#_20" x="405" y="405"/>
  <use xlink:href="#B" x="450" y="405"/>
  <use xlink:href="#_20" x="495" y="405"/>
  <use xlink:href="#B" x="540" y="405"/>
  <use xlink:href="#_20" x="585" y="405"/>
  <use xlink:href="#B" x="630" y="405"/>
  <use xlink:href="#_20" x="675" y="405"/>
  <use xlink:href="#B" x="720" y="405"/>
  <use xlink:href="#_20" x="765" y="405"/>
  <use xlink:href="#_20" x="0" y="450"/>
  <use xlink:href="#B" x="45" y="450"/>
  <use xlink:href="#_20" x="90" y="450"/>
  <use xlink:href="#B" x="135" y="450"/>
  <use xlink:href="#_20" x="180" y="450"/>
  <use xlink:href="#B" x="225" y="450"/>
  <use xlink:href="#_20" x="270" y="450"/>
  <use xlink:href="#B" x="315" y="450"/>
  <use xlink:href="#_20" x="360" y="450"/>
  <use xlink:href="#B" x="405" y="450"/>
  <use xlink:href="#_20" x="450" y="450"/>
  <use xlink:href="#B" x="495" y="450"/>
  <use xlink:href="#_20" x="540" y="450"/>
  <use xlink:href="#B" x="585" y="450"/>
  <use xlink:href="#_20" x="630" y="450"/>
  <use xlink:href="#B" x="675" y="450"/>
  <use xlink:href="#_20" x="720" y="450"/>
  <use xlink:href="#B" x="765" y="450"/>
  <use xlink:href="#B" x="0" y="495"/>
  <use xlink:href="#_20" x="45" y="495"/>
  <use xlink:href="#B" x="90" y="495"/>
  <use xlink:href="#_20" x="135" y="495"/>
  <use xlink:href="#B" x="180" y="495"/>
  <use xlink:href="#_20" x="225" y="495"/>
  <use xlink:href="#B" x="270" y="495"/>
  <use xlink:href="#_20" x="315" y="495"/>
  <use xlink:href="#B" x="360" y="495"/>
  <use xlink:href="#_20" x="405" y="495"/>
  <use xlink:href="#B" x="450" y="495"/>
  <use xlink:href="#_20" x="495" y="495"/>
  <use xlink:href="#B" x="540" y="495"/>
  <use xlink:href="#_20" x="585" y="495"/>
  <use xlink:href="#B" x="630" y="495"/>
  <use xlink:href="#_20" x="675" y="495"/>
  <use xlink:href="#B" x="720" y="495"/>
  <use xlink:href="#_20" x="765" y="495"/>
  <use xlink:href="#_20" x="0" y="540"/>
  <use xlink:href="#B" x="45" y="540"/>
  <use xlink:href="#_20" x="90" y="540"/>
  <use xlink:href="#B" x="135" y="540"/>
  <use xlink:href="#_20" x="180" y="540"/>
  <use xlink:href="#B" x="225" y="540"/>
  <use xlink:href="#_20" x="270" y="540"/>
  <use xlink:href="#B" x="315" y="540"/>
  <use xlink:href="#_20" x="360" y="540"/>
  <use xlink:href="#B" x="405" y="540"/>
  <use xlink:href="#_20" x="450" y="540"/>
  <use xlink:href="#B" x="495" y="540"/>
  <use xlink:href="#_20" x="540" y="540"/>
  <use xlink:href="#B" x="585" y="540"/>
  <use xlink:href="#_20" x="630" y="540"/>
  <use xlink:href="#B" x="675" y="540"/>
  <use xlink:href="#_20" x="720" y="540"/>
  <use xlink:href="#B" x="765" y="540"/>
  <use xlink:href="#B_v1" x="45" y="0"/>
  <use xlink:href="#B_v1" x="225" y="0"/>
  <use xlink:href="#B_v4" x="585" y="0"/>
  <use xlink:href="#B_v4" x="765" y="0"/>
  <use xlink:href="#B_v1" x="90" y="45"/>
  <use xlink:href="#B_v1" x="270" y="45"/>
  <use xlink:href="#B_v4" x="540" y="45"/>
  <use xlink:href="#B_v4" x="720" y="45"/>
  <use xlink:href="#B_v1" x="135" y="90"/>
  <use xlink:href="#B_v1" x="315" y="90"/>
  <use xlink:href="#B_v6" x="495" y="90"/>
  <use xlink:href="#B_v4" x="675" y="90"/>
  <use xlink:href="#B_v8" x="180" y="135"/>
  <use xlink:href="#B_v1" x="360" y="135"/>
  <use xlink:href="#B_v6" x="495" y="135"/>
  <use xlink:href="#B_v4" x="630" y="135"/>
  <use xlink:href="#b_v1" x="180" y="180"/>
  <use xlink:href="#B_v1" x="225" y="180"/>
  <use xlink:href="#B_v1" x="405" y="180"/>
  <use xlink:href="#B_v10" x="495" y="180"/>
  <use xlink:href="#B_v4" x="585" y="180"/>
  <use xlink:href="#B_v1" x="270" y="225"/>
  <use xlink:href="#B_v4" x="450" y="225"/>
  <use xlink:href="#B_v1" x="540" y="225"/>
  <use xlink:href="#b_v1" x="315" y="270"/>
  <use xlink:href="#b_v1" x="360" y="270"/>
  <use xlink:href="#B_v1" x="405" y="270"/>
  <use xlink:href="#B_v12" x="585" y="270"/>
  <use xlink:href="#b_v1" x="630" y="270"/>
  <use xlink:href="#B_v1" x="675" y="270"/>
  <use xlink:href="#B_v10" x="450" y="315"/>
  <use xlink:href="#B_v10" x="540" y="315"/>
  <use xlink:href="#B_v1" x="720" y="315"/>
  <use xlink:href="#B_v4" x="405" y="360"/>
  <use xlink:href="#B_v6" x="495" y="360"/>
  <use xlink:href="#B_v1" x="585" y="360"/>
  <use xlink:href="#B_v4" x="360" y="405"/>
  <use xlink:href="#B_v6" x="495" y="405"/>
  <use xlink:href="#B_v1" x="630" y="405"/>
  <use xlink:href="#B_v4" x="315" y="450"/>
  <use xlink:href="#B_v4" x="495" y="450"/>
  <use xlink:href="#B_v1" x="675" y="450"/>
  <use xlink:href="#B_v4" x="270" y="495"/>
  <use xlink:href="#B_v4" x="450" y="495"/>
  <use xlink:href="#B_v1" x="720" y="495"/>
  <use xlink:href="#B_v2" x="45" y="0"/>
  <use xlink:href="#B_v2" x="225" y="0"/>
  <use xlink:href="#B_v5" x="585" y="0"/>
  <use xlink:href="#B_v5" x="765" y="0"/>
  <use xlink:href="#B_v2" x="90" y="45"/>
  <use xlink:href="#B_v2" x="270" y="45"/>
  <use xlink:href="#B_v5" x="540" y="45"/>
  <use xlink:href="#B_v5" x="720" y="45"/>
  <use xlink:href="#B_v2" x="135" y="90"/>
  <use xlink:href="#B_v2" x="315" y="90"/>
  <use xlink:href="#B_v7" x="495" y="90"/>
  <use xlink:href="#B_v5" x="675" y="90"/>
  <use xlink:href="#B_v9" x="180" y="135"/>
  <use xlink:href="#B_v2" x="360" y="135"/>
  <use xlink:href="#B_v7" x="495" y="135"/>
  <use xlink:href="#B_v5" x="630" y="135"/>
  <use xlink:href="#b_v2" x="180" y="180"/>
  <use xlink:href="#B_v2" x="225" y="180"/>
  <use xlink:href="#B_v2" x="405" y="180"/>
  <use xlink:href="#B_v11" x="495" y="180"/>
  <use xlink:href="#B_v5" x="585" y="180"/>
  <use xlink:href="#B_v2" x="270" y="225"/>
  <use xlink:href="#B_v5" x="450" y="225"/>
  <use xlink:href="#B_v2" x="540" y="225"/>
  <use xlink:href="#b_v2" x="315" y="270"/>
  <use xlink:href="#b_v2" x="360" y="270"/>
  <use xlink:href="#B_v2" x="405" y="270"/>
  <use xlink:href="#B_v13" x="585" y="270"/>
  <use xlink:href="#b_v2" x="630" y="270"/>
  <use xlink:href="#B_v2" x="675" y="270"/>
  <use xlink:href="#B_v11" x="450" y="315"/>
  <use xlink:href="#B_v11" x="540" y="315"/>
  <use xlink:href="#B_v2" x="720" y="315"/>
  <use xlink:href="#B_v5" x="405" y="360"/>
  <use xlink:href="#B_v7" x="495" y="360"/>
  <use xlink:href="#B_v2" x="585" y="360"/>
  <use xlink:href="#B_v5" x="360" y="405"/>
  <use xlink:href="#B_v7" x="495" y="405"/>
  <use xlink:href="#B_v2" x="630" y="405"/>
  <use xlink:href="#B_v5" x="315" y="450"/>
  <use xlink:href="#B_v5" x="495" y="450"/>
  <use xlink:href="#B_v2" x="675" y="450"/>
  <use xlink:href="#B_v5" x="270" y="495"/>
  <use xlink:href="#B_v5" x="450" y="495"/>
  <use xlink:href="#B_v2" x="720" y="495"/>
  <use xlink:href="#B_v3" x="45" y="0"/>
  <use xlink:href="#B_v3" x="225" y="0"/>
  <use xlink:href="#B_v3" x="585" y="0"/>
  <use xlink:href="#B_v3" x="765" y="0"/>
  <use xlink:href="#B_v3" x="90" y="45"/>
  <use xlink:href="#B_v3" x="270" y="45"/>
  <use xlink:href="#B_v3" x="540" y="45"/>
  <use xlink:href="#B_v3" x="720" y="45"/>
  <use xlink:href="#B_v3" x="135" y="90"/>
  <use xlink:href="#B_v3" x="315" y="90"/>
  <use xlink:href="#B_v3" x="495" y="90"/>
  <use xlink:href="#B_v3" x="675" y="90"/>
  <use xlink:href="#B_v3" x="180" y="135"/>
  <use xlink:href="#B_v3" x="360" y="135"/>
  <use xlink:href="#b" x="495" y="135"/>
  <use xlink:href="#B_v3" x="630" y="135"/>
  <use xlink:href="#b" x="180" y="180"/>
  <use xlink:href="#B_v3" x="225" y="180"/>
  <use xlink:href="#B_v3" x="405" y="180"/>
  <use xlink:href="#B_v3" x="495" y="180"/>
  <use xlink:href="#B_v3" x="585" y="180"/>
  <use xlink:href="#B_v3" x="270" y="225"/>
  <use xlink:href="#B_v3" x="450" y="225"/>
  <use xlink:href="#B_v3" x="540" y="225"/>
  <use xlink:href="#B_v3" x="315" y="270"/>
  <use xlink:href="#b" x="360" y="270"/>
  <use xlink:href="#B_v3" x="405" y="270"/>
  <use xlink:href="#B_v3" x="585" y="270"/>
  <use xlink:href="#b" x="630" y="270"/>
  <use xlink:href="#B_v3" x="675" y="270"/>
  <use xlink:href="#B_v3" x="450" y="315"/>
  <use xlink:href="#B_v3" x="540" y="315"/>
  <use xlink:href="#B_v3" x="720" y="315"/>
  <use xlink:href="#B_v3" x="405" y="360"/>
  <use xlink:href="#B_v3" x="495" y="360"/>
  <use xlink:href="#B_v3" x="585" y="360"/>
  <use xlink:href="#B_v3" x="765" y="360"/>
  <use xlink:href="#B_v3" x="360" y="405"/>
  <use xlink:href="#b" x="495" y="405"/>
  <use xlink:href="#B_v3" x="630" y="405"/>
  <use xlink:href="#B_v3" x="315" y="450"/>
  <use xlink:href="#B_v3" x="495" y="450"/>
  <use xlink:href="#B_v3" x="675" y="450"/>
  <use xlink:href="#B_v3" x="270" y="495"/>
  <use xlink:href="#B_v3" x="450" y="495"/>
  <use xlink:href="#B_v3" x="720" y="495"/>
  <use xlink:href="#B_v3" x="225" y="540"/>
  <use xlink:href="#B_v3" x="405" y="540"/>
  <use xlink:href="#B_v3" x="765" y="540"/>
</svg>