<?xml version="1.0" encoding="UTF-8" standalone="no"?>
<!DOCTYPE svg PUBLIC "-//W3C//DTD SVG 1.1//EN" "http://www.w3.org/Graphics/SVG/1.1/DTD/svg11.dtd">
<svg xmlns:xlink="http://www.w3.org/1999/xlink" version="1.1" viewBox="0 0 1080 630" width="1080" height="630" xmlns="http://www.w3.org/2000/svg">
  <symbol id="_20" width="45" height="45" overflow="visible">
    <rect width="45" height="45" fill="#eee"/>
  </symbol>
  <symbol id="_20_v1" width="45" height="45" overflow="visible">
    <rect width="45" height="45" fill="#ccc"/>
  </symbol>
  <symbol id="N" width="45" height="45" overflow="visible">
    <line x1="22.5" y1="22.5" x2="67.5" y2="67.5" stroke="white" stroke-width="10" stroke-linecap="round"/>
  </symbol>
  <symbol id="N_v1" width="45" height="45" overflow="visible">
    <line x1="22.5" y1="22.5" x2="67.5" y2="67.5" stroke="hsl(286,65%,60%)" stroke-width="7" stroke-linecap="round"/>
  </symbol>
  <symbol id="N_v2" width="45" height="45" overflow="visible">
    <g fill-rule="evenodd" stroke-width="1.5" stroke-linecap="round" stroke-linejoin="miter" stroke-miterlimit="4">
      <path d="M 22,10 C 32.5,11 38.5,18 38,39 L 15,39 C 15,30 25,32.5 23,18" fill="#000" stroke="#000"/>
      <path d="M 24,18 C 24.38,20.91 18.45,25.37 16,27 C 13,29 13.18,31.34 11,31 C 9.958,30.06 12.41,27.96 11,28 C 10,28 11.19,29.23 10,30 C 9,30 5.997,31 6,26 C 6,24 12,14 12,14 C 12,14 13.89,12.1 14,10.5 C 13.27,9.506 13.5,8.5 13.5,7.5 C 14.5,6.5 16.5,10 16.5,10 L 18.5,10 C 18.5,10 19.28,8.008 21,7 C 22,7 22,10 22,10" fill="#000" stroke="#000"/>
      <path d="M 9.5 25.5 A 0.5 0.5 0 1 1 8.5,25.5 A 0.5 0.5 0 1 1 9.5 25.5 z" fill="#fff" stroke="#fff"/>
      <path d="M 15 15.5 A 0.5 1.5 0 1 1  14,15.5 A 0.5 1.5 0 1 1  15 15.5 z" transform="matrix(0.866,0.5,-0.5,0.866,9.693,-5.173)" fill="#fff" stroke="#fff"/>
      <path d="M 24.55,10.4 L 24.1,11.85 L 24.6,12 C 27.75,13 30.25,14.49 32.5,18.75 C 34.75,23.01 35.75,29.06 35.25,39 L 35.2,39.5 L 37.45,39.5 L 37.5,39 C 38,28.94 36.62,22.15 34.25,17.66 C 31.88,13.17 28.46,11.02 25.06,10.5 L 24.55,10.4 z " fill="#fff" stroke="none"/>
    </g>
  </symbol>
  <symbol id="N_v3" width="45" height="45" overflow="visible">
    <line x1="22.5" y1="22.5" x2="-22.5" y2="67.5" stroke="white" stroke-width="10" stroke-linecap="round"/>
  </symbol>
  <symbol id="N_v4" width="45" height="45" overflow="visible">
    <line x1="22.5" y1="22.5" x2="-22.5" y2="67.5" stroke="hsl(286,65%,60%)" stroke-width="7" stroke-linecap="round"/>
  </symbol>
  <symbol id="N_v5" width="45" height="45" overflow="visible">
    <line x1="22.5" y1="22.5" x2="-22.5" y2="67.5" stroke="white" stroke-width="10" stroke-linecap="round"/>
    <line x1="22.5" y1="22.5" x2="67.5" y2="67.5" stroke="white" stroke-width="10" stroke-linecap="round"/>
  </symbol>
  <symbol id="N_v6" width="45" height="45" overflow="visible">
    <line x1="22.5" y1="22.5" x2="-22.5" y2="67.5" stroke="hsl(286,65%,60%)" stroke-width="7" stroke-linecap="round"/>
    <line x1="22.5" y1="22.5" x2="67.5" y2="67.5" stroke="hsl(286,65%,60%)" stroke-width="7" stroke-linecap="round"/>
  </symbol>
  <use xlink:href="#_20" x="0" y="0"/>
  <use xlink:href="#_20_v1" x="45" y="0"/>
  <use xlink:href="#_20" x="90" y="0"/>
  <use xlink:href="#_20_v1" x="135" y="0"/>
  <use xlink:href="#_20" x="180" y="0"/>
  <use xlink:href="#_20_v1" x="225" y="0"/>
  <use xlink:href="#_20" x="270" y="0"/>
  <use xlink:href="#_20_v1" x="315" y="0"/>
  <use xlink:href="#_20" x="360" y="0"/>
  <use xlink:href="#_20_v1" x="405" y="0"/>
  <use xlink:href="#_20" x="450" y="0"/>
  <use xlink:href="#_20_v1" x="495" y="0"/>
  <use xlink:href="#_20" x="540" y="0"/>
  <use xlink:href="#_20_v1" x="585" y="0"/>
  <use xlink:href="#_20" x="630" y="0"/>
  <use xlink:href="#_20_v1" x="675" y="0"/>
  <use xlink:href="#_20" x="720" y="0"/>
  <use xlink:href="#_20_v1" x="765" y="0"/>
  <use xlink:href="#_20" x="810" y="0"/>
  <use xlink:href="#_20_v1" x="855" y="0"/>
  <use xlink:href="#_20" x="900" y="0"/>
  <use xlink:href="#_20_v1" x="945" y="0"/>
  <use xlink:href="#_20" x="990" y="0"/>
  <use xlink:href="#_20_v1" x="1035" y="0"/>
  <use xlink:href="#_20_v1" x="0" y="45"/>
  <use xlink:href="#_20" x="45" y="45"/>
  <use xlink:href="#_20_v1" x="90" y="45"/>
  <use xlink:href="#_20" x="135" y="45"/>
  <use xlink:href="#_20_v1" x="180" y="45"/>
  <use xlink:href="#_20" x="225" y="45"/>
  <use xlink:href="#_20_v1" x="270" y="45"/>
  <use xlink:href="#_20" x="315" y="45"/>
  <use xlink:href="#_20_v1" x="360" y="45"/>
  <use xlink:href="#_20" x="405" y="45"/>
  <use xlink:href="#_20_v1" x="450" y="45"/>
  <use xlink:href="#_20" x="495" y="45"/>
  <use xlink:href="#_20_v1" x="540" y="45"/>
  <use xlink:href="#_20" x="585" y="45"/>
  <use xlink:href="#_20_v1" x="630" y="45"/>
  <use xlink:href="#_20" x="675" y="45"/>
  <use xlink:href="#_20_v1" x="720" y="45"/>
  <use xlink:href="#_20" x="765" y="45"/>
  <use xlink:href="#_20_v1" x="810" y="45"/>
  <use xlink:href="#_20" x="855" y="45"/>
  <use xlink:href="#_20_v1" x="900" y="45"/>
  <use xlink:href="#_20" x="945" y="45"/>
  <use xlink:href="#_20_v1" x="990" y="45"/>
  <use xlink:href="#_20" x="1035" y="45"/>
  <use xlink:href="#_20" x="0" y="90"/>
  <use xlink:href="#_20_v1" x="45" y="90"/>
  <use xlink:href="#_20" x="90" y="90"/>
  <use xlink:href="#_20_v1" x="135" y="90"/>
  <use xlink:href="#_20" x="180" y="90"/>
  <use xlink:href="#_20_v1" x="225" y="90"/>
  <use xlink:href="#_20" x="270" y="90"/>
  <use xlink:href="#_20_v1" x="315" y="90"/>
  <use xlink:href="#_20" x="360" y="90"/>
  <use xlink:href="#_20_v1" x="405" y="90"/>
  <use xlink:href="#_20" x="450" y="90"/>
  <use xlink:href="#_20_v1" x="495" y="90"/>
  <use xlink:href="#_20" x="540" y="90"/>
  <use xlink:href="#_20_v1" x="585" y="90"/>
  <use xlink:href="#_20" x="630" y="90"/>
  <use xlink:href="#_20_v1" x="675" y="90"/>
  <use xlink:href="#_20" x="720" y="90"/>
  <use xlink:href="#_20_v1" x="765" y="90"/>
  <use xlink:href="#_20" x="810" y="90"/>
  <use xlink:href="#_20_v1" x="855" y="90"/>
  <use xlink:href="#_20" x="900" y="90"/>
  <use xlink:href="#_20_v1" x="945" y="90"/>
  <use xlink:href="#_20" x="990" y="90"/>
  <use xlink:href="#_20_v1" x="1035" y="90"/>
  <use xlink:href="#_20_v1" x="0" y="135"/>
  <use xlink:href="#_20" x="45" y="135"/>
  <use xlink:href="#_20_v1" x="90" y="135"/>
  <use xlink:href="#_20" x="135" y="135"/>
  <use xlink:href="#_20_v1" x="180" y="135"/>
  <use xlink:href="#_20" x="225" y="135"/>
  <use xlink:href="#_20_v1" x="270" y="135"/>
  <use xlink:href="#_20" x="315" y="135"/>
  <use xlink:href="#_20_v1" x="360" y="135"/>
  <use xlink:href="#_20" x="405" y="135"/>
  <use xlink:href="#_20_v1" x="450" y="135"/>
  <use xlink:href="#_20" x="495" y="135"/>
  <use xlink:href="#_20_v1" x="540" y="135"/>
  <use xlink:href="#_20" x="585" y="135"/>
  <use xlink:href="#_20_v1" x="630" y="135"/>
  <use xlink:href="#_20" x="675" y="135"/>
  <use xlink:href="#_20_v1" x="720" y="135"/>
  <use xlink:href="#_20" x="765" y="135"/>
  <use xlink:href="#_20_v1" x="810" y="135"/>
  <use xlink:href="#_20" x="855" y="135"/>
  <use xlink:href="#_20_v1" x="900" y="135"/>
  <use xlink:href="#_20" x="945" y="135"/>
  <use xlink:href="#_20_v1" x="990" y="135"/>
  <use xlink:href="#_20" x="1035" y="135"/>
  <use xlink:href="#_20" x="0" y="180"/>
  <use xlink:href="#_20_v1" x="45" y="180"/>
  <use xlink:href="#_20" x="90" y="180"/>
  <use xlink:href="#_20_v1" x="135" y="180"/>
  <use xlink:href="#_20" x="180" y="180"/>
  <use xlink:href="#_20_v1" x="225" y="180"/>
  <use xlink:href="#_20" x="270" y="180"/>
  <use xlink:href="#_20_v1" x="315" y="180"/>
  <use xlink:href="#_20" x="360" y="180"/>
  <use xlink:href="#_20_v1" x="405" y="180"/>
  <use xlink:href="#_20" x="450" y="180"/>
  <use xlink:href="#_20_v1" x="495" y="180"/>
  <use xlink:href="#_20" x="540" y="180"/>
  <use xlink:href="#_20_v1" x="585" y="180"/>
  <use xlink:href="#_20" x="630" y="180"/>
  <use xlink:href="#_20_v1" x="675" y="180"/>
  <use xlink:href="#_20" x="720" y="180"/>
  <use xlink:href="#_20_v1" x="765" y="180"/>
  <use xlink:href="#_20" x="810" y="180"/>
  <use xlink:href="#_20_v1" x="855" y="180"/>
  <use xlink:href="#_20" x="900" y="180"/>
  <use xlink:href="#_20_v1" x="945" y="180"/>
  <use xlink:href="#_20" x="990" y="180"/>
  <use xlink:href="#_20_v1" x="1035" y="180"/>
  <use xlink:href="#_20_v1" x="0" y="225"/>
  <use xlink:href="#_20" x="45" y="225"/>
  <use xlink:href="#_20_v1" x="90" y="225"/>
  <use xlink:href="#_20" x="135" y="225"/>
  <use xlink:href="#_20_v1" x="180" y="225"/>
  <use xlink:href="#_20" x="225" y="225"/>
  <use xlink:href="#_20_v1" x="270" y="225"/>
  <use xlink:href="#_20" x="315" y="225"/>
  <use xlink:href="#_20_v1" x="360" y="225"/>
  <use xlink:href="#_20" x="405" y="225"/>
  <use xlink:href="#_20_v1" x="450" y="225"/>
  <use xlink:href="#_20" x="495" y="225"/>
  <use xlink:href="#_20_v1" x="540" y="225"/>
  <use xlink:href="#_20" x="585" y="225"/>
  <use xlink:href="#_20_v1" x="630" y="225"/>
  <use xlink:href="#_20" x="675" y="225"/>
  <use xlink:href="#_20_v1" x="720" y="225"/>
  <use xlink:href="#_20" x="765" y="225"/>
  <use xlink:href="#_20_v1" x="810" y="225"/>
  <use xlink:href="#_20" x="855" y="225"/>
  <use xlink:href="#_20_v1" x="900" y="225"/>
  <use xlink:href="#_20" x="945" y="225"/>
  <use xlink:href="#_20_v1" x="990" y="225"/>
  <use xlink:href="#_20" x="1035" y="225"/>
  <use xlink:href="#_20" x="0" y="270"/>
  <use xlink:href="#_20_v1" x="45" y="270"/>
  <use xlink:href="#_20" x="90" y="270"/>
  <use xlink:href="#_20_v1" x="135" y="270"/>
  <use xlink:href="#_20" x="180" y="270"/>
  <use xlink:href="#_20_v1" x="225" y="270"/>
  <use xlink:href="#_20" x="270" y="270"/>
  <use xlink:href="#_20_v1" x="315" y="270"/>
  <use xlink:href="#_20" x="360" y="270"/>
  <use xlink:href="#_20_v1" x="405" y="270"/>
  <use xlink:href="#_20" x="450" y="270"/>
  <use xlink:href="#_20_v1" x="495" y="270"/>
  <use xlink:href="#_20" x="540" y="270"/>
  <use xlink:href="#_20_v1" x="585" y="270"/>
  <use xlink:href="#_20" x="630" y="270"/>
  <use xlink:href="#_20_v1" x="675" y="270"/>
  <use xlink:href="#_20" x="720" y="270"/>
  <use xlink:href="#_20_v1" x="765" y="270"/>
  <use xlink:href="#_20" x="810" y="270"/>
  <use xlink:href="#_20_v1" x="855" y="270"/>
  <use xlink:href="#_20" x="900" y="270"/>
  <use xlink:href="#_20_v1" x="945" y="270"/>
  <use xlink:href="#_20" x="990" y="270"/>
  <use xlink:href="#_20_v1" x="1035" y="270"/>
  <use xlink:href="#_20_v1" x="0" y="315"/>
  <use xlink:href="#_20" x="45" y="315"/>
  <use xlink:href="#_20_v1" x="90" y="315"/>
  <use xlink:href="#_20" x="135" y="315"/>
  <use xlink:href="#_20_v1" x="180" y="315"/>
  <use xlink:href="#_20" x="225" y="315"/>
  <use xlink:href="#_20_v1" x="270" y="315"/>
  <use xlink:href="#_20" x="315" y="315"/>
  <use xlink:href="#_20_v1" x="360" y="315"/>
  <use xlink:href="#_20" x="405" y="315"/>
  <use xlink:href="#_20_v1" x="450" y="315"/>
  <use xlink:href="#_20" x="495" y="315"/>
  <use xlink:href="#_20_v1" x="540" y="315"/>
  <use xlink:href="#_20" x="585" y="315"/>
  <use xlink:href="#_20_v1" x="630" y="315"/>
  <use xlink:href="#_20" x="675" y="315"/>
  <use xlink:href="#_20_v1" x="720" y="315"/>
  <use xlink:href="#_20" x="765" y="315"/>
  <use xlink:href="#_20_v1" x="810" y="315"/>
  <use xlink:href="#_20" x="855" y="315"/>
  <use xlink:href="#_20_v1" x="900" y="315"/>
  <use xlink:href="#_20" x="945" y="315"/>
  <use xlink:href="#_20_v1" x="990" y="315"/>
  <use xlink:href="#_20" x="1035" y="315"/>
  <use xlink:href="#_20" x="0" y="360"/>
  <use xlink:href="#_20_v1" x="45" y="360"/>
  <use xlink:href="#_20" x="90" y="360"/>
  <use xlink:href="#_20_v1" x="135" y="360"/>
  <use xlink:href="#_20" x="180" y="360"/>
  <use xlink:href="#_20_v1" x="225" y="360"/>
  <use xlink:href="#_20" x="270" y="360"/>
  <use xlink:href="#_20_v1" x="315" y="360"/>
  <use xlink:href="#_20" x="360" y="360"/>
  <use xlink:href="#_20_v1" x="405" y="360"/>
  <use xlink:href="#_20" x="450" y="360"/>
  <use xlink:href="#_20_v1" x="495" y="360"/>
  <use xlink:href="#_20" x="540" y="360"/>
  <use xlink:href="#_20_v1" x="585" y="360"/>
  <use xlink:href="#_20" x="630" y="360"/>
  <use xlink:href="#_20_v1" x="675" y="360"/>
  <use xlink:href="#_20" x="720" y="360"/>
  <use xlink:href="#_20_v1" x="765" y="360"/>
  <use xlink:href="#_20" x="810" y="360"/>
  <use xlink:href="#_20_v1" x="855" y="360"/>
  <use xlink:href="#_20" x="900" y="360"/>
  <use xlink:href="#_20_v1" x="945" y="360"/>
  <use xlink:href="#_20" x="990" y="360"/>
  <use xlink:href="#_20_v1" x="1035" y="360"/>
  <use xlink:href="#_20_v1" x="0" y="405"/>
  <use xlink:href="#_20" x="45" y="405"/>
  <use xlink:href="#_20_v1" x="90" y="405"/>
  <use xlink:href="#_20" x="135" y="405"/>
  <use xlink:href="#_20_v1" x="180" y="405"/>
  <use xlink:href="#_20" x="225" y="405"/>
  <use xlink:href="#_20_v1" x="270" y="405"/>
  <use xlink:href="#_20" x="315" y="405"/>
  <use xlink:href="#_20_v1" x="360" y="405"/>
  <use xlink:href="#_20" x="405" y="405"/>
  <use xlink:href="#_20_v1" x="450" y="405"/>
  <use xlink:href="#_20" x="495" y="405"/>
  <use xlink:href="#_20_v1" x="540" y="405"/>
  <use xlink:href="#_20" x="585" y="405"/>
  <use xlink:href="#_20_v1" x="630" y="405"/>
  <use xlink:href="#_20" x="675" y="405"/>
  <use xlink:href="#_20_v1" x="720" y="405"/>
  <use xlink:href="#_20" x="765" y="405"/>
  <use xlink:href="#_20_v1" x="810" y="405"/>
  <use xlink:href="#_20" x="855" y="405"/>
  <use xlink:href="#_20_v1" x="900" y="405"/>
  <use xlink:href="#_20" x="945" y="405"/>
  <use xlink:href="#_20_v1" x="990" y="405"/>
  <use xlink:href="#_20" x="1035" y="405"/>
  <use xlink:href="#_20" x="0" y="450"/>
  <use xlink:href="#_20_v1" x="45" y="450"/>
  <use xlink:href="#_20" x="90" y="450"/>
  <use xlink:href="#_20_v1" x="135" y="450"/>
  <use xlink:href="#_20" x="180" y="450"/>
  <use xlink:href="#_20_v1" x="225" y="450"/>
  <use xlink:href="#_20" x="270" y="450"/>
  <use xlink:href="#_20_v1" x="315" y="450"/>
  <use xlink:href="#_20" x="360" y="450"/>
  <use xlink:href="#_20_v1" x="405" y="450"/>
  <use xlink:href="#_20" x="450" y="450"/>
  <use xlink:href="#_20_v1" x="495" y="450"/>
  <use xlink:href="#_20" x="540" y="450"/>
  <use xlink:href="#_20_v1" x="585" y="450"/>
  <use xlink:href="#_20" x="630" y="450"/>
  <use xlink:href="#_20_v1" x="675" y="450"/>
  <use xlink:href="#_20" x="720" y="450"/>
  <use xlink:href="#_20_v1" x="765" y="450"/>
  <use xlink:href="#_20" x="810" y="450"/>
  <use xlink:href="#_20_v1" x="855" y="450"/>
  <use xlink:href="#_20" x="900" y="450"/>
  <use xlink:href="#_20_v1" x="945" y="450"/>
  <use xlink:href="#_20" x="990" y="450"/>
  <use xlink:href="#_20_v1" x="1035" y="450"/>
  <use xlink:href="#_20_v1" x="0" y="495"/>
  <use xlink:href="#_20" x="45" y="495"/>
  <use xlink:href="#_20_v1" x="90" y="495"/>
  <use xlink:href="#_20" x="135" y="495"/>
  <use xlink:href="#_20_v1" x="180" y="495"/>
  <use xlink:href="#_20" x="225" y="495"/>
  <use xlink:href="#_20_v1" x="270" y="495"/>
  <use xlink:href="#_20" x="315" y="495"/>
  <use xlink:href="#_20_v1" x="360" y="495"/>
  <use xlink:href="#_20" x="405" y="495"/>
  <use xlink:href="#_20_v1" x="450" y="495"/>
  <use xlink:href="#_20" x="495" y="495"/>
  <use xlink:href="#_20_v1" x="540" y="495"/>
  <use xlink:href="#_20" x="585" y="495"/>
  <use xlink:href="#_20_v1" x="630" y="495"/>
  <use xlink:href="#_20" x="675" y="495"/>
  <use xlink:href="#_20_v1" x="720" y="495"/>
  <use xlink:href="#_20" x="765" y="495"/>
  <use xlink:href="#_20_v1" x="810" y="495"/>
  <use xlink:href="#_20" x="855" y="495"/>
  <use xlink:href="#_20_v1" x="900" y="495"/>
  <use xlink:href="#_20" x="945" y="495"/>
  <use xlink:href="#_20_v1" x="990" y="495"/>
  <use xlink:href="#_20" x="1035" y="495"/>
  <use xlink:href="#_20" x="0" y="540"/>
  <use xlink:href="#_20_v1" x="45" y="540"/>
  <use xlink:href="#_20" x="90" y="540"/>
  <use xlink:href="#_20_v1" x="135" y="540"/>
  <use xlink:href="#_20" x="180" y="540"/>
  <use xlink:href="#_20_v1" x="225" y="540"/>
  <use xlink:href="#_20" x="270" y="540"/>
  <use xlink:href="#_20_v1" x="315" y="540"/>
  <use xlink:href="#_20" x="360" y="540"/>
  <use xlink:href="#_20_v1" x="405" y="540"/>
  <use xlink:href="#_20" x="450" y="540"/>
  <use xlink:href="#_20_v1" x="495" y="540"/>
  <use xlink:href="#_20" x="540" y="540"/>
  <use xlink:href="#_20_v1" x="585" y="540"/>
  <use xlink:href="#_20" x="630" y="540"/>
  <use xlink:href="#_20_v1" x="675" y="540"/>
  <use xlink:href="#_20" x="720" y="540"/>
  <use xlink:href="#_20_v1" x="765" y="540"/>
  <use xlink:href="#_20" x="810" y="540"/>
  <use xlink:href="#_20_v1" x="855" y="540"/>
  <use xlink:href="#_20" x="900" y="540"/>
  <use xlink:href="#_20_v1" x="945" y="540"/>
  <use xlink:href="#_20" x="990" y="540"/>
  <use xlink:href="#_20_v1" x="1035" y="540"/>
  <use xlink:href="#_20_v1" x="0" y="585"/>
  <use xlink:href="#_20" x="45" y="585"/>
  <use xlink:href="#_20_v1" x="90" y="585"/>
  <use xlink:href="#_20" x="135" y="585"/>
  <use xlink:href="#_20_v1" x="180" y="585"/>
  <use xlink:href="#_20" x="225" y="585"/>
  <use xlink:href="#_20_v1" x="270" y="585"/>
  <use xlink:href="#_20" x="315" y="585"/>
  <use xlink:href="#_20_v1" x="360" y="585"/>
  <use xlink:href="#_20" x="405" y="585"/>
  <use xlink:href="#_20_v1" x="450" y="585"/>
  <use xlink:href="#_20" x="495" y="585"/>
  <use xlink:href="#_20_v1" x="540" y="585"/>
  <use xlink:href="#_20" x="585" y="585"/>
  <use xlink:href="#_20_v1" x="630" y="585"/>
  <use xlink:href="#_20" x="675" y="585"/>
  <use xlink:href="#_20_v1" x="720" y="585"/>
  <use xlink:href="#_20" x="765" y="585"/>
  <use xlink:href="#_20_v1" x="810" y="585"/>
  <use xlink:href="#_20" x="855" y="585"/>
  <use xlink:href="#_20_v1" x="900" y="585"/>
  <use xlink:href="#_20" x="945" y="585"/>
  <use xlink:href="#_20_v1" x="990" y="585"/>
  <use xlink:href="#_20" x="1035" y="585"/>
  <use xlink:href="#N" x="225" y="0"/>
  <use xlink:href="#N_v3" x="585" y="0"/>
  <use xlink:href="#N_v3" x="855" y="0"/>
  <use xlink:href="#N" x="0" y="45"/>
  <use xlink:href="#N" x="270" y="45"/>
  <use xlink:href="#N_v3" x="540" y="45"/>
  <use xlink:href="#N_v3" x="810" y="45"/>
  <use xlink:href="#N" x="45" y="90"/>
  <use xlink:href="#N" x="315" y="90"/>
  <use xlink:href="#N" x="495" y="90"/>
  <use xlink:href="#N_v3" x="765" y="90"/>
  <use xlink:href="#N" x="90" y="135"/>
  <use xlink:href="#N" x="360" y="135"/>
  <use xlink:href="#N_v3" x="540" y="135"/>
  <use xlink:href="#N_v3" x="720" y="135"/>
  <use xlink:href="#N" x="135" y="180"/>
  <use xlink:href="#N" x="405" y="180"/>
  <use xlink:href="#N_v5" x="495" y="180"/>
  <use xlink:href="#N_v3" x="675" y="180"/>
  <use xlink:href="#N" x="180" y="225"/>
  <use xlink:href="#N" x="450" y="225"/>
  <use xlink:href="#N_v5" x="540" y="225"/>
  <use xlink:href="#N_v5" x="630" y="225"/>
  <use xlink:href="#N" x="225" y="270"/>
  <use xlink:href="#N_v3" x="495" y="270"/>
  <use xlink:href="#N" x="585" y="270"/>
  <use xlink:href="#N_v5" x="675" y="270"/>
  <use xlink:href="#N_v5" x="765" y="270"/>
  <use xlink:href="#N" x="270" y="315"/>
  <use xlink:href="#N_v5" x="360" y="315"/>
  <use xlink:href="#N_v5" x="450" y="315"/>
  <use xlink:href="#N_v3" x="630" y="315"/>
  <use xlink:href="#N" x="810" y="315"/>
  <use xlink:href="#N" x="405" y="360"/>
  <use xlink:href="#N_v5" x="495" y="360"/>
  <use xlink:href="#N_v5" x="585" y="360"/>
  <use xlink:href="#N" x="855" y="360"/>
  <use xlink:href="#N_v3" x="450" y="405"/>
  <use xlink:href="#N" x="540" y="405"/>
  <use xlink:href="#N_v5" x="630" y="405"/>
  <use xlink:href="#N" x="900" y="405"/>
  <use xlink:href="#N_v3" x="405" y="450"/>
  <use xlink:href="#N_v3" x="585" y="450"/>
  <use xlink:href="#N" x="675" y="450"/>
  <use xlink:href="#N" x="945" y="450"/>
  <use xlink:href="#N_v3" x="360" y="495"/>
  <use xlink:href="#N" x="540" y="495"/>
  <use xlink:href="#N" x="720" y="495"/>
  <use xlink:href="#N" x="990" y="495"/>
  <use xlink:href="#N_v3" x="315" y="540"/>
  <use xlink:href="#N_v3" x="585" y="540"/>
  <use xlink:href="#N" x="765" y="540"/>
  <use xlink:href="#N_v1" x="225" y="0"/>
  <use xlink:href="#N_v4" x="585" y="0"/>
  <use xlink:href="#N_v4" x="855" y="0"/>
  <use xlink:href="#N_v1" x="0" y="45"/>
  <use xlink:href="#N_v1" x="270" y="45"/>
  <use xlink:href="#N_v4" x="540" y="45"/>
  <use xlink:href="#N_v4" x="810" y="45"/>
  <use xlink:href="#N_v1" x="45" y="90"/>
  <use xlink:href="#N_v1" x="315" y="90"/>
  <use xlink:href="#N_v1" x="495" y="90"/>
  <use xlink:href="#N_v4" x="765" y="90"/>
  <use xlink:href="#N_v1" x="90" y="135"/>
  <use xlink:href="#N_v1" x="360" y="135"/>
  <use xlink:href="#N_v4" x="540" y="135"/>
  <use xlink:href="#N_v4" x="720" y="135"/>
  <use xlink:href="#N_v1" x="135" y="180"/>
  <use xlink:href="#N_v1" x="405" y="180"/>
  <use xlink:href="#N_v6" x="495" y="180"/>
  <use xlink:href="#N_v4" x="675" y="180"/>
  <use xlink:href="#N_v1" x="180" y="225"/>
  <use xlink:href="#N_v1" x="450" y="225"/>
  <use xlink:href="#N_v6" x="540" y="225"/>
  <use xlink:href="#N_v6" x="630" y="225"/>
  <use xlink:href="#N_v1" x="225" y="270"/>
  <use xlink:href="#N_v4" x="495" y="270"/>
  <use xlink:href="#N_v1" x="585" y="270"/>
  <use xlink:href="#N_v6" x="675" y="270"/>
  <use xlink:href="#N_v6" x="765" y="270"/>
  <use xlink:href="#N_v1" x="270" y="315"/>
  <use xlink:href="#N_v6" x="360" y="315"/>
  <use xlink:href="#N_v6" x="450" y="315"/>
  <use xlink:href="#N_v4" x="630" y="315"/>
  <use xlink:href="#N_v1" x="810" y="315"/>
  <use xlink:href="#N_v1" x="405" y="360"/>
  <use xlink:href="#N_v6" x="495" y="360"/>
  <use xlink:href="#N_v6" x="585" y="360"/>
  <use xlink:href="#N_v1" x="855" y="360"/>
  <use xlink:href="#N_v4" x="450" y="405"/>
  <use xlink:href="#N_v1" x="540" y="405"/>
  <use xlink:href="#N_v6" x="630" y="405"/>
  <use xlink:href="#N_v1" x="900" y="405"/>
  <use xlink:href="#N_v4" x="405" y="450"/>
  <use xlink:href="#N_v4" x="585" y="450"/>
  <use xlink:href="#N_v1" x="675" y="450"/>
  <use xlink:href="#N_v1" x="945" y="450"/>
  <use xlink:href="#N_v4" x="360" y="495"/>
  <use xlink:href="#N_v1" x="540" y="495"/>
  <use xlink:href="#N_v1" x="720" y="495"/>
  <use xlink:href="#N_v1" x="990" y="495"/>
  <use xlink:href="#N_v4" x="315" y="540"/>
  <use xlink:href="#N_v4" x="585" y="540"/>
  <use xlink:href="#N_v1" x="765" y="540"/>
  <use xlink:href="#N_v2" x="225" y="0"/>
  <use xlink:href="#N_v2" x="585" y="0"/>
  <use xlink:href="#N_v2" x="855" y="0"/>
  <use xlink:href="#N_v2" x="0" y="45"/>
  <use xlink:href="#N_v2" x="270" y="45"/>
  <use xlink:href="#N_v2" x="540" y="45"/>
  <use xlink:href="#N_v2" x="810" y="45"/>
  <use xlink:href="#N_v2" x="45" y="90"/>
  <use xlink:href="#N_v2" x="315" y="90"/>
  <use xlink:href="#N_v2" x="495" y="90"/>
  <use xlink:href="#N_v2" x="765" y="90"/>
  <use xlink:href="#N_v2" x="90" y="135"/>
  <use xlink:href="#N_v2" x="360" y="135"/>
  <use xlink:href="#N_v2" x="540" y="135"/>
  <use xlink:href="#N_v2" x="720" y="135"/>
  <use xlink:href="#N_v2" x="135" y="180"/>
  <use xlink:href="#N_v2" x="405" y="180"/>
  <use xlink:href="#N_v2" x="495" y="180"/>
  <use xlink:href="#N_v2" x="675" y="180"/>
  <use xlink:href="#N_v2" x="180" y="225"/>
  <use xlink:href="#N_v2" x="450" y="225"/>
  <use xlink:href="#N_v2" x="540" y="225"/>
  <use xlink:href="#N_v2" x="630" y="225"/>
  <use xlink:href="#N_v2" x="225" y="270"/>
  <use xlink:href="#N_v2" x="495" y="270"/>
  <use xlink:href="#N_v2" x="585" y="270"/>
  <use xlink:href="#N_v2" x="675" y="270"/>
  <use xlink:href="#N_v2" x="765" y="270"/>
  <use xlink:href="#N_v2" x="270" y="315"/>
  <use xlink:href="#N_v2" x="360" y="315"/>
  <use xlink:href="#N_v2" x="450" y="315"/>
  <use xlink:href="#N_v2" x="630" y="315"/>
  <use xlink:href="#N_v2" x="720" y="315"/>
  <use xlink:href="#N_v2" x="810" y="315"/>
  <use xlink:href="#N_v2" x="315" y="360"/>
  <use xlink:href="#N_v2" x="405" y="360"/>
  <use xlink:href="#N_v2" x="495" y="360"/>
  <use xlink:href="#N_v2" x="585" y="360"/>
  <use xlink:href="#N_v2" x="855" y="360"/>
  <use xlink:href="#N_v2" x="450" y="405"/>
  <use xlink:href="#N_v2" x="540" y="405"/>
  <use xlink:href="#N_v2" x="630" y="405"/>
  <use xlink:href="#N_v2" x="900" y="405"/>
  <use xlink:href="#N_v2" x="405" y="450"/>
  <use xlink:href="#N_v2" x="585" y="450"/>
  <use xlink:href="#N_v2" x="675" y="450"/>
  <use xlink:href="#N_v2" x="945" y="450"/>
  <use xlink:href="#N_v2" x="360" y="495"/>
  <use xlink:href="#N_v2" x="540" y="495"/>
  <use xlink:href="#N_v2" x="720" y="495"/>
  <use xlink:href="#N_v2" x="990" y="495"/>
  <use xlink:href="#N_v2" x="315" y="540"/>
  <use xlink:href="#N_v2" x="585" y="540"/>
  <use xlink:href="#N_v2" x="765" y="540"/>
  <use xlink:href="#N_v2" x="1035" y="540"/>
  <use xlink:href="#N_v2" x="270" y="585"/>
  <use xlink:href="#N_v2" x="540" y="585"/>
  <use xlink:href="#N_v2" x="810" y="585"/>
</svg>