<?xml version="1.0" encoding="UTF-8" standalone="no"?>
<!DOCTYPE svg PUBLIC "-//W3C//DTD SVG 1.1//EN" "http://www.w3.org/Graphics/SVG/1.1/DTD/svg11.dtd">
<svg xmlns:xlink="http://www.w3.org/1999/xlink" version="1.1" viewBox="0 0 855 1125" width="855" height="1125" xmlns="http://www.w3.org/2000/svg">
  <symbol id="_20" width="45" height="45" overflow="visible">
    <rect width="45" height="45" fill="#eee"/>
  </symbol>
  <symbol id="_20_v1" width="45" height="45" overflow="visible">
    <rect width="45" height="45" fill="#ccc"/>
  </symbol>
  <symbol id="p" width="45" height="45" overflow="visible">
    <line x1="22.5" y1="22.5" x2="-22.5" y2="67.5" stroke="white" stroke-width="10" stroke-linecap="round"/>
    <line x1="22.5" y1="22.5" x2="67.5" y2="67.5" stroke="white" stroke-width="10" stroke-linecap="round"/>
    <line x1="22.5" y1="22.5" x2="-22.5" y2="67.5" stroke="white" stroke-width="10" stroke-linecap="round"/>
    <line x1="22.5" y1="22.5" x2="67.5" y2="67.5" stroke="white" stroke-width="10" stroke-linecap="round"/>
  </symbol>
  <symbol id="p_v1" width="45" height="45" overflow="visible">
    <line x1="22.5" y1="22.5" x2="-22.5" y2="67.5" stroke="hsl(286,65%,60%)" stroke-width="7" stroke-linecap="round"/>
    <line x1="22.5" y1="22.5" x2="67.5" y2="67.5" stroke="hsl(286,65%,60%)" stroke-width="7" stroke-linecap="round"/>
    <line x1="22.5" y1="22.5" x2="-22.5" y2="67.5" stroke="hsl(0,65%,50%)" stroke-width="7" stroke-linecap="round"/>
    <line x1="22.5" y1="22.5" x2="67.5" y2="67.5" stroke="hsl(0,65%,50%)" stroke-width="7" stroke-linecap="round"/>
  </symbol>
  <symbol id="p_v2" width="45" height="45" overflow="visible">
    <path d="M 22,9 C 19.79,9 18,10.79 18,13 C 18,13.89 18.29,14.71 18.78,15.38 C 16.83,16.5 15.5,18.59 15.5,21 C 15.5,23.03 16.44,24.84 17.91,26.03 C 14.91,27.09 10.5,31.58 10.5,39.5 L 33.5,39.5 C 33.5,31.58 29.09,27.09 26.09,26.03 C 27.56,24.84 28.5,23.03 28.5,21 C 28.5,18.59 27.17,16.5 25.22,15.38 C 25.71,14.71 26,13.89 26,13 C 26,10.79 24.21,9 22,9 z" fill="hsl(99,66%,40%)" stroke="#000" fill-rule="nonzero" stroke-width="1.5" stroke-linecap="round" stroke-linejoin="miter" stroke-miterlimit="4"/>
  </symbol>
  <symbol id="P" width="45" height="45" overflow="visible">
    <line x1="22.5" y1="22.5" x2="-22.5" y2="67.5" stroke="white" stroke-width="10" stroke-linecap="round"/>
    <line x1="22.5" y1="22.5" x2="-22.5" y2="67.5" stroke="white" stroke-width="10" stroke-linecap="round"/>
  </symbol>
  <symbol id="P_v1" width="45" height="45" overflow="visible">
    <line x1="22.5" y1="22.5" x2="-22.5" y2="67.5" stroke="hsl(286,65%,60%)" stroke-width="7" stroke-linecap="round"/>
    <line x1="22.5" y1="22.5" x2="-22.5" y2="67.5" stroke="hsl(0,65%,50%)" stroke-width="7" stroke-linecap="round"/>
  </symbol>
  <symbol id="P_v2" width="45" height="45" overflow="visible">
    <path d="M 22,9 C 19.79,9 18,10.79 18,13 C 18,13.89 18.29,14.71 18.78,15.38 C 16.83,16.5 15.5,18.59 15.5,21 C 15.5,23.03 16.44,24.84 17.91,26.03 C 14.91,27.09 10.5,31.58 10.5,39.5 L 33.5,39.5 C 33.5,31.58 29.09,27.09 26.09,26.03 C 27.56,24.84 28.5,23.03 28.5,21 C 28.5,18.59 27.17,16.5 25.22,15.38 C 25.71,14.71 26,13.89 26,13 C 26,10.79 24.21,9 22,9 z" fill="#000" stroke="#000" fill-rule="nonzero" stroke-width="1.5" stroke-linecap="round" stroke-linejoin="miter" stroke-miterlimit="4"/>
  </symbol>
  <symbol id="P_v3" width="45" height="45" overflow="visible">
    <line x1="22.5" y1="22.5" x2="67.5" y2="67.5" stroke="white" stroke-width="10" stroke-linecap="round"/>
    <line x1="22.5" y1="22.5" x2="67.5" y2="67.5" stroke="white" stroke-width="10" stroke-linecap="round"/>
  </symbol>
  <symbol id="P_v4" width="45" height="45" overflow="visible">
    <line x1="22.5" y1="22.5" x2="67.5" y2="67.5" stroke="hsl(286,65%,60%)" stroke-width="7" stroke-linecap="round"/>
    <line x1="22.5" y1="22.5" x2="67.5" y2="67.5" stroke="hsl(0,65%,50%)" stroke-width="7" stroke-linecap="round"/>
  </symbol>
  <symbol id="V" width="45" height="45" overflow="visible">
    <line x1="22.5" y1="22.5" x2="-22.5" y2="67.5" stroke="white" stroke-width="10" stroke-linecap="round"/>
    <line x1="22.5" y1="22.5" x2="22.5" y2="67.5" stroke="white" stroke-width="10" stroke-linecap="round"/>
    <line x1="22.5" y1="22.5" x2="-22.5" y2="67.5" stroke="white" stroke-width="10" stroke-linecap="round"/>
  </symbol>
  <symbol id="V_v1" width="45" height="45" overflow="visible">
    <line x1="22.5" y1="22.5" x2="-22.5" y2="67.5" stroke="hsl(286,65%,60%)" stroke-width="7" stroke-linecap="round"/>
    <line x1="22.5" y1="22.5" x2="22.5" y2="67.5" stroke="hsl(286,65%,60%)" stroke-width="7" stroke-linecap="round"/>
    <line x1="22.5" y1="22.5" x2="-22.5" y2="67.5" stroke="hsl(0,65%,50%)" stroke-width="7" stroke-linecap="round"/>
  </symbol>
  <symbol id="V_v2" width="45" height="45" overflow="visible">
    <path d="M 22,9 C 19.79,9 18,10.79 18,13 C 18,13.89 18.29,14.71 18.78,15.38 C 16.83,16.5 15.5,18.59 15.5,21 C 15.5,23.03 16.44,24.84 17.91,26.03 C 14.91,27.09 10.5,31.58 10.5,39.5 L 33.5,39.5 C 33.5,31.58 29.09,27.09 26.09,26.03 C 27.56,24.84 28.5,23.03 28.5,21 C 28.5,18.59 27.17,16.5 25.22,15.38 C 25.71,14.71 26,13.89 26,13 C 26,10.79 24.21,9 22,9 z" fill="hsl(185,66%,25%)" stroke="#000" fill-rule="nonzero" stroke-width="1.5" stroke-linecap="round" stroke-linejoin="miter" stroke-miterlimit="4"/>
  </symbol>
  <symbol id="V_v3" width="45" height="45" overflow="visible">
    <line x1="22.5" y1="22.5" x2="22.5" y2="67.5" stroke="white" stroke-width="10" stroke-linecap="round"/>
    <line x1="22.5" y1="22.5" x2="67.5" y2="67.5" stroke="white" stroke-width="10" stroke-linecap="round"/>
    <line x1="22.5" y1="22.5" x2="67.5" y2="67.5" stroke="white" stroke-width="10" stroke-linecap="round"/>
  </symbol>
  <symbol id="V_v4" width="45" height="45" overflow="visible">
    <line x1="22.5" y1="22.5" x2="22.5" y2="67.5" stroke="hsl(286,65%,60%)" stroke-width="7" stroke-linecap="round"/>
    <line x1="22.5" y1="22.5" x2="67.5" y2="67.5" stroke="hsl(286,65%,60%)" stroke-width="7" stroke-linecap="round"/>
    <line x1="22.5" y1="22.5" x2="67.5" y2="67.5" stroke="hsl(0,65%,50%)" stroke-width="7" stroke-linecap="round"/>
  </symbol>
  <symbol id="P_v5" width="45" height="45" overflow="visible">
    <line x1="22.5" y1="22.5" x2="-22.5" y2="67.5" stroke="white" stroke-width="10" stroke-linecap="round"/>
    <line x1="22.5" y1="22.5" x2="67.5" y2="22.5" stroke="white" stroke-width="10" stroke-linecap="round"/>
    <line x1="22.5" y1="22.5" x2="-22.5" y2="67.5" stroke="white" stroke-width="10" stroke-linecap="round"/>
  </symbol>
  <symbol id="P_v6" width="45" height="45" overflow="visible">
    <line x1="22.5" y1="22.5" x2="-22.5" y2="67.5" stroke="hsl(286,65%,60%)" stroke-width="7" stroke-linecap="round"/>
    <line x1="22.5" y1="22.5" x2="67.5" y2="22.5" stroke="hsl(286,65%,60%)" stroke-width="7" stroke-linecap="round"/>
    <line x1="22.5" y1="22.5" x2="-22.5" y2="67.5" stroke="hsl(0,65%,50%)" stroke-width="7" stroke-linecap="round"/>
  </symbol>
  <symbol id="p_v3" width="45" height="45" overflow="visible">
    <line x1="22.5" y1="22.5" x2="67.5" y2="22.5" stroke="white" stroke-width="10" stroke-linecap="round"/>
  </symbol>
  <symbol id="p_v4" width="45" height="45" overflow="visible">
    <line x1="22.5" y1="22.5" x2="67.5" y2="22.5" stroke="hsl(286,65%,60%)" stroke-width="7" stroke-linecap="round"/>
  </symbol>
  <symbol id="V_v5" width="45" height="45" overflow="visible">
    <line x1="22.5" y1="22.5" x2="-22.5" y2="67.5" stroke="white" stroke-width="10" stroke-linecap="round"/>
    <line x1="22.5" y1="22.5" x2="22.5" y2="67.5" stroke="white" stroke-width="10" stroke-linecap="round"/>
    <line x1="22.5" y1="22.5" x2="67.5" y2="67.5" stroke="white" stroke-width="10" stroke-linecap="round"/>
    <line x1="22.5" y1="22.5" x2="-22.5" y2="67.5" stroke="white" stroke-width="10" stroke-linecap="round"/>
    <line x1="22.5" y1="22.5" x2="67.5" y2="67.5" stroke="white" stroke-width="10" stroke-linecap="round"/>
  </symbol>
  <symbol id="V_v6" width="45" height="45" overflow="visible">
    <line x1="22.5" y1="22.5" x2="-22.5" y2="67.5" stroke="hsl(286,65%,60%)" stroke-width="7" stroke-linecap="round"/>
    <line x1="22.5" y1="22.5" x2="22.5" y2="67.5" stroke="hsl(286,65%,60%)" stroke-width="7" stroke-linecap="round"/>
    <line x1="22.5" y1="22.5" x2="67.5" y2="67.5" stroke="hsl(286,65%,60%)" stroke-width="7" stroke-linecap="round"/>
    <line x1="22.5" y1="22.5" x2="-22.5" y2="67.5" stroke="hsl(0,65%,50%)" stroke-width="7" stroke-linecap="round"/>
    <line x1="22.5" y1="22.5" x2="67.5" y2="67.5" stroke="hsl(0,65%,50%)" stroke-width="7" stroke-linecap="round"/>
  </symbol>
  <symbol id="P_v7" width="45" height="45" overflow="visible">
    <line x1="22.5" y1="22.5" x2="67.5" y2="22.5" stroke="white" stroke-width="10" stroke-linecap="round"/>
    <line x1="22.5" y1="22.5" x2="67.5" y2="67.5" stroke="white" stroke-width="10" stroke-linecap="round"/>
    <line x1="22.5" y1="22.5" x2="67.5" y2="67.5" stroke="white" stroke-width="10" stroke-linecap="round"/>
  </symbol>
  <symbol id="P_v8" width="45" height="45" overflow="visible">
    <line x1="22.5" y1="22.5" x2="67.5" y2="22.5" stroke="hsl(286,65%,60%)" stroke-width="7" stroke-linecap="round"/>
    <line x1="22.5" y1="22.5" x2="67.5" y2="67.5" stroke="hsl(286,65%,60%)" stroke-width="7" stroke-linecap="round"/>
    <line x1="22.5" y1="22.5" x2="67.5" y2="67.5" stroke="hsl(0,65%,50%)" stroke-width="7" stroke-linecap="round"/>
  </symbol>
  <symbol id="p_v5" width="45" height="45" overflow="visible">
    <line x1="22.5" y1="22.5" x2="22.5" y2="67.5" stroke="white" stroke-width="10" stroke-linecap="round"/>
    <line x1="22.5" y1="22.5" x2="67.5" y2="22.5" stroke="white" stroke-width="10" stroke-linecap="round"/>
  </symbol>
  <symbol id="p_v6" width="45" height="45" overflow="visible">
    <line x1="22.5" y1="22.5" x2="22.5" y2="67.5" stroke="hsl(286,65%,60%)" stroke-width="7" stroke-linecap="round"/>
    <line x1="22.5" y1="22.5" x2="67.5" y2="22.5" stroke="hsl(286,65%,60%)" stroke-width="7" stroke-linecap="round"/>
  </symbol>
  <symbol id="K" width="45" height="45" overflow="visible">
    <g fill-rule="evenodd" stroke-width="1.5" stroke-linecap="round" stroke-linejoin="miter" stroke-miterlimit="4">
      <path d="M 22.5,11.63 L 22.5,6 M 20,8 L 25,8" fill="none" stroke="#000" stroke-linejoin="miter"/>
      <path d="M 22.5,25 C 22.5,25 27,17.5 25.5,14.5 C 25.5,14.5 24.5,12 22.5,12 C 20.5,12 19.5,14.5 19.5,14.5 C 18,17.5 22.5,25 22.5,25" fill="hsl(286,65%,60%)" stroke="#000" stroke-linecap="butt" stroke-linejoin="miter"/>
      <path d="M 11.5,37 C 17,40.5 27,40.5 32.5,37 L 32.5,30 C 32.5,30 41.5,25.5 38.5,19.5 C 34.5,13 25,16 22.5,23.5 L 22.5,27 L 22.5,23.5 C 19,16 9.5,13 6.5,19.5 C 3.5,25.5 11.5,29.5 11.5,29.5 L 11.5,37 z" fill="hsl(286,65%,60%)" stroke="#000"/>
      <path d="M 11.5,30 C 17,27 27,27 32.5,30 M 11.5,33.5 C 17,30.5 27,30.5 32.5,33.5 M 11.5,37 C 17,34 27,34 32.5,37" fill="none" stroke="#000"/>
    </g>
  </symbol>
  <use xlink:href="#_20" x="0" y="0"/>
  <use xlink:href="#_20_v1" x="45" y="0"/>
  <use xlink:href="#_20" x="90" y="0"/>
  <use xlink:href="#_20_v1" x="135" y="0"/>
  <use xlink:href="#_20" x="180" y="0"/>
  <use xlink:href="#_20_v1" x="225" y="0"/>
  <use xlink:href="#_20" x="270" y="0"/>
  <use xlink:href="#_20_v1" x="315" y="0"/>
  <use xlink:href="#_20" x="360" y="0"/>
  <use xlink:href="#_20_v1" x="405" y="0"/>
  <use xlink:href="#_20" x="450" y="0"/>
  <use xlink:href="#_20_v1" x="495" y="0"/>
  <use xlink:href="#_20" x="540" y="0"/>
  <use xlink:href="#_20_v1" x="585" y="0"/>
  <use xlink:href="#_20" x="630" y="0"/>
  <use xlink:href="#_20_v1" x="675" y="0"/>
  <use xlink:href="#_20" x="720" y="0"/>
  <use xlink:href="#_20_v1" x="765" y="0"/>
  <use xlink:href="#_20" x="810" y="0"/>
  <use xlink:href="#_20_v1" x="0" y="45"/>
  <use xlink:href="#_20" x="45" y="45"/>
  <use xlink:href="#_20_v1" x="90" y="45"/>
  <use xlink:href="#_20" x="135" y="45"/>
  <use xlink:href="#_20_v1" x="180" y="45"/>
  <use xlink:href="#_20" x="225" y="45"/>
  <use xlink:href="#_20_v1" x="270" y="45"/>
  <use xlink:href="#_20" x="315" y="45"/>
  <use xlink:href="#_20_v1" x="360" y="45"/>
  <use xlink:href="#_20" x="405" y="45"/>
  <use xlink:href="#_20_v1" x="450" y="45"/>
  <use xlink:href="#_20" x="495" y="45"/>
  <use xlink:href="#_20_v1" x="540" y="45"/>
  <use xlink:href="#_20" x="585" y="45"/>
  <use xlink:href="#_20_v1" x="630" y="45"/>
  <use xlink:href="#_20" x="675" y="45"/>
  <use xlink:href="#_20_v1" x="720" y="45"/>
  <use xlink:href="#_20" x="765" y="45"/>
  <use xlink:href="#_20_v1" x="810" y="45"/>
  <use xlink:href="#_20" x="0" y="90"/>
  <use xlink:href="#_20_v1" x="45" y="90"/>
  <use xlink:href="#_20" x="90" y="90"/>
  <use xlink:href="#_20_v1" x="135" y="90"/>
  <use xlink:href="#_20" x="180" y="90"/>
  <use xlink:href="#_20_v1" x="225" y="90"/>
  <use xlink:href="#_20" x="270" y="90"/>
  <use xlink:href="#_20_v1" x="315" y="90"/>
  <use xlink:href="#_20" x="360" y="90"/>
  <use xlink:href="#_20_v1" x="405" y="90"/>
  <use xlink:href="#_20" x="450" y="90"/>
  <use xlink:href="#_20_v1" x="495" y="90"/>
  <use xlink:href="#_20" x="540" y="90"/>
  <use xlink:href="#_20_v1" x="585" y="90"/>
  <use xlink:href="#_20" x="630" y="90"/>
  <use xlink:href="#_20_v1" x="675" y="90"/>
  <use xlink:href="#_20" x="720" y="90"/>
  <use xlink:href="#_20_v1" x="765" y="90"/>
  <use xlink:href="#_20" x="810" y="90"/>
  <use xlink:href="#_20_v1" x="0" y="135"/>
  <use xlink:href="#_20" x="45" y="135"/>
  <use xlink:href="#_20_v1" x="90" y="135"/>
  <use xlink:href="#_20" x="135" y="135"/>
  <use xlink:href="#_20_v1" x="180" y="135"/>
  <use xlink:href="#_20" x="225" y="135"/>
  <use xlink:href="#_20_v1" x="270" y="135"/>
  <use xlink:href="#_20" x="315" y="135"/>
  <use xlink:href="#_20_v1" x="360" y="135"/>
  <use xlink:href="#_20" x="405" y="135"/>
  <use xlink:href="#_20_v1" x="450" y="135"/>
  <use xlink:href="#_20" x="495" y="135"/>
  <use xlink:href="#_20_v1" x="540" y="135"/>
  <use xlink:href="#_20" x="585" y="135"/>
  <use xlink:href="#_20_v1" x="630" y="135"/>
  <use xlink:href="#_20" x="675" y="135"/>
  <use xlink:href="#_20_v1" x="720" y="135"/>
  <use xlink:href="#_20" x="765" y="135"/>
  <use xlink:href="#_20_v1" x="810" y="135"/>
  <use xlink:href="#_20" x="0" y="180"/>
  <use xlink:href="#_20_v1" x="45" y="180"/>
  <use xlink:href="#_20" x="90" y="180"/>
  <use xlink:href="#_20_v1" x="135" y="180"/>
  <use xlink:href="#_20" x="180" y="180"/>
  <use xlink:href="#_20_v1" x="225" y="180"/>
  <use xlink:href="#_20" x="270" y="180"/>
  <use xlink:href="#_20_v1" x="315" y="180"/>
  <use xlink:href="#_20" x="360" y="180"/>
  <use xlink:href="#_20_v1" x="405" y="180"/>
  <use xlink:href="#_20" x="450" y="180"/>
  <use xlink:href="#_20_v1" x="495" y="180"/>
  <use xlink:href="#_20" x="540" y="180"/>
  <use xlink:href="#_20_v1" x="585" y="180"/>
  <use xlink:href="#_20" x="630" y="180"/>
  <use xlink:href="#_20_v1" x="675" y="180"/>
  <use xlink:href="#_20" x="720" y="180"/>
  <use xlink:href="#_20_v1" x="765" y="180"/>
  <use xlink:href="#_20" x="810" y="180"/>
  <use xlink:href="#_20_v1" x="0" y="225"/>
  <use xlink:href="#_20" x="45" y="225"/>
  <use xlink:href="#_20_v1" x="90" y="225"/>
  <use xlink:href="#_20" x="135" y="225"/>
  <use xlink:href="#_20_v1" x="180" y="225"/>
  <use xlink:href="#_20" x="225" y="225"/>
  <use xlink:href="#_20_v1" x="270" y="225"/>
  <use xlink:href="#_20" x="315" y="225"/>
  <use xlink:href="#_20_v1" x="360" y="225"/>
  <use xlink:href="#_20" x="405" y="225"/>
  <use xlink:href="#_20_v1" x="450" y="225"/>
  <use xlink:href="#_20" x="495" y="225"/>
  <use xlink:href="#_20_v1" x="540" y="225"/>
  <use xlink:href="#_20" x="585" y="225"/>
  <use xlink:href="#_20_v1" x="630" y="225"/>
  <use xlink:href="#_20" x="675" y="225"/>
  <use xlink:href="#_20_v1" x="720" y="225"/>
  <use xlink:href="#_20" x="765" y="225"/>
  <use xlink:href="#_20_v1" x="810" y="225"/>
  <use xlink:href="#_20" x="0" y="270"/>
  <use xlink:href="#_20_v1" x="45" y="270"/>
  <use xlink:href="#_20" x="90" y="270"/>
  <use xlink:href="#_20_v1" x="135" y="270"/>
  <use xlink:href="#_20" x="180" y="270"/>
  <use xlink:href="#_20_v1" x="225" y="270"/>
  <use xlink:href="#_20" x="270" y="270"/>
  <use xlink:href="#_20_v1" x="315" y="270"/>
  <use xlink:href="#_20" x="360" y="270"/>
  <use xlink:href="#_20_v1" x="405" y="270"/>
  <use xlink:href="#_20" x="450" y="270"/>
  <use xlink:href="#_20_v1" x="495" y="270"/>
  <use xlink:href="#_20" x="540" y="270"/>
  <use xlink:href="#_20_v1" x="585" y="270"/>
  <use xlink:href="#_20" x="630" y="270"/>
  <use xlink:href="#_20_v1" x="675" y="270"/>
  <use xlink:href="#_20" x="720" y="270"/>
  <use xlink:href="#_20_v1" x="765" y="270"/>
  <use xlink:href="#_20" x="810" y="270"/>
  <use xlink:href="#_20_v1" x="0" y="315"/>
  <use xlink:href="#_20" x="45" y="315"/>
  <use xlink:href="#_20_v1" x="90" y="315"/>
  <use xlink:href="#_20" x="135" y="315"/>
  <use xlink:href="#_20_v1" x="180" y="315"/>
  <use xlink:href="#_20" x="225" y="315"/>
  <use xlink:href="#_20_v1" x="270" y="315"/>
  <use xlink:href="#_20" x="315" y="315"/>
  <use xlink:href="#_20_v1" x="360" y="315"/>
  <use xlink:href="#_20" x="405" y="315"/>
  <use xlink:href="#_20_v1" x="450" y="315"/>
  <use xlink:href="#_20" x="495" y="315"/>
  <use xlink:href="#_20_v1" x="540" y="315"/>
  <use xlink:href="#_20" x="585" y="315"/>
  <use xlink:href="#_20_v1" x="630" y="315"/>
  <use xlink:href="#_20" x="675" y="315"/>
  <use xlink:href="#_20_v1" x="720" y="315"/>
  <use xlink:href="#_20" x="765" y="315"/>
  <use xlink:href="#_20_v1" x="810" y="315"/>
  <use xlink:href="#_20" x="0" y="360"/>
  <use xlink:href="#_20_v1" x="45" y="360"/>
  <use xlink:href="#_20" x="90" y="360"/>
  <use xlink:href="#_20_v1" x="135" y="360"/>
  <use xlink:href="#_20" x="180" y="360"/>
  <use xlink:href="#_20_v1" x="225" y="360"/>
  <use xlink:href="#_20" x="270" y="360"/>
  <use xlink:href="#_20_v1" x="315" y="360"/>
  <use xlink:href="#_20" x="360" y="360"/>
  <use xlink:href="#_20_v1" x="405" y="360"/>
  <use xlink:href="#_20" x="450" y="360"/>
  <use xlink:href="#_20_v1" x="495" y="360"/>
  <use xlink:href="#_20" x="540" y="360"/>
  <use xlink:href="#_20_v1" x="585" y="360"/>
  <use xlink:href="#_20" x="630" y="360"/>
  <use xlink:href="#_20_v1" x="675" y="360"/>
  <use xlink:href="#_20" x="720" y="360"/>
  <use xlink:href="#_20_v1" x="765" y="360"/>
  <use xlink:href="#_20" x="810" y="360"/>
  <use xlink:href="#_20_v1" x="0" y="405"/>
  <use xlink:href="#_20" x="45" y="405"/>
  <use xlink:href="#_20_v1" x="90" y="405"/>
  <use xlink:href="#_20" x="135" y="405"/>
  <use xlink:href="#_20_v1" x="180" y="405"/>
  <use xlink:href="#_20" x="225" y="405"/>
  <use xlink:href="#_20_v1" x="270" y="405"/>
  <use xlink:href="#_20" x="315" y="405"/>
  <use xlink:href="#_20_v1" x="360" y="405"/>
  <use xlink:href="#_20" x="405" y="405"/>
  <use xlink:href="#_20_v1" x="450" y="405"/>
  <use xlink:href="#_20" x="495" y="405"/>
  <use xlink:href="#_20_v1" x="540" y="405"/>
  <use xlink:href="#_20" x="585" y="405"/>
  <use xlink:href="#_20_v1" x="630" y="405"/>
  <use xlink:href="#_20" x="675" y="405"/>
  <use xlink:href="#_20_v1" x="720" y="405"/>
  <use xlink:href="#_20" x="765" y="405"/>
  <use xlink:href="#_20_v1" x="810" y="405"/>
  <use xlink:href="#_20" x="0" y="450"/>
  <use xlink:href="#_20_v1" x="45" y="450"/>
  <use xlink:href="#_20" x="90" y="450"/>
  <use xlink:href="#_20_v1" x="135" y="450"/>
  <use xlink:href="#_20" x="180" y="450"/>
  <use xlink:href="#_20_v1" x="225" y="450"/>
  <use xlink:href="#_20" x="270" y="450"/>
  <use xlink:href="#_20_v1" x="315" y="450"/>
  <use xlink:href="#_20" x="360" y="450"/>
  <use xlink:href="#_20_v1" x="405" y="450"/>
  <use xlink:href="#_20" x="450" y="450"/>
  <use xlink:href="#_20_v1" x="495" y="450"/>
  <use xlink:href="#_20" x="540" y="450"/>
  <use xlink:href="#_20_v1" x="585" y="450"/>
  <use xlink:href="#_20" x="630" y="450"/>
  <use xlink:href="#_20_v1" x="675" y="450"/>
  <use xlink:href="#_20" x="720" y="450"/>
  <use xlink:href="#_20_v1" x="765" y="450"/>
  <use xlink:href="#_20" x="810" y="450"/>
  <use xlink:href="#_20_v1" x="0" y="495"/>
  <use xlink:href="#_20" x="45" y="495"/>
  <use xlink:href="#_20_v1" x="90" y="495"/>
  <use xlink:href="#_20" x="135" y="495"/>
  <use xlink:href="#_20_v1" x="180" y="495"/>
  <use xlink:href="#_20" x="225" y="495"/>
  <use xlink:href="#_20_v1" x="270" y="495"/>
  <use xlink:href="#_20" x="315" y="495"/>
  <use xlink:href="#_20_v1" x="360" y="495"/>
  <use xlink:href="#_20" x="405" y="495"/>
  <use xlink:href="#_20_v1" x="450" y="495"/>
  <use xlink:href="#_20" x="495" y="495"/>
  <use xlink:href="#_20_v1" x="540" y="495"/>
  <use xlink:href="#_20" x="585" y="495"/>
  <use xlink:href="#_20_v1" x="630" y="495"/>
  <use xlink:href="#_20" x="675" y="495"/>
  <use xlink:href="#_20_v1" x="720" y="495"/>
  <use xlink:href="#_20" x="765" y="495"/>
  <use xlink:href="#_20_v1" x="810" y="495"/>
  <use xlink:href="#_20" x="0" y="540"/>
  <use xlink:href="#_20_v1" x="45" y="540"/>
  <use xlink:href="#_20" x="90" y="540"/>
  <use xlink:href="#_20_v1" x="135" y="540"/>
  <use xlink:href="#_20" x="180" y="540"/>
  <use xlink:href="#_20_v1" x="225" y="540"/>
  <use xlink:href="#_20" x="270" y="540"/>
  <use xlink:href="#_20_v1" x="315" y="540"/>
  <use xlink:href="#_20" x="360" y="540"/>
  <use xlink:href="#_20_v1" x="405" y="540"/>
  <use xlink:href="#_20" x="450" y="540"/>
  <use xlink:href="#_20_v1" x="495" y="540"/>
  <use xlink:href="#_20" x="540" y="540"/>
  <use xlink:href="#_20_v1" x="585" y="540"/>
  <use xlink:href="#_20" x="630" y="540"/>
  <use xlink:href="#_20_v1" x="675" y="540"/>
  <use xlink:href="#_20" x="720" y="540"/>
  <use xlink:href="#_20_v1" x="765" y="540"/>
  <use xlink:href="#_20" x="810" y="540"/>
  <use xlink:href="#_20_v1" x="0" y="585"/>
  <use xlink:href="#_20" x="45" y="585"/>
  <use xlink:href="#_20_v1" x="90" y="585"/>
  <use xlink:href="#_20" x="135" y="585"/>
  <use xlink:href="#_20_v1" x="180" y="585"/>
  <use xlink:href="#_20" x="225" y="585"/>
  <use xlink:href="#_20_v1" x="270" y="585"/>
  <use xlink:href="#_20" x="315" y="585"/>
  <use xlink:href="#_20_v1" x="360" y="585"/>
  <use xlink:href="#_20" x="405" y="585"/>
  <use xlink:href="#_20_v1" x="450" y="585"/>
  <use xlink:href="#_20" x="495" y="585"/>
  <use xlink:href="#_20_v1" x="540" y="585"/>
  <use xlink:href="#_20" x="585" y="585"/>
  <use xlink:href="#_20_v1" x="630" y="585"/>
  <use xlink:href="#_20" x="675" y="585"/>
  <use xlink:href="#_20_v1" x="720" y="585"/>
  <use xlink:href="#_20" x="765" y="585"/>
  <use xlink:href="#_20_v1" x="810" y="585"/>
  <use xlink:href="#_20" x="0" y="630"/>
  <use xlink:href="#_20_v1" x="45" y="630"/>
  <use xlink:href="#_20" x="90" y="630"/>
  <use xlink:href="#_20_v1" x="135" y="630"/>
  <use xlink:href="#_20" x="180" y="630"/>
  <use xlink:href="#_20_v1" x="225" y="630"/>
  <use xlink:href="#_20" x="270" y="630"/>
  <use xlink:href="#_20_v1" x="315" y="630"/>
  <use xlink:href="#_20" x="360" y="630"/>
  <use xlink:href="#_20_v1" x="405" y="630"/>
  <use xlink:href="#_20" x="450" y="630"/>
  <use xlink:href="#_20_v1" x="495" y="630"/>
  <use xlink:href="#_20" x="540" y="630"/>
  <use xlink:href="#_20_v1" x="585" y="630"/>
  <use xlink:href="#_20" x="630" y="630"/>
  <use xlink:href="#_20_v1" x="675" y="630"/>
  <use xlink:href="#_20" x="720" y="630"/>
  <use xlink:href="#_20_v1" x="765" y="630"/>
  <use xlink:href="#_20" x="810" y="630"/>
  <use xlink:href="#_20_v1" x="0" y="675"/>
  <use xlink:href="#_20" x="45" y="675"/>
  <use xlink:href="#_20_v1" x="90" y="675"/>
  <use xlink:href="#_20" x="135" y="675"/>
  <use xlink:href="#_20_v1" x="180" y="675"/>
  <use xlink:href="#_20" x="225" y="675"/>
  <use xlink:href="#_20_v1" x="270" y="675"/>
  <use xlink:href="#_20" x="315" y="675"/>
  <use xlink:href="#_20_v1" x="360" y="675"/>
  <use xlink:href="#_20" x="405" y="675"/>
  <use xlink:href="#_20_v1" x="450" y="675"/>
  <use xlink:href="#_20" x="495" y="675"/>
  <use xlink:href="#_20_v1" x="540" y="675"/>
  <use xlink:href="#_20" x="585" y="675"/>
  <use xlink:href="#_20_v1" x="630" y="675"/>
  <use xlink:href="#_20" x="675" y="675"/>
  <use xlink:href="#_20_v1" x="720" y="675"/>
  <use xlink:href="#_20" x="765" y="675"/>
  <use xlink:href="#_20_v1" x="810" y="675"/>
  <use xlink:href="#_20" x="0" y="720"/>
  <use xlink:href="#_20_v1" x="45" y="720"/>
  <use xlink:href="#_20" x="90" y="720"/>
  <use xlink:href="#_20_v1" x="135" y="720"/>
  <use xlink:href="#_20" x="180" y="720"/>
  <use xlink:href="#_20_v1" x="225" y="720"/>
  <use xlink:href="#_20" x="270" y="720"/>
  <use xlink:href="#_20_v1" x="315" y="720"/>
  <use xlink:href="#_20" x="360" y="720"/>
  <use xlink:href="#_20_v1" x="405" y="720"/>
  <use xlink:href="#_20" x="450" y="720"/>
  <use xlink:href="#_20_v1" x="495" y="720"/>
  <use xlink:href="#_20" x="540" y="720"/>
  <use xlink:href="#_20_v1" x="585" y="720"/>
  <use xlink:href="#_20" x="630" y="720"/>
  <use xlink:href="#_20_v1" x="675" y="720"/>
  <use xlink:href="#_20" x="720" y="720"/>
  <use xlink:href="#_20_v1" x="765" y="720"/>
  <use xlink:href="#_20" x="810" y="720"/>
  <use xlink:href="#_20_v1" x="0" y="765"/>
  <use xlink:href="#_20" x="45" y="765"/>
  <use xlink:href="#_20_v1" x="90" y="765"/>
  <use xlink:href="#_20" x="135" y="765"/>
  <use xlink:href="#_20_v1" x="180" y="765"/>
  <use xlink:href="#_20" x="225" y="765"/>
  <use xlink:href="#_20_v1" x="270" y="765"/>
  <use xlink:href="#_20" x="315" y="765"/>
  <use xlink:href="#_20_v1" x="360" y="765"/>
  <use xlink:href="#_20" x="405" y="765"/>
  <use xlink:href="#_20_v1" x="450" y="765"/>
  <use xlink:href="#_20" x="495" y="765"/>
  <use xlink:href="#_20_v1" x="540" y="765"/>
  <use xlink:href="#_20" x="585" y="765"/>
  <use xlink:href="#_20_v1" x="630" y="765"/>
  <use xlink:href="#_20" x="675" y="765"/>
  <use xlink:href="#_20_v1" x="720" y="765"/>
  <use xlink:href="#_20" x="765" y="765"/>
  <use xlink:href="#_20_v1" x="810" y="765"/>
  <use xlink:href="#_20" x="0" y="810"/>
  <use xlink:href="#_20_v1" x="45" y="810"/>
  <use xlink:href="#_20" x="90" y="810"/>
  <use xlink:href="#_20_v1" x="135" y="810"/>
  <use xlink:href="#_20" x="180" y="810"/>
  <use xlink:href="#_20_v1" x="225" y="810"/>
  <use xlink:href="#_20" x="270" y="810"/>
  <use xlink:href="#_20_v1" x="315" y="810"/>
  <use xlink:href="#_20" x="360" y="810"/>
  <use xlink:href="#_20_v1" x="405" y="810"/>
  <use xlink:href="#_20" x="450" y="810"/>
  <use xlink:href="#_20_v1" x="495" y="810"/>
  <use xlink:href="#_20" x="540" y="810"/>
  <use xlink:href="#_20_v1" x="585" y="810"/>
  <use xlink:href="#_20" x="630" y="810"/>
  <use xlink:href="#_20_v1" x="675" y="810"/>
  <use xlink:href="#_20" x="720" y="810"/>
  <use xlink:href="#_20_v1" x="765" y="810"/>
  <use xlink:href="#_20" x="810" y="810"/>
  <use xlink:href="#_20_v1" x="0" y="855"/>
  <use xlink:href="#_20" x="45" y="855"/>
  <use xlink:href="#_20_v1" x="90" y="855"/>
  <use xlink:href="#_20" x="135" y="855"/>
  <use xlink:href="#_20_v1" x="180" y="855"/>
  <use xlink:href="#_20" x="225" y="855"/>
  <use xlink:href="#_20_v1" x="270" y="855"/>
  <use xlink:href="#_20" x="315" y="855"/>
  <use xlink:href="#_20_v1" x="360" y="855"/>
  <use xlink:href="#_20" x="405" y="855"/>
  <use xlink:href="#_20_v1" x="450" y="855"/>
  <use xlink:href="#_20" x="495" y="855"/>
  <use xlink:href="#_20_v1" x="540" y="855"/>
  <use xlink:href="#_20" x="585" y="855"/>
  <use xlink:href="#_20_v1" x="630" y="855"/>
  <use xlink:href="#_20" x="675" y="855"/>
  <use xlink:href="#_20_v1" x="720" y="855"/>
  <use xlink:href="#_20" x="765" y="855"/>
  <use xlink:href="#_20_v1" x="810" y="855"/>
  <use xlink:href="#_20" x="0" y="900"/>
  <use xlink:href="#_20_v1" x="45" y="900"/>
  <use xlink:href="#_20" x="90" y="900"/>
  <use xlink:href="#_20_v1" x="135" y="900"/>
  <use xlink:href="#_20" x="180" y="900"/>
  <use xlink:href="#_20_v1" x="225" y="900"/>
  <use xlink:href="#_20" x="270" y="900"/>
  <use xlink:href="#_20_v1" x="315" y="900"/>
  <use xlink:href="#_20" x="360" y="900"/>
  <use xlink:href="#_20_v1" x="405" y="900"/>
  <use xlink:href="#_20" x="450" y="900"/>
  <use xlink:href="#_20_v1" x="495" y="900"/>
  <use xlink:href="#_20" x="540" y="900"/>
  <use xlink:href="#_20_v1" x="585" y="900"/>
  <use xlink:href="#_20" x="630" y="900"/>
  <use xlink:href="#_20_v1" x="675" y="900"/>
  <use xlink:href="#_20" x="720" y="900"/>
  <use xlink:href="#_20_v1" x="765" y="900"/>
  <use xlink:href="#_20" x="810" y="900"/>
  <use xlink:href="#_20_v1" x="0" y="945"/>
  <use xlink:href="#_20" x="45" y="945"/>
  <use xlink:href="#_20_v1" x="90" y="945"/>
  <use xlink:href="#_20" x="135" y="945"/>
  <use xlink:href="#_20_v1" x="180" y="945"/>
  <use xlink:href="#_20" x="225" y="945"/>
  <use xlink:href="#_20_v1" x="270" y="945"/>
  <use xlink:href="#_20" x="315" y="945"/>
  <use xlink:href="#_20_v1" x="360" y="945"/>
  <use xlink:href="#_20" x="405" y="945"/>
  <use xlink:href="#_20_v1" x="450" y="945"/>
  <use xlink:href="#_20" x="495" y="945"/>
  <use xlink:href="#_20_v1" x="540" y="945"/>
  <use xlink:href="#_20" x="585" y="945"/>
  <use xlink:href="#_20_v1" x="630" y="945"/>
  <use xlink:href="#_20" x="675" y="945"/>
  <use xlink:href="#_20_v1" x="720" y="945"/>
  <use xlink:href="#_20" x="765" y="945"/>
  <use xlink:href="#_20_v1" x="810" y="945"/>
  <use xlink:href="#_20" x="0" y="990"/>
  <use xlink:href="#_20_v1" x="45" y="990"/>
  <use xlink:href="#_20" x="90" y="990"/>
  <use xlink:href="#_20_v1" x="135" y="990"/>
  <use xlink:href="#_20" x="180" y="990"/>
  <use xlink:href="#_20_v1" x="225" y="990"/>
  <use xlink:href="#_20" x="270" y="990"/>
  <use xlink:href="#_20_v1" x="315" y="990"/>
  <use xlink:href="#_20" x="360" y="990"/>
  <use xlink:href="#_20_v1" x="405" y="990"/>
  <use xlink:href="#_20" x="450" y="990"/>
  <use xlink:href="#_20_v1" x="495" y="990"/>
  <use xlink:href="#_20" x="540" y="990"/>
  <use xlink:href="#_20_v1" x="585" y="990"/>
  <use xlink:href="#_20" x="630" y="990"/>
  <use xlink:href="#_20_v1" x="675" y="990"/>
  <use xlink:href="#_20" x="720" y="990"/>
  <use xlink:href="#_20_v1" x="765" y="990"/>
  <use xlink:href="#_20" x="810" y="990"/>
  <use xlink:href="#_20_v1" x="0" y="1035"/>
  <use xlink:href="#_20" x="45" y="1035"/>
  <use xlink:href="#_20_v1" x="90" y="1035"/>
  <use xlink:href="#_20" x="135" y="1035"/>
  <use xlink:href="#_20_v1" x="180" y="1035"/>
  <use xlink:href="#_20" x="225" y="1035"/>
  <use xlink:href="#_20_v1" x="270" y="1035"/>
  <use xlink:href="#_20" x="315" y="1035"/>
  <use xlink:href="#_20_v1" x="360" y="1035"/>
  <use xlink:href="#_20" x="405" y="1035"/>
  <use xlink:href="#_20_v1" x="450" y="1035"/>
  <use xlink:href="#_20" x="495" y="1035"/>
  <use xlink:href="#_20_v1" x="540" y="1035"/>
  <use xlink:href="#_20" x="585" y="1035"/>
  <use xlink:href="#_20_v1" x="630" y="1035"/>
  <use xlink:href="#_20" x="675" y="1035"/>
  <use xlink:href="#_20_v1" x="720" y="1035"/>
  <use xlink:href="#_20" x="765" y="1035"/>
  <use xlink:href="#_20_v1" x="810" y="1035"/>
  <use xlink:href="#_20" x="0" y="1080"/>
  <use xlink:href="#_20_v1" x="45" y="1080"/>
  <use xlink:href="#_20" x="90" y="1080"/>
  <use xlink:href="#_20_v1" x="135" y="1080"/>
  <use xlink:href="#_20" x="180" y="1080"/>
  <use xlink:href="#_20_v1" x="225" y="1080"/>
  <use xlink:href="#_20" x="270" y="1080"/>
  <use xlink:href="#_20_v1" x="315" y="1080"/>
  <use xlink:href="#_20" x="360" y="1080"/>
  <use xlink:href="#_20_v1" x="405" y="1080"/>
  <use xlink:href="#_20" x="450" y="1080"/>
  <use xlink:href="#_20_v1" x="495" y="1080"/>
  <use xlink:href="#_20" x="540" y="1080"/>
  <use xlink:href="#_20_v1" x="585" y="1080"/>
  <use xlink:href="#_20" x="630" y="1080"/>
  <use xlink:href="#_20_v1" x="675" y="1080"/>
  <use xlink:href="#_20" x="720" y="1080"/>
  <use xlink:href="#_20_v1" x="765" y="1080"/>
  <use xlink:href="#_20" x="810" y="1080"/>
  <use xlink:href="#p" x="540" y="0"/>
  <use xlink:href="#P" x="495" y="45"/>
  <use xlink:href="#P_v3" x="585" y="45"/>
  <use xlink:href="#P" x="450" y="90"/>
  <use xlink:href="#P_v3" x="630" y="90"/>
  <use xlink:href="#V" x="405" y="135"/>
  <use xlink:href="#V_v3" x="675" y="135"/>
  <use xlink:href="#P_v5" x="360" y="180"/>
  <use xlink:href="#p_v3" x="675" y="180"/>
  <use xlink:href="#P_v3" x="720" y="180"/>
  <use xlink:href="#P" x="315" y="225"/>
  <use xlink:href="#P_v3" x="765" y="225"/>
  <use xlink:href="#V_v3" x="270" y="270"/>
  <use xlink:href="#V" x="810" y="270"/>
  <use xlink:href="#p_v3" x="270" y="315"/>
  <use xlink:href="#P_v3" x="315" y="315"/>
  <use xlink:href="#P_v5" x="765" y="315"/>
  <use xlink:href="#P_v3" x="360" y="360"/>
  <use xlink:href="#P" x="720" y="360"/>
  <use xlink:href="#V_v5" x="405" y="405"/>
  <use xlink:href="#V" x="675" y="405"/>
  <use xlink:href="#P_v5" x="360" y="450"/>
  <use xlink:href="#p_v3" x="405" y="450"/>
  <use xlink:href="#P_v3" x="450" y="450"/>
  <use xlink:href="#P_v5" x="630" y="450"/>
  <use xlink:href="#P" x="315" y="495"/>
  <use xlink:href="#P_v7" x="495" y="495"/>
  <use xlink:href="#p_v5" x="540" y="495"/>
  <use xlink:href="#P" x="585" y="495"/>
  <use xlink:href="#V_v5" x="270" y="540"/>
  <use xlink:href="#P" x="540" y="540"/>
  <use xlink:href="#P_v5" x="225" y="585"/>
  <use xlink:href="#p_v3" x="270" y="585"/>
  <use xlink:href="#P_v3" x="315" y="585"/>
  <use xlink:href="#P" x="495" y="585"/>
  <use xlink:href="#P" x="180" y="630"/>
  <use xlink:href="#P_v7" x="360" y="630"/>
  <use xlink:href="#p_v5" x="405" y="630"/>
  <use xlink:href="#P" x="450" y="630"/>
  <use xlink:href="#V" x="135" y="675"/>
  <use xlink:href="#P_v3" x="405" y="675"/>
  <use xlink:href="#P_v5" x="90" y="720"/>
  <use xlink:href="#P_v3" x="450" y="720"/>
  <use xlink:href="#P" x="45" y="765"/>
  <use xlink:href="#P_v3" x="495" y="765"/>
  <use xlink:href="#V_v3" x="0" y="810"/>
  <use xlink:href="#V" x="540" y="810"/>
  <use xlink:href="#p_v3" x="0" y="855"/>
  <use xlink:href="#P_v3" x="45" y="855"/>
  <use xlink:href="#P_v5" x="495" y="855"/>
  <use xlink:href="#P_v3" x="90" y="900"/>
  <use xlink:href="#P" x="450" y="900"/>
  <use xlink:href="#V_v3" x="135" y="945"/>
  <use xlink:href="#V" x="405" y="945"/>
  <use xlink:href="#p_v3" x="135" y="990"/>
  <use xlink:href="#P_v3" x="180" y="990"/>
  <use xlink:href="#P_v5" x="360" y="990"/>
  <use xlink:href="#P_v7" x="225" y="1035"/>
  <use xlink:href="#p_v5" x="270" y="1035"/>
  <use xlink:href="#P" x="315" y="1035"/>
  <use xlink:href="#p_v1" x="540" y="0"/>
  <use xlink:href="#P_v1" x="495" y="45"/>
  <use xlink:href="#P_v4" x="585" y="45"/>
  <use xlink:href="#P_v1" x="450" y="90"/>
  <use xlink:href="#P_v4" x="630" y="90"/>
  <use xlink:href="#V_v1" x="405" y="135"/>
  <use xlink:href="#V_v4" x="675" y="135"/>
  <use xlink:href="#P_v6" x="360" y="180"/>
  <use xlink:href="#p_v4" x="675" y="180"/>
  <use xlink:href="#P_v4" x="720" y="180"/>
  <use xlink:href="#P_v1" x="315" y="225"/>
  <use xlink:href="#P_v4" x="765" y="225"/>
  <use xlink:href="#V_v4" x="270" y="270"/>
  <use xlink:href="#V_v1" x="810" y="270"/>
  <use xlink:href="#p_v4" x="270" y="315"/>
  <use xlink:href="#P_v4" x="315" y="315"/>
  <use xlink:href="#P_v6" x="765" y="315"/>
  <use xlink:href="#P_v4" x="360" y="360"/>
  <use xlink:href="#P_v1" x="720" y="360"/>
  <use xlink:href="#V_v6" x="405" y="405"/>
  <use xlink:href="#V_v1" x="675" y="405"/>
  <use xlink:href="#P_v6" x="360" y="450"/>
  <use xlink:href="#p_v4" x="405" y="450"/>
  <use xlink:href="#P_v4" x="450" y="450"/>
  <use xlink:href="#P_v6" x="630" y="450"/>
  <use xlink:href="#P_v1" x="315" y="495"/>
  <use xlink:href="#P_v8" x="495" y="495"/>
  <use xlink:href="#p_v6" x="540" y="495"/>
  <use xlink:href="#P_v1" x="585" y="495"/>
  <use xlink:href="#V_v6" x="270" y="540"/>
  <use xlink:href="#P_v1" x="540" y="540"/>
  <use xlink:href="#P_v6" x="225" y="585"/>
  <use xlink:href="#p_v4" x="270" y="585"/>
  <use xlink:href="#P_v4" x="315" y="585"/>
  <use xlink:href="#P_v1" x="495" y="585"/>
  <use xlink:href="#P_v1" x="180" y="630"/>
  <use xlink:href="#P_v8" x="360" y="630"/>
  <use xlink:href="#p_v6" x="405" y="630"/>
  <use xlink:href="#P_v1" x="450" y="630"/>
  <use xlink:href="#V_v1" x="135" y="675"/>
  <use xlink:href="#P_v4" x="405" y="675"/>
  <use xlink:href="#P_v6" x="90" y="720"/>
  <use xlink:href="#P_v4" x="450" y="720"/>
  <use xlink:href="#P_v1" x="45" y="765"/>
  <use xlink:href="#P_v4" x="495" y="765"/>
  <use xlink:href="#V_v4" x="0" y="810"/>
  <use xlink:href="#V_v1" x="540" y="810"/>
  <use xlink:href="#p_v4" x="0" y="855"/>
  <use xlink:href="#P_v4" x="45" y="855"/>
  <use xlink:href="#P_v6" x="495" y="855"/>
  <use xlink:href="#P_v4" x="90" y="900"/>
  <use xlink:href="#P_v1" x="450" y="900"/>
  <use xlink:href="#V_v4" x="135" y="945"/>
  <use xlink:href="#V_v1" x="405" y="945"/>
  <use xlink:href="#p_v4" x="135" y="990"/>
  <use xlink:href="#P_v4" x="180" y="990"/>
  <use xlink:href="#P_v6" x="360" y="990"/>
  <use xlink:href="#P_v8" x="225" y="1035"/>
  <use xlink:href="#p_v6" x="270" y="1035"/>
  <use xlink:href="#P_v1" x="315" y="1035"/>
  <use xlink:href="#p_v2" x="540" y="0"/>
  <use xlink:href="#P_v2" x="495" y="45"/>
  <use xlink:href="#P_v2" x="585" y="45"/>
  <use xlink:href="#P_v2" x="450" y="90"/>
  <use xlink:href="#P_v2" x="630" y="90"/>
  <use xlink:href="#V_v2" x="405" y="135"/>
  <use xlink:href="#V_v2" x="675" y="135"/>
  <use xlink:href="#P_v2" x="360" y="180"/>
  <use xlink:href="#p_v2" x="405" y="180"/>
  <use xlink:href="#p_v2" x="675" y="180"/>
  <use xlink:href="#P_v2" x="720" y="180"/>
  <use xlink:href="#P_v2" x="315" y="225"/>
  <use xlink:href="#P_v2" x="765" y="225"/>
  <use xlink:href="#V_v2" x="270" y="270"/>
  <use xlink:href="#V_v2" x="810" y="270"/>
  <use xlink:href="#p_v2" x="270" y="315"/>
  <use xlink:href="#P_v2" x="315" y="315"/>
  <use xlink:href="#P_v2" x="765" y="315"/>
  <use xlink:href="#p_v2" x="810" y="315"/>
  <use xlink:href="#P_v2" x="360" y="360"/>
  <use xlink:href="#P_v2" x="720" y="360"/>
  <use xlink:href="#V_v2" x="405" y="405"/>
  <use xlink:href="#V_v2" x="675" y="405"/>
  <use xlink:href="#P_v2" x="360" y="450"/>
  <use xlink:href="#p_v2" x="405" y="450"/>
  <use xlink:href="#P_v2" x="450" y="450"/>
  <use xlink:href="#P_v2" x="630" y="450"/>
  <use xlink:href="#p_v2" x="675" y="450"/>
  <use xlink:href="#P_v2" x="315" y="495"/>
  <use xlink:href="#P_v2" x="495" y="495"/>
  <use xlink:href="#p_v2" x="540" y="495"/>
  <use xlink:href="#P_v2" x="585" y="495"/>
  <use xlink:href="#V_v2" x="270" y="540"/>
  <use xlink:href="#V_v2" x="540" y="540"/>
  <use xlink:href="#P_v2" x="225" y="585"/>
  <use xlink:href="#p_v2" x="270" y="585"/>
  <use xlink:href="#P_v2" x="315" y="585"/>
  <use xlink:href="#P_v2" x="495" y="585"/>
  <use xlink:href="#P_v2" x="180" y="630"/>
  <use xlink:href="#P_v2" x="360" y="630"/>
  <use xlink:href="#p_v2" x="405" y="630"/>
  <use xlink:href="#P_v2" x="450" y="630"/>
  <use xlink:href="#V_v2" x="135" y="675"/>
  <use xlink:href="#V_v2" x="405" y="675"/>
  <use xlink:href="#P_v2" x="90" y="720"/>
  <use xlink:href="#p_v2" x="135" y="720"/>
  <use xlink:href="#P_v2" x="450" y="720"/>
  <use xlink:href="#P_v2" x="45" y="765"/>
  <use xlink:href="#P_v2" x="495" y="765"/>
  <use xlink:href="#V_v2" x="0" y="810"/>
  <use xlink:href="#V_v2" x="540" y="810"/>
  <use xlink:href="#p_v2" x="0" y="855"/>
  <use xlink:href="#P_v2" x="45" y="855"/>
  <use xlink:href="#P_v2" x="495" y="855"/>
  <use xlink:href="#p_v2" x="540" y="855"/>
  <use xlink:href="#P_v2" x="90" y="900"/>
  <use xlink:href="#P_v2" x="450" y="900"/>
  <use xlink:href="#V_v2" x="135" y="945"/>
  <use xlink:href="#V_v2" x="405" y="945"/>
  <use xlink:href="#p_v2" x="135" y="990"/>
  <use xlink:href="#P_v2" x="180" y="990"/>
  <use xlink:href="#P_v2" x="360" y="990"/>
  <use xlink:href="#p_v2" x="405" y="990"/>
  <use xlink:href="#P_v2" x="225" y="1035"/>
  <use xlink:href="#K" x="270" y="1035"/>
  <use xlink:href="#P_v2" x="315" y="1035"/>
  <use xlink:href="#V_v2" x="270" y="1080"/>
</svg>