<?xml version="1.0" encoding="UTF-8" standalone="no"?>
<!DOCTYPE svg PUBLIC "-//W3C//DTD SVG 1.1//EN" "http://www.w3.org/Graphics/SVG/1.1/DTD/svg11.dtd">
<svg xmlns:xlink="http://www.w3.org/1999/xlink" version="1.1" viewBox="0 0 810 1170" width="810" height="1170" xmlns="http://www.w3.org/2000/svg">
  <symbol id="_20" width="45" height="45" overflow="visible">
    <rect width="45" height="45" fill="#eee"/>
  </symbol>
  <symbol id="_20_v1" width="45" height="45" overflow="visible">
    <rect width="45" height="45" fill="#ccc"/>
  </symbol>
  <symbol id="N" width="45" height="45" overflow="visible">
    <line x1="22.5" y1="22.5" x2="-22.5" y2="67.5" stroke="white" stroke-width="10" stroke-linecap="round"/>
  </symbol>
  <symbol id="N_v1" width="45" height="45" overflow="visible">
    <line x1="22.5" y1="22.5" x2="-22.5" y2="67.5" stroke="hsl(286,65%,60%)" stroke-width="7" stroke-linecap="round"/>
  </symbol>
  <symbol id="N_v2" width="45" height="45" overflow="visible">
    <g fill-rule="evenodd" stroke-width="1.5" stroke-linecap="round" stroke-linejoin="miter" stroke-miterlimit="4">
      <path d="M 22,10 C 32.5,11 38.5,18 38,39 L 15,39 C 15,30 25,32.5 23,18" fill="#000" stroke="#000"/>
      <path d="M 24,18 C 24.38,20.91 18.45,25.37 16,27 C 13,29 13.18,31.34 11,31 C 9.958,30.06 12.41,27.96 11,28 C 10,28 11.19,29.23 10,30 C 9,30 5.997,31 6,26 C 6,24 12,14 12,14 C 12,14 13.89,12.1 14,10.5 C 13.27,9.506 13.5,8.5 13.5,7.5 C 14.5,6.5 16.5,10 16.5,10 L 18.5,10 C 18.5,10 19.28,8.008 21,7 C 22,7 22,10 22,10" fill="#000" stroke="#000"/>
      <path d="M 9.5 25.5 A 0.5 0.5 0 1 1 8.5,25.5 A 0.5 0.5 0 1 1 9.5 25.5 z" fill="#fff" stroke="#fff"/>
      <path d="M 15 15.5 A 0.5 1.5 0 1 1  14,15.5 A 0.5 1.5 0 1 1  15 15.5 z" transform="matrix(0.866,0.5,-0.5,0.866,9.693,-5.173)" fill="#fff" stroke="#fff"/>
      <path d="M 24.55,10.4 L 24.1,11.85 L 24.6,12 C 27.75,13 30.25,14.49 32.5,18.75 C 34.75,23.01 35.75,29.06 35.25,39 L 35.2,39.5 L 37.45,39.5 L 37.5,39 C 38,28.94 36.62,22.15 34.25,17.66 C 31.88,13.17 28.46,11.02 25.06,10.5 L 24.55,10.4 z " fill="#fff" stroke="none"/>
    </g>
  </symbol>
  <symbol id="N_v3" width="45" height="45" overflow="visible">
    <line x1="22.5" y1="22.5" x2="-22.5" y2="67.5" stroke="white" stroke-width="10" stroke-linecap="round"/>
    <line x1="22.5" y1="22.5" x2="67.5" y2="67.5" stroke="white" stroke-width="10" stroke-linecap="round"/>
  </symbol>
  <symbol id="N_v4" width="45" height="45" overflow="visible">
    <line x1="22.5" y1="22.5" x2="-22.5" y2="67.5" stroke="hsl(286,65%,60%)" stroke-width="7" stroke-linecap="round"/>
    <line x1="22.5" y1="22.5" x2="67.5" y2="67.5" stroke="hsl(286,65%,60%)" stroke-width="7" stroke-linecap="round"/>
  </symbol>
  <symbol id="N_v5" width="45" height="45" overflow="visible">
    <line x1="22.5" y1="22.5" x2="-22.5" y2="112.5" stroke="white" stroke-width="10" stroke-linecap="round"/>
    <line x1="22.5" y1="22.5" x2="112.5" y2="67.5" stroke="white" stroke-width="10" stroke-linecap="round"/>
  </symbol>
  <symbol id="N_v6" width="45" height="45" overflow="visible">
    <line x1="22.5" y1="22.5" x2="-22.5" y2="112.5" stroke="hsl(0,65%,50%)" stroke-width="7" stroke-linecap="round"/>
    <line x1="22.5" y1="22.5" x2="112.5" y2="67.5" stroke="hsl(0,65%,50%)" stroke-width="7" stroke-linecap="round"/>
  </symbol>
  <symbol id="N_v7" width="45" height="45" overflow="visible">
    <line x1="22.5" y1="22.5" x2="-22.5" y2="67.5" stroke="white" stroke-width="10" stroke-linecap="round"/>
    <line x1="22.5" y1="22.5" x2="67.5" y2="112.5" stroke="white" stroke-width="10" stroke-linecap="round"/>
  </symbol>
  <symbol id="N_v8" width="45" height="45" overflow="visible">
    <line x1="22.5" y1="22.5" x2="-22.5" y2="67.5" stroke="hsl(286,65%,60%)" stroke-width="7" stroke-linecap="round"/>
    <line x1="22.5" y1="22.5" x2="67.5" y2="112.5" stroke="hsl(0,65%,50%)" stroke-width="7" stroke-linecap="round"/>
  </symbol>
  <symbol id="N_v9" width="45" height="45" overflow="visible">
    <line x1="22.5" y1="22.5" x2="67.5" y2="67.5" stroke="white" stroke-width="10" stroke-linecap="round"/>
    <line x1="22.5" y1="22.5" x2="-22.5" y2="112.5" stroke="white" stroke-width="10" stroke-linecap="round"/>
  </symbol>
  <symbol id="N_v10" width="45" height="45" overflow="visible">
    <line x1="22.5" y1="22.5" x2="67.5" y2="67.5" stroke="hsl(286,65%,60%)" stroke-width="7" stroke-linecap="round"/>
    <line x1="22.5" y1="22.5" x2="-22.5" y2="112.5" stroke="hsl(0,65%,50%)" stroke-width="7" stroke-linecap="round"/>
  </symbol>
  <symbol id="N_v11" width="45" height="45" overflow="visible">
    <line x1="22.5" y1="22.5" x2="-67.5" y2="67.5" stroke="white" stroke-width="10" stroke-linecap="round"/>
    <line x1="22.5" y1="22.5" x2="-22.5" y2="112.5" stroke="white" stroke-width="10" stroke-linecap="round"/>
  </symbol>
  <symbol id="N_v12" width="45" height="45" overflow="visible">
    <line x1="22.5" y1="22.5" x2="-67.5" y2="67.5" stroke="hsl(0,65%,50%)" stroke-width="7" stroke-linecap="round"/>
    <line x1="22.5" y1="22.5" x2="-22.5" y2="112.5" stroke="hsl(0,65%,50%)" stroke-width="7" stroke-linecap="round"/>
  </symbol>
  <symbol id="N_v13" width="45" height="45" overflow="visible">
    <line x1="22.5" y1="22.5" x2="112.5" y2="67.5" stroke="white" stroke-width="10" stroke-linecap="round"/>
  </symbol>
  <symbol id="N_v14" width="45" height="45" overflow="visible">
    <line x1="22.5" y1="22.5" x2="112.5" y2="67.5" stroke="hsl(0,65%,50%)" stroke-width="7" stroke-linecap="round"/>
  </symbol>
  <symbol id="N_v15" width="45" height="45" overflow="visible">
    <line x1="22.5" y1="22.5" x2="-22.5" y2="67.5" stroke="white" stroke-width="10" stroke-linecap="round"/>
    <line x1="22.5" y1="22.5" x2="112.5" y2="67.5" stroke="white" stroke-width="10" stroke-linecap="round"/>
  </symbol>
  <symbol id="N_v16" width="45" height="45" overflow="visible">
    <line x1="22.5" y1="22.5" x2="-22.5" y2="67.5" stroke="hsl(286,65%,60%)" stroke-width="7" stroke-linecap="round"/>
    <line x1="22.5" y1="22.5" x2="112.5" y2="67.5" stroke="hsl(0,65%,50%)" stroke-width="7" stroke-linecap="round"/>
  </symbol>
  <symbol id="N_v17" width="45" height="45" overflow="visible">
    <line x1="22.5" y1="22.5" x2="67.5" y2="67.5" stroke="white" stroke-width="10" stroke-linecap="round"/>
    <line x1="22.5" y1="22.5" x2="-67.5" y2="67.5" stroke="white" stroke-width="10" stroke-linecap="round"/>
  </symbol>
  <symbol id="N_v18" width="45" height="45" overflow="visible">
    <line x1="22.5" y1="22.5" x2="67.5" y2="67.5" stroke="hsl(286,65%,60%)" stroke-width="7" stroke-linecap="round"/>
    <line x1="22.5" y1="22.5" x2="-67.5" y2="67.5" stroke="hsl(0,65%,50%)" stroke-width="7" stroke-linecap="round"/>
  </symbol>
  <symbol id="N_v19" width="45" height="45" overflow="visible">
    <line x1="22.5" y1="22.5" x2="67.5" y2="112.5" stroke="white" stroke-width="10" stroke-linecap="round"/>
  </symbol>
  <symbol id="N_v20" width="45" height="45" overflow="visible">
    <line x1="22.5" y1="22.5" x2="67.5" y2="112.5" stroke="hsl(0,65%,50%)" stroke-width="7" stroke-linecap="round"/>
  </symbol>
  <symbol id="n" width="45" height="45" overflow="visible">
    <line x1="22.5" y1="22.5" x2="67.5" y2="67.5" stroke="white" stroke-width="10" stroke-linecap="round"/>
  </symbol>
  <symbol id="n_v1" width="45" height="45" overflow="visible">
    <line x1="22.5" y1="22.5" x2="67.5" y2="67.5" stroke="hsl(286,65%,60%)" stroke-width="7" stroke-linecap="round"/>
  </symbol>
  <symbol id="n_v2" width="45" height="45" overflow="visible">
    <g fill-rule="evenodd" stroke-width="1.5" stroke-linecap="round" stroke-linejoin="miter" stroke-miterlimit="4">
      <path d="M 22,10 C 32.5,11 38.5,18 38,39 L 15,39 C 15,30 25,32.5 23,18" fill="hsl(99,66%,40%)" stroke="#000"/>
      <path d="M 24,18 C 24.38,20.91 18.45,25.37 16,27 C 13,29 13.18,31.34 11,31 C 9.958,30.06 12.41,27.96 11,28 C 10,28 11.19,29.23 10,30 C 9,30 5.997,31 6,26 C 6,24 12,14 12,14 C 12,14 13.89,12.1 14,10.5 C 13.27,9.506 13.5,8.5 13.5,7.5 C 14.5,6.5 16.5,10 16.5,10 L 18.5,10 C 18.5,10 19.28,8.008 21,7 C 22,7 22,10 22,10" fill="hsl(99,66%,40%)" stroke="#000"/>
      <path d="M 9.5 25.5 A 0.5 0.5 0 1 1 8.5,25.5 A 0.5 0.5 0 1 1 9.5 25.5 z" fill="#000" stroke="#000"/>
      <path d="M 15 15.5 A 0.5 1.5 0 1 1  14,15.5 A 0.5 1.5 0 1 1  15 15.5 z" transform="matrix(0.866,0.5,-0.5,0.866,9.693,-5.173)" fill="#000" stroke="#000"/>
    </g>
  </symbol>
  <symbol id="N_v21" width="45" height="45" overflow="visible">
    <line x1="22.5" y1="22.5" x2="-67.5" y2="67.5" stroke="white" stroke-width="10" stroke-linecap="round"/>
    <line x1="22.5" y1="22.5" x2="112.5" y2="67.5" stroke="white" stroke-width="10" stroke-linecap="round"/>
  </symbol>
  <symbol id="N_v22" width="45" height="45" overflow="visible">
    <line x1="22.5" y1="22.5" x2="-67.5" y2="67.5" stroke="hsl(0,65%,50%)" stroke-width="7" stroke-linecap="round"/>
    <line x1="22.5" y1="22.5" x2="112.5" y2="67.5" stroke="hsl(0,65%,50%)" stroke-width="7" stroke-linecap="round"/>
  </symbol>
  <symbol id="N_v23" width="45" height="45" overflow="visible">
    <line x1="22.5" y1="22.5" x2="-22.5" y2="112.5" stroke="white" stroke-width="10" stroke-linecap="round"/>
  </symbol>
  <symbol id="N_v24" width="45" height="45" overflow="visible">
    <line x1="22.5" y1="22.5" x2="-22.5" y2="112.5" stroke="hsl(0,65%,50%)" stroke-width="7" stroke-linecap="round"/>
  </symbol>
  <symbol id="N_v25" width="45" height="45" overflow="visible">
    <line x1="22.5" y1="22.5" x2="-67.5" y2="67.5" stroke="white" stroke-width="10" stroke-linecap="round"/>
    <line x1="22.5" y1="22.5" x2="-22.5" y2="112.5" stroke="white" stroke-width="10" stroke-linecap="round"/>
    <line x1="22.5" y1="22.5" x2="67.5" y2="112.5" stroke="white" stroke-width="10" stroke-linecap="round"/>
    <line x1="22.5" y1="22.5" x2="112.5" y2="67.5" stroke="white" stroke-width="10" stroke-linecap="round"/>
  </symbol>
  <symbol id="N_v26" width="45" height="45" overflow="visible">
    <line x1="22.5" y1="22.5" x2="-67.5" y2="67.5" stroke="hsl(0,65%,50%)" stroke-width="7" stroke-linecap="round"/>
    <line x1="22.5" y1="22.5" x2="-22.5" y2="112.5" stroke="hsl(0,65%,50%)" stroke-width="7" stroke-linecap="round"/>
    <line x1="22.5" y1="22.5" x2="67.5" y2="112.5" stroke="hsl(0,65%,50%)" stroke-width="7" stroke-linecap="round"/>
    <line x1="22.5" y1="22.5" x2="112.5" y2="67.5" stroke="hsl(0,65%,50%)" stroke-width="7" stroke-linecap="round"/>
  </symbol>
  <symbol id="N_v27" width="45" height="45" overflow="visible">
    <line x1="22.5" y1="22.5" x2="-67.5" y2="67.5" stroke="white" stroke-width="10" stroke-linecap="round"/>
  </symbol>
  <symbol id="N_v28" width="45" height="45" overflow="visible">
    <line x1="22.5" y1="22.5" x2="-67.5" y2="67.5" stroke="hsl(0,65%,50%)" stroke-width="7" stroke-linecap="round"/>
  </symbol>
  <symbol id="K" width="45" height="45" overflow="visible">
    <g fill-rule="evenodd" stroke-width="1.5" stroke-linecap="round" stroke-linejoin="miter" stroke-miterlimit="4">
      <path d="M 22.5,11.63 L 22.5,6 M 20,8 L 25,8" fill="none" stroke="#000" stroke-linejoin="miter"/>
      <path d="M 22.5,25 C 22.5,25 27,17.5 25.5,14.5 C 25.5,14.5 24.5,12 22.5,12 C 20.5,12 19.5,14.5 19.5,14.5 C 18,17.5 22.5,25 22.5,25" fill="hsl(286,65%,60%)" stroke="#000" stroke-linecap="butt" stroke-linejoin="miter"/>
      <path d="M 11.5,37 C 17,40.5 27,40.5 32.5,37 L 32.5,30 C 32.5,30 41.5,25.5 38.5,19.5 C 34.5,13 25,16 22.5,23.5 L 22.5,27 L 22.5,23.5 C 19,16 9.5,13 6.5,19.5 C 3.5,25.5 11.5,29.5 11.5,29.5 L 11.5,37 z" fill="hsl(286,65%,60%)" stroke="#000"/>
      <path d="M 11.5,30 C 17,27 27,27 32.5,30 M 11.5,33.5 C 17,30.5 27,30.5 32.5,33.5 M 11.5,37 C 17,34 27,34 32.5,37" fill="none" stroke="#000"/>
    </g>
  </symbol>
  <use xlink:href="#_20" x="0" y="0"/>
  <use xlink:href="#_20_v1" x="45" y="0"/>
  <use xlink:href="#_20" x="90" y="0"/>
  <use xlink:href="#_20_v1" x="135" y="0"/>
  <use xlink:href="#_20" x="180" y="0"/>
  <use xlink:href="#_20_v1" x="225" y="0"/>
  <use xlink:href="#_20" x="270" y="0"/>
  <use xlink:href="#_20_v1" x="315" y="0"/>
  <use xlink:href="#_20" x="360" y="0"/>
  <use xlink:href="#_20_v1" x="405" y="0"/>
  <use xlink:href="#_20" x="450" y="0"/>
  <use xlink:href="#_20_v1" x="495" y="0"/>
  <use xlink:href="#_20" x="540" y="0"/>
  <use xlink:href="#_20_v1" x="585" y="0"/>
  <use xlink:href="#_20" x="630" y="0"/>
  <use xlink:href="#_20_v1" x="675" y="0"/>
  <use xlink:href="#_20" x="720" y="0"/>
  <use xlink:href="#_20_v1" x="765" y="0"/>
  <use xlink:href="#_20_v1" x="0" y="45"/>
  <use xlink:href="#_20" x="45" y="45"/>
  <use xlink:href="#_20_v1" x="90" y="45"/>
  <use xlink:href="#_20" x="135" y="45"/>
  <use xlink:href="#_20_v1" x="180" y="45"/>
  <use xlink:href="#_20" x="225" y="45"/>
  <use xlink:href="#_20_v1" x="270" y="45"/>
  <use xlink:href="#_20" x="315" y="45"/>
  <use xlink:href="#_20_v1" x="360" y="45"/>
  <use xlink:href="#_20" x="405" y="45"/>
  <use xlink:href="#_20_v1" x="450" y="45"/>
  <use xlink:href="#_20" x="495" y="45"/>
  <use xlink:href="#_20_v1" x="540" y="45"/>
  <use xlink:href="#_20" x="585" y="45"/>
  <use xlink:href="#_20_v1" x="630" y="45"/>
  <use xlink:href="#_20" x="675" y="45"/>
  <use xlink:href="#_20_v1" x="720" y="45"/>
  <use xlink:href="#_20" x="765" y="45"/>
  <use xlink:href="#_20" x="0" y="90"/>
  <use xlink:href="#_20_v1" x="45" y="90"/>
  <use xlink:href="#_20" x="90" y="90"/>
  <use xlink:href="#_20_v1" x="135" y="90"/>
  <use xlink:href="#_20" x="180" y="90"/>
  <use xlink:href="#_20_v1" x="225" y="90"/>
  <use xlink:href="#_20" x="270" y="90"/>
  <use xlink:href="#_20_v1" x="315" y="90"/>
  <use xlink:href="#_20" x="360" y="90"/>
  <use xlink:href="#_20_v1" x="405" y="90"/>
  <use xlink:href="#_20" x="450" y="90"/>
  <use xlink:href="#_20_v1" x="495" y="90"/>
  <use xlink:href="#_20" x="540" y="90"/>
  <use xlink:href="#_20_v1" x="585" y="90"/>
  <use xlink:href="#_20" x="630" y="90"/>
  <use xlink:href="#_20_v1" x="675" y="90"/>
  <use xlink:href="#_20" x="720" y="90"/>
  <use xlink:href="#_20_v1" x="765" y="90"/>
  <use xlink:href="#_20_v1" x="0" y="135"/>
  <use xlink:href="#_20" x="45" y="135"/>
  <use xlink:href="#_20_v1" x="90" y="135"/>
  <use xlink:href="#_20" x="135" y="135"/>
  <use xlink:href="#_20_v1" x="180" y="135"/>
  <use xlink:href="#_20" x="225" y="135"/>
  <use xlink:href="#_20_v1" x="270" y="135"/>
  <use xlink:href="#_20" x="315" y="135"/>
  <use xlink:href="#_20_v1" x="360" y="135"/>
  <use xlink:href="#_20" x="405" y="135"/>
  <use xlink:href="#_20_v1" x="450" y="135"/>
  <use xlink:href="#_20" x="495" y="135"/>
  <use xlink:href="#_20_v1" x="540" y="135"/>
  <use xlink:href="#_20" x="585" y="135"/>
  <use xlink:href="#_20_v1" x="630" y="135"/>
  <use xlink:href="#_20" x="675" y="135"/>
  <use xlink:href="#_20_v1" x="720" y="135"/>
  <use xlink:href="#_20" x="765" y="135"/>
  <use xlink:href="#_20" x="0" y="180"/>
  <use xlink:href="#_20_v1" x="45" y="180"/>
  <use xlink:href="#_20" x="90" y="180"/>
  <use xlink:href="#_20_v1" x="135" y="180"/>
  <use xlink:href="#_20" x="180" y="180"/>
  <use xlink:href="#_20_v1" x="225" y="180"/>
  <use xlink:href="#_20" x="270" y="180"/>
  <use xlink:href="#_20_v1" x="315" y="180"/>
  <use xlink:href="#_20" x="360" y="180"/>
  <use xlink:href="#_20_v1" x="405" y="180"/>
  <use xlink:href="#_20" x="450" y="180"/>
  <use xlink:href="#_20_v1" x="495" y="180"/>
  <use xlink:href="#_20" x="540" y="180"/>
  <use xlink:href="#_20_v1" x="585" y="180"/>
  <use xlink:href="#_20" x="630" y="180"/>
  <use xlink:href="#_20_v1" x="675" y="180"/>
  <use xlink:href="#_20" x="720" y="180"/>
  <use xlink:href="#_20_v1" x="765" y="180"/>
  <use xlink:href="#_20_v1" x="0" y="225"/>
  <use xlink:href="#_20" x="45" y="225"/>
  <use xlink:href="#_20_v1" x="90" y="225"/>
  <use xlink:href="#_20" x="135" y="225"/>
  <use xlink:href="#_20_v1" x="180" y="225"/>
  <use xlink:href="#_20" x="225" y="225"/>
  <use xlink:href="#_20_v1" x="270" y="225"/>
  <use xlink:href="#_20" x="315" y="225"/>
  <use xlink:href="#_20_v1" x="360" y="225"/>
  <use xlink:href="#_20" x="405" y="225"/>
  <use xlink:href="#_20_v1" x="450" y="225"/>
  <use xlink:href="#_20" x="495" y="225"/>
  <use xlink:href="#_20_v1" x="540" y="225"/>
  <use xlink:href="#_20" x="585" y="225"/>
  <use xlink:href="#_20_v1" x="630" y="225"/>
  <use xlink:href="#_20" x="675" y="225"/>
  <use xlink:href="#_20_v1" x="720" y="225"/>
  <use xlink:href="#_20" x="765" y="225"/>
  <use xlink:href="#_20" x="0" y="270"/>
  <use xlink:href="#_20_v1" x="45" y="270"/>
  <use xlink:href="#_20" x="90" y="270"/>
  <use xlink:href="#_20_v1" x="135" y="270"/>
  <use xlink:href="#_20" x="180" y="270"/>
  <use xlink:href="#_20_v1" x="225" y="270"/>
  <use xlink:href="#_20" x="270" y="270"/>
  <use xlink:href="#_20_v1" x="315" y="270"/>
  <use xlink:href="#_20" x="360" y="270"/>
  <use xlink:href="#_20_v1" x="405" y="270"/>
  <use xlink:href="#_20" x="450" y="270"/>
  <use xlink:href="#_20_v1" x="495" y="270"/>
  <use xlink:href="#_20" x="540" y="270"/>
  <use xlink:href="#_20_v1" x="585" y="270"/>
  <use xlink:href="#_20" x="630" y="270"/>
  <use xlink:href="#_20_v1" x="675" y="270"/>
  <use xlink:href="#_20" x="720" y="270"/>
  <use xlink:href="#_20_v1" x="765" y="270"/>
  <use xlink:href="#_20_v1" x="0" y="315"/>
  <use xlink:href="#_20" x="45" y="315"/>
  <use xlink:href="#_20_v1" x="90" y="315"/>
  <use xlink:href="#_20" x="135" y="315"/>
  <use xlink:href="#_20_v1" x="180" y="315"/>
  <use xlink:href="#_20" x="225" y="315"/>
  <use xlink:href="#_20_v1" x="270" y="315"/>
  <use xlink:href="#_20" x="315" y="315"/>
  <use xlink:href="#_20_v1" x="360" y="315"/>
  <use xlink:href="#_20" x="405" y="315"/>
  <use xlink:href="#_20_v1" x="450" y="315"/>
  <use xlink:href="#_20" x="495" y="315"/>
  <use xlink:href="#_20_v1" x="540" y="315"/>
  <use xlink:href="#_20" x="585" y="315"/>
  <use xlink:href="#_20_v1" x="630" y="315"/>
  <use xlink:href="#_20" x="675" y="315"/>
  <use xlink:href="#_20_v1" x="720" y="315"/>
  <use xlink:href="#_20" x="765" y="315"/>
  <use xlink:href="#_20" x="0" y="360"/>
  <use xlink:href="#_20_v1" x="45" y="360"/>
  <use xlink:href="#_20" x="90" y="360"/>
  <use xlink:href="#_20_v1" x="135" y="360"/>
  <use xlink:href="#_20" x="180" y="360"/>
  <use xlink:href="#_20_v1" x="225" y="360"/>
  <use xlink:href="#_20" x="270" y="360"/>
  <use xlink:href="#_20_v1" x="315" y="360"/>
  <use xlink:href="#_20" x="360" y="360"/>
  <use xlink:href="#_20_v1" x="405" y="360"/>
  <use xlink:href="#_20" x="450" y="360"/>
  <use xlink:href="#_20_v1" x="495" y="360"/>
  <use xlink:href="#_20" x="540" y="360"/>
  <use xlink:href="#_20_v1" x="585" y="360"/>
  <use xlink:href="#_20" x="630" y="360"/>
  <use xlink:href="#_20_v1" x="675" y="360"/>
  <use xlink:href="#_20" x="720" y="360"/>
  <use xlink:href="#_20_v1" x="765" y="360"/>
  <use xlink:href="#_20_v1" x="0" y="405"/>
  <use xlink:href="#_20" x="45" y="405"/>
  <use xlink:href="#_20_v1" x="90" y="405"/>
  <use xlink:href="#_20" x="135" y="405"/>
  <use xlink:href="#_20_v1" x="180" y="405"/>
  <use xlink:href="#_20" x="225" y="405"/>
  <use xlink:href="#_20_v1" x="270" y="405"/>
  <use xlink:href="#_20" x="315" y="405"/>
  <use xlink:href="#_20_v1" x="360" y="405"/>
  <use xlink:href="#_20" x="405" y="405"/>
  <use xlink:href="#_20_v1" x="450" y="405"/>
  <use xlink:href="#_20" x="495" y="405"/>
  <use xlink:href="#_20_v1" x="540" y="405"/>
  <use xlink:href="#_20" x="585" y="405"/>
  <use xlink:href="#_20_v1" x="630" y="405"/>
  <use xlink:href="#_20" x="675" y="405"/>
  <use xlink:href="#_20_v1" x="720" y="405"/>
  <use xlink:href="#_20" x="765" y="405"/>
  <use xlink:href="#_20" x="0" y="450"/>
  <use xlink:href="#_20_v1" x="45" y="450"/>
  <use xlink:href="#_20" x="90" y="450"/>
  <use xlink:href="#_20_v1" x="135" y="450"/>
  <use xlink:href="#_20" x="180" y="450"/>
  <use xlink:href="#_20_v1" x="225" y="450"/>
  <use xlink:href="#_20" x="270" y="450"/>
  <use xlink:href="#_20_v1" x="315" y="450"/>
  <use xlink:href="#_20" x="360" y="450"/>
  <use xlink:href="#_20_v1" x="405" y="450"/>
  <use xlink:href="#_20" x="450" y="450"/>
  <use xlink:href="#_20_v1" x="495" y="450"/>
  <use xlink:href="#_20" x="540" y="450"/>
  <use xlink:href="#_20_v1" x="585" y="450"/>
  <use xlink:href="#_20" x="630" y="450"/>
  <use xlink:href="#_20_v1" x="675" y="450"/>
  <use xlink:href="#_20" x="720" y="450"/>
  <use xlink:href="#_20_v1" x="765" y="450"/>
  <use xlink:href="#_20_v1" x="0" y="495"/>
  <use xlink:href="#_20" x="45" y="495"/>
  <use xlink:href="#_20_v1" x="90" y="495"/>
  <use xlink:href="#_20" x="135" y="495"/>
  <use xlink:href="#_20_v1" x="180" y="495"/>
  <use xlink:href="#_20" x="225" y="495"/>
  <use xlink:href="#_20_v1" x="270" y="495"/>
  <use xlink:href="#_20" x="315" y="495"/>
  <use xlink:href="#_20_v1" x="360" y="495"/>
  <use xlink:href="#_20" x="405" y="495"/>
  <use xlink:href="#_20_v1" x="450" y="495"/>
  <use xlink:href="#_20" x="495" y="495"/>
  <use xlink:href="#_20_v1" x="540" y="495"/>
  <use xlink:href="#_20" x="585" y="495"/>
  <use xlink:href="#_20_v1" x="630" y="495"/>
  <use xlink:href="#_20" x="675" y="495"/>
  <use xlink:href="#_20_v1" x="720" y="495"/>
  <use xlink:href="#_20" x="765" y="495"/>
  <use xlink:href="#_20" x="0" y="540"/>
  <use xlink:href="#_20_v1" x="45" y="540"/>
  <use xlink:href="#_20" x="90" y="540"/>
  <use xlink:href="#_20_v1" x="135" y="540"/>
  <use xlink:href="#_20" x="180" y="540"/>
  <use xlink:href="#_20_v1" x="225" y="540"/>
  <use xlink:href="#_20" x="270" y="540"/>
  <use xlink:href="#_20_v1" x="315" y="540"/>
  <use xlink:href="#_20" x="360" y="540"/>
  <use xlink:href="#_20_v1" x="405" y="540"/>
  <use xlink:href="#_20" x="450" y="540"/>
  <use xlink:href="#_20_v1" x="495" y="540"/>
  <use xlink:href="#_20" x="540" y="540"/>
  <use xlink:href="#_20_v1" x="585" y="540"/>
  <use xlink:href="#_20" x="630" y="540"/>
  <use xlink:href="#_20_v1" x="675" y="540"/>
  <use xlink:href="#_20" x="720" y="540"/>
  <use xlink:href="#_20_v1" x="765" y="540"/>
  <use xlink:href="#_20_v1" x="0" y="585"/>
  <use xlink:href="#_20" x="45" y="585"/>
  <use xlink:href="#_20_v1" x="90" y="585"/>
  <use xlink:href="#_20" x="135" y="585"/>
  <use xlink:href="#_20_v1" x="180" y="585"/>
  <use xlink:href="#_20" x="225" y="585"/>
  <use xlink:href="#_20_v1" x="270" y="585"/>
  <use xlink:href="#_20" x="315" y="585"/>
  <use xlink:href="#_20_v1" x="360" y="585"/>
  <use xlink:href="#_20" x="405" y="585"/>
  <use xlink:href="#_20_v1" x="450" y="585"/>
  <use xlink:href="#_20" x="495" y="585"/>
  <use xlink:href="#_20_v1" x="540" y="585"/>
  <use xlink:href="#_20" x="585" y="585"/>
  <use xlink:href="#_20_v1" x="630" y="585"/>
  <use xlink:href="#_20" x="675" y="585"/>
  <use xlink:href="#_20_v1" x="720" y="585"/>
  <use xlink:href="#_20" x="765" y="585"/>
  <use xlink:href="#_20" x="0" y="630"/>
  <use xlink:href="#_20_v1" x="45" y="630"/>
  <use xlink:href="#_20" x="90" y="630"/>
  <use xlink:href="#_20_v1" x="135" y="630"/>
  <use xlink:href="#_20" x="180" y="630"/>
  <use xlink:href="#_20_v1" x="225" y="630"/>
  <use xlink:href="#_20" x="270" y="630"/>
  <use xlink:href="#_20_v1" x="315" y="630"/>
  <use xlink:href="#_20" x="360" y="630"/>
  <use xlink:href="#_20_v1" x="405" y="630"/>
  <use xlink:href="#_20" x="450" y="630"/>
  <use xlink:href="#_20_v1" x="495" y="630"/>
  <use xlink:href="#_20" x="540" y="630"/>
  <use xlink:href="#_20_v1" x="585" y="630"/>
  <use xlink:href="#_20" x="630" y="630"/>
  <use xlink:href="#_20_v1" x="675" y="630"/>
  <use xlink:href="#_20" x="720" y="630"/>
  <use xlink:href="#_20_v1" x="765" y="630"/>
  <use xlink:href="#_20_v1" x="0" y="675"/>
  <use xlink:href="#_20" x="45" y="675"/>
  <use xlink:href="#_20_v1" x="90" y="675"/>
  <use xlink:href="#_20" x="135" y="675"/>
  <use xlink:href="#_20_v1" x="180" y="675"/>
  <use xlink:href="#_20" x="225" y="675"/>
  <use xlink:href="#_20_v1" x="270" y="675"/>
  <use xlink:href="#_20" x="315" y="675"/>
  <use xlink:href="#_20_v1" x="360" y="675"/>
  <use xlink:href="#_20" x="405" y="675"/>
  <use xlink:href="#_20_v1" x="450" y="675"/>
  <use xlink:href="#_20" x="495" y="675"/>
  <use xlink:href="#_20_v1" x="540" y="675"/>
  <use xlink:href="#_20" x="585" y="675"/>
  <use xlink:href="#_20_v1" x="630" y="675"/>
  <use xlink:href="#_20" x="675" y="675"/>
  <use xlink:href="#_20_v1" x="720" y="675"/>
  <use xlink:href="#_20" x="765" y="675"/>
  <use xlink:href="#_20" x="0" y="720"/>
  <use xlink:href="#_20_v1" x="45" y="720"/>
  <use xlink:href="#_20" x="90" y="720"/>
  <use xlink:href="#_20_v1" x="135" y="720"/>
  <use xlink:href="#_20" x="180" y="720"/>
  <use xlink:href="#_20_v1" x="225" y="720"/>
  <use xlink:href="#_20" x="270" y="720"/>
  <use xlink:href="#_20_v1" x="315" y="720"/>
  <use xlink:href="#_20" x="360" y="720"/>
  <use xlink:href="#_20_v1" x="405" y="720"/>
  <use xlink:href="#_20" x="450" y="720"/>
  <use xlink:href="#_20_v1" x="495" y="720"/>
  <use xlink:href="#_20" x="540" y="720"/>
  <use xlink:href="#_20_v1" x="585" y="720"/>
  <use xlink:href="#_20" x="630" y="720"/>
  <use xlink:href="#_20_v1" x="675" y="720"/>
  <use xlink:href="#_20" x="720" y="720"/>
  <use xlink:href="#_20_v1" x="765" y="720"/>
  <use xlink:href="#_20_v1" x="0" y="765"/>
  <use xlink:href="#_20" x="45" y="765"/>
  <use xlink:href="#_20_v1" x="90" y="765"/>
  <use xlink:href="#_20" x="135" y="765"/>
  <use xlink:href="#_20_v1" x="180" y="765"/>
  <use xlink:href="#_20" x="225" y="765"/>
  <use xlink:href="#_20_v1" x="270" y="765"/>
  <use xlink:href="#_20" x="315" y="765"/>
  <use xlink:href="#_20_v1" x="360" y="765"/>
  <use xlink:href="#_20" x="405" y="765"/>
  <use xlink:href="#_20_v1" x="450" y="765"/>
  <use xlink:href="#_20" x="495" y="765"/>
  <use xlink:href="#_20_v1" x="540" y="765"/>
  <use xlink:href="#_20" x="585" y="765"/>
  <use xlink:href="#_20_v1" x="630" y="765"/>
  <use xlink:href="#_20" x="675" y="765"/>
  <use xlink:href="#_20_v1" x="720" y="765"/>
  <use xlink:href="#_20" x="765" y="765"/>
  <use xlink:href="#_20" x="0" y="810"/>
  <use xlink:href="#_20_v1" x="45" y="810"/>
  <use xlink:href="#_20" x="90" y="810"/>
  <use xlink:href="#_20_v1" x="135" y="810"/>
  <use xlink:href="#_20" x="180" y="810"/>
  <use xlink:href="#_20_v1" x="225" y="810"/>
  <use xlink:href="#_20" x="270" y="810"/>
  <use xlink:href="#_20_v1" x="315" y="810"/>
  <use xlink:href="#_20" x="360" y="810"/>
  <use xlink:href="#_20_v1" x="405" y="810"/>
  <use xlink:href="#_20" x="450" y="810"/>
  <use xlink:href="#_20_v1" x="495" y="810"/>
  <use xlink:href="#_20" x="540" y="810"/>
  <use xlink:href="#_20_v1" x="585" y="810"/>
  <use xlink:href="#_20" x="630" y="810"/>
  <use xlink:href="#_20_v1" x="675" y="810"/>
  <use xlink:href="#_20" x="720" y="810"/>
  <use xlink:href="#_20_v1" x="765" y="810"/>
  <use xlink:href="#_20_v1" x="0" y="855"/>
  <use xlink:href="#_20" x="45" y="855"/>
  <use xlink:href="#_20_v1" x="90" y="855"/>
  <use xlink:href="#_20" x="135" y="855"/>
  <use xlink:href="#_20_v1" x="180" y="855"/>
  <use xlink:href="#_20" x="225" y="855"/>
  <use xlink:href="#_20_v1" x="270" y="855"/>
  <use xlink:href="#_20" x="315" y="855"/>
  <use xlink:href="#_20_v1" x="360" y="855"/>
  <use xlink:href="#_20" x="405" y="855"/>
  <use xlink:href="#_20_v1" x="450" y="855"/>
  <use xlink:href="#_20" x="495" y="855"/>
  <use xlink:href="#_20_v1" x="540" y="855"/>
  <use xlink:href="#_20" x="585" y="855"/>
  <use xlink:href="#_20_v1" x="630" y="855"/>
  <use xlink:href="#_20" x="675" y="855"/>
  <use xlink:href="#_20_v1" x="720" y="855"/>
  <use xlink:href="#_20" x="765" y="855"/>
  <use xlink:href="#_20" x="0" y="900"/>
  <use xlink:href="#_20_v1" x="45" y="900"/>
  <use xlink:href="#_20" x="90" y="900"/>
  <use xlink:href="#_20_v1" x="135" y="900"/>
  <use xlink:href="#_20" x="180" y="900"/>
  <use xlink:href="#_20_v1" x="225" y="900"/>
  <use xlink:href="#_20" x="270" y="900"/>
  <use xlink:href="#_20_v1" x="315" y="900"/>
  <use xlink:href="#_20" x="360" y="900"/>
  <use xlink:href="#_20_v1" x="405" y="900"/>
  <use xlink:href="#_20" x="450" y="900"/>
  <use xlink:href="#_20_v1" x="495" y="900"/>
  <use xlink:href="#_20" x="540" y="900"/>
  <use xlink:href="#_20_v1" x="585" y="900"/>
  <use xlink:href="#_20" x="630" y="900"/>
  <use xlink:href="#_20_v1" x="675" y="900"/>
  <use xlink:href="#_20" x="720" y="900"/>
  <use xlink:href="#_20_v1" x="765" y="900"/>
  <use xlink:href="#_20_v1" x="0" y="945"/>
  <use xlink:href="#_20" x="45" y="945"/>
  <use xlink:href="#_20_v1" x="90" y="945"/>
  <use xlink:href="#_20" x="135" y="945"/>
  <use xlink:href="#_20_v1" x="180" y="945"/>
  <use xlink:href="#_20" x="225" y="945"/>
  <use xlink:href="#_20_v1" x="270" y="945"/>
  <use xlink:href="#_20" x="315" y="945"/>
  <use xlink:href="#_20_v1" x="360" y="945"/>
  <use xlink:href="#_20" x="405" y="945"/>
  <use xlink:href="#_20_v1" x="450" y="945"/>
  <use xlink:href="#_20" x="495" y="945"/>
  <use xlink:href="#_20_v1" x="540" y="945"/>
  <use xlink:href="#_20" x="585" y="945"/>
  <use xlink:href="#_20_v1" x="630" y="945"/>
  <use xlink:href="#_20" x="675" y="945"/>
  <use xlink:href="#_20_v1" x="720" y="945"/>
  <use xlink:href="#_20" x="765" y="945"/>
  <use xlink:href="#_20" x="0" y="990"/>
  <use xlink:href="#_20_v1" x="45" y="990"/>
  <use xlink:href="#_20" x="90" y="990"/>
  <use xlink:href="#_20_v1" x="135" y="990"/>
  <use xlink:href="#_20" x="180" y="990"/>
  <use xlink:href="#_20_v1" x="225" y="990"/>
  <use xlink:href="#_20" x="270" y="990"/>
  <use xlink:href="#_20_v1" x="315" y="990"/>
  <use xlink:href="#_20" x="360" y="990"/>
  <use xlink:href="#_20_v1" x="405" y="990"/>
  <use xlink:href="#_20" x="450" y="990"/>
  <use xlink:href="#_20_v1" x="495" y="990"/>
  <use xlink:href="#_20" x="540" y="990"/>
  <use xlink:href="#_20_v1" x="585" y="990"/>
  <use xlink:href="#_20" x="630" y="990"/>
  <use xlink:href="#_20_v1" x="675" y="990"/>
  <use xlink:href="#_20" x="720" y="990"/>
  <use xlink:href="#_20_v1" x="765" y="990"/>
  <use xlink:href="#_20_v1" x="0" y="1035"/>
  <use xlink:href="#_20" x="45" y="1035"/>
  <use xlink:href="#_20_v1" x="90" y="1035"/>
  <use xlink:href="#_20" x="135" y="1035"/>
  <use xlink:href="#_20_v1" x="180" y="1035"/>
  <use xlink:href="#_20" x="225" y="1035"/>
  <use xlink:href="#_20_v1" x="270" y="1035"/>
  <use xlink:href="#_20" x="315" y="1035"/>
  <use xlink:href="#_20_v1" x="360" y="1035"/>
  <use xlink:href="#_20" x="405" y="1035"/>
  <use xlink:href="#_20_v1" x="450" y="1035"/>
  <use xlink:href="#_20" x="495" y="1035"/>
  <use xlink:href="#_20_v1" x="540" y="1035"/>
  <use xlink:href="#_20" x="585" y="1035"/>
  <use xlink:href="#_20_v1" x="630" y="1035"/>
  <use xlink:href="#_20" x="675" y="1035"/>
  <use xlink:href="#_20_v1" x="720" y="1035"/>
  <use xlink:href="#_20" x="765" y="1035"/>
  <use xlink:href="#_20" x="0" y="1080"/>
  <use xlink:href="#_20_v1" x="45" y="1080"/>
  <use xlink:href="#_20" x="90" y="1080"/>
  <use xlink:href="#_20_v1" x="135" y="1080"/>
  <use xlink:href="#_20" x="180" y="1080"/>
  <use xlink:href="#_20_v1" x="225" y="1080"/>
  <use xlink:href="#_20" x="270" y="1080"/>
  <use xlink:href="#_20_v1" x="315" y="1080"/>
  <use xlink:href="#_20" x="360" y="1080"/>
  <use xlink:href="#_20_v1" x="405" y="1080"/>
  <use xlink:href="#_20" x="450" y="1080"/>
  <use xlink:href="#_20_v1" x="495" y="1080"/>
  <use xlink:href="#_20" x="540" y="1080"/>
  <use xlink:href="#_20_v1" x="585" y="1080"/>
  <use xlink:href="#_20" x="630" y="1080"/>
  <use xlink:href="#_20_v1" x="675" y="1080"/>
  <use xlink:href="#_20" x="720" y="1080"/>
  <use xlink:href="#_20_v1" x="765" y="1080"/>
  <use xlink:href="#_20_v1" x="0" y="1125"/>
  <use xlink:href="#_20" x="45" y="1125"/>
  <use xlink:href="#_20_v1" x="90" y="1125"/>
  <use xlink:href="#_20" x="135" y="1125"/>
  <use xlink:href="#_20_v1" x="180" y="1125"/>
  <use xlink:href="#_20" x="225" y="1125"/>
  <use xlink:href="#_20_v1" x="270" y="1125"/>
  <use xlink:href="#_20" x="315" y="1125"/>
  <use xlink:href="#_20_v1" x="360" y="1125"/>
  <use xlink:href="#_20" x="405" y="1125"/>
  <use xlink:href="#_20_v1" x="450" y="1125"/>
  <use xlink:href="#_20" x="495" y="1125"/>
  <use xlink:href="#_20_v1" x="540" y="1125"/>
  <use xlink:href="#_20" x="585" y="1125"/>
  <use xlink:href="#_20_v1" x="630" y="1125"/>
  <use xlink:href="#_20" x="675" y="1125"/>
  <use xlink:href="#_20_v1" x="720" y="1125"/>
  <use xlink:href="#_20" x="765" y="1125"/>
  <use xlink:href="#N" x="405" y="0"/>
  <use xlink:href="#N_v3" x="360" y="45"/>
  <use xlink:href="#N_v5" x="45" y="90"/>
  <use xlink:href="#N_v7" x="315" y="90"/>
  <use xlink:href="#N_v9" x="405" y="90"/>
  <use xlink:href="#N_v11" x="540" y="90"/>
  <use xlink:href="#N_v13" x="135" y="135"/>
  <use xlink:href="#N_v15" x="270" y="135"/>
  <use xlink:href="#N_v17" x="450" y="135"/>
  <use xlink:href="#N_v19" x="0" y="180"/>
  <use xlink:href="#n" x="225" y="180"/>
  <use xlink:href="#N_v21" x="360" y="180"/>
  <use xlink:href="#N" x="495" y="180"/>
  <use xlink:href="#N_v15" x="270" y="225"/>
  <use xlink:href="#N_v17" x="450" y="225"/>
  <use xlink:href="#N_v23" x="45" y="270"/>
  <use xlink:href="#N_v9" x="225" y="270"/>
  <use xlink:href="#N_v25" x="360" y="270"/>
  <use xlink:href="#N_v15" x="495" y="270"/>
  <use xlink:href="#N_v17" x="270" y="315"/>
  <use xlink:href="#N" x="450" y="315"/>
  <use xlink:href="#N_v19" x="585" y="315"/>
  <use xlink:href="#N_v19" x="0" y="360"/>
  <use xlink:href="#n" x="315" y="360"/>
  <use xlink:href="#N" x="405" y="360"/>
  <use xlink:href="#N_v3" x="360" y="405"/>
  <use xlink:href="#N_v23" x="630" y="405"/>
  <use xlink:href="#N_v5" x="45" y="450"/>
  <use xlink:href="#N_v7" x="315" y="450"/>
  <use xlink:href="#N_v9" x="405" y="450"/>
  <use xlink:href="#N_v13" x="135" y="495"/>
  <use xlink:href="#N_v15" x="270" y="495"/>
  <use xlink:href="#N_v17" x="450" y="495"/>
  <use xlink:href="#N_v21" x="585" y="495"/>
  <use xlink:href="#N_v19" x="0" y="540"/>
  <use xlink:href="#n" x="225" y="540"/>
  <use xlink:href="#N_v21" x="360" y="540"/>
  <use xlink:href="#N" x="495" y="540"/>
  <use xlink:href="#N_v13" x="675" y="540"/>
  <use xlink:href="#N_v15" x="270" y="585"/>
  <use xlink:href="#N_v17" x="450" y="585"/>
  <use xlink:href="#N_v23" x="765" y="585"/>
  <use xlink:href="#N_v23" x="45" y="630"/>
  <use xlink:href="#N_v9" x="225" y="630"/>
  <use xlink:href="#N_v25" x="360" y="630"/>
  <use xlink:href="#N_v15" x="495" y="630"/>
  <use xlink:href="#N_v17" x="270" y="675"/>
  <use xlink:href="#N" x="450" y="675"/>
  <use xlink:href="#N_v19" x="585" y="675"/>
  <use xlink:href="#N_v19" x="720" y="675"/>
  <use xlink:href="#N_v19" x="0" y="720"/>
  <use xlink:href="#n" x="315" y="720"/>
  <use xlink:href="#N" x="405" y="720"/>
  <use xlink:href="#N_v3" x="360" y="765"/>
  <use xlink:href="#N_v23" x="630" y="765"/>
  <use xlink:href="#N_v23" x="765" y="765"/>
  <use xlink:href="#N_v13" x="45" y="810"/>
  <use xlink:href="#N_v7" x="315" y="810"/>
  <use xlink:href="#N_v9" x="405" y="810"/>
  <use xlink:href="#N_v13" x="135" y="855"/>
  <use xlink:href="#N_v15" x="270" y="855"/>
  <use xlink:href="#N_v17" x="450" y="855"/>
  <use xlink:href="#N_v27" x="585" y="855"/>
  <use xlink:href="#N_v19" x="720" y="855"/>
  <use xlink:href="#n" x="225" y="900"/>
  <use xlink:href="#N_v21" x="360" y="900"/>
  <use xlink:href="#N" x="495" y="900"/>
  <use xlink:href="#N_v15" x="270" y="945"/>
  <use xlink:href="#N_v17" x="450" y="945"/>
  <use xlink:href="#N_v27" x="765" y="945"/>
  <use xlink:href="#N_v9" x="225" y="990"/>
  <use xlink:href="#N_v25" x="360" y="990"/>
  <use xlink:href="#N_v15" x="495" y="990"/>
  <use xlink:href="#N_v27" x="675" y="990"/>
  <use xlink:href="#N_v17" x="270" y="1035"/>
  <use xlink:href="#N" x="450" y="1035"/>
  <use xlink:href="#n" x="315" y="1080"/>
  <use xlink:href="#N" x="405" y="1080"/>
  <use xlink:href="#N_v1" x="405" y="0"/>
  <use xlink:href="#N_v4" x="360" y="45"/>
  <use xlink:href="#N_v6" x="45" y="90"/>
  <use xlink:href="#N_v8" x="315" y="90"/>
  <use xlink:href="#N_v10" x="405" y="90"/>
  <use xlink:href="#N_v12" x="540" y="90"/>
  <use xlink:href="#N_v14" x="135" y="135"/>
  <use xlink:href="#N_v16" x="270" y="135"/>
  <use xlink:href="#N_v18" x="450" y="135"/>
  <use xlink:href="#N_v20" x="0" y="180"/>
  <use xlink:href="#n_v1" x="225" y="180"/>
  <use xlink:href="#N_v22" x="360" y="180"/>
  <use xlink:href="#N_v1" x="495" y="180"/>
  <use xlink:href="#N_v16" x="270" y="225"/>
  <use xlink:href="#N_v18" x="450" y="225"/>
  <use xlink:href="#N_v24" x="45" y="270"/>
  <use xlink:href="#N_v10" x="225" y="270"/>
  <use xlink:href="#N_v26" x="360" y="270"/>
  <use xlink:href="#N_v16" x="495" y="270"/>
  <use xlink:href="#N_v18" x="270" y="315"/>
  <use xlink:href="#N_v1" x="450" y="315"/>
  <use xlink:href="#N_v20" x="585" y="315"/>
  <use xlink:href="#N_v20" x="0" y="360"/>
  <use xlink:href="#n_v1" x="315" y="360"/>
  <use xlink:href="#N_v1" x="405" y="360"/>
  <use xlink:href="#N_v4" x="360" y="405"/>
  <use xlink:href="#N_v24" x="630" y="405"/>
  <use xlink:href="#N_v6" x="45" y="450"/>
  <use xlink:href="#N_v8" x="315" y="450"/>
  <use xlink:href="#N_v10" x="405" y="450"/>
  <use xlink:href="#N_v14" x="135" y="495"/>
  <use xlink:href="#N_v16" x="270" y="495"/>
  <use xlink:href="#N_v18" x="450" y="495"/>
  <use xlink:href="#N_v22" x="585" y="495"/>
  <use xlink:href="#N_v20" x="0" y="540"/>
  <use xlink:href="#n_v1" x="225" y="540"/>
  <use xlink:href="#N_v22" x="360" y="540"/>
  <use xlink:href="#N_v1" x="495" y="540"/>
  <use xlink:href="#N_v14" x="675" y="540"/>
  <use xlink:href="#N_v16" x="270" y="585"/>
  <use xlink:href="#N_v18" x="450" y="585"/>
  <use xlink:href="#N_v24" x="765" y="585"/>
  <use xlink:href="#N_v24" x="45" y="630"/>
  <use xlink:href="#N_v10" x="225" y="630"/>
  <use xlink:href="#N_v26" x="360" y="630"/>
  <use xlink:href="#N_v16" x="495" y="630"/>
  <use xlink:href="#N_v18" x="270" y="675"/>
  <use xlink:href="#N_v1" x="450" y="675"/>
  <use xlink:href="#N_v20" x="585" y="675"/>
  <use xlink:href="#N_v20" x="720" y="675"/>
  <use xlink:href="#N_v20" x="0" y="720"/>
  <use xlink:href="#n_v1" x="315" y="720"/>
  <use xlink:href="#N_v1" x="405" y="720"/>
  <use xlink:href="#N_v4" x="360" y="765"/>
  <use xlink:href="#N_v24" x="630" y="765"/>
  <use xlink:href="#N_v24" x="765" y="765"/>
  <use xlink:href="#N_v14" x="45" y="810"/>
  <use xlink:href="#N_v8" x="315" y="810"/>
  <use xlink:href="#N_v10" x="405" y="810"/>
  <use xlink:href="#N_v14" x="135" y="855"/>
  <use xlink:href="#N_v16" x="270" y="855"/>
  <use xlink:href="#N_v18" x="450" y="855"/>
  <use xlink:href="#N_v28" x="585" y="855"/>
  <use xlink:href="#N_v20" x="720" y="855"/>
  <use xlink:href="#n_v1" x="225" y="900"/>
  <use xlink:href="#N_v22" x="360" y="900"/>
  <use xlink:href="#N_v1" x="495" y="900"/>
  <use xlink:href="#N_v16" x="270" y="945"/>
  <use xlink:href="#N_v18" x="450" y="945"/>
  <use xlink:href="#N_v28" x="765" y="945"/>
  <use xlink:href="#N_v10" x="225" y="990"/>
  <use xlink:href="#N_v26" x="360" y="990"/>
  <use xlink:href="#N_v16" x="495" y="990"/>
  <use xlink:href="#N_v28" x="675" y="990"/>
  <use xlink:href="#N_v18" x="270" y="1035"/>
  <use xlink:href="#N_v1" x="450" y="1035"/>
  <use xlink:href="#n_v1" x="315" y="1080"/>
  <use xlink:href="#N_v1" x="405" y="1080"/>
  <use xlink:href="#N_v2" x="405" y="0"/>
  <use xlink:href="#N_v2" x="360" y="45"/>
  <use xlink:href="#N_v2" x="45" y="90"/>
  <use xlink:href="#N_v2" x="315" y="90"/>
  <use xlink:href="#N_v2" x="405" y="90"/>
  <use xlink:href="#N_v2" x="540" y="90"/>
  <use xlink:href="#N_v2" x="135" y="135"/>
  <use xlink:href="#N_v2" x="270" y="135"/>
  <use xlink:href="#N_v2" x="450" y="135"/>
  <use xlink:href="#N_v2" x="0" y="180"/>
  <use xlink:href="#n_v2" x="225" y="180"/>
  <use xlink:href="#N_v2" x="360" y="180"/>
  <use xlink:href="#n_v2" x="495" y="180"/>
  <use xlink:href="#N_v2" x="270" y="225"/>
  <use xlink:href="#N_v2" x="450" y="225"/>
  <use xlink:href="#N_v2" x="45" y="270"/>
  <use xlink:href="#n_v2" x="225" y="270"/>
  <use xlink:href="#N_v2" x="360" y="270"/>
  <use xlink:href="#n_v2" x="495" y="270"/>
  <use xlink:href="#N_v2" x="270" y="315"/>
  <use xlink:href="#N_v2" x="450" y="315"/>
  <use xlink:href="#N_v2" x="585" y="315"/>
  <use xlink:href="#N_v2" x="0" y="360"/>
  <use xlink:href="#N_v2" x="180" y="360"/>
  <use xlink:href="#N_v2" x="315" y="360"/>
  <use xlink:href="#N_v2" x="405" y="360"/>
  <use xlink:href="#N_v2" x="360" y="405"/>
  <use xlink:href="#N_v2" x="630" y="405"/>
  <use xlink:href="#N_v2" x="45" y="450"/>
  <use xlink:href="#N_v2" x="315" y="450"/>
  <use xlink:href="#N_v2" x="405" y="450"/>
  <use xlink:href="#N_v2" x="135" y="495"/>
  <use xlink:href="#N_v2" x="270" y="495"/>
  <use xlink:href="#N_v2" x="450" y="495"/>
  <use xlink:href="#N_v2" x="585" y="495"/>
  <use xlink:href="#N_v2" x="0" y="540"/>
  <use xlink:href="#n_v2" x="225" y="540"/>
  <use xlink:href="#N_v2" x="360" y="540"/>
  <use xlink:href="#n_v2" x="495" y="540"/>
  <use xlink:href="#N_v2" x="675" y="540"/>
  <use xlink:href="#N_v2" x="270" y="585"/>
  <use xlink:href="#N_v2" x="450" y="585"/>
  <use xlink:href="#N_v2" x="765" y="585"/>
  <use xlink:href="#N_v2" x="45" y="630"/>
  <use xlink:href="#n_v2" x="225" y="630"/>
  <use xlink:href="#N_v2" x="360" y="630"/>
  <use xlink:href="#n_v2" x="495" y="630"/>
  <use xlink:href="#N_v2" x="270" y="675"/>
  <use xlink:href="#N_v2" x="450" y="675"/>
  <use xlink:href="#N_v2" x="585" y="675"/>
  <use xlink:href="#N_v2" x="720" y="675"/>
  <use xlink:href="#N_v2" x="0" y="720"/>
  <use xlink:href="#N_v2" x="180" y="720"/>
  <use xlink:href="#N_v2" x="315" y="720"/>
  <use xlink:href="#N_v2" x="405" y="720"/>
  <use xlink:href="#N_v2" x="360" y="765"/>
  <use xlink:href="#N_v2" x="630" y="765"/>
  <use xlink:href="#N_v2" x="765" y="765"/>
  <use xlink:href="#N_v2" x="45" y="810"/>
  <use xlink:href="#N_v2" x="315" y="810"/>
  <use xlink:href="#N_v2" x="405" y="810"/>
  <use xlink:href="#N_v2" x="135" y="855"/>
  <use xlink:href="#N_v2" x="270" y="855"/>
  <use xlink:href="#N_v2" x="450" y="855"/>
  <use xlink:href="#N_v2" x="585" y="855"/>
  <use xlink:href="#N_v2" x="720" y="855"/>
  <use xlink:href="#n_v2" x="225" y="900"/>
  <use xlink:href="#N_v2" x="360" y="900"/>
  <use xlink:href="#n_v2" x="495" y="900"/>
  <use xlink:href="#N_v2" x="270" y="945"/>
  <use xlink:href="#N_v2" x="450" y="945"/>
  <use xlink:href="#N_v2" x="765" y="945"/>
  <use xlink:href="#n_v2" x="225" y="990"/>
  <use xlink:href="#N_v2" x="360" y="990"/>
  <use xlink:href="#n_v2" x="495" y="990"/>
  <use xlink:href="#N_v2" x="675" y="990"/>
  <use xlink:href="#N_v2" x="270" y="1035"/>
  <use xlink:href="#N_v2" x="450" y="1035"/>
  <use xlink:href="#N_v2" x="585" y="1035"/>
  <use xlink:href="#N_v2" x="180" y="1080"/>
  <use xlink:href="#N_v2" x="315" y="1080"/>
  <use xlink:href="#N_v2" x="405" y="1080"/>
  <use xlink:href="#K" x="360" y="1125"/>
</svg>