<?xml version="1.0" encoding="UTF-8" standalone="no"?>
<!DOCTYPE svg PUBLIC "-//W3C//DTD SVG 1.1//EN" "http://www.w3.org/Graphics/SVG/1.1/DTD/svg11.dtd">
<svg xmlns:xlink="http://www.w3.org/1999/xlink" version="1.1" viewBox="0 0 1170 855" width="1170" height="855" xmlns="http://www.w3.org/2000/svg">
  <symbol id="_20" width="45" height="45" overflow="visible">
    <rect width="45" height="45" fill="#eee"/>
  </symbol>
  <symbol id="_20_v1" width="45" height="45" overflow="visible">
    <rect width="45" height="45" fill="#ccc"/>
  </symbol>
  <symbol id="P" width="45" height="45" overflow="visible">
    <line x1="22.5" y1="22.5" x2="652.5" y2="652.5" stroke="white" stroke-width="10" stroke-linecap="round"/>
    <line x1="22.5" y1="22.5" x2="-67.5" y2="112.5" stroke="white" stroke-width="10" stroke-linecap="round"/>
  </symbol>
  <symbol id="P_v1" width="45" height="45" overflow="visible">
    <line x1="22.5" y1="22.5" x2="652.5" y2="652.5" stroke="hsl(286,65%,60%)" stroke-width="7" stroke-linecap="round"/>
    <line x1="22.5" y1="22.5" x2="-67.5" y2="112.5" stroke="hsl(286,65%,60%)" stroke-width="7" stroke-linecap="round"/>
  </symbol>
  <symbol id="P_v2" width="45" height="45" overflow="visible">
    <path d="M 22,9 C 19.79,9 18,10.79 18,13 C 18,13.89 18.29,14.71 18.78,15.38 C 16.83,16.5 15.5,18.59 15.5,21 C 15.5,23.03 16.44,24.84 17.91,26.03 C 14.91,27.09 10.5,31.58 10.5,39.5 L 33.5,39.5 C 33.5,31.58 29.09,27.09 26.09,26.03 C 27.56,24.84 28.5,23.03 28.5,21 C 28.5,18.59 27.17,16.5 25.22,15.38 C 25.71,14.71 26,13.89 26,13 C 26,10.79 24.21,9 22,9 z" fill="#000" stroke="#000" fill-rule="nonzero" stroke-width="1.5" stroke-linecap="round" stroke-linejoin="miter" stroke-miterlimit="4"/>
  </symbol>
  <symbol id="B" width="45" height="45" overflow="visible">
    <line x1="22.5" y1="22.5" x2="-427.5" y2="472.5" stroke="white" stroke-width="10" stroke-linecap="round"/>
  </symbol>
  <symbol id="B_v1" width="45" height="45" overflow="visible">
    <line x1="22.5" y1="22.5" x2="-427.5" y2="472.5" stroke="hsl(286,65%,60%)" stroke-width="7" stroke-linecap="round"/>
  </symbol>
  <symbol id="B_v2" width="45" height="45" overflow="visible">
    <g fill-rule="evenodd" stroke-width="1.5" stroke-linecap="round" stroke-linejoin="miter" stroke-miterlimit="4">
      <path fill="hsl(286,65%,60%)" stroke="#000" stroke-linecap="butt" d="M 9,36 C 12.39,35.03 19.11,36.43 22.5,34 C 25.89,36.43 32.61,35.03 36,36 C 36,36 37.65,36.54 39,38 C 38.32,38.97 37.35,38.99 36,38.5 C 32.61,37.53 25.89,38.96 22.5,37.5 C 19.11,38.96 12.39,37.53 9,38.5 C 7.646,38.99 6.677,38.97 6,38 C 7.354,36.06 9,36 9,36 z M 15,32 C 17.5,34.5 27.5,34.5 30,32 C 30.5,30.5 30,30 30,30 C 30,27.5 27.5,26 27.5,26 C 33,24.5 33.5,14.5 22.5,10.5 C 11.5,14.5 12,24.5 17.5,26 C 17.5,26 15,27.5 15,30 C 15,30 14.5,30.5 15,32 z M 25 8 A 2.5 2.5 0 1 1  20,8 A 2.5 2.5 0 1 1  25 8 z"/>
      <path d="M 17.5,26 L 27.5,26 M 15,30 L 30,30 M 22.5,15.5 L 22.5,20.5 M 20,18 L 25,18" fill="none" stroke="#000" stroke-linejoin="miter"/>
    </g>
  </symbol>
  <symbol id="P_v3" width="45" height="45" overflow="visible">
    <line x1="22.5" y1="22.5" x2="112.5" y2="112.5" stroke="white" stroke-width="10" stroke-linecap="round"/>
  </symbol>
  <symbol id="P_v4" width="45" height="45" overflow="visible">
    <line x1="22.5" y1="22.5" x2="112.5" y2="112.5" stroke="hsl(286,65%,60%)" stroke-width="7" stroke-linecap="round"/>
  </symbol>
  <symbol id="P_v5" width="45" height="45" overflow="visible">
    <line x1="22.5" y1="22.5" x2="202.5" y2="202.5" stroke="white" stroke-width="10" stroke-linecap="round"/>
  </symbol>
  <symbol id="P_v6" width="45" height="45" overflow="visible">
    <line x1="22.5" y1="22.5" x2="202.5" y2="202.5" stroke="hsl(286,65%,60%)" stroke-width="7" stroke-linecap="round"/>
  </symbol>
  <symbol id="P_v7" width="45" height="45" overflow="visible">
    <line x1="22.5" y1="22.5" x2="292.5" y2="292.5" stroke="white" stroke-width="10" stroke-linecap="round"/>
    <line x1="22.5" y1="22.5" x2="-157.5" y2="202.5" stroke="white" stroke-width="10" stroke-linecap="round"/>
  </symbol>
  <symbol id="P_v8" width="45" height="45" overflow="visible">
    <line x1="22.5" y1="22.5" x2="292.5" y2="292.5" stroke="hsl(286,65%,60%)" stroke-width="7" stroke-linecap="round"/>
    <line x1="22.5" y1="22.5" x2="-157.5" y2="202.5" stroke="hsl(286,65%,60%)" stroke-width="7" stroke-linecap="round"/>
  </symbol>
  <symbol id="P_v9" width="45" height="45" overflow="visible">
    <line x1="22.5" y1="22.5" x2="292.5" y2="292.5" stroke="white" stroke-width="10" stroke-linecap="round"/>
    <line x1="22.5" y1="22.5" x2="-270" y2="315" stroke="white" stroke-width="10" stroke-linecap="round"/>
  </symbol>
  <symbol id="P_v10" width="45" height="45" overflow="visible">
    <line x1="22.5" y1="22.5" x2="292.5" y2="292.5" stroke="hsl(286,65%,60%)" stroke-width="7" stroke-linecap="round"/>
    <line x1="22.5" y1="22.5" x2="-270" y2="315" stroke="hsl(286,65%,60%)" stroke-width="7" stroke-linecap="round"/>
  </symbol>
  <symbol id="P_v11" width="45" height="45" overflow="visible">
    <line x1="22.5" y1="22.5" x2="202.5" y2="202.5" stroke="white" stroke-width="10" stroke-linecap="round"/>
    <line x1="22.5" y1="22.5" x2="-270" y2="315" stroke="white" stroke-width="10" stroke-linecap="round"/>
  </symbol>
  <symbol id="P_v12" width="45" height="45" overflow="visible">
    <line x1="22.5" y1="22.5" x2="202.5" y2="202.5" stroke="hsl(286,65%,60%)" stroke-width="7" stroke-linecap="round"/>
    <line x1="22.5" y1="22.5" x2="-270" y2="315" stroke="hsl(286,65%,60%)" stroke-width="7" stroke-linecap="round"/>
  </symbol>
  <symbol id="P_v13" width="45" height="45" overflow="visible">
    <line x1="22.5" y1="22.5" x2="-67.5" y2="112.5" stroke="white" stroke-width="10" stroke-linecap="round"/>
  </symbol>
  <symbol id="P_v14" width="45" height="45" overflow="visible">
    <line x1="22.5" y1="22.5" x2="-67.5" y2="112.5" stroke="hsl(286,65%,60%)" stroke-width="7" stroke-linecap="round"/>
  </symbol>
  <use xlink:href="#_20" x="0" y="0"/>
  <use xlink:href="#_20_v1" x="45" y="0"/>
  <use xlink:href="#_20" x="90" y="0"/>
  <use xlink:href="#_20_v1" x="135" y="0"/>
  <use xlink:href="#_20" x="180" y="0"/>
  <use xlink:href="#_20_v1" x="225" y="0"/>
  <use xlink:href="#_20" x="270" y="0"/>
  <use xlink:href="#_20_v1" x="315" y="0"/>
  <use xlink:href="#_20" x="360" y="0"/>
  <use xlink:href="#_20_v1" x="405" y="0"/>
  <use xlink:href="#_20" x="450" y="0"/>
  <use xlink:href="#_20_v1" x="495" y="0"/>
  <use xlink:href="#_20" x="540" y="0"/>
  <use xlink:href="#_20_v1" x="585" y="0"/>
  <use xlink:href="#_20" x="630" y="0"/>
  <use xlink:href="#_20_v1" x="675" y="0"/>
  <use xlink:href="#_20" x="720" y="0"/>
  <use xlink:href="#_20_v1" x="765" y="0"/>
  <use xlink:href="#_20" x="810" y="0"/>
  <use xlink:href="#_20_v1" x="855" y="0"/>
  <use xlink:href="#_20" x="900" y="0"/>
  <use xlink:href="#_20_v1" x="945" y="0"/>
  <use xlink:href="#_20" x="990" y="0"/>
  <use xlink:href="#_20_v1" x="1035" y="0"/>
  <use xlink:href="#_20" x="1080" y="0"/>
  <use xlink:href="#_20_v1" x="1125" y="0"/>
  <use xlink:href="#_20_v1" x="0" y="45"/>
  <use xlink:href="#_20" x="45" y="45"/>
  <use xlink:href="#_20_v1" x="90" y="45"/>
  <use xlink:href="#_20" x="135" y="45"/>
  <use xlink:href="#_20_v1" x="180" y="45"/>
  <use xlink:href="#_20" x="225" y="45"/>
  <use xlink:href="#_20_v1" x="270" y="45"/>
  <use xlink:href="#_20" x="315" y="45"/>
  <use xlink:href="#_20_v1" x="360" y="45"/>
  <use xlink:href="#_20" x="405" y="45"/>
  <use xlink:href="#_20_v1" x="450" y="45"/>
  <use xlink:href="#_20" x="495" y="45"/>
  <use xlink:href="#_20_v1" x="540" y="45"/>
  <use xlink:href="#_20" x="585" y="45"/>
  <use xlink:href="#_20_v1" x="630" y="45"/>
  <use xlink:href="#_20" x="675" y="45"/>
  <use xlink:href="#_20_v1" x="720" y="45"/>
  <use xlink:href="#_20" x="765" y="45"/>
  <use xlink:href="#_20_v1" x="810" y="45"/>
  <use xlink:href="#_20" x="855" y="45"/>
  <use xlink:href="#_20_v1" x="900" y="45"/>
  <use xlink:href="#_20" x="945" y="45"/>
  <use xlink:href="#_20_v1" x="990" y="45"/>
  <use xlink:href="#_20" x="1035" y="45"/>
  <use xlink:href="#_20_v1" x="1080" y="45"/>
  <use xlink:href="#_20" x="1125" y="45"/>
  <use xlink:href="#_20" x="0" y="90"/>
  <use xlink:href="#_20_v1" x="45" y="90"/>
  <use xlink:href="#_20" x="90" y="90"/>
  <use xlink:href="#_20_v1" x="135" y="90"/>
  <use xlink:href="#_20" x="180" y="90"/>
  <use xlink:href="#_20_v1" x="225" y="90"/>
  <use xlink:href="#_20" x="270" y="90"/>
  <use xlink:href="#_20_v1" x="315" y="90"/>
  <use xlink:href="#_20" x="360" y="90"/>
  <use xlink:href="#_20_v1" x="405" y="90"/>
  <use xlink:href="#_20" x="450" y="90"/>
  <use xlink:href="#_20_v1" x="495" y="90"/>
  <use xlink:href="#_20" x="540" y="90"/>
  <use xlink:href="#_20_v1" x="585" y="90"/>
  <use xlink:href="#_20" x="630" y="90"/>
  <use xlink:href="#_20_v1" x="675" y="90"/>
  <use xlink:href="#_20" x="720" y="90"/>
  <use xlink:href="#_20_v1" x="765" y="90"/>
  <use xlink:href="#_20" x="810" y="90"/>
  <use xlink:href="#_20_v1" x="855" y="90"/>
  <use xlink:href="#_20" x="900" y="90"/>
  <use xlink:href="#_20_v1" x="945" y="90"/>
  <use xlink:href="#_20" x="990" y="90"/>
  <use xlink:href="#_20_v1" x="1035" y="90"/>
  <use xlink:href="#_20" x="1080" y="90"/>
  <use xlink:href="#_20_v1" x="1125" y="90"/>
  <use xlink:href="#_20_v1" x="0" y="135"/>
  <use xlink:href="#_20" x="45" y="135"/>
  <use xlink:href="#_20_v1" x="90" y="135"/>
  <use xlink:href="#_20" x="135" y="135"/>
  <use xlink:href="#_20_v1" x="180" y="135"/>
  <use xlink:href="#_20" x="225" y="135"/>
  <use xlink:href="#_20_v1" x="270" y="135"/>
  <use xlink:href="#_20" x="315" y="135"/>
  <use xlink:href="#_20_v1" x="360" y="135"/>
  <use xlink:href="#_20" x="405" y="135"/>
  <use xlink:href="#_20_v1" x="450" y="135"/>
  <use xlink:href="#_20" x="495" y="135"/>
  <use xlink:href="#_20_v1" x="540" y="135"/>
  <use xlink:href="#_20" x="585" y="135"/>
  <use xlink:href="#_20_v1" x="630" y="135"/>
  <use xlink:href="#_20" x="675" y="135"/>
  <use xlink:href="#_20_v1" x="720" y="135"/>
  <use xlink:href="#_20" x="765" y="135"/>
  <use xlink:href="#_20_v1" x="810" y="135"/>
  <use xlink:href="#_20" x="855" y="135"/>
  <use xlink:href="#_20_v1" x="900" y="135"/>
  <use xlink:href="#_20" x="945" y="135"/>
  <use xlink:href="#_20_v1" x="990" y="135"/>
  <use xlink:href="#_20" x="1035" y="135"/>
  <use xlink:href="#_20_v1" x="1080" y="135"/>
  <use xlink:href="#_20" x="1125" y="135"/>
  <use xlink:href="#_20" x="0" y="180"/>
  <use xlink:href="#_20_v1" x="45" y="180"/>
  <use xlink:href="#_20" x="90" y="180"/>
  <use xlink:href="#_20_v1" x="135" y="180"/>
  <use xlink:href="#_20" x="180" y="180"/>
  <use xlink:href="#_20_v1" x="225" y="180"/>
  <use xlink:href="#_20" x="270" y="180"/>
  <use xlink:href="#_20_v1" x="315" y="180"/>
  <use xlink:href="#_20" x="360" y="180"/>
  <use xlink:href="#_20_v1" x="405" y="180"/>
  <use xlink:href="#_20" x="450" y="180"/>
  <use xlink:href="#_20_v1" x="495" y="180"/>
  <use xlink:href="#_20" x="540" y="180"/>
  <use xlink:href="#_20_v1" x="585" y="180"/>
  <use xlink:href="#_20" x="630" y="180"/>
  <use xlink:href="#_20_v1" x="675" y="180"/>
  <use xlink:href="#_20" x="720" y="180"/>
  <use xlink:href="#_20_v1" x="765" y="180"/>
  <use xlink:href="#_20" x="810" y="180"/>
  <use xlink:href="#_20_v1" x="855" y="180"/>
  <use xlink:href="#_20" x="900" y="180"/>
  <use xlink:href="#_20_v1" x="945" y="180"/>
  <use xlink:href="#_20" x="990" y="180"/>
  <use xlink:href="#_20_v1" x="1035" y="180"/>
  <use xlink:href="#_20" x="1080" y="180"/>
  <use xlink:href="#_20_v1" x="1125" y="180"/>
  <use xlink:href="#_20_v1" x="0" y="225"/>
  <use xlink:href="#_20" x="45" y="225"/>
  <use xlink:href="#_20_v1" x="90" y="225"/>
  <use xlink:href="#_20" x="135" y="225"/>
  <use xlink:href="#_20_v1" x="180" y="225"/>
  <use xlink:href="#_20" x="225" y="225"/>
  <use xlink:href="#_20_v1" x="270" y="225"/>
  <use xlink:href="#_20" x="315" y="225"/>
  <use xlink:href="#_20_v1" x="360" y="225"/>
  <use xlink:href="#_20" x="405" y="225"/>
  <use xlink:href="#_20_v1" x="450" y="225"/>
  <use xlink:href="#_20" x="495" y="225"/>
  <use xlink:href="#_20_v1" x="540" y="225"/>
  <use xlink:href="#_20" x="585" y="225"/>
  <use xlink:href="#_20_v1" x="630" y="225"/>
  <use xlink:href="#_20" x="675" y="225"/>
  <use xlink:href="#_20_v1" x="720" y="225"/>
  <use xlink:href="#_20" x="765" y="225"/>
  <use xlink:href="#_20_v1" x="810" y="225"/>
  <use xlink:href="#_20" x="855" y="225"/>
  <use xlink:href="#_20_v1" x="900" y="225"/>
  <use xlink:href="#_20" x="945" y="225"/>
  <use xlink:href="#_20_v1" x="990" y="225"/>
  <use xlink:href="#_20" x="1035" y="225"/>
  <use xlink:href="#_20_v1" x="1080" y="225"/>
  <use xlink:href="#_20" x="1125" y="225"/>
  <use xlink:href="#_20" x="0" y="270"/>
  <use xlink:href="#_20_v1" x="45" y="270"/>
  <use xlink:href="#_20" x="90" y="270"/>
  <use xlink:href="#_20_v1" x="135" y="270"/>
  <use xlink:href="#_20" x="180" y="270"/>
  <use xlink:href="#_20_v1" x="225" y="270"/>
  <use xlink:href="#_20" x="270" y="270"/>
  <use xlink:href="#_20_v1" x="315" y="270"/>
  <use xlink:href="#_20" x="360" y="270"/>
  <use xlink:href="#_20_v1" x="405" y="270"/>
  <use xlink:href="#_20" x="450" y="270"/>
  <use xlink:href="#_20_v1" x="495" y="270"/>
  <use xlink:href="#_20" x="540" y="270"/>
  <use xlink:href="#_20_v1" x="585" y="270"/>
  <use xlink:href="#_20" x="630" y="270"/>
  <use xlink:href="#_20_v1" x="675" y="270"/>
  <use xlink:href="#_20" x="720" y="270"/>
  <use xlink:href="#_20_v1" x="765" y="270"/>
  <use xlink:href="#_20" x="810" y="270"/>
  <use xlink:href="#_20_v1" x="855" y="270"/>
  <use xlink:href="#_20" x="900" y="270"/>
  <use xlink:href="#_20_v1" x="945" y="270"/>
  <use xlink:href="#_20" x="990" y="270"/>
  <use xlink:href="#_20_v1" x="1035" y="270"/>
  <use xlink:href="#_20" x="1080" y="270"/>
  <use xlink:href="#_20_v1" x="1125" y="270"/>
  <use xlink:href="#_20_v1" x="0" y="315"/>
  <use xlink:href="#_20" x="45" y="315"/>
  <use xlink:href="#_20_v1" x="90" y="315"/>
  <use xlink:href="#_20" x="135" y="315"/>
  <use xlink:href="#_20_v1" x="180" y="315"/>
  <use xlink:href="#_20" x="225" y="315"/>
  <use xlink:href="#_20_v1" x="270" y="315"/>
  <use xlink:href="#_20" x="315" y="315"/>
  <use xlink:href="#_20_v1" x="360" y="315"/>
  <use xlink:href="#_20" x="405" y="315"/>
  <use xlink:href="#_20_v1" x="450" y="315"/>
  <use xlink:href="#_20" x="495" y="315"/>
  <use xlink:href="#_20_v1" x="540" y="315"/>
  <use xlink:href="#_20" x="585" y="315"/>
  <use xlink:href="#_20_v1" x="630" y="315"/>
  <use xlink:href="#_20" x="675" y="315"/>
  <use xlink:href="#_20_v1" x="720" y="315"/>
  <use xlink:href="#_20" x="765" y="315"/>
  <use xlink:href="#_20_v1" x="810" y="315"/>
  <use xlink:href="#_20" x="855" y="315"/>
  <use xlink:href="#_20_v1" x="900" y="315"/>
  <use xlink:href="#_20" x="945" y="315"/>
  <use xlink:href="#_20_v1" x="990" y="315"/>
  <use xlink:href="#_20" x="1035" y="315"/>
  <use xlink:href="#_20_v1" x="1080" y="315"/>
  <use xlink:href="#_20" x="1125" y="315"/>
  <use xlink:href="#_20" x="0" y="360"/>
  <use xlink:href="#_20_v1" x="45" y="360"/>
  <use xlink:href="#_20" x="90" y="360"/>
  <use xlink:href="#_20_v1" x="135" y="360"/>
  <use xlink:href="#_20" x="180" y="360"/>
  <use xlink:href="#_20_v1" x="225" y="360"/>
  <use xlink:href="#_20" x="270" y="360"/>
  <use xlink:href="#_20_v1" x="315" y="360"/>
  <use xlink:href="#_20" x="360" y="360"/>
  <use xlink:href="#_20_v1" x="405" y="360"/>
  <use xlink:href="#_20" x="450" y="360"/>
  <use xlink:href="#_20_v1" x="495" y="360"/>
  <use xlink:href="#_20" x="540" y="360"/>
  <use xlink:href="#_20_v1" x="585" y="360"/>
  <use xlink:href="#_20" x="630" y="360"/>
  <use xlink:href="#_20_v1" x="675" y="360"/>
  <use xlink:href="#_20" x="720" y="360"/>
  <use xlink:href="#_20_v1" x="765" y="360"/>
  <use xlink:href="#_20" x="810" y="360"/>
  <use xlink:href="#_20_v1" x="855" y="360"/>
  <use xlink:href="#_20" x="900" y="360"/>
  <use xlink:href="#_20_v1" x="945" y="360"/>
  <use xlink:href="#_20" x="990" y="360"/>
  <use xlink:href="#_20_v1" x="1035" y="360"/>
  <use xlink:href="#_20" x="1080" y="360"/>
  <use xlink:href="#_20_v1" x="1125" y="360"/>
  <use xlink:href="#_20_v1" x="0" y="405"/>
  <use xlink:href="#_20" x="45" y="405"/>
  <use xlink:href="#_20_v1" x="90" y="405"/>
  <use xlink:href="#_20" x="135" y="405"/>
  <use xlink:href="#_20_v1" x="180" y="405"/>
  <use xlink:href="#_20" x="225" y="405"/>
  <use xlink:href="#_20_v1" x="270" y="405"/>
  <use xlink:href="#_20" x="315" y="405"/>
  <use xlink:href="#_20_v1" x="360" y="405"/>
  <use xlink:href="#_20" x="405" y="405"/>
  <use xlink:href="#_20_v1" x="450" y="405"/>
  <use xlink:href="#_20" x="495" y="405"/>
  <use xlink:href="#_20_v1" x="540" y="405"/>
  <use xlink:href="#_20" x="585" y="405"/>
  <use xlink:href="#_20_v1" x="630" y="405"/>
  <use xlink:href="#_20" x="675" y="405"/>
  <use xlink:href="#_20_v1" x="720" y="405"/>
  <use xlink:href="#_20" x="765" y="405"/>
  <use xlink:href="#_20_v1" x="810" y="405"/>
  <use xlink:href="#_20" x="855" y="405"/>
  <use xlink:href="#_20_v1" x="900" y="405"/>
  <use xlink:href="#_20" x="945" y="405"/>
  <use xlink:href="#_20_v1" x="990" y="405"/>
  <use xlink:href="#_20" x="1035" y="405"/>
  <use xlink:href="#_20_v1" x="1080" y="405"/>
  <use xlink:href="#_20" x="1125" y="405"/>
  <use xlink:href="#_20" x="0" y="450"/>
  <use xlink:href="#_20_v1" x="45" y="450"/>
  <use xlink:href="#_20" x="90" y="450"/>
  <use xlink:href="#_20_v1" x="135" y="450"/>
  <use xlink:href="#_20" x="180" y="450"/>
  <use xlink:href="#_20_v1" x="225" y="450"/>
  <use xlink:href="#_20" x="270" y="450"/>
  <use xlink:href="#_20_v1" x="315" y="450"/>
  <use xlink:href="#_20" x="360" y="450"/>
  <use xlink:href="#_20_v1" x="405" y="450"/>
  <use xlink:href="#_20" x="450" y="450"/>
  <use xlink:href="#_20_v1" x="495" y="450"/>
  <use xlink:href="#_20" x="540" y="450"/>
  <use xlink:href="#_20_v1" x="585" y="450"/>
  <use xlink:href="#_20" x="630" y="450"/>
  <use xlink:href="#_20_v1" x="675" y="450"/>
  <use xlink:href="#_20" x="720" y="450"/>
  <use xlink:href="#_20_v1" x="765" y="450"/>
  <use xlink:href="#_20" x="810" y="450"/>
  <use xlink:href="#_20_v1" x="855" y="450"/>
  <use xlink:href="#_20" x="900" y="450"/>
  <use xlink:href="#_20_v1" x="945" y="450"/>
  <use xlink:href="#_20" x="990" y="450"/>
  <use xlink:href="#_20_v1" x="1035" y="450"/>
  <use xlink:href="#_20" x="1080" y="450"/>
  <use xlink:href="#_20_v1" x="1125" y="450"/>
  <use xlink:href="#_20_v1" x="0" y="495"/>
  <use xlink:href="#_20" x="45" y="495"/>
  <use xlink:href="#_20_v1" x="90" y="495"/>
  <use xlink:href="#_20" x="135" y="495"/>
  <use xlink:href="#_20_v1" x="180" y="495"/>
  <use xlink:href="#_20" x="225" y="495"/>
  <use xlink:href="#_20_v1" x="270" y="495"/>
  <use xlink:href="#_20" x="315" y="495"/>
  <use xlink:href="#_20_v1" x="360" y="495"/>
  <use xlink:href="#_20" x="405" y="495"/>
  <use xlink:href="#_20_v1" x="450" y="495"/>
  <use xlink:href="#_20" x="495" y="495"/>
  <use xlink:href="#_20_v1" x="540" y="495"/>
  <use xlink:href="#_20" x="585" y="495"/>
  <use xlink:href="#_20_v1" x="630" y="495"/>
  <use xlink:href="#_20" x="675" y="495"/>
  <use xlink:href="#_20_v1" x="720" y="495"/>
  <use xlink:href="#_20" x="765" y="495"/>
  <use xlink:href="#_20_v1" x="810" y="495"/>
  <use xlink:href="#_20" x="855" y="495"/>
  <use xlink:href="#_20_v1" x="900" y="495"/>
  <use xlink:href="#_20" x="945" y="495"/>
  <use xlink:href="#_20_v1" x="990" y="495"/>
  <use xlink:href="#_20" x="1035" y="495"/>
  <use xlink:href="#_20_v1" x="1080" y="495"/>
  <use xlink:href="#_20" x="1125" y="495"/>
  <use xlink:href="#_20" x="0" y="540"/>
  <use xlink:href="#_20_v1" x="45" y="540"/>
  <use xlink:href="#_20" x="90" y="540"/>
  <use xlink:href="#_20_v1" x="135" y="540"/>
  <use xlink:href="#_20" x="180" y="540"/>
  <use xlink:href="#_20_v1" x="225" y="540"/>
  <use xlink:href="#_20" x="270" y="540"/>
  <use xlink:href="#_20_v1" x="315" y="540"/>
  <use xlink:href="#_20" x="360" y="540"/>
  <use xlink:href="#_20_v1" x="405" y="540"/>
  <use xlink:href="#_20" x="450" y="540"/>
  <use xlink:href="#_20_v1" x="495" y="540"/>
  <use xlink:href="#_20" x="540" y="540"/>
  <use xlink:href="#_20_v1" x="585" y="540"/>
  <use xlink:href="#_20" x="630" y="540"/>
  <use xlink:href="#_20_v1" x="675" y="540"/>
  <use xlink:href="#_20" x="720" y="540"/>
  <use xlink:href="#_20_v1" x="765" y="540"/>
  <use xlink:href="#_20" x="810" y="540"/>
  <use xlink:href="#_20_v1" x="855" y="540"/>
  <use xlink:href="#_20" x="900" y="540"/>
  <use xlink:href="#_20_v1" x="945" y="540"/>
  <use xlink:href="#_20" x="990" y="540"/>
  <use xlink:href="#_20_v1" x="1035" y="540"/>
  <use xlink:href="#_20" x="1080" y="540"/>
  <use xlink:href="#_20_v1" x="1125" y="540"/>
  <use xlink:href="#_20_v1" x="0" y="585"/>
  <use xlink:href="#_20" x="45" y="585"/>
  <use xlink:href="#_20_v1" x="90" y="585"/>
  <use xlink:href="#_20" x="135" y="585"/>
  <use xlink:href="#_20_v1" x="180" y="585"/>
  <use xlink:href="#_20" x="225" y="585"/>
  <use xlink:href="#_20_v1" x="270" y="585"/>
  <use xlink:href="#_20" x="315" y="585"/>
  <use xlink:href="#_20_v1" x="360" y="585"/>
  <use xlink:href="#_20" x="405" y="585"/>
  <use xlink:href="#_20_v1" x="450" y="585"/>
  <use xlink:href="#_20" x="495" y="585"/>
  <use xlink:href="#_20_v1" x="540" y="585"/>
  <use xlink:href="#_20" x="585" y="585"/>
  <use xlink:href="#_20_v1" x="630" y="585"/>
  <use xlink:href="#_20" x="675" y="585"/>
  <use xlink:href="#_20_v1" x="720" y="585"/>
  <use xlink:href="#_20" x="765" y="585"/>
  <use xlink:href="#_20_v1" x="810" y="585"/>
  <use xlink:href="#_20" x="855" y="585"/>
  <use xlink:href="#_20_v1" x="900" y="585"/>
  <use xlink:href="#_20" x="945" y="585"/>
  <use xlink:href="#_20_v1" x="990" y="585"/>
  <use xlink:href="#_20" x="1035" y="585"/>
  <use xlink:href="#_20_v1" x="1080" y="585"/>
  <use xlink:href="#_20" x="1125" y="585"/>
  <use xlink:href="#_20" x="0" y="630"/>
  <use xlink:href="#_20_v1" x="45" y="630"/>
  <use xlink:href="#_20" x="90" y="630"/>
  <use xlink:href="#_20_v1" x="135" y="630"/>
  <use xlink:href="#_20" x="180" y="630"/>
  <use xlink:href="#_20_v1" x="225" y="630"/>
  <use xlink:href="#_20" x="270" y="630"/>
  <use xlink:href="#_20_v1" x="315" y="630"/>
  <use xlink:href="#_20" x="360" y="630"/>
  <use xlink:href="#_20_v1" x="405" y="630"/>
  <use xlink:href="#_20" x="450" y="630"/>
  <use xlink:href="#_20_v1" x="495" y="630"/>
  <use xlink:href="#_20" x="540" y="630"/>
  <use xlink:href="#_20_v1" x="585" y="630"/>
  <use xlink:href="#_20" x="630" y="630"/>
  <use xlink:href="#_20_v1" x="675" y="630"/>
  <use xlink:href="#_20" x="720" y="630"/>
  <use xlink:href="#_20_v1" x="765" y="630"/>
  <use xlink:href="#_20" x="810" y="630"/>
  <use xlink:href="#_20_v1" x="855" y="630"/>
  <use xlink:href="#_20" x="900" y="630"/>
  <use xlink:href="#_20_v1" x="945" y="630"/>
  <use xlink:href="#_20" x="990" y="630"/>
  <use xlink:href="#_20_v1" x="1035" y="630"/>
  <use xlink:href="#_20" x="1080" y="630"/>
  <use xlink:href="#_20_v1" x="1125" y="630"/>
  <use xlink:href="#_20_v1" x="0" y="675"/>
  <use xlink:href="#_20" x="45" y="675"/>
  <use xlink:href="#_20_v1" x="90" y="675"/>
  <use xlink:href="#_20" x="135" y="675"/>
  <use xlink:href="#_20_v1" x="180" y="675"/>
  <use xlink:href="#_20" x="225" y="675"/>
  <use xlink:href="#_20_v1" x="270" y="675"/>
  <use xlink:href="#_20" x="315" y="675"/>
  <use xlink:href="#_20_v1" x="360" y="675"/>
  <use xlink:href="#_20" x="405" y="675"/>
  <use xlink:href="#_20_v1" x="450" y="675"/>
  <use xlink:href="#_20" x="495" y="675"/>
  <use xlink:href="#_20_v1" x="540" y="675"/>
  <use xlink:href="#_20" x="585" y="675"/>
  <use xlink:href="#_20_v1" x="630" y="675"/>
  <use xlink:href="#_20" x="675" y="675"/>
  <use xlink:href="#_20_v1" x="720" y="675"/>
  <use xlink:href="#_20" x="765" y="675"/>
  <use xlink:href="#_20_v1" x="810" y="675"/>
  <use xlink:href="#_20" x="855" y="675"/>
  <use xlink:href="#_20_v1" x="900" y="675"/>
  <use xlink:href="#_20" x="945" y="675"/>
  <use xlink:href="#_20_v1" x="990" y="675"/>
  <use xlink:href="#_20" x="1035" y="675"/>
  <use xlink:href="#_20_v1" x="1080" y="675"/>
  <use xlink:href="#_20" x="1125" y="675"/>
  <use xlink:href="#_20" x="0" y="720"/>
  <use xlink:href="#_20_v1" x="45" y="720"/>
  <use xlink:href="#_20" x="90" y="720"/>
  <use xlink:href="#_20_v1" x="135" y="720"/>
  <use xlink:href="#_20" x="180" y="720"/>
  <use xlink:href="#_20_v1" x="225" y="720"/>
  <use xlink:href="#_20" x="270" y="720"/>
  <use xlink:href="#_20_v1" x="315" y="720"/>
  <use xlink:href="#_20" x="360" y="720"/>
  <use xlink:href="#_20_v1" x="405" y="720"/>
  <use xlink:href="#_20" x="450" y="720"/>
  <use xlink:href="#_20_v1" x="495" y="720"/>
  <use xlink:href="#_20" x="540" y="720"/>
  <use xlink:href="#_20_v1" x="585" y="720"/>
  <use xlink:href="#_20" x="630" y="720"/>
  <use xlink:href="#_20_v1" x="675" y="720"/>
  <use xlink:href="#_20" x="720" y="720"/>
  <use xlink:href="#_20_v1" x="765" y="720"/>
  <use xlink:href="#_20" x="810" y="720"/>
  <use xlink:href="#_20_v1" x="855" y="720"/>
  <use xlink:href="#_20" x="900" y="720"/>
  <use xlink:href="#_20_v1" x="945" y="720"/>
  <use xlink:href="#_20" x="990" y="720"/>
  <use xlink:href="#_20_v1" x="1035" y="720"/>
  <use xlink:href="#_20" x="1080" y="720"/>
  <use xlink:href="#_20_v1" x="1125" y="720"/>
  <use xlink:href="#_20_v1" x="0" y="765"/>
  <use xlink:href="#_20" x="45" y="765"/>
  <use xlink:href="#_20_v1" x="90" y="765"/>
  <use xlink:href="#_20" x="135" y="765"/>
  <use xlink:href="#_20_v1" x="180" y="765"/>
  <use xlink:href="#_20" x="225" y="765"/>
  <use xlink:href="#_20_v1" x="270" y="765"/>
  <use xlink:href="#_20" x="315" y="765"/>
  <use xlink:href="#_20_v1" x="360" y="765"/>
  <use xlink:href="#_20" x="405" y="765"/>
  <use xlink:href="#_20_v1" x="450" y="765"/>
  <use xlink:href="#_20" x="495" y="765"/>
  <use xlink:href="#_20_v1" x="540" y="765"/>
  <use xlink:href="#_20" x="585" y="765"/>
  <use xlink:href="#_20_v1" x="630" y="765"/>
  <use xlink:href="#_20" x="675" y="765"/>
  <use xlink:href="#_20_v1" x="720" y="765"/>
  <use xlink:href="#_20" x="765" y="765"/>
  <use xlink:href="#_20_v1" x="810" y="765"/>
  <use xlink:href="#_20" x="855" y="765"/>
  <use xlink:href="#_20_v1" x="900" y="765"/>
  <use xlink:href="#_20" x="945" y="765"/>
  <use xlink:href="#_20_v1" x="990" y="765"/>
  <use xlink:href="#_20" x="1035" y="765"/>
  <use xlink:href="#_20_v1" x="1080" y="765"/>
  <use xlink:href="#_20" x="1125" y="765"/>
  <use xlink:href="#_20" x="0" y="810"/>
  <use xlink:href="#_20_v1" x="45" y="810"/>
  <use xlink:href="#_20" x="90" y="810"/>
  <use xlink:href="#_20_v1" x="135" y="810"/>
  <use xlink:href="#_20" x="180" y="810"/>
  <use xlink:href="#_20_v1" x="225" y="810"/>
  <use xlink:href="#_20" x="270" y="810"/>
  <use xlink:href="#_20_v1" x="315" y="810"/>
  <use xlink:href="#_20" x="360" y="810"/>
  <use xlink:href="#_20_v1" x="405" y="810"/>
  <use xlink:href="#_20" x="450" y="810"/>
  <use xlink:href="#_20_v1" x="495" y="810"/>
  <use xlink:href="#_20" x="540" y="810"/>
  <use xlink:href="#_20_v1" x="585" y="810"/>
  <use xlink:href="#_20" x="630" y="810"/>
  <use xlink:href="#_20_v1" x="675" y="810"/>
  <use xlink:href="#_20" x="720" y="810"/>
  <use xlink:href="#_20_v1" x="765" y="810"/>
  <use xlink:href="#_20" x="810" y="810"/>
  <use xlink:href="#_20_v1" x="855" y="810"/>
  <use xlink:href="#_20" x="900" y="810"/>
  <use xlink:href="#_20_v1" x="945" y="810"/>
  <use xlink:href="#_20" x="990" y="810"/>
  <use xlink:href="#_20_v1" x="1035" y="810"/>
  <use xlink:href="#_20" x="1080" y="810"/>
  <use xlink:href="#_20_v1" x="1125" y="810"/>
  <use xlink:href="#P" x="405" y="0"/>
  <use xlink:href="#B" x="765" y="0"/>
  <use xlink:href="#B" x="1125" y="0"/>
  <use xlink:href="#P" x="135" y="90"/>
  <use xlink:href="#P_v3" x="315" y="90"/>
  <use xlink:href="#P_v5" x="45" y="180"/>
  <use xlink:href="#P_v7" x="405" y="180"/>
  <use xlink:href="#P_v3" x="225" y="360"/>
  <use xlink:href="#P_v3" x="315" y="450"/>
  <use xlink:href="#P_v3" x="675" y="450"/>
  <use xlink:href="#P_v9" x="405" y="540"/>
  <use xlink:href="#P_v11" x="765" y="540"/>
  <use xlink:href="#P_v13" x="1035" y="630"/>
  <use xlink:href="#P_v13" x="765" y="720"/>
  <use xlink:href="#P_v1" x="405" y="0"/>
  <use xlink:href="#B_v1" x="765" y="0"/>
  <use xlink:href="#B_v1" x="1125" y="0"/>
  <use xlink:href="#P_v1" x="135" y="90"/>
  <use xlink:href="#P_v4" x="315" y="90"/>
  <use xlink:href="#P_v6" x="45" y="180"/>
  <use xlink:href="#P_v8" x="405" y="180"/>
  <use xlink:href="#P_v4" x="225" y="360"/>
  <use xlink:href="#P_v4" x="315" y="450"/>
  <use xlink:href="#P_v4" x="675" y="450"/>
  <use xlink:href="#P_v10" x="405" y="540"/>
  <use xlink:href="#P_v12" x="765" y="540"/>
  <use xlink:href="#P_v14" x="1035" y="630"/>
  <use xlink:href="#P_v14" x="765" y="720"/>
  <use xlink:href="#P_v2" x="405" y="0"/>
  <use xlink:href="#B_v2" x="765" y="0"/>
  <use xlink:href="#P_v2" x="1125" y="0"/>
  <use xlink:href="#P_v2" x="135" y="90"/>
  <use xlink:href="#P_v2" x="315" y="90"/>
  <use xlink:href="#P_v2" x="45" y="180"/>
  <use xlink:href="#P_v2" x="405" y="180"/>
  <use xlink:href="#P_v2" x="225" y="360"/>
  <use xlink:href="#P_v2" x="315" y="450"/>
  <use xlink:href="#P_v2" x="675" y="450"/>
  <use xlink:href="#P_v2" x="405" y="540"/>
  <use xlink:href="#P_v2" x="765" y="540"/>
  <use xlink:href="#P_v2" x="1035" y="630"/>
  <use xlink:href="#P_v2" x="765" y="720"/>
  <use xlink:href="#P_v2" x="945" y="720"/>
  <use xlink:href="#P_v2" x="675" y="810"/>
</svg>