<?xml version="1.0" encoding="UTF-8" standalone="no"?>
<!DOCTYPE svg PUBLIC "-//W3C//DTD SVG 1.1//EN" "http://www.w3.org/Graphics/SVG/1.1/DTD/svg11.dtd">
<svg xmlns:xlink="http://www.w3.org/1999/xlink" version="1.1" viewBox="0 0 405 315" width="405" height="315" xmlns="http://www.w3.org/2000/svg">
  <symbol id="_20" width="45" height="45" overflow="visible">
    <rect width="45" height="45" fill="#eee"/>
  </symbol>
  <symbol id="_20_v1" width="45" height="45" overflow="visible">
    <rect width="45" height="45" fill="#ccc"/>
  </symbol>
  <symbol id="K" width="45" height="45" overflow="visible">
    <line x1="22.5" y1="22.5" x2="-22.5" y2="112.5" stroke="white" stroke-width="10" stroke-linecap="round"/>
    <line x1="22.5" y1="22.5" x2="112.5" y2="67.5" stroke="white" stroke-width="10" stroke-linecap="round"/>
  </symbol>
  <symbol id="K_v1" width="45" height="45" overflow="visible">
    <line x1="22.5" y1="22.5" x2="-22.5" y2="112.5" stroke="hsl(286,65%,60%)" stroke-width="7" stroke-linecap="round"/>
    <line x1="22.5" y1="22.5" x2="112.5" y2="67.5" stroke="hsl(286,65%,60%)" stroke-width="7" stroke-linecap="round"/>
  </symbol>
  <symbol id="K_v2" width="45" height="45" overflow="visible">
    <g fill-rule="evenodd" stroke-width="1.5" stroke-linecap="round" stroke-linejoin="miter" stroke-miterlimit="4">
      <path d="M 22.5,11.63 L 22.5,6 M 20,8 L 25,8" fill="none" stroke="#000" stroke-linejoin="miter"/>
      <path d="M 22.5,25 C 22.5,25 27,17.5 25.5,14.5 C 25.5,14.5 24.5,12 22.5,12 C 20.5,12 19.5,14.5 19.5,14.5 C 18,17.5 22.5,25 22.5,25" fill="#000" stroke="#000" stroke-linecap="butt" stroke-linejoin="miter"/>
      <path d="M 11.5,37 C 17,40.5 27,40.5 32.5,37 L 32.5,30 C 32.5,30 41.5,25.5 38.5,19.5 C 34.5,13 25,16 22.5,23.5 L 22.5,27 L 22.5,23.5 C 19,16 9.5,13 6.5,19.5 C 3.5,25.5 11.5,29.5 11.5,29.5 L 11.5,37 z" fill="#000" stroke="#000"/>
      <path d="M 32,29.5 C 32,29.5 40.5,25.5 38.03,19.85 C 34.15,14 25,18 22.5,24.5 L 22.51,26.6 L 22.5,24.5 C 20,18 9.906,14 6.997,19.85 C 4.5,25.5 11.85,28.85 11.85,28.85" fill="none" stroke="#fff"/>
      <path d="M 11.5,30 C 17,27 27,27 32.5,30 M 11.5,33.5 C 17,30.5 27,30.5 32.5,33.5 M 11.5,37 C 17,34 27,34 32.5,37" fill="none" stroke="#fff"/>
    </g>
  </symbol>
  <symbol id="K_v3" width="45" height="45" overflow="visible">
    <line x1="22.5" y1="22.5" x2="-22.5" y2="112.5" stroke="white" stroke-width="10" stroke-linecap="round"/>
  </symbol>
  <symbol id="K_v4" width="45" height="45" overflow="visible">
    <line x1="22.5" y1="22.5" x2="-22.5" y2="112.5" stroke="hsl(286,65%,60%)" stroke-width="7" stroke-linecap="round"/>
  </symbol>
  <symbol id="K_v5" width="45" height="45" overflow="visible">
    <line x1="22.5" y1="22.5" x2="112.5" y2="67.5" stroke="white" stroke-width="10" stroke-linecap="round"/>
  </symbol>
  <symbol id="K_v6" width="45" height="45" overflow="visible">
    <line x1="22.5" y1="22.5" x2="112.5" y2="67.5" stroke="hsl(286,65%,60%)" stroke-width="7" stroke-linecap="round"/>
  </symbol>
  <symbol id="N" width="45" height="45" overflow="visible">
    <g fill-rule="evenodd" stroke-width="1.5" stroke-linecap="round" stroke-linejoin="miter" stroke-miterlimit="4">
      <path d="M 22,10 C 32.5,11 38.5,18 38,39 L 15,39 C 15,30 25,32.5 23,18" fill="hsl(286,65%,60%)" stroke="#000"/>
      <path d="M 24,18 C 24.38,20.91 18.45,25.37 16,27 C 13,29 13.18,31.34 11,31 C 9.958,30.06 12.41,27.96 11,28 C 10,28 11.19,29.23 10,30 C 9,30 5.997,31 6,26 C 6,24 12,14 12,14 C 12,14 13.89,12.1 14,10.5 C 13.27,9.506 13.5,8.5 13.5,7.5 C 14.5,6.5 16.5,10 16.5,10 L 18.5,10 C 18.5,10 19.28,8.008 21,7 C 22,7 22,10 22,10" fill="hsl(286,65%,60%)" stroke="#000"/>
      <path d="M 9.5 25.5 A 0.5 0.5 0 1 1 8.5,25.5 A 0.5 0.5 0 1 1 9.5 25.5 z" fill="#000" stroke="#000"/>
      <path d="M 15 15.5 A 0.5 1.5 0 1 1  14,15.5 A 0.5 1.5 0 1 1  15 15.5 z" transform="matrix(0.866,0.5,-0.5,0.866,9.693,-5.173)" fill="#000" stroke="#000"/>
    </g>
  </symbol>
  <use xlink:href="#_20" x="0" y="0"/>
  <use xlink:href="#_20_v1" x="45" y="0"/>
  <use xlink:href="#_20" x="90" y="0"/>
  <use xlink:href="#_20_v1" x="135" y="0"/>
  <use xlink:href="#_20" x="180" y="0"/>
  <use xlink:href="#_20_v1" x="225" y="0"/>
  <use xlink:href="#_20" x="270" y="0"/>
  <use xlink:href="#_20_v1" x="315" y="0"/>
  <use xlink:href="#_20" x="360" y="0"/>
  <use xlink:href="#_20_v1" x="0" y="45"/>
  <use xlink:href="#_20" x="45" y="45"/>
  <use xlink:href="#_20_v1" x="90" y="45"/>
  <use xlink:href="#_20" x="135" y="45"/>
  <use xlink:href="#_20_v1" x="180" y="45"/>
  <use xlink:href="#_20" x="225" y="45"/>
  <use xlink:href="#_20_v1" x="270" y="45"/>
  <use xlink:href="#_20" x="315" y="45"/>
  <use xlink:href="#_20_v1" x="360" y="45"/>
  <use xlink:href="#_20" x="0" y="90"/>
  <use xlink:href="#_20_v1" x="45" y="90"/>
  <use xlink:href="#_20" x="90" y="90"/>
  <use xlink:href="#_20_v1" x="135" y="90"/>
  <use xlink:href="#_20" x="180" y="90"/>
  <use xlink:href="#_20_v1" x="225" y="90"/>
  <use xlink:href="#_20" x="270" y="90"/>
  <use xlink:href="#_20_v1" x="315" y="90"/>
  <use xlink:href="#_20" x="360" y="90"/>
  <use xlink:href="#_20_v1" x="0" y="135"/>
  <use xlink:href="#_20" x="45" y="135"/>
  <use xlink:href="#_20_v1" x="90" y="135"/>
  <use xlink:href="#_20" x="135" y="135"/>
  <use xlink:href="#_20_v1" x="180" y="135"/>
  <use xlink:href="#_20" x="225" y="135"/>
  <use xlink:href="#_20_v1" x="270" y="135"/>
  <use xlink:href="#_20" x="315" y="135"/>
  <use xlink:href="#_20_v1" x="360" y="135"/>
  <use xlink:href="#_20" x="0" y="180"/>
  <use xlink:href="#_20_v1" x="45" y="180"/>
  <use xlink:href="#_20" x="90" y="180"/>
  <use xlink:href="#_20_v1" x="135" y="180"/>
  <use xlink:href="#_20" x="180" y="180"/>
  <use xlink:href="#_20_v1" x="225" y="180"/>
  <use xlink:href="#_20" x="270" y="180"/>
  <use xlink:href="#_20_v1" x="315" y="180"/>
  <use xlink:href="#_20" x="360" y="180"/>
  <use xlink:href="#_20_v1" x="0" y="225"/>
  <use xlink:href="#_20" x="45" y="225"/>
  <use xlink:href="#_20_v1" x="90" y="225"/>
  <use xlink:href="#_20" x="135" y="225"/>
  <use xlink:href="#_20_v1" x="180" y="225"/>
  <use xlink:href="#_20" x="225" y="225"/>
  <use xlink:href="#_20_v1" x="270" y="225"/>
  <use xlink:href="#_20" x="315" y="225"/>
  <use xlink:href="#_20_v1" x="360" y="225"/>
  <use xlink:href="#_20" x="0" y="270"/>
  <use xlink:href="#_20_v1" x="45" y="270"/>
  <use xlink:href="#_20" x="90" y="270"/>
  <use xlink:href="#_20_v1" x="135" y="270"/>
  <use xlink:href="#_20" x="180" y="270"/>
  <use xlink:href="#_20_v1" x="225" y="270"/>
  <use xlink:href="#_20" x="270" y="270"/>
  <use xlink:href="#_20_v1" x="315" y="270"/>
  <use xlink:href="#_20" x="360" y="270"/>
  <use xlink:href="#K" x="180" y="0"/>
  <use xlink:href="#K" x="45" y="45"/>
  <use xlink:href="#K" x="270" y="45"/>
  <use xlink:href="#K" x="135" y="90"/>
  <use xlink:href="#K_v3" x="360" y="90"/>
  <use xlink:href="#K_v5" x="0" y="135"/>
  <use xlink:href="#K" x="225" y="135"/>
  <use xlink:href="#K_v5" x="90" y="180"/>
  <use xlink:href="#K_v3" x="315" y="180"/>
  <use xlink:href="#K_v5" x="180" y="225"/>
  <use xlink:href="#K_v1" x="180" y="0"/>
  <use xlink:href="#K_v1" x="45" y="45"/>
  <use xlink:href="#K_v1" x="270" y="45"/>
  <use xlink:href="#K_v1" x="135" y="90"/>
  <use xlink:href="#K_v4" x="360" y="90"/>
  <use xlink:href="#K_v6" x="0" y="135"/>
  <use xlink:href="#K_v1" x="225" y="135"/>
  <use xlink:href="#K_v6" x="90" y="180"/>
  <use xlink:href="#K_v4" x="315" y="180"/>
  <use xlink:href="#K_v6" x="180" y="225"/>
  <use xlink:href="#K_v2" x="180" y="0"/>
  <use xlink:href="#K_v2" x="45" y="45"/>
  <use xlink:href="#K_v2" x="270" y="45"/>
  <use xlink:href="#K_v2" x="135" y="90"/>
  <use xlink:href="#K_v2" x="360" y="90"/>
  <use xlink:href="#K_v2" x="0" y="135"/>
  <use xlink:href="#K_v2" x="225" y="135"/>
  <use xlink:href="#K_v2" x="90" y="180"/>
  <use xlink:href="#K_v2" x="315" y="180"/>
  <use xlink:href="#K_v2" x="180" y="225"/>
  <use xlink:href="#N" x="270" y="270"/>
</svg>